<svg xmlns="http://www.w3.org/2000/svg" width="684.437" height="31.094" viewBox="0 0 684.437 31.094">
  <defs>
    <style>
      .cls-1 {
        fill: #fff;
        fill-rule: evenodd;
      }
    </style>
  </defs>
  <path id="hd_skill_md.svg" class="cls-1" d="M240.61,47.877a15.1,15.1,0,0,0,2.119-.478,8.773,8.773,0,0,0,1.573-.718,2.419,2.419,0,0,1,1.4-.308,2.828,2.828,0,0,1,1.231.41,1.6,1.6,0,0,1,.683.718,0.591,0.591,0,0,1-.034.649,1.5,1.5,0,0,1-.786.752,9.249,9.249,0,0,0-2.461,1.641,12.412,12.412,0,0,1-2.94,1.948,10.566,10.566,0,0,0-3.315,2.461,0.339,0.339,0,0,1-.239.137,0.709,0.709,0,0,1,.1-0.342,6.31,6.31,0,0,1,1.128-1.572q0.684-.649,1.743-1.47a1.436,1.436,0,0,0,.65-0.684,1.57,1.57,0,0,0-.65-0.855q-0.786-.649-1.709-1.572-1.059-1.059-.034-0.855a2.718,2.718,0,0,0,1.538.137h0Zm5.913,16.1a16.167,16.167,0,0,0-1.367-1.88,2.556,2.556,0,0,1-.683-0.957,1.316,1.316,0,0,1,.991-0.171,6.426,6.426,0,0,1,1.709.273,4.512,4.512,0,0,1,1.572,1.23,6.948,6.948,0,0,1,1.162,1.675,9.26,9.26,0,0,1,.65,2.256,13.682,13.682,0,0,1,.068,3.076q-0.171,1.674-.889,1.06a4.9,4.9,0,0,1-.923-1.059,10.993,10.993,0,0,1-1.059-2.461,16.731,16.731,0,0,0-3.794.82,17.609,17.609,0,0,0-4.273,1.982,4.126,4.126,0,0,1-2.187,1.025q-1.264,0-2.222-1.777-0.889-1.641.171-1.982a2.054,2.054,0,0,0,.615-0.41,65.815,65.815,0,0,0,5.64-7.383q-4.239,1.367-5.605,1.982a0.816,0.816,0,0,1-1.163-.479,20.255,20.255,0,0,1-.991-1.982q-0.377-.923.274-0.82a12.058,12.058,0,0,0,3.213-.273q1.367-.341,5.81-1.88a30.42,30.42,0,0,1,5.913-1.675,1.3,1.3,0,0,1,.786.171,1.861,1.861,0,0,1,.684.889,2.1,2.1,0,0,1,.239.889,0.767,0.767,0,0,1-.547.41q-2.6.752-4.648,1.47a44.842,44.842,0,0,0-5.093,6.631,3.561,3.561,0,0,0-.957,1.777q0.137,0.308,1.3-.205a11.435,11.435,0,0,1,3.213-1.128A10.954,10.954,0,0,1,247,64.9q-0.24-.513-0.479-0.923h0Zm-18.149-6.118a4.461,4.461,0,0,0,.684.513,3.449,3.449,0,0,1,1.128,2.051,0.61,0.61,0,0,0,.273.41,25.249,25.249,0,0,0,1.572-3.452q0.034-.239.171-0.205c0.091,0.023.125,0.114,0.1,0.273q-0.82,3.863-.923,5.093-0.548,7.383-.991,9.878a0.541,0.541,0,0,1-.376.513,0.6,0.6,0,0,1-.308-0.171,10.749,10.749,0,0,1-1.23-1.983,2.355,2.355,0,0,1-.24-0.889q0.035-.479.171-1.4a57.456,57.456,0,0,0,.65-6.05,5.318,5.318,0,0,0-.479-2.6q-0.409-.751-0.718-1.367-0.273.274-.478,0.513a22.949,22.949,0,0,1-2.222,2.051q-0.478.342-.615,0.1a1.589,1.589,0,0,1-.171-1.23,21.413,21.413,0,0,1,.615-2.461q0.513-1.572,1.162-1.606a1.091,1.091,0,0,0,.65-0.444,17.258,17.258,0,0,0,1.88-2.8q0.819-1.572,2.085-4.751a2.81,2.81,0,0,0,.239-1.06,0.808,0.808,0,0,0-.342-0.547,0.4,0.4,0,0,1-.273-0.478,1.687,1.687,0,0,1,.922-0.171,3.017,3.017,0,0,1,1.539.308,5.911,5.911,0,0,1,1.162.718,1.358,1.358,0,0,1,.581.649,1.963,1.963,0,0,1-.342,1.025,30.7,30.7,0,0,0-1.709,3.11,39.456,39.456,0,0,1-2.427,4.17q-0.922,1.265-1.743,2.29h0Zm40.141,3.862a0.743,0.743,0,0,0,.512-0.513,65.3,65.3,0,0,0,3.555-6.9,0.3,0.3,0,0,1,.273-0.239q0.137,0.069.035,0.41-1.47,4.512-2.53,6.973a57.265,57.265,0,0,0-3.007,8.784,4.07,4.07,0,0,1-.582,1.64,0.7,0.7,0,0,1-.546.273,1.49,1.49,0,0,1-.718-0.786,5.172,5.172,0,0,1-.615-2.085,1.083,1.083,0,0,1,.376-0.991,3.19,3.19,0,0,0,.752-1.367,22.965,22.965,0,0,0,.957-3.726,1.209,1.209,0,0,0-.035-1.025,0.386,0.386,0,0,0-.478-0.1,1.1,1.1,0,0,0-.684.444,6.785,6.785,0,0,1-1.162,1.025,0.858,0.858,0,0,1-.615.308,1.214,1.214,0,0,1-.513-0.957,6.158,6.158,0,0,1-.307-1.811,0.7,0.7,0,0,1,.376-0.684,5.548,5.548,0,0,0,1.162-.923A7.746,7.746,0,0,0,266.4,56.8a1.421,1.421,0,0,0,.24-1.025,0.548,0.548,0,0,0-.274-0.205,0.681,0.681,0,0,0-.478.205,6.093,6.093,0,0,1-1.983.889,2.381,2.381,0,0,1-.683.171,0.7,0.7,0,0,1-.308-0.547,7.46,7.46,0,0,1-.41-2.222,0.722,0.722,0,0,1,.478-0.786,11.241,11.241,0,0,0,3.213-2.119,8.767,8.767,0,0,0,1.949-2.871,4.321,4.321,0,0,0,.547-1.88,1.532,1.532,0,0,0-.171-0.889q-0.138-.171,0-0.273,0.067-.136.41,0.1a9.224,9.224,0,0,1,2.085,1.709,3.3,3.3,0,0,1,.888,1.572,3,3,0,0,1-.1.991,0.833,0.833,0,0,1-.615.581,3.182,3.182,0,0,0-1.265.649,13.848,13.848,0,0,0-1.709,1.743,0.777,0.777,0,0,0-.239.547,0.217,0.217,0,0,0,.171.171,1.39,1.39,0,0,1,1.025.649,3.8,3.8,0,0,1,.41,1.777,2.571,2.571,0,0,1-.307,1.47q-0.787,1.162-1.607,2.324a1.178,1.178,0,0,0-.307.718,0.684,0.684,0,0,0,.478.342,0.612,0.612,0,0,1,.41.581q0.069,0.547.274,0.547h0Zm9.228-1.812a5.179,5.179,0,0,1,.923.547,1.037,1.037,0,0,1,.479.513,1.006,1.006,0,0,1-.24.786,22.937,22.937,0,0,0-1.264,2.427,33.048,33.048,0,0,1-1.846,3.247,23.689,23.689,0,0,1-2.051,2.7,14.616,14.616,0,0,1-1.709,1.606,0.4,0.4,0,0,1-.478.068,1.229,1.229,0,0,1-.171-0.991q0.17-.82.512-2.051,0.376-1.3.923-1.333a0.688,0.688,0,0,0,.479-0.342,11.746,11.746,0,0,0,1.333-2.119,31.586,31.586,0,0,0,1.469-3.589,2.264,2.264,0,0,0,.137-0.82,0.44,0.44,0,0,0-.068-0.171,2.9,2.9,0,0,1-.718.137,2.207,2.207,0,0,1-1.846-1.572q-0.717-1.436.2-1.675a1.283,1.283,0,0,0,.513-0.308,38.517,38.517,0,0,0,3.828-4.58,22.9,22.9,0,0,0-2.5,1.265,1.333,1.333,0,0,1-1.435-.444,5.013,5.013,0,0,1-1.709-2.017q-0.616-1.333.1-.82a4.3,4.3,0,0,0,2.256.2,21.259,21.259,0,0,0,2.461-.615q0.751-.991,1.162-1.538a1.667,1.667,0,0,0,.308-1.265,0.254,0.254,0,0,0-.171-0.239A5.113,5.113,0,0,0,277.5,46a4.467,4.467,0,0,0-1.026-.547,0.3,0.3,0,0,1-.341-0.137,0.5,0.5,0,0,1,.273-0.444,2.1,2.1,0,0,1,.82-0.444,4.694,4.694,0,0,1,1.3-.137,5.864,5.864,0,0,1,1.812.376,3.348,3.348,0,0,1,1.333.786,1.216,1.216,0,0,1,.41.889,3.305,3.305,0,0,1-.479,1.538,1.808,1.808,0,0,1-.786.581,3.39,3.39,0,0,0-.923.513,14.565,14.565,0,0,1,1.846-.615,8.738,8.738,0,0,0,1.709-.581,2.553,2.553,0,0,1,1.88-.034,3.643,3.643,0,0,1,1.5,1.333q0.444,0.855-.923.991a21.6,21.6,0,0,0-3.384.615,1.14,1.14,0,0,0-.512.171,34.118,34.118,0,0,0-3.692,4.546,3.62,3.62,0,0,0-.786,1.367q0.067,0.274.991-.137a10.531,10.531,0,0,1,2.461-.889A9.022,9.022,0,0,1,282.6,55.6a13.919,13.919,0,0,1-.581-1.812q-0.308-1.093.649-.547a9.486,9.486,0,0,1,2.9,2.29,4.615,4.615,0,0,1,.513,1.948,1.832,1.832,0,0,1-.273,1.47,0.882,0.882,0,0,1-.855-0.034,3.8,3.8,0,0,1-1.3-1.162,3.436,3.436,0,0,0-.2-0.308,12.01,12.01,0,0,0-2.666.649,14.11,14.11,0,0,0-3.452,1.606,0.03,0.03,0,0,0-.034.034,1.372,1.372,0,0,1,.444.171h0Zm10.459,8.34q0.342-.615.547-1.06a2.887,2.887,0,0,0,.308-1.23,13.177,13.177,0,0,0-.069-2.222,0.2,0.2,0,0,1,.034-0.137c0.046-.045.08-0.034,0.1,0.034a22.824,22.824,0,0,1,1.436,3.623,12.6,12.6,0,0,1,.512,3.145,1.16,1.16,0,0,1-.171.82,1.452,1.452,0,0,1-.717.376,19.434,19.434,0,0,1-3.248.41,28.12,28.12,0,0,1-4.443-.1,3.337,3.337,0,0,1-1.367-.444,4.128,4.128,0,0,1-.889-0.889,3.979,3.979,0,0,1-.547-1.3,4.466,4.466,0,0,1-.1-1.2q0.205-1.469.547-3.657a19.7,19.7,0,0,0,.41-3.35,0.911,0.911,0,0,0-.171-0.684,1.389,1.389,0,0,0-.615-0.547q-0.274-.171.068-0.376a2.426,2.426,0,0,1,1.265-.239,3.284,3.284,0,0,1,1.538.478,2.632,2.632,0,0,1,.957,1.025,0.71,0.71,0,0,1,.1.615,2.053,2.053,0,0,1-.239.547,5.547,5.547,0,0,0-.478,1.06q-0.617,1.777-.821,2.529a13.291,13.291,0,0,0-.341,2.29,1.222,1.222,0,0,0,.82,1.3,5.044,5.044,0,0,0,1.88.41,9.293,9.293,0,0,0,2.392-.308,2.017,2.017,0,0,0,1.3-.923h0Zm27.084-5.776q2.12-.205,4.614-0.205,2.325-.034,4-0.068a4,4,0,0,1,2.8.752,3.921,3.921,0,0,1,.923.991,5.463,5.463,0,0,1,.752,1.743q0.238,0.787-.718.65-0.786-.136-2.734-0.547a22.7,22.7,0,0,0-4.375-.615q-1.881-.068-4.956.137a38.29,38.29,0,0,0-5.059.649,25.681,25.681,0,0,0-3.349.957,12.277,12.277,0,0,0-2.735,1.538,1.156,1.156,0,0,1-1.777-.376A22.418,22.418,0,0,1,301.1,65.89q-0.1-.41.649-0.513a29.467,29.467,0,0,0,4.136-1.025,39.574,39.574,0,0,1,4.341-1.162,2.358,2.358,0,0,1,.683-0.1,3.764,3.764,0,0,0,1.162-1.572,24.785,24.785,0,0,0,1.06-4.409,5.093,5.093,0,0,0-.034-2.222,2.323,2.323,0,0,1-.24-0.649q-0.922.171-1.845,0.376a1.774,1.774,0,0,1-1.265-.205,3.788,3.788,0,0,1-1.128-1.128,3.476,3.476,0,0,1-.581-1.641,1.093,1.093,0,0,1,.513-1.06q0.581-.376.478,0.068a0.6,0.6,0,0,0,.2.684,3.07,3.07,0,0,0,1.47.034,19.63,19.63,0,0,0,3.315-.923,16.726,16.726,0,0,0,3.487-1.777,1.424,1.424,0,0,1,1.709-.137,6.552,6.552,0,0,1,1.162,1.094,8.6,8.6,0,0,1,.82,1.094,0.555,0.555,0,0,1-.239.855,5.583,5.583,0,0,1-1.4.444,8.154,8.154,0,0,0-2.564.752q-0.991.445-1.709,0.752A2.873,2.873,0,0,1,316,54.2a1.757,1.757,0,0,1,.444,1.094,6.156,6.156,0,0,1-.171.957q-0.137.582-.376,1.846a33.442,33.442,0,0,1-.786,3.281,0.945,0.945,0,0,0,.171,1.094h0Zm43.559-10.459a15.448,15.448,0,0,1-1.778,3.145c-0.159.183-.319,0.376-0.478,0.581a0.54,0.54,0,0,1,.2.137,1.665,1.665,0,0,1,.547.786,0.591,0.591,0,0,1-.1.649,1.7,1.7,0,0,1-1.059.581,14.341,14.341,0,0,0-3.213,1.06,14.3,14.3,0,0,1-3.895,1.265,11.367,11.367,0,0,0-4.411,1.675,0.32,0.32,0,0,1-.239.068q-0.069-.068.171-0.307a6.361,6.361,0,0,1,1.811-1.3,21.047,21.047,0,0,1,2.427-.991,1.67,1.67,0,0,0,1-.513,1.057,1.057,0,0,0-.415-0.786,11.346,11.346,0,0,1-1.1-1.47q-0.684-.991.069-0.684a3.764,3.764,0,0,0,1.273.376,1.028,1.028,0,0,0-.1-0.137,2.645,2.645,0,0,1-.449-1.06,6.769,6.769,0,0,1-.242-1.5,19.659,19.659,0,0,1-3.213,1.367,0.993,0.993,0,0,1-1.093-.581,13.934,13.934,0,0,1-.889-2.017,0.983,0.983,0,0,1,.068-0.923,1.033,1.033,0,0,1,.581-0.068,5.427,5.427,0,0,0,2.119-.068,13.509,13.509,0,0,1,2.5-.513V50.235a3.031,3.031,0,0,0-.65-1.162q-0.615-.82-1.162-1.47a0.827,0.827,0,0,1-.171-0.786,1.144,1.144,0,0,1,1.128-.239,15.24,15.24,0,0,1,1.914.513,2.853,2.853,0,0,1,1.333.889,3.228,3.228,0,0,1,.479,1.333v1.094a25.988,25.988,0,0,0,2.666-.615,16.237,16.237,0,0,0,2.426-.854h0.035q0.273-1.367.478-2.94,0.206-1.23-.342-1.47a0.494,0.494,0,0,0-.615.068c-0.183.2-.273,0.16-0.273-0.137a1.016,1.016,0,0,1,.273-0.786,1.789,1.789,0,0,1,.752-0.444,2.132,2.132,0,0,1,1.367.137,5.611,5.611,0,0,1,.923.513,1.91,1.91,0,0,1,.752,1.025,7.594,7.594,0,0,1-.239,2.905,1.8,1.8,0,0,0-.1.376,4.9,4.9,0,0,1,1.026-.1,2.135,2.135,0,0,1,1.743,1.128,2.018,2.018,0,0,1,.547,1.3,0.65,0.65,0,0,1-.479.274,32.924,32.924,0,0,1-3.725.718h0a1.655,1.655,0,0,0-.171.513h0Zm-4.307,3.315a1.351,1.351,0,0,1,.171-0.205,10.936,10.936,0,0,0,1.538-3.555,4.771,4.771,0,0,1-.615-0.2,2.058,2.058,0,0,0-1.231-.1,9.571,9.571,0,0,0-1.3.273,9.907,9.907,0,0,0-1.47.547q-0.205,1.367-.342,3.726c-0.023.137-.046,0.273-0.068,0.41q0.512-.1,1.128-0.205a6.291,6.291,0,0,0,1.743-.547,1.435,1.435,0,0,1,.444-0.137h0Zm-4.853,13.4q0.1,0.377,1.435-.137a14.6,14.6,0,0,1,3.589-1.025,12.233,12.233,0,0,1,2.6-.068q-0.377-.888-0.718-1.914-0.274-.888.478-0.478a14.4,14.4,0,0,1,4.273,3.418,5.836,5.836,0,0,1,.752,2.905,1.176,1.176,0,0,1-.171,1.128,0.726,0.726,0,0,1-.65.034,6.449,6.449,0,0,1-1.948-1.572,9.6,9.6,0,0,1-.854-1.162,17.051,17.051,0,0,0-4.068.513,17.275,17.275,0,0,0-4.648,1.641,4.511,4.511,0,0,1-2.29.889q-1.3-.069-2.153-1.948-0.855-1.709.273-2.017a1.359,1.359,0,0,0,.649-0.342,49.1,49.1,0,0,0,4.512-4.409,1.6,1.6,0,0,0-.547.137,37.907,37.907,0,0,0-5.981,2.119q-0.548.308-1.607-.718a6.117,6.117,0,0,1-1.709-2.5q-0.478-1.572.274-.923,0.923,0.718,3.725.684a27.972,27.972,0,0,0,6.358-1.3,40.665,40.665,0,0,1,5.605-1.435,21.8,21.8,0,0,0,3.008-.786,2.763,2.763,0,0,1,2.119.239,3.605,3.605,0,0,1,1.573,1.709q0.409,0.992-1.163,1.025a33.475,33.475,0,0,0-5.844.376,7.974,7.974,0,0,0-1.47.273,32.92,32.92,0,0,0-4.512,4.409,2.5,2.5,0,0,0-.888,1.23h0Zm30.262-15.859a12.814,12.814,0,0,1-1.333-.41,9.73,9.73,0,0,1-2.221-1.265,1.5,1.5,0,0,1-.581-0.923q0.067-.273.41-0.171a19.855,19.855,0,0,0,2.256.615,21.413,21.413,0,0,0,2.836.171,0.224,0.224,0,0,1,.171,0,9.692,9.692,0,0,1,.923-1.094,25.877,25.877,0,0,1,2.9-2.8,2.628,2.628,0,0,1,1.778-.752,2.586,2.586,0,0,1,1.606.273,5.062,5.062,0,0,1,.821.923,2.767,2.767,0,0,1,.376,1.333,3.126,3.126,0,0,1-.957,1.777,6.426,6.426,0,0,1-1.368,1.128,8.483,8.483,0,0,1-2.461,1.025,13.792,13.792,0,0,1-2.8.239q-0.548.992-1.607,2.974a1.814,1.814,0,0,1,.991.342,5.334,5.334,0,0,1,1.5,1.709,18.732,18.732,0,0,1,.957,2.187,0.921,0.921,0,0,0,.479.752,4.1,4.1,0,0,0,.581-1.23,13.884,13.884,0,0,1,1.846-3.691,6.307,6.307,0,0,1,1.3-1.367,2.329,2.329,0,0,1,1.231-.444,3.3,3.3,0,0,1,1.572.308,2.733,2.733,0,0,1,1.5,1.3,1.2,1.2,0,0,1-.649,1.607q-4.923,3.35-5.777,4-3.862,2.974-4.306,3.828a3.527,3.527,0,0,0-.274,1.675,0.4,0.4,0,0,0,.376.376,6.046,6.046,0,0,0,1.3.308,16.718,16.718,0,0,0,1.914.1q1.093-.034,4.375-0.479a2.278,2.278,0,0,1,1.3.684,1.233,1.233,0,0,1,.581.957q0,0.991-.41,1.025a4.129,4.129,0,0,0-1.47.854q-0.649.273-6.392,1.641a22,22,0,0,0,4.444-2.632,10.577,10.577,0,0,1-2.427.718,10.138,10.138,0,0,1-2.393-.308,8.437,8.437,0,0,1-1.948-.786,4.415,4.415,0,0,1-1.128-1.128,2.36,2.36,0,0,1-.341-1.333,4.45,4.45,0,0,1,.341-1.846,8.776,8.776,0,0,1,2.188-2.358q2.05-1.606,4.238-3.384,4.306-3.076,4.17-3.521a0.507,0.507,0,0,0-.239-0.137,3.532,3.532,0,0,0-.547-0.034,1.859,1.859,0,0,0-1.128.684,12.8,12.8,0,0,0-1.4,2.393q-0.684,1.675-1.094,2.939a6.263,6.263,0,0,0-.376,1.47,5.9,5.9,0,0,1,0,2.222,1.265,1.265,0,0,1-1.094.513,1.783,1.783,0,0,1-1.094-1.059,4.778,4.778,0,0,1-.615-1.675q0-.581-0.1-1.606a7.745,7.745,0,0,0-.411-1.777,1.8,1.8,0,0,0-.888-1.094,4.2,4.2,0,0,0-1.948-.342,5.508,5.508,0,0,1-.992,1.265,1.668,1.668,0,0,1-.854.239,0.854,0.854,0,0,1-.786-0.41,1.689,1.689,0,0,1-.1-1.5,20.7,20.7,0,0,1,2.256-3.691,8.819,8.819,0,0,1,.991-1.3h0Zm4.409-2.5a15.048,15.048,0,0,0,2.6-1.06,1.048,1.048,0,0,0,.615-0.547,0.5,0.5,0,0,0-.239-0.308,0.289,0.289,0,0,0-.239-0.034,2.085,2.085,0,0,0-.923.273,11.823,11.823,0,0,0-1.812,1.675h0Zm22.778,23.037a0.968,0.968,0,0,1-.855-0.581,6.447,6.447,0,0,1-.991-2.222,34.2,34.2,0,0,1-.239-5.64V64.8q-0.957.787-2.017,1.641a0.475,0.475,0,0,1-.683-0.034,2.457,2.457,0,0,1-.616-1.059,4.773,4.773,0,0,1-.136-1.812q0.135-.991.444-0.547a20.554,20.554,0,0,0,2.666-3.247,15,15,0,0,0,.752-1.606c-0.046.046-.057,0.068-0.034,0.068,0-.045.011-0.068,0.034-0.068-0.023-.022-0.023-0.034,0-0.034q0.068-.786.2-1.538-0.478.445-.923,0.889a1.914,1.914,0,0,1-.752.513,3.363,3.363,0,0,1-.581.034,3.7,3.7,0,0,1-1.4-.273,4.853,4.853,0,0,1-1.538-1.812q-0.376-.649.239-0.615a4.256,4.256,0,0,0,1.914-.615,13.9,13.9,0,0,0,2.8-1.777,5,5,0,0,1,.854-0.65,29.955,29.955,0,0,0,.342-3.9,5.7,5.7,0,0,0-.308-2.564,1.373,1.373,0,0,0-.581-0.444c-0.273-.068-0.376-0.182-0.307-0.342a0.913,0.913,0,0,1,.854-0.308,3.563,3.563,0,0,1,1.641.444,7.307,7.307,0,0,1,1.435,1.06,1.677,1.677,0,0,1,.513.855,4.794,4.794,0,0,1-.41,1.811,15.478,15.478,0,0,0-.649,2.222,0.6,0.6,0,0,1,.273-0.068q1.4-.136,1.743.615A1.105,1.105,0,0,1,410.21,53q-1.128.718-2.085,1.47a4.731,4.731,0,0,0-.2,1.162,0.78,0.78,0,0,1,.137.342,2.841,2.841,0,0,1-.376,2.085,0.5,0.5,0,0,0-.137.239,14.133,14.133,0,0,0-.137,1.436,2.77,2.77,0,0,1,.41-0.342,16.194,16.194,0,0,0,1.538-1.538,22.533,22.533,0,0,0,1.88-2.529c0.046-.114.114-0.137,0.2-0.068a0.493,0.493,0,0,1,.069.376q-0.855,2.085-1.3,2.94a17.9,17.9,0,0,1-1.025,1.675,19.558,19.558,0,0,1-1.983,2.427,0.03,0.03,0,0,0-.034.034v0.171a52.142,52.142,0,0,0,.137,8.545q0.17,1.948-.171,1.982h0Zm4.99-7.314a8.051,8.051,0,0,1-1.025-1.88,2.884,2.884,0,0,1-.206-1.914,26.274,26.274,0,0,0,.855-2.8,7.192,7.192,0,0,0,.2-1.948q-0.034-.991,0-1.538,0.035-.581.786,0.137a3.047,3.047,0,0,1,.855,1.265,4.226,4.226,0,0,1,.239,1.4v0.034a6.159,6.159,0,0,1,1.47-1.2,2.239,2.239,0,0,1,.957-0.376,3.081,3.081,0,0,1,.991.547,6.019,6.019,0,0,1,1.5-1.367,2.248,2.248,0,0,0-.41-1.128,0.51,0.51,0,0,0-.137-0.376,6.238,6.238,0,0,0-1.572.615,4.341,4.341,0,0,1-1.162.547q-0.684-.034-0.547-1.3a6.943,6.943,0,0,1,.752-2.529,10.826,10.826,0,0,0,1.025-1.3,10.039,10.039,0,0,1,.684-1.025h-0.069a18.077,18.077,0,0,0-1.743.855,5.8,5.8,0,0,0-1.333,1.094,0.844,0.844,0,0,1-1.333,0,14.007,14.007,0,0,1-1.47-1.333q-0.137-.273.411-0.479a15.876,15.876,0,0,0,2.085-1.025,14.592,14.592,0,0,1,2.187-1.162q1.059-.478,2.324-0.923a28.116,28.116,0,0,1,2.769-.752q1.3-.308,2.153-0.547a4.632,4.632,0,0,1,1.06-.068q0.375,0.1.786,0.239a2.907,2.907,0,0,1,.957.684,4.8,4.8,0,0,1,.923,1.3q0.34,0.615-.479.649-0.478,0-1.538-.034a23.548,23.548,0,0,0-2.427.1,18.251,18.251,0,0,0-2.153.479,3.743,3.743,0,0,0-.718,1.4,4.916,4.916,0,0,1-1.128,1.436,4.329,4.329,0,0,0-1.059,1.4c0.022,0.046.1,0.034,0.239-.034a2.457,2.457,0,0,1,1.2-.273,3.884,3.884,0,0,1,1.641,1.23,2.162,2.162,0,0,1,.444,1.025,4.136,4.136,0,0,1,1.06-.376,5.344,5.344,0,0,1,1.675-.308,2.779,2.779,0,0,1,1.367.444,8.134,8.134,0,0,1,1.538,1.538,4.015,4.015,0,0,1,.205,1.572,4.856,4.856,0,0,1-.684,2.153,0.411,0.411,0,0,1-.068.1c0.159,0.091.308,0.183,0.444,0.273a5.959,5.959,0,0,1,1.778,1.983,2.13,2.13,0,0,1,.239,1.641,0.966,0.966,0,0,1-.718.547,2.153,2.153,0,0,1-.547,0,2.41,2.41,0,0,0-.82-0.068q-0.479.034-2.119,0.034-0.411-.034-0.376-0.171,0-.136.444-0.171a11.442,11.442,0,0,0,1.572-.513,0.88,0.88,0,0,0,.445-0.41,1.381,1.381,0,0,0-.479-0.649q-0.615-.513-1.059-0.855l-0.342.342a5.226,5.226,0,0,1-1.572,1.2,2.541,2.541,0,0,1-1.026.171,2.648,2.648,0,0,1-1.025-.068,2.5,2.5,0,0,0-.308-0.1q-0.035.274-.068,0.581a21.277,21.277,0,0,1-1.094,3.452q1.914-.136,3.9-0.137a32.283,32.283,0,0,0,3.759-.273,2.686,2.686,0,0,1,1.641.137,3.614,3.614,0,0,1,.889.547,3.944,3.944,0,0,1,.752.752,3.458,3.458,0,0,1,.547,1.2,1.22,1.22,0,0,1-.035.786,0.548,0.548,0,0,1-.512.342,7.027,7.027,0,0,1-1.88-.342,39.678,39.678,0,0,0-4.033-.923,24.333,24.333,0,0,0-5.093-.034,16.972,16.972,0,0,0-4.375.786q-1.368.581-3.35,1.436a1.177,1.177,0,0,1-1.128-.1,4.829,4.829,0,0,1-1.162-.957,3.506,3.506,0,0,1-.41-0.991,0.718,0.718,0,0,1,.1-0.786,0.657,0.657,0,0,1,.615-0.1,4.66,4.66,0,0,0,2.221-.342,27.567,27.567,0,0,1,5.879-.889V67.633a11.752,11.752,0,0,0-1.264-1.709,10.7,10.7,0,0,1-1.3-1.641q-0.308-.615.342-0.273a5.255,5.255,0,0,0,1.709.444,1.556,1.556,0,0,0,.991-0.171,4.783,4.783,0,0,0,.615-2.393,25.583,25.583,0,0,0-.034-3.486,6.208,6.208,0,0,0-1.367,1.3,1.426,1.426,0,0,0-.137.273,3.765,3.765,0,0,0-.342,1.367q-0.1.445-.342,1.162a2.563,2.563,0,0,1-.752,1.094,0.723,0.723,0,0,1-.615.137,1.171,1.171,0,0,1-.342-0.684,1.809,1.809,0,0,1,.206-0.855,8.131,8.131,0,0,0,.478-1.675,5.84,5.84,0,0,0,.034-1.025,0.343,0.343,0,0,0-.2-0.273,0.281,0.281,0,0,0-.171.1,5.034,5.034,0,0,0-.991,1.367q-0.444.342-.991,0.684-0.206,1.436-.445,3.9h0q-0.307,1.675-.854.82h0Zm11.724-6.9,0.683,0.273a4.39,4.39,0,0,0,.376-0.718,2.463,2.463,0,0,0,.274-1.2,2.021,2.021,0,0,0-.2-0.649,1.24,1.24,0,0,0-.718-0.171,5.951,5.951,0,0,0-1.47.376,5.729,5.729,0,0,1-1.3.513q-0.307.1-.444,0.137-0.035.513-.068,1.025a1.973,1.973,0,0,1,.717-0.068,8.742,8.742,0,0,1,2.154.478h0Zm-0.957,1.3q-0.89-.444-1.914-0.889-0.069,1.231-.1,2.29a1.031,1.031,0,0,0,.376,0,1.239,1.239,0,0,0,.889-0.137,4.845,4.845,0,0,0,1.025-.718A1.194,1.194,0,0,1,423.4,60.8a5.077,5.077,0,0,0-.512-0.307h0ZM447,64.112a0.989,0.989,0,0,0,.376-0.274,8.794,8.794,0,0,0,1.4-1.777,18.03,18.03,0,0,0,1.265-2.017,12.74,12.74,0,0,1-.752,2.769q-0.89,1.983-1.23,2.632a3.634,3.634,0,0,0-.308.923,0.32,0.32,0,0,1-.308.308,4.293,4.293,0,0,1-1.709-.786,20.225,20.225,0,0,1-1.059,2.188,1.913,1.913,0,0,1-1.265,1.025,7.133,7.133,0,0,1-1.675-.376A6.4,6.4,0,0,1,440.2,67.8a5.107,5.107,0,0,1-.991-1.333,3.034,3.034,0,0,1-.273-1.367,5.972,5.972,0,0,1,.854-3.042,20.82,20.82,0,0,1,1.948-2.905,14.836,14.836,0,0,1-.376-1.948,23.9,23.9,0,0,1-.342-3.76,13.165,13.165,0,0,1,.24-2.119,9.289,9.289,0,0,1,.478-1.675,0.41,0.41,0,0,1,.342-0.308h0.137a2.346,2.346,0,0,1,.273,1.162q0.273,1.915.786,4.58,0.206,1.025.342,1.846l0.513-.513a25.786,25.786,0,0,1,4.17-3.452,15.186,15.186,0,0,0,.444-1.846,17.293,17.293,0,0,0,.444-2.871q0-.957-0.034-1.367l-0.034-.2a1.428,1.428,0,0,0-.649.752,2.169,2.169,0,0,1,.273-1.265,1.807,1.807,0,0,1,.786-0.137,1.6,1.6,0,0,1,.752.1,2.225,2.225,0,0,1,.889,1.641,25.793,25.793,0,0,1-.479,4.067,8.319,8.319,0,0,1,2.906-.684,16.258,16.258,0,0,1,2.8.239,6.614,6.614,0,0,1,2.359,1.094,5.184,5.184,0,0,1,1.743,2.222,9.865,9.865,0,0,1,.684,3.691,19.259,19.259,0,0,1-1.094,5.981,14.468,14.468,0,0,1-2.154,3.9,9.9,9.9,0,0,1-3.349,3.042,5.485,5.485,0,0,1-2.393.615,12.718,12.718,0,0,0,1.47-.991,8.424,8.424,0,0,0,2.393-2.837,16.551,16.551,0,0,0,1.5-4.273,26.794,26.794,0,0,0,.479-5.059,8.991,8.991,0,0,0-.239-2.324,3.828,3.828,0,0,0-.889-1.606,3.7,3.7,0,0,0-1.367-1.128,5.476,5.476,0,0,0-1.948-.376,9.449,9.449,0,0,0-3.623,1.23q-0.513,1.743-1.368,4.033-1.163,3.111-2.016,5.2h0a0.758,0.758,0,0,0,.41.308h0Zm-0.376-5.982q0.342-1.025.684-1.88a9.447,9.447,0,0,0-1.744,1.538,16.954,16.954,0,0,0-1.4,1.5,1.808,1.808,0,0,1,.137.342q0.58,1.4.923,2.153,0.58-1.572,1.4-3.657h0Zm-2.529,6.46a13.462,13.462,0,0,1-1.333-2.324,6.613,6.613,0,0,1-.342-0.718,4.092,4.092,0,0,0-.41.752,6.309,6.309,0,0,0-.889,2.8,1.053,1.053,0,0,0,.479.684,1.8,1.8,0,0,0,.991.376,1.371,1.371,0,0,0,.957-0.615l0.547-.957h0Zm32.587-11.006q-0.616,1.675-1.333,3.828a55.464,55.464,0,0,0-1.538,5.435,38.988,38.988,0,0,0-.992,6.118,2.734,2.734,0,0,1-.307,1.265,5.1,5.1,0,0,0-.581.854,0.932,0.932,0,0,1-.445.444,1.943,1.943,0,0,1-1.333-1.3,3.19,3.19,0,0,1-.136-1.094,22.863,22.863,0,0,1,1.025-5.435,80.83,80.83,0,0,1,3.315-9.194,0.2,0.2,0,0,1,.035-0.137,0.14,0.14,0,0,0-.1.034,15.928,15.928,0,0,1-3.213.718,3.177,3.177,0,0,1-1.47-.547,4.807,4.807,0,0,1-1.2-1.2,1.278,1.278,0,0,1-.239-0.752,0.336,0.336,0,0,1,.342-0.41c0.113,0.023.216,0.046,0.307,0.068a2.125,2.125,0,0,0,1.06.376,12.26,12.26,0,0,0,2.939-.444q1.777-.513,3.042-0.854a24.867,24.867,0,0,1,1.675-2.837,12.741,12.741,0,0,1,2.153-2.461,2.256,2.256,0,0,1,.992-0.273,1.048,1.048,0,0,1,.581.137,3.12,3.12,0,0,1,.478.342q0.273,0.239.684,0.547,0.58,0.445,1.025.855a1.28,1.28,0,0,1,.581.786,2.629,2.629,0,0,1-.957,1.5,12.788,12.788,0,0,1-3.76,2.427q-1.47.684-2.631,1.2h0Zm4.99-5.127a1.632,1.632,0,0,0-.239-0.649q-0.275-.444-0.513-0.889a0.581,0.581,0,0,0-.308-0.273,1.647,1.647,0,0,0-.786.342,9.521,9.521,0,0,0-1.3,2.256,13.237,13.237,0,0,0-.615,1.265,17.47,17.47,0,0,1,1.846-.923,8.2,8.2,0,0,0,1.914-1.128h0Zm-6.631,12.168a26.928,26.928,0,0,1,2.8-2.392,34.407,34.407,0,0,1,3.862-2.529q1.366-.751,2.7-1.367a4.523,4.523,0,0,1,1.3-.376,1.717,1.717,0,0,1,1.2.649,2.226,2.226,0,0,1,.65,1.4,1.473,1.473,0,0,1-.308.82,3.071,3.071,0,0,1-1.094.855,6.913,6.913,0,0,0-1.64,1.333A24.392,24.392,0,0,0,482.835,61a7.3,7.3,0,0,0-1.06,1.914,4.243,4.243,0,0,0-.341,1.436,0.706,0.706,0,0,0,.2.615,3.1,3.1,0,0,0,1.948.718q1.538,0.137,2.187.137a5.058,5.058,0,0,0,.718-0.1c0.364-.022.581-0.034,0.65-0.034a6.063,6.063,0,0,1,2.529.41,1.423,1.423,0,0,1,.991,1.23,1.218,1.218,0,0,1-.684,1.094,3.961,3.961,0,0,1-1.777.376,3.3,3.3,0,0,0-1.4.376q-1.368.751-3.452,1.675a12.944,12.944,0,0,1-2.632.752q0.99-.547,2.051-1.094,1.23-.718,2.392-1.436a0.85,0.85,0,0,0,.445-0.342c0-.137-0.206-0.216-0.616-0.239a12.184,12.184,0,0,1-3.418-.752,2.535,2.535,0,0,1-1.606-1.3,3.237,3.237,0,0,1-.308-1.333A6.256,6.256,0,0,1,480,63.121,8.767,8.767,0,0,1,481.16,60.9q0.684-.854,1.538-1.812a27.856,27.856,0,0,1,2.666-2.427,0.394,0.394,0,0,0,.137-0.273q0-.171-0.342-0.171a5.814,5.814,0,0,0-1.538.205q-1.093.376-2.632,0.991a54.053,54.053,0,0,0-5.947,3.213h0ZM510.876,46.92a17.429,17.429,0,0,0,3.008-.855,16.9,16.9,0,0,1,2.632-.923,10.445,10.445,0,0,0,1.435-.479,2.551,2.551,0,0,1,2.119-.034,4.259,4.259,0,0,1,1.778,1.538q0.512,0.923-1.06,1.128a12.446,12.446,0,0,0-2.734.581,24.741,24.741,0,0,0-2.871,1.094,26.037,26.037,0,0,0-2.7,1.4q-0.546.342-1.606-.513a5.359,5.359,0,0,1-1.948-2.222q-0.615-1.469.136-.923a3.137,3.137,0,0,0,1.812.205h0Zm-3.691,22.969a0.921,0.921,0,0,0,.649-0.034,55.8,55.8,0,0,0,7.144-1.436,15.754,15.754,0,0,1,2.871-.478,46.744,46.744,0,0,1-4.888-5.127,15.551,15.551,0,0,1-.855,3.213q-0.717,1.436-1.23,1.4-0.582-.068-0.82-1.641a5.549,5.549,0,0,1,.136-2.871,14.017,14.017,0,0,0,.718-3.144,5.211,5.211,0,0,0,.1-1.88,5.78,5.78,0,0,0-1.709-1.333q-0.615-.341.1-1.812,0.649-1.3,1.06-1.059l0.068,0.068c0-.022.034-0.034,0.1-0.034a6.85,6.85,0,0,0,2.221-.786,11.057,11.057,0,0,0,2.427-1.743,4.476,4.476,0,0,0,.752-0.82,1.257,1.257,0,0,0,.171-0.923,0.335,0.335,0,0,1,.068-0.376q0.1-.136.445,0.068a7.039,7.039,0,0,1,2.324,1.948,1.5,1.5,0,0,1,.342,1.367,1.257,1.257,0,0,1-.479.649,0.647,0.647,0,0,1-.478.137,1.281,1.281,0,0,0-.684.068,10.93,10.93,0,0,0-1.846.718,22.662,22.662,0,0,1-3.828,1.435l0.41,0.684a3.837,3.837,0,0,1,.718,2.324q0.342-.1.684-0.239,0.853-.308,3.554-1.675a20.983,20.983,0,0,1,3.589-1.538,2.1,2.1,0,0,1,.923.068,2.3,2.3,0,0,1,.889.957,1.806,1.806,0,0,1,.376.991,0.988,0.988,0,0,1-.581.478q-1.983.787-3.452,1.436l0.034,0.034a1.924,1.924,0,0,1,.342.718,3.224,3.224,0,0,1,.034.786,14.059,14.059,0,0,0-.1,1.846q0,1.915.034,4.409a2.716,2.716,0,0,1-.239,1.094,13.222,13.222,0,0,1,1.641-.034,3.524,3.524,0,0,1,2.5,1.572q1.572,2.6-.2,2.29a31.325,31.325,0,0,0-5.366-.649,23.076,23.076,0,0,0-4.649.649q-1.4.308-2.871,0.718a3.53,3.53,0,0,0-1.367.547,1.089,1.089,0,0,1-.581.239,2.483,2.483,0,0,1-.889-0.342,17.594,17.594,0,0,1-1.982-2.051,5.244,5.244,0,0,1-.855-2.563,20.975,20.975,0,0,1-.034-4.512q0.171-3.281.137-10.6a1,1,0,0,1,.957-1.3c0.342,0,.512.114,0.512,0.342a0.638,0.638,0,0,1-.41.342,0.328,0.328,0,0,0,0,.479,6.76,6.76,0,0,0,.992,1.846,3.069,3.069,0,0,1,.341,1.572,8.265,8.265,0,0,1-.171,2.153,27.533,27.533,0,0,0-.649,4.888,24.142,24.142,0,0,0,.376,5.879h0a1.434,1.434,0,0,0,.479.581h0Zm6.562-8.579a0.764,0.764,0,0,1-.615.068v0.137l-0.069.615a13.731,13.731,0,0,0,3.008,1.983,1.469,1.469,0,0,0,1.3.2,1.335,1.335,0,0,0,.068-0.684,37.589,37.589,0,0,0-.444-3.76,28.974,28.974,0,0,0-3.247,1.435h0Zm29.2-3.349a10.371,10.371,0,0,1-2.256,1.743,2.78,2.78,0,0,1-1.23.444A7.366,7.366,0,0,1,537,58.678a1.683,1.683,0,0,1-.513-1.436q0.034-.41.274-0.41h0.273a2.06,2.06,0,0,0,1.2.752,9.823,9.823,0,0,0,1.265-.479q1.4-.615,1.743-0.82a15.153,15.153,0,0,1,3.213-1.743q0.239-.581.376-0.923a10.649,10.649,0,0,0,.786-3.384,3.673,3.673,0,0,0-.1-0.991,0.2,0.2,0,0,0-.1-0.1,0.678,0.678,0,0,0-.41.1,0.516,0.516,0,0,1-.308.137,0.313,0.313,0,0,1-.2-0.376,0.586,0.586,0,0,1,.24-0.444,1.315,1.315,0,0,1,.615-0.273,2.085,2.085,0,0,1,1.367.376,3.305,3.305,0,0,1,1.2,2.153,8.541,8.541,0,0,1-.512,2.427,3.47,3.47,0,0,0-.274.786,5.9,5.9,0,0,1,2.871.513,4.357,4.357,0,0,1,.513.376,0.03,0.03,0,0,1,.034-0.034,0.121,0.121,0,0,1,.137.137,3.68,3.68,0,0,1,1.606,1.743,6.51,6.51,0,0,1,.513,2.256,17.014,17.014,0,0,1-.684,3.794,15.559,15.559,0,0,1-2.016,4.2,7.9,7.9,0,0,1-2.735,2.871,4.806,4.806,0,0,1-2.119.581,1.988,1.988,0,0,1-1.2-.684,12.773,12.773,0,0,1-1.025-1.743,9.388,9.388,0,0,1-.923-2.871,15.31,15.31,0,0,0-1.88,2.769,0.91,0.91,0,0,1-.718.684,2.047,2.047,0,0,1-1.094-.342,0.818,0.818,0,0,1-.444-0.718,1.916,1.916,0,0,1,.273-0.684A48.677,48.677,0,0,0,541.549,61h0q0.751-1.709,1.4-3.042h0Zm0.069,6.016a2.4,2.4,0,0,0-.308.376,5.189,5.189,0,0,0,.478.889,13.452,13.452,0,0,0,1.709,2.085,2.14,2.14,0,0,0,1.026.479,1.869,1.869,0,0,0,1.025-.547,7.423,7.423,0,0,0,1.743-2.358,16.069,16.069,0,0,0,1.3-3.179,11.434,11.434,0,0,0,.513-2.7,4.678,4.678,0,0,0-.308-1.572,2.445,2.445,0,0,0-.752-0.991q-4.237,4.649-6.425,7.52h0Zm1.606-4.648a1.648,1.648,0,0,0-.205.718,0.238,0.238,0,0,0,.273.205A0.6,0.6,0,0,0,545,59.942a18.27,18.27,0,0,1,1.948-2.051q0.719-.718,1.948-1.743a3.915,3.915,0,0,0-1.777-.41c-0.319.023-.559,0.046-0.718,0.068q-0.752,1.675-1.777,3.52h0Zm9.707-6.768a11.073,11.073,0,0,1,1.606-.513,7.784,7.784,0,0,1,1.3-.171,3.942,3.942,0,0,1,1.367.342,9.655,9.655,0,0,1,2.051,1.094,5.421,5.421,0,0,1,1.4,1.5,4.6,4.6,0,0,1,.546,2.256,1.6,1.6,0,0,1-.307.923,0.619,0.619,0,0,1-.547.342,1.324,1.324,0,0,1-.684-0.479,1.481,1.481,0,0,0-.478-0.273,2.436,2.436,0,0,0-.855-0.1q-2.016.069-3.383,0.1,0.751-.308,2.392-0.855a2.712,2.712,0,0,1,.752-0.171q0.444-.068.444-0.205a2.892,2.892,0,0,0-.786-1.23,8.109,8.109,0,0,0-1.333-1.059,6.581,6.581,0,0,0-2.119-.786,8.333,8.333,0,0,0-1.538-.171,0.174,0.174,0,0,1-.171-0.171,0.435,0.435,0,0,1,.342-0.376h0Zm2.188-6.084a6.037,6.037,0,0,0,.717.513,0.994,0.994,0,0,0,.445.205,0.454,0.454,0,0,0,.136-0.205,0.953,0.953,0,0,0,.24-0.444,0.845,0.845,0,0,0,.17-0.308,0.29,0.29,0,0,1,.24-0.171,0.618,0.618,0,0,1,.068.547q-0.034.957-.137,1.709c-0.068.456-.114,0.73-0.136,0.82l-0.069.205a1.441,1.441,0,0,1-.683-0.239,2.584,2.584,0,0,1-.821-0.684,3.536,3.536,0,0,1-.615-1.06,4.168,4.168,0,0,1-.239-0.923q-0.069-.205.171-0.239h0a0.744,0.744,0,0,1,.513.273h0Zm3.178-2.427a4.062,4.062,0,0,1,1.367.308,2.112,2.112,0,0,1,1.128.957,1.708,1.708,0,0,1,.274.786,0.624,0.624,0,0,1-.684.684,1.037,1.037,0,0,1-.376-0.1,1.121,1.121,0,0,1-.615-0.615,7.877,7.877,0,0,0-.889-1.23q-0.751-.786-0.205-0.786h0Zm36.073,3.76a7.707,7.707,0,0,1,2.188,1.948,3.3,3.3,0,0,1,.342,1.607,1.636,1.636,0,0,1-.342,1.3,0.822,0.822,0,0,1-.786-0.068,3.448,3.448,0,0,1-.957-1.025,10.108,10.108,0,0,1-1.094-3.315q-0.171-.991.649-0.444h0ZM584.048,70.128a0.63,0.63,0,0,1-.376.068,0.571,0.571,0,0,1-.171-0.034q0,1.025-.957-0.239a10.94,10.94,0,0,1-1.3-5.264,10.464,10.464,0,0,1,.65-4.717,0.2,0.2,0,0,1,.034-0.137,8.956,8.956,0,0,0-1.162.923,0.779,0.779,0,0,1-1.265-.171,7.557,7.557,0,0,1-.82-0.923q-0.138.377-.274,0.718a51.667,51.667,0,0,0-2.734,8.955,5.321,5.321,0,0,1-.513,1.572,0.588,0.588,0,0,1-.547.308,1.289,1.289,0,0,1-.718-0.752,4.385,4.385,0,0,1-.615-1.948,1.243,1.243,0,0,1,.308-0.991,3.426,3.426,0,0,0,.718-1.333,21.087,21.087,0,0,0,.888-3.623,1.206,1.206,0,0,0-.034-1.025,0.331,0.331,0,0,0-.444-0.1,1.083,1.083,0,0,0-.615.444,7.177,7.177,0,0,1-1.026.957,0.883,0.883,0,0,1-.615.273,1.2,1.2,0,0,1-.479-0.889,6.675,6.675,0,0,1-.273-1.743,0.686,0.686,0,0,1,.342-0.65,4.688,4.688,0,0,0,1.059-.923,8.412,8.412,0,0,0,1.538-2.6,1.39,1.39,0,0,0,.171-0.991,0.432,0.432,0,0,0-.239-0.171,0.5,0.5,0,0,0-.41.205,4.861,4.861,0,0,1-1.812.786,1.508,1.508,0,0,1-.649.171,0.628,0.628,0,0,1-.308-0.478,7.143,7.143,0,0,1-.41-2.187,0.672,0.672,0,0,1,.479-0.718,9.764,9.764,0,0,0,2.939-2.119,7.65,7.65,0,0,0,1.743-2.769,4.238,4.238,0,0,0,.513-1.777,1.447,1.447,0,0,0-.171-0.855,0.207,0.207,0,0,1,0-.273q0.1-.1.41,0.137a7.582,7.582,0,0,1,2.017,1.641,2.606,2.606,0,0,1,.82,1.47,2.5,2.5,0,0,1-.034.923,0.758,0.758,0,0,1-.581.581,2.927,2.927,0,0,0-1.128.684,10.926,10.926,0,0,0-1.538,1.709,0.71,0.71,0,0,0-.205.513,0.217,0.217,0,0,0,.171.171,1.2,1.2,0,0,1,.923.684,3.249,3.249,0,0,1,.307,1.675,2.426,2.426,0,0,1-.239,1.4q-0.719,1.128-1.47,2.256a1.294,1.294,0,0,0-.239.718,0.517,0.517,0,0,0,.376.342,0.614,0.614,0,0,1,.308.547,0.62,0.62,0,0,0,.341.581,0.857,0.857,0,0,0,.479-0.581,76.9,76.9,0,0,0,3.179-7.485,0.3,0.3,0,0,1,.273-0.239,0.407,0.407,0,0,1,.068.376q-0.957,3.179-1.709,5.435,1.264-.376,2.906-1.025a12.12,12.12,0,0,1,2.392-.923q0.889-.82,1.436-1.436a0.743,0.743,0,0,0,.171-0.581c-0.023-.091-0.115-0.091-0.274,0a7.675,7.675,0,0,0-1.538.718,6.218,6.218,0,0,1-1.5.889,0.309,0.309,0,0,1-.239.034,0.374,0.374,0,0,1-.171-0.308,12.633,12.633,0,0,1-.376-1.846,2.574,2.574,0,0,1,.069-0.444,0.342,0.342,0,0,1,.273-0.171,8.707,8.707,0,0,0,1.23-.513q0.478-.2,1.026-0.41a0.41,0.41,0,0,0,.307-0.273,0.289,0.289,0,0,0-.341-0.171,2.924,2.924,0,0,1-1.641-.581,2.347,2.347,0,0,1-.923-0.991,2.03,2.03,0,0,1-.376-0.855,0.2,0.2,0,0,1,0-.171,0.3,0.3,0,0,1,.1-0.308c0.113-.022.182,0,0.205,0.068q0.853-.683,1.777-1.5a9.737,9.737,0,0,0,1.162-1.2,1.46,1.46,0,0,0,.239-0.889,2.654,2.654,0,0,0-1.982-1.025q-0.376-.239-0.034-0.376a6.919,6.919,0,0,1,2.905-.752,2.854,2.854,0,0,1,1.948.889,3.068,3.068,0,0,1,.581,1.2,2.268,2.268,0,0,1-.1,1.2,1.7,1.7,0,0,1-1.231.615,9.081,9.081,0,0,0-2.392.889,24.682,24.682,0,0,1-2.461,1.23,0.2,0.2,0,0,1,.137.034,4.217,4.217,0,0,0,1.4-.034,15.41,15.41,0,0,0,4-1.333,1.647,1.647,0,0,1,.547-0.205,2.353,2.353,0,0,1,.581.273,2.722,2.722,0,0,1,1.094,1.436,0.636,0.636,0,0,1,.068.376,1.152,1.152,0,0,1-.444.205,23.553,23.553,0,0,0-2.6,1.914,0.371,0.371,0,0,0-.171.273,0.135,0.135,0,0,0,.137.1,2.481,2.481,0,0,0,.649-0.171,0.416,0.416,0,0,1,.274-0.068,1.517,1.517,0,0,1,.307.171,8.153,8.153,0,0,1,1.3,1.162,0.419,0.419,0,0,1,.1.239,1.1,1.1,0,0,1-.24.478,7.991,7.991,0,0,1-.888,1.128,1.8,1.8,0,0,1,.41-0.1,20.044,20.044,0,0,1,2.871-.444q-0.1-.718-0.137-1.436-0.273-2.666-.307-4.922a30.445,30.445,0,0,0-.308-3.076,1.706,1.706,0,0,0-.444-1.059,0.4,0.4,0,0,0-.581.137q-0.376.41-.376,0.068a2.166,2.166,0,0,1,.273-0.82,0.82,0.82,0,0,1,.684-0.513,4.008,4.008,0,0,1,1.47.684,4.435,4.435,0,0,1,1.5,1.572,2.121,2.121,0,0,1,.376,1.675,25.545,25.545,0,0,0-.307,2.564,30.229,30.229,0,0,0,.068,4.512,3.12,3.12,0,0,0,.034.444q1.436-.171,2.5-0.308a5.419,5.419,0,0,1,1.573.068q0.273,0.137.615,0.273a2.368,2.368,0,0,1,.718.649,4.513,4.513,0,0,1,.649,1.162q0.171,0.513-.478.478Q598.575,57.14,597,57a24,24,0,0,0-3.145-.171q0.171,1.435.411,2.905,0.169,0.992.307,1.914a2.831,2.831,0,0,1,.239-0.444,4.094,4.094,0,0,0,.411-2.358q-0.1-.683.341-0.786a1.43,1.43,0,0,1,.616.239,2.149,2.149,0,0,1,.717.718,1.64,1.64,0,0,1,.445,1.128,3.256,3.256,0,0,1-.855,2.29q-0.649.855-1.3,1.606c0.023,0.068.046,0.149,0.069,0.239a37.6,37.6,0,0,0,1.367,3.726,1.519,1.519,0,0,0,.444.684,1.072,1.072,0,0,0,.41-0.752,12.484,12.484,0,0,0,.547-3.35c0-.091.035-0.137,0.1-0.137s0.114,0.08.137,0.239a29.019,29.019,0,0,1,.136,4.136,6.935,6.935,0,0,0,.137,2.017,12.83,12.83,0,0,1,.205,2.119,1.153,1.153,0,0,1-.171.718,1.335,1.335,0,0,1-.752-0.41,11.618,11.618,0,0,1-1.709-1.982,22.8,22.8,0,0,1-1.675-3.486,14.94,14.94,0,0,1-.717-2.256,7.384,7.384,0,0,1-2.119,1.3,15.332,15.332,0,0,1-1.709.479c-0.046.319-.081,0.593-0.1,0.82a11.63,11.63,0,0,1-.581,2.153,11.653,11.653,0,0,1-.649,1.231,0.54,0.54,0,0,1-.616.308,1.117,1.117,0,0,1-.717-0.684q-0.513-.957-0.855-1.777a9.247,9.247,0,0,0-2.324.752h0Zm-0.581-1.709a6.056,6.056,0,0,0,1.264-.444,4.323,4.323,0,0,1,1.026-.342,3.126,3.126,0,0,1,.649,0,1.132,1.132,0,0,1,1.026.718,0.815,0.815,0,0,0,.136-0.376,17.676,17.676,0,0,0,.308-2.734q0.068-1.128-.034-4.1a0.4,0.4,0,0,0-.1-0.376,0.793,0.793,0,0,0-.444.1,10.221,10.221,0,0,1-1.367.478,6.9,6.9,0,0,0-2.324,1.572v0.752a5.257,5.257,0,0,1,1.606-.239,4.207,4.207,0,0,1,1.435.649,1.751,1.751,0,0,1,.889,1.162,0.832,0.832,0,0,1-.581.649,4.057,4.057,0,0,1-1.333.137,10.567,10.567,0,0,1-1.982-.581q-0.035.855-.069,1.606a10.252,10.252,0,0,0-.1,1.367h0Zm3.008-9.365a3.233,3.233,0,0,1,1.23-.41,2.136,2.136,0,0,1,1.2.41,5.164,5.164,0,0,1,.992.82,1.755,1.755,0,0,1,.273,1.094q0.033,2.906-.068,4.443c-0.046.3-.081,0.593-0.1,0.889a18.316,18.316,0,0,0,2.9-2.324q0.206-.239.342-0.376-0.376-1.538-.889-4.409a20.375,20.375,0,0,1-.41-2.187q-1.093.1-2.461,0.342a24.544,24.544,0,0,0-4.033.923,8.664,8.664,0,0,0-1.914.718q-0.035.957,0,2.7a0.4,0.4,0,0,1,.069-0.1,11.769,11.769,0,0,1,1.264-1.47,5.038,5.038,0,0,1,1.607-1.06h0Zm24.862-12.51a0.753,0.753,0,0,1,.649.342,2.1,2.1,0,0,1,.1,1.538,38.876,38.876,0,0,0-1.5,6.836,0.377,0.377,0,0,0,.444.342,1.292,1.292,0,0,0,.376-0.684,47.523,47.523,0,0,1,3.042-7.007,11.816,11.816,0,0,1,1.367-1.811,1.905,1.905,0,0,1,1.265-.376,2.031,2.031,0,0,1,1.231.376,7.32,7.32,0,0,1,.922,1.265,13.435,13.435,0,0,1,1.2,2.871,15.542,15.542,0,0,1,.581,4.033,30.28,30.28,0,0,1-.342,3.931,29.53,29.53,0,0,1-.923,4.375,18.145,18.145,0,0,1-1.47,3.76,11.779,11.779,0,0,1-1.5,2.358,14.588,14.588,0,0,1-2.324,2.187,10.47,10.47,0,0,1-3.008,1.538A12.272,12.272,0,0,0,613.7,70.2a14.537,14.537,0,0,0,1.812-3.076,24.476,24.476,0,0,0,1.5-4.17q0.512-2.051.82-4.136a38.678,38.678,0,0,0,.308-4.546q-0.069-2.016-.205-3.486a19.815,19.815,0,0,0-.308-2.222,0.5,0.5,0,0,0-.547-0.41,2.019,2.019,0,0,0-.957.308,5.131,5.131,0,0,0-1.3,1.572,10.314,10.314,0,0,0-1.333,3.008q-0.717,2.5-1.128,3.555a10.318,10.318,0,0,0-.82,3.281q0,1.333-.547,1.025a3.771,3.771,0,0,1-1.025-.889,7.189,7.189,0,0,1-.889-1.4,4.316,4.316,0,0,1-.444-2.017,26.461,26.461,0,0,1,.478-4.341q0.411-2.051.923-3.828a8.256,8.256,0,0,1,.342-0.855q0.34-.581.478-0.82a0.484,0.484,0,0,1,.479-0.205h0ZM650.76,56.866a1.146,1.146,0,0,0-.034-1.333,0.5,0.5,0,0,0-.547-0.068q-0.274.24-.24-0.171a0.942,0.942,0,0,1,.411-0.615,1.324,1.324,0,0,1,.717-0.273,2.242,2.242,0,0,1,1.162.41,4.9,4.9,0,0,1,.718.615,1.392,1.392,0,0,1,.445.991,7.457,7.457,0,0,1-.718,2.529A21.145,21.145,0,0,1,651,62.267q0.821,1.641,1.572,2.905a29.778,29.778,0,0,0,2.666,3.9,2.033,2.033,0,0,0,.684.649,1.259,1.259,0,0,0,.547-0.923,13.937,13.937,0,0,0,.683-4.1,0.127,0.127,0,0,1,.069-0.1,0.249,0.249,0,0,1,.1.171q0.239,3.008.205,4.067a7.361,7.361,0,0,0,.171,1.982q0.136,0.82.239,2.085a1.073,1.073,0,0,1-.136.718,1.145,1.145,0,0,1-.923-0.273,11.469,11.469,0,0,1-2.324-1.743,21.3,21.3,0,0,1-2.6-3.418,29.844,29.844,0,0,1-2.051-3.691,2.758,2.758,0,0,0-.239-0.444,5.423,5.423,0,0,1-.786.82,7.352,7.352,0,0,1-2.29,1.367,6.362,6.362,0,0,1-2.564.308,0.281,0.281,0,0,1-.273-0.171,0.309,0.309,0,0,1,.239-0.239,11.634,11.634,0,0,0,2.735-1.812,12.123,12.123,0,0,0,1.914-2.632q-0.445-1.059-.992-2.324a45.2,45.2,0,0,1-1.709-4.58,3.1,3.1,0,0,0-.341.479,36.664,36.664,0,0,1-2.666,3.418,5.648,5.648,0,0,1,1.709.239,3.477,3.477,0,0,1,1.3.547,0.647,0.647,0,0,1,.24.513,1.371,1.371,0,0,1-.24.581,21.121,21.121,0,0,0-1.606,3.213,15.752,15.752,0,0,1-1.743,3.247,6.928,6.928,0,0,1-1.572,1.5,1,1,0,0,1-.513.205,1.24,1.24,0,0,1-.581-0.41,18.154,18.154,0,0,1-1.572-2.5,6.922,6.922,0,0,1-.616-2.119,0.522,0.522,0,0,1-.41-0.273,7.564,7.564,0,0,1-.649-1.914,0.67,0.67,0,0,1,.273-0.786,15.132,15.132,0,0,1,1.88-.854,20.374,20.374,0,0,0,2.7-2.564,22.349,22.349,0,0,0,3.076-4.58,45.3,45.3,0,0,0-4.375,3.179,1.492,1.492,0,0,1-1.025.068,10.156,10.156,0,0,1-2.085-.82,1.382,1.382,0,0,1-.2-0.137,3.341,3.341,0,0,1-.1.82,17.07,17.07,0,0,0-.786,3.794,16.8,16.8,0,0,0,0,2.632A22.84,22.84,0,0,1,636.1,64.8a7.418,7.418,0,0,1-.65,2.666,2.642,2.642,0,0,1-.888,1.333,0.651,0.651,0,0,1-.581.1,1.665,1.665,0,0,1-.547-0.82,5.274,5.274,0,0,1-.581-1.846,22.038,22.038,0,0,1-.137-3.247q-0.034-.136.1-0.1a0.291,0.291,0,0,1,.274.273,3.469,3.469,0,0,0,.342,1.47,0.459,0.459,0,0,0,.307.273,1.078,1.078,0,0,0,.274-0.615,11.074,11.074,0,0,0,.239-1.914,19.5,19.5,0,0,0-.2-2.871,23.2,23.2,0,0,1-.1-3.11A12.332,12.332,0,0,1,634.49,53,9.378,9.378,0,0,0,635,51.192c0.022-.273.068-0.41,0.137-0.41a0.9,0.9,0,0,1,.512.581,12.115,12.115,0,0,1,1.094,2.5,3.433,3.433,0,0,1,.1.547,0.387,0.387,0,0,1,.273-0.137,8.973,8.973,0,0,0,2.837-1.709,20.1,20.1,0,0,1,3.11-2.153,13.485,13.485,0,0,1,1.3-.752q-0.206-.751-0.342-1.4A32.694,32.694,0,0,0,643,45.006a1.909,1.909,0,0,0-.718-1.059,0.442,0.442,0,0,0-.615.273q-0.342.513-.376,0.171a1.872,1.872,0,0,1,.034-0.786,0.853,0.853,0,0,1,.547-0.649,2.926,2.926,0,0,1,1.47.308,5.205,5.205,0,0,1,1.743,1.094,2.724,2.724,0,0,1,.923,1.812,12.539,12.539,0,0,0,.239,2.085,6.534,6.534,0,0,1,2.769.82,1.667,1.667,0,0,1,.922,1.128,1.374,1.374,0,0,1-.2.82,1.144,1.144,0,0,1-.615.649,3,3,0,0,0-1.128.752,4.321,4.321,0,0,0-.649.649q0.2,0.65.444,1.3,0.888,2.563,1.948,5.059,0.513-1.2,1.026-2.563h0Zm-12.647,6.6a8.242,8.242,0,0,0,2.461,1.709,1.332,1.332,0,0,0,.376.1,0.517,0.517,0,0,0,.308-0.342,12.349,12.349,0,0,0,1.23-3.418c0.069-.273.034-0.421-0.1-0.444a0.935,0.935,0,0,0-.479.1,22.735,22.735,0,0,0-3.794,2.29h0ZM649.7,46.783a3.82,3.82,0,0,1-.82-0.479,0.884,0.884,0,0,1-.41-0.718,0.9,0.9,0,0,1,.478-0.581,3,3,0,0,1,1.47-.308,4.955,4.955,0,0,1,2.769.615,3.479,3.479,0,0,1,.82,1.846q0.341,1.265-.069,1.5a1.34,1.34,0,0,1-.991-0.034,12.116,12.116,0,0,1-1.3-.752,10.935,10.935,0,0,0-1.948-1.094h0Zm29.613,3.965a11.411,11.411,0,0,1,.171-1.709,16.454,16.454,0,0,1,.581-2.461,6.514,6.514,0,0,1,.889-1.675,1.032,1.032,0,0,1,.718-0.41h0.2q0.1,0.547.1,0.581a7.5,7.5,0,0,0,1.094,1.675,6.33,6.33,0,0,0,1.846,1.333,20.933,20.933,0,0,0,3.281,1.23,2.653,2.653,0,0,1,.65.171,2.444,2.444,0,0,1,.581.923,1.545,1.545,0,0,1-.718.82,1.715,1.715,0,0,1-.957.581q-0.342.034-1.5,0.068-0.478.034-1.4,0.034a20.051,20.051,0,0,0-3.008.239v0.239q0.033,0.615.273,3.281a27.265,27.265,0,0,1,.171,3.145,3.179,3.179,0,0,1-.205,1.128,13.081,13.081,0,0,1,.273,2.871,10.06,10.06,0,0,1-.307,2.632,13.137,13.137,0,0,1-1.436,3.589,9.933,9.933,0,0,1-2.5,2.6,14.031,14.031,0,0,1-2.939,1.811,15.583,15.583,0,0,0,2.221-2.632,14.414,14.414,0,0,0,1.231-2.427,20.1,20.1,0,0,0,.889-3.179,13.116,13.116,0,0,0,.239-1.982,3.593,3.593,0,0,1-.581.444,3.427,3.427,0,0,1-1.47.649,3.8,3.8,0,0,1-1.948-.615,1.573,1.573,0,0,1-.581-1.47q0.033-.751.171-2.119a13.042,13.042,0,0,1,.615-2.393,3.823,3.823,0,0,1,1.094-1.607,2.139,2.139,0,0,1,.991-0.41,3.174,3.174,0,0,1,1.059.273,0.865,0.865,0,0,1,.342.205q-0.1-1.059-.137-2.017-0.035-.444-0.034-1.572-1.332.24-2.6,0.581a31.137,31.137,0,0,0-4.341,1.5q-1.812.82-2.871,1.367a4.354,4.354,0,0,1-.957.41,1.723,1.723,0,0,1-1.2-.82,2.178,2.178,0,0,1-.512-1.367c0-.182.045-0.273,0.136-0.273a3.374,3.374,0,0,0,1.026-.205q4.682-1.435,8.818-2.5h0a25.162,25.162,0,0,1,2.529-.547h0Zm0.069,9.263a4.527,4.527,0,0,0,.1-0.581q-0.069-.273-0.1-0.41a2.993,2.993,0,0,0-.855-1.025,0.827,0.827,0,0,0-.478-0.1,0.662,0.662,0,0,0-.513.308,3.028,3.028,0,0,0-.547,1.094,5.6,5.6,0,0,0-.307,1.435q-0.069.957-.069,1.5,0,0.377.24,0.376a1.5,1.5,0,0,0,.581-0.342,8.159,8.159,0,0,0,1.2-1.06,2.858,2.858,0,0,0,.752-1.2h0Zm2.461-9.673q3.144-.341,4.1-0.342c0.251,0,.376-0.068.376-0.205a0.713,0.713,0,0,0-.41-0.376,12.046,12.046,0,0,1-1.47-.991,8.993,8.993,0,0,1-1.777-1.538,6.388,6.388,0,0,1-.786-1.4q-0.034.582-.034,2.051v2.8h0Zm37.543,15.381a6.282,6.282,0,0,1-.034-1.162V64.522a4.659,4.659,0,0,0-1.2.649,1.047,1.047,0,0,1-.41.137,1.288,1.288,0,0,1-.444-0.137,14.8,14.8,0,0,1-1.3-.752,1.985,1.985,0,0,1-.41-0.752,0.856,0.856,0,0,1,.068-0.615,0.972,0.972,0,0,1,.581-0.171,4.779,4.779,0,0,0,1.367-.376,5.041,5.041,0,0,1,1.163-.41,1.762,1.762,0,0,1,.273-0.376,2.465,2.465,0,0,0,.308-0.547V61.036a1.472,1.472,0,0,0-.957-0.205,4.218,4.218,0,0,1-1.846-.444q-1.026-.546-0.274-1.2a18.1,18.1,0,0,1,2.085-.82,0.5,0.5,0,0,1,.069-0.205,7.553,7.553,0,0,1,.547-1.025,1.027,1.027,0,0,0,.17-0.444,1.5,1.5,0,0,0-1.127-.376q-1.128-.1-2.564-0.342a5.069,5.069,0,0,0-.786-0.171,5.059,5.059,0,0,1-.137,1.777,23.179,23.179,0,0,0-.581,4.648,55.186,55.186,0,0,0,.171,6.8q0.342,3.657-.068,4.58a0.636,0.636,0,0,1-.342.41,0.833,0.833,0,0,1-.513-0.444,10.418,10.418,0,0,1-1.3-2.427,5.926,5.926,0,0,1-.068-2.085q0.1-1.333.137-4.136,0-2.734.1-4.272,0.069-1.469.034-3.11-0.033-1.538.1-3.52a1.049,1.049,0,0,1,.239-0.684q0.205-.205.821,0.342a5.328,5.328,0,0,1,1.23,1.538,1.516,1.516,0,0,1,.068.171,0.464,0.464,0,0,1,.308-0.171,2.953,2.953,0,0,0,1.641-.342,17.253,17.253,0,0,0,2.05-1.2q0.376-.273.684-0.513a5.84,5.84,0,0,1,.034-0.649,1.245,1.245,0,0,1,.274-0.718q0.2-.239.82,0.273a3.038,3.038,0,0,1,.957-0.41,3.472,3.472,0,0,1,1.675,0,2.383,2.383,0,0,1,1.093.649,0.806,0.806,0,0,1,.206.82,1.086,1.086,0,0,1-.445.615,8.144,8.144,0,0,0-1.538,1.538c-0.159.205-.342,0.422-0.547,0.649a13.346,13.346,0,0,0-.239,1.436c0.228-.045.421-0.08,0.581-0.1a0.98,0.98,0,0,1,1.162.376,4.981,4.981,0,0,1,.376.889,0.3,0.3,0,0,1-.171.444,2.642,2.642,0,0,0-.923.752q-0.376.377-1.23,1.128v0.308a2.011,2.011,0,0,1,.752-0.137A5.28,5.28,0,0,1,723.077,61a1.287,1.287,0,0,1,.684.273,2.947,2.947,0,0,1,.683.923,0.855,0.855,0,0,1,.069.649,0.751,0.751,0,0,1-.445.376,2.459,2.459,0,0,0-.991.786q-0.444.547-1.5,1.606a10.358,10.358,0,0,1,0,1.2,7.026,7.026,0,0,1,.855-0.171q0.41-.034,1.264-0.171a4.063,4.063,0,0,1,1.4.034,1.86,1.86,0,0,1,1.264.923,4.667,4.667,0,0,1,.547,1.675c0.046,0.319-.08.467-0.376,0.444a23.169,23.169,0,0,0-2.7-.1,13.909,13.909,0,0,0-2.256.239,15.591,15.591,0,0,0-2.221.615,11.32,11.32,0,0,0-1.744.855,1.277,1.277,0,0,1-.444.205,1.659,1.659,0,0,1-.615-0.068,3.84,3.84,0,0,1-1.47-.684,1.869,1.869,0,0,1-.684-1.06,1.086,1.086,0,0,1,.069-0.752,0.768,0.768,0,0,1,.547-0.205,1.976,1.976,0,0,0,.649-0.205,29.645,29.645,0,0,0,3.213-2.256h0a2.508,2.508,0,0,1,.513-0.41h0Zm-7.281-13.262a1.3,1.3,0,0,1-.786.478,0.607,0.607,0,0,1-.41-0.444,4.957,4.957,0,0,1-.342-0.957,28.594,28.594,0,0,1-1.367,4.1,17.893,17.893,0,0,0-.82,2.393,17.146,17.146,0,0,1-.957,2.666,1.223,1.223,0,0,1-1.026.82q-0.923.034-.957-1.5a8.453,8.453,0,0,1,.445-2.427,6.572,6.572,0,0,0,.512-2.119,1.4,1.4,0,0,0-.205-0.889,1.745,1.745,0,0,0-.546.547,19.3,19.3,0,0,0-2.12,4.443q0.035,1.2.137,2.939,0.1,1.812-.649,1.06a12.545,12.545,0,0,1-1.5-1.709,3.078,3.078,0,0,1-.65-1.914q0.069-1.606.069-2.563a6.991,6.991,0,0,0-.274-1.675,14.166,14.166,0,0,1-.478-2.017q-0.1-.786,1.059-0.034a4.246,4.246,0,0,1,1.538,1.4,3.531,3.531,0,0,1,.376.786,18.648,18.648,0,0,1,2.393-3.384,2.331,2.331,0,0,1,1.47-1.094,1.253,1.253,0,0,1,1.025.649,4.586,4.586,0,0,1,.513,2.256,1.165,1.165,0,0,0,.171.82,0.847,0.847,0,0,0,.341-0.444,21.537,21.537,0,0,0,1.333-3.281,0.135,0.135,0,0,1,.1-0.137c-0.023-.182-0.046-0.353-0.068-0.513a0.479,0.479,0,0,1,.239-0.581,7.017,7.017,0,0,0,1.914-1.777,12.408,12.408,0,0,0,1.777-2.837,4.926,4.926,0,0,0,.376-1.2,1.342,1.342,0,0,0-.239-0.786,0.454,0.454,0,0,1-.1-0.342,0.346,0.346,0,0,1,.376-0.137,6.4,6.4,0,0,1,2.666.615,1.482,1.482,0,0,1,.855.957,1.915,1.915,0,0,1-.137.718,0.789,0.789,0,0,1-.342.41,1.286,1.286,0,0,0-.649.478,3.454,3.454,0,0,0-.82,1.025q0.82-.376,1.469-0.718a2.84,2.84,0,0,1,1.47-.41,3.354,3.354,0,0,1,1.231.342,1.342,1.342,0,0,1,.752.615,1.95,1.95,0,0,1,.136,1.265,3.515,3.515,0,0,1-.752,1.675,7.865,7.865,0,0,1-1.845,1.846,14.375,14.375,0,0,1-2.974,1.641q-0.136.1-.171,0a0.187,0.187,0,0,1,.1-0.205,16.744,16.744,0,0,0,1.982-1.846,4.993,4.993,0,0,0,.855-1.538,1.478,1.478,0,0,0,.1-0.991,1.269,1.269,0,0,0-.752-0.342q-0.615-.205-1.572-0.547a0.829,0.829,0,0,1-.41-0.273,0.429,0.429,0,0,0-.1.171,21.736,21.736,0,0,1-3.76,4.512h0Zm48.105,6.528a1.838,1.838,0,0,0-.41.034q-1.231.205-2.188,0.444-1.059.274-3.008,0.923c-0.114.046-.182,0.023-0.205-0.068a0.3,0.3,0,0,1,.171-0.308,18.805,18.805,0,0,1,2.325-1.538,27.962,27.962,0,0,0-5.811.342,19.289,19.289,0,0,0-5.024,1.23q-1.5.752-3.794,1.914a1.41,1.41,0,0,1-1.4-.068,5.085,5.085,0,0,1-1.5-1.06,3.428,3.428,0,0,1-.581-1.231,1.041,1.041,0,0,1,.069-0.957,0.8,0.8,0,0,1,.752-0.171,6.1,6.1,0,0,0,2.6-.513,34.236,34.236,0,0,1,6.8-1.436q3.076-.444,6.46-0.649a28.529,28.529,0,0,0,4.375-.581,3.415,3.415,0,0,1,1.948.068,4.292,4.292,0,0,1,1.06.581,6.8,6.8,0,0,1,.923.889,2.989,2.989,0,0,1,.717,1.333,1.44,1.44,0,0,1,.069.957,0.682,0.682,0,0,1-.615.41,7.6,7.6,0,0,1-2.188-.239q-0.89-.205-1.538-0.308h0Zm21.923,9.229a1.468,1.468,0,0,1,.957-0.479,4.537,4.537,0,0,1,1.025.342,2.047,2.047,0,0,0,1.436-.137,17.294,17.294,0,0,1,1.88-.718,0.84,0.84,0,0,1,.615-0.034c0.137,0.091-.012.251-0.444,0.479a6.611,6.611,0,0,0-1.709,1.538,6.486,6.486,0,0,0-.992,2.119,0.855,0.855,0,0,1-.341.581,1.38,1.38,0,0,1-.684-0.41,3.691,3.691,0,0,1-.649-0.854,2.261,2.261,0,0,1-.411-1.265,0.76,0.76,0,0,0-.307-0.649,0.149,0.149,0,0,0-.205.034,10.169,10.169,0,0,1-1.5,1.709,11.033,11.033,0,0,0-1.607,1.709,11.269,11.269,0,0,0-.854,1.2,0.736,0.736,0,0,1-.342.342,0.727,0.727,0,0,1-.615-0.547,6.228,6.228,0,0,1-.957-2.119,9.009,9.009,0,0,1-.239-2.427,4.83,4.83,0,0,1,.2-1.265q0.273-.615.273,0.239a4.106,4.106,0,0,0,.308.957,0.693,0.693,0,0,0,.444.479,0.655,0.655,0,0,0,.547.1,39.652,39.652,0,0,0,3.965-.718,0.3,0.3,0,0,1,.205-0.205h0Zm7.143-1.128a0.881,0.881,0,0,0,.205.205c0.091,0.068.148,0.091,0.171,0.068a0.534,0.534,0,0,0,.547,0,29.792,29.792,0,0,0,4.375-1.47q0.444-.41.205,0.239a10.466,10.466,0,0,1-1.606,2.085,17.822,17.822,0,0,0-1.436,1.743q-0.444.683-.752,1.231a0.552,0.552,0,0,1-.273.342,0.62,0.62,0,0,1-.513-0.376,4.253,4.253,0,0,1-.854-1.47,5.03,5.03,0,0,1-.376-1.777,2.422,2.422,0,0,1,.068-0.923q0.034-.546.239,0.1h0Zm8.135-.855a9.929,9.929,0,0,1,3.486,1.641,4.557,4.557,0,0,1,.992,1.88q0.41,1.469,0,1.88a0.977,0.977,0,0,1-1.06.205,3.856,3.856,0,0,1-1.572-.957,14.145,14.145,0,0,1-2.529-3.794q-0.651-1.3.683-.855h0ZM782.3,62.882a2.058,2.058,0,0,1-.513-1.4V59.566c-0.3.114-.559,0.217-0.786,0.308a0.8,0.8,0,0,1-.82-0.171,3.179,3.179,0,0,1-.958-1.128q-0.375-.82.171-0.855,1.231-.136,2.29-0.273a14.04,14.04,0,0,0-.376-1.812,5.362,5.362,0,0,1-.41-1.5q-0.069-.581.786-0.068a3.288,3.288,0,0,1,1.163,1.025,6.571,6.571,0,0,1,.581,1.3q0.033,0.239.068,0.581c0.25-.091.513-0.182,0.786-0.273q0.377-.136.82-0.273V56.251q-0.034-.581-0.136-1.23a11.555,11.555,0,0,1-.137-1.436A1.315,1.315,0,0,1,785,52.97a0.69,0.69,0,0,1,.752.239,4.883,4.883,0,0,1,1.23,1.3,1.279,1.279,0,0,1,.069.854,2.517,2.517,0,0,0-.1.513q1.094-.308,2.461-0.649V55.089A2.312,2.312,0,0,0,789.071,54q-0.444-.751-0.786-1.4a0.531,0.531,0,0,1-.068-0.513,0.787,0.787,0,0,1,.752-0.068q0.546,0.171,1.162.41a1.964,1.964,0,0,1,.786.649,2.479,2.479,0,0,1,.376,1.2v0.444a18.844,18.844,0,0,1,2.8-.615,11.169,11.169,0,0,0,.1-1.5,5.092,5.092,0,0,0-.752-2.768,0.849,0.849,0,0,1-.171-0.308q-1.639.377-2.9,0.718-2.905.889-7.519,2.734a1.109,1.109,0,0,1-1.026-.239,7.467,7.467,0,0,1-1.777-1.367,1.164,1.164,0,0,1-.308-0.615,0.605,0.605,0,0,1,.581-0.239q0.684-.068,1.333-0.171,0.615-.649,1.128-1.3a8.109,8.109,0,0,0,.513-0.991,6.949,6.949,0,0,0,.376-1.094,4.007,4.007,0,0,0,.171-1.025,4.073,4.073,0,0,0,0-.752,2.206,2.206,0,0,0-.445-0.718,0.621,0.621,0,0,1-.1-0.752,1.039,1.039,0,0,1,.649-0.547,1.4,1.4,0,0,1,1.2.581,5.607,5.607,0,0,1,1.162,1.538,1.078,1.078,0,0,1,.068.991q-0.582,1.743-.82,2.29-0.138.274-.274,0.581a25.606,25.606,0,0,1,4.854-1.606,21.236,21.236,0,0,1,4.922-.854,3.312,3.312,0,0,1,1.23.2,1.549,1.549,0,0,1,.684.478,1.1,1.1,0,0,1,.307.718,2.748,2.748,0,0,1-.034.547,0.508,0.508,0,0,1-.444.239q-0.855.137-1.5,0.273a2.286,2.286,0,0,1,.752.786,3.82,3.82,0,0,1,.308,2.905,4.241,4.241,0,0,0-.137.786A3.527,3.527,0,0,1,797,53.346a2.637,2.637,0,0,1,1.128.649,2.584,2.584,0,0,1,.683.889,1.343,1.343,0,0,1,.24.718,0.643,0.643,0,0,1-.274.547,1.082,1.082,0,0,1-.581.1,6.565,6.565,0,0,0-1.948.513,6.094,6.094,0,0,0-.957.41,8.852,8.852,0,0,1-3.35,4.478,22.788,22.788,0,0,1,2.769-.1,10.414,10.414,0,0,0,3.042-.171q0.888-.376,2.017.957a3.528,3.528,0,0,1,.957,1.641,0.647,0.647,0,0,1-.171.683,1.132,1.132,0,0,1-.923-0.034,15.824,15.824,0,0,0-4.239-.684,54.219,54.219,0,0,0-5.639.342,67.99,67.99,0,0,0-9.5,2.5,1.315,1.315,0,0,1-.82.068,3.1,3.1,0,0,1-.923-0.444,0.987,0.987,0,0,1-.445-0.957,2.577,2.577,0,0,1,.581-1.231q0.513-.581.479-0.068,0,0.445.547,0.308a30.794,30.794,0,0,1,3.11-.991c-0.182-.227-0.342-0.421-0.478-0.581h0Zm3.008-4.477a12.568,12.568,0,0,0-1.709.547q0,1.641.239,4.238a31.57,31.57,0,0,1,4.409-1.025,19.4,19.4,0,0,1,2.529-.376,24.652,24.652,0,0,0,2.769-5.2c0.022-.091.045-0.171,0.068-0.239a0.32,0.32,0,0,0-.2,0,19.966,19.966,0,0,0-2.427.479q-0.2,1.128-.41,3.076-0.206,1.162-.854.718a1.891,1.891,0,0,1-.547-0.581,1.649,1.649,0,0,1-.274-0.855,10.291,10.291,0,0,1,.1-1.88,16.762,16.762,0,0,0-2.051.581q0.069,0.787.205,1.743a4.3,4.3,0,0,1,.1,1.709,0.689,0.689,0,0,1-.376.513,0.8,0.8,0,0,1-.65-0.479,4.815,4.815,0,0,1-.649-0.889,3.535,3.535,0,0,1-.137-0.855q-0.035-.478-0.136-1.23h0Zm38.6-7.69a15.06,15.06,0,0,0,2.8-.547,10.083,10.083,0,0,0,2.051-.889,3.472,3.472,0,0,1,1.845-.376,4.222,4.222,0,0,1,1.88.649,3.152,3.152,0,0,1,.991,1.162,0.9,0.9,0,0,1-.068.957,1.5,1.5,0,0,1-.923.718,10.778,10.778,0,0,0-2.8,1.47,13.344,13.344,0,0,1-3.383,1.709,10.554,10.554,0,0,0-3.829,2.222,0.538,0.538,0,0,1-.376.205,1.146,1.146,0,0,1,.206-0.513,5.829,5.829,0,0,1,.991-1.367,14.542,14.542,0,0,1,1.538-1.3,1.523,1.523,0,0,0,.581-0.581,1.8,1.8,0,0,0-.923-0.991q-1.128-.718-2.393-1.675-1.435-1.2-.17-1.094a3.548,3.548,0,0,0,1.982.239h0ZM815.335,63.6a5.639,5.639,0,0,0,2.563-.581,31.791,31.791,0,0,1,6.665-1.5q3.042-.513,6.358-0.752a35.5,35.5,0,0,0,4.306-.649,3.161,3.161,0,0,1,1.915.034,4.088,4.088,0,0,1,1.23.684,11.482,11.482,0,0,1,1.128.991,3.971,3.971,0,0,1,.889,1.572,1.987,1.987,0,0,1,.068,1.128,0.787,0.787,0,0,1-.718.513,7.591,7.591,0,0,1-2.187-.239,37.267,37.267,0,0,0-4.683-.82,34.015,34.015,0,0,0-5.845.308,19.325,19.325,0,0,0-4.956,1.2q-1.5.718-3.759,1.88a1.5,1.5,0,0,1-1.539-.034,5.793,5.793,0,0,1-1.674-1.162,4.271,4.271,0,0,1-.616-1.333,0.986,0.986,0,0,1,.069-1.059,0.88,0.88,0,0,1,.786-0.171h0ZM852.3,66.437a8.621,8.621,0,0,0-.889-2.905,9.968,9.968,0,0,1-.478-3.384,6.332,6.332,0,0,1,.307-2.29,7.015,7.015,0,0,1,1.3-2.563,12.035,12.035,0,0,1,2.051-1.982,16.265,16.265,0,0,1,2.837-1.5,18.217,18.217,0,0,1,3.213-1.06,15.014,15.014,0,0,1,2.734-.273,8.707,8.707,0,0,1,3.145.581,7.309,7.309,0,0,1,2.119,1.572A9.187,9.187,0,0,1,870.48,55.4a11.511,11.511,0,0,1,.752,4.409,20.3,20.3,0,0,1-.546,3.862,11.164,11.164,0,0,1-1.846,3.623q-0.923,1.025-1.367,1.436a14.53,14.53,0,0,1-3.829,1.846,14.364,14.364,0,0,1-3.383.342,33.493,33.493,0,0,0,3.452-2.187,16.525,16.525,0,0,0,2.734-3.179,8.541,8.541,0,0,0,1.06-2.427,16.894,16.894,0,0,0,.171-6.187,8.726,8.726,0,0,0-.65-1.914,4.327,4.327,0,0,0-1.264-1.333,4.239,4.239,0,0,0-2.393-.615,9.063,9.063,0,0,0-2.563.308,0.867,0.867,0,0,0-.411.137,4.324,4.324,0,0,1,.308,1.812,7.538,7.538,0,0,1-.854,3.213,24.011,24.011,0,0,1-2.017,3.76,20.567,20.567,0,0,1-4.272,4.785q-1.128.684-1.265-.649h0Zm2.119-3.179a75.825,75.825,0,0,0,4.375-7.93A3.934,3.934,0,0,0,859.1,54q-0.582.205-1.094,0.444a26.3,26.3,0,0,0-2.6,1.436,8.936,8.936,0,0,0-1.948,2.119,4.043,4.043,0,0,0-.786,2.153,7.79,7.79,0,0,0,.239,2.358,3.937,3.937,0,0,0,.65,1.436,1.081,1.081,0,0,0,.854-0.684h0Zm29.75,4.922q-0.548.582-1.06-.273a9.2,9.2,0,0,1-.991-2.222q-0.308-1.093.41-1.128a4.711,4.711,0,0,0,1.914-.991,41.518,41.518,0,0,0,3.247-2.666q0.069-1.5.206-2.974,0.033-.615.068-1.162a7.884,7.884,0,0,0-.649.581,14.859,14.859,0,0,0-2.085,2.017q-0.411.479-1.778-.068a5.786,5.786,0,0,1-2.529-1.641q-1.06-1.3-.1-0.957a3.075,3.075,0,0,0,1.744-.273,10.9,10.9,0,0,0,2.631-1.572q1.4-.991,2.256-1.5,0.513-.308.957-0.615,0.137-1.026.274-1.88a13.148,13.148,0,0,0,.1-3.828,2.087,2.087,0,0,0-.718-1.4q-0.511-.444-0.17-0.786a0.636,0.636,0,0,1,.922-0.068,6.413,6.413,0,0,1,1.812,1.2,3.073,3.073,0,0,1,.82,1.572,6.3,6.3,0,0,1-.068,2.256q-0.24.957-.479,2.222a3.481,3.481,0,0,1,1.812.889q0.751,0.752-.684,1.367a7.488,7.488,0,0,0-1.709.854q-0.409,2.051-.649,4.033a39.539,39.539,0,0,1,3.384-2.529,10.085,10.085,0,0,1,2.973-2.427q0.924-.546,1.983-1.265a19.554,19.554,0,0,0,.854-3.623,10.31,10.31,0,0,0-.171-3.144,1.9,1.9,0,0,0-.547-1.2,2.494,2.494,0,0,0-1.162-.479q-0.444-.1-0.41-0.342a1.165,1.165,0,0,1,.445-0.547,2.072,2.072,0,0,1,1.2-.376,2.7,2.7,0,0,1,1.47.41,2.337,2.337,0,0,1,1.059.957,3.747,3.747,0,0,1,.581,1.606,10.3,10.3,0,0,1-.034,3.008q0.752,0,1.5-.034a2.982,2.982,0,0,1,1.743,2.017q0.205,0.479-.718.889a14.745,14.745,0,0,0-3.247,1.88,1.427,1.427,0,0,0-.444.308q-0.342,1.06-.957,2.529a1.027,1.027,0,0,0-.1.82,0.894,0.894,0,0,0,.65.137,3.268,3.268,0,0,1,1.572.205,2.806,2.806,0,0,1,1.333,1.2,4.368,4.368,0,0,1,.547,1.436,4.9,4.9,0,0,1-.274.923,16.883,16.883,0,0,0-.683,1.948q-0.274.65-.615,1.4,0.854,0.445,1.914,1.06a19.651,19.651,0,0,1,3.178,2.085,5.412,5.412,0,0,1,1.778,2.8q0.513,2.051.205,2.188a1.181,1.181,0,0,1-1.094-.205A21.032,21.032,0,0,1,904.4,70.4a48.265,48.265,0,0,0-4.2-3.35,8.375,8.375,0,0,1-1.162,1.2,8.152,8.152,0,0,1-2.324,1.367,7.7,7.7,0,0,1-1.982.273,3.941,3.941,0,0,1-1.846-.444,6.617,6.617,0,0,1-1.778-1.436,0.416,0.416,0,0,1-.136-0.342c0.022-.091.1-0.1,0.239-0.034a4.455,4.455,0,0,0,1.948.478,5.139,5.139,0,0,0,2.119-.513,7.75,7.75,0,0,0,2.256-1.606l0.41-.478a16.238,16.238,0,0,0-2.426-1.231,17.1,17.1,0,0,0-4.1-1.162c-0.478-.045-0.718-0.148-0.718-0.308-0.023-.137.217-0.239,0.718-0.308a13.119,13.119,0,0,1,3.281-.205,11.959,11.959,0,0,1,3.452.82q0.548,0.205,1.06.444a13.9,13.9,0,0,0,1.162-2.974,0.648,0.648,0,0,0,.034-0.547,1.127,1.127,0,0,0-.547-0.034,4.63,4.63,0,0,0-2.46,1.47,0.488,0.488,0,0,1-.376.273,0.686,0.686,0,0,1-.342-0.239,3.136,3.136,0,0,1-.821-1.675,3.33,3.33,0,0,1,.035-1.06,6.763,6.763,0,0,1,.376-1.094,2.794,2.794,0,0,1,.239-0.581,2.123,2.123,0,0,1-.82-0.1,4.512,4.512,0,0,0-1.983.034c-0.182.046-.307,0.08-0.376,0.1q-1.537,2.358-3.281,4.546a5.951,5.951,0,0,0-.684.82q-0.069,1.743.034,3.691,0.171,2.974.206,4.033,0.1,1.128.205,2.7,0.067,0.956-.171.991a1.4,1.4,0,0,1-.718-0.581,23.222,23.222,0,0,1-1.812-2.153,26.97,26.97,0,0,0-2.836-3.11l-0.1.1h0Zm3.35-.1q0-1.743.034-3.486-1.368,1.4-2.9,3.076a7.131,7.131,0,0,0,2.05,1.162,0.853,0.853,0,0,0,.718.034,1.458,1.458,0,0,0,.1-0.786h0Z" transform="translate(-224.344 -42.938)"/>
</svg>
