<svg xmlns="http://www.w3.org/2000/svg" width="339.406" height="70.875" viewBox="0 0 339.406 70.875">
  <defs>
    <style>
      .cls-1 {
        fill: #fff;
        fill-rule: evenodd;
      }
    </style>
  </defs>
  <path id="hd_skill.svg" class="cls-1" d="M38.61,74.877A15.154,15.154,0,0,0,40.73,74.4a8.756,8.756,0,0,0,1.572-.718,2.422,2.422,0,0,1,1.4-.308,2.83,2.83,0,0,1,1.23.41,1.6,1.6,0,0,1,.684.718,0.592,0.592,0,0,1-.034.65,1.494,1.494,0,0,1-.786.752,9.249,9.249,0,0,0-2.461,1.641A12.4,12.4,0,0,1,39.4,79.491a10.566,10.566,0,0,0-3.315,2.461,0.338,0.338,0,0,1-.239.137,0.71,0.71,0,0,1,.1-0.342,6.3,6.3,0,0,1,1.128-1.572q0.683-.649,1.743-1.47a1.435,1.435,0,0,0,.649-0.684,1.572,1.572,0,0,0-.649-0.855q-0.787-.649-1.709-1.572-1.06-1.059-.034-0.855a2.716,2.716,0,0,0,1.538.137h0Zm5.913,16.1a16.273,16.273,0,0,0-1.367-1.88,2.562,2.562,0,0,1-.684-0.957,1.317,1.317,0,0,1,.991-0.171,6.414,6.414,0,0,1,1.709.273,4.512,4.512,0,0,1,1.572,1.231,6.959,6.959,0,0,1,1.162,1.675,9.269,9.269,0,0,1,.649,2.256,13.645,13.645,0,0,1,.068,3.076q-0.171,1.674-.889,1.06a4.866,4.866,0,0,1-.923-1.059,10.964,10.964,0,0,1-1.06-2.461,16.747,16.747,0,0,0-3.794.82,17.606,17.606,0,0,0-4.272,1.983A4.13,4.13,0,0,1,35.5,97.846q-1.265,0-2.222-1.777-0.889-1.641.171-1.982a2.068,2.068,0,0,0,.615-0.41,65.971,65.971,0,0,0,5.64-7.383Q35.466,87.66,34.1,88.275a0.815,0.815,0,0,1-1.162-.478,19.985,19.985,0,0,1-.991-1.983q-0.377-.923.273-0.82a12.049,12.049,0,0,0,3.213-.273q1.367-.341,5.811-1.88a30.422,30.422,0,0,1,5.913-1.675,1.3,1.3,0,0,1,.786.171,1.865,1.865,0,0,1,.684.889,2.112,2.112,0,0,1,.239.889,0.768,0.768,0,0,1-.547.41q-2.6.752-4.648,1.47a44.814,44.814,0,0,0-5.093,6.631,3.553,3.553,0,0,0-.957,1.777q0.136,0.308,1.3-.205a11.44,11.44,0,0,1,3.213-1.128A10.964,10.964,0,0,1,45,91.9q-0.239-.513-0.478-0.923h0ZM26.374,84.857a4.416,4.416,0,0,0,.684.513,3.443,3.443,0,0,1,1.128,2.051,0.611,0.611,0,0,0,.273.41,25.262,25.262,0,0,0,1.572-3.452q0.034-.239.171-0.205c0.091,0.023.125,0.114,0.1,0.273q-0.82,3.863-.923,5.093-0.547,7.383-.991,9.878a0.539,0.539,0,0,1-.376.513,0.6,0.6,0,0,1-.308-0.171,10.744,10.744,0,0,1-1.23-1.982,2.358,2.358,0,0,1-.239-0.889q0.034-.479.171-1.4a57.411,57.411,0,0,0,.649-6.05,5.311,5.311,0,0,0-.479-2.6q-0.41-.751-0.718-1.367-0.274.274-.479,0.513a22.952,22.952,0,0,1-2.222,2.051q-0.479.342-.615,0.1a1.588,1.588,0,0,1-.171-1.23,21.264,21.264,0,0,1,.615-2.461q0.513-1.572,1.162-1.606A1.089,1.089,0,0,0,24.8,82.4a17.167,17.167,0,0,0,1.88-2.8q0.82-1.572,2.085-4.751a2.8,2.8,0,0,0,.239-1.06,0.808,0.808,0,0,0-.342-0.547,0.4,0.4,0,0,1-.274-0.478,1.691,1.691,0,0,1,.923-0.171,3.014,3.014,0,0,1,1.538.308,5.9,5.9,0,0,1,1.162.718,1.356,1.356,0,0,1,.581.65,1.958,1.958,0,0,1-.342,1.025,30.778,30.778,0,0,0-1.709,3.11,39.521,39.521,0,0,1-2.427,4.17q-0.923,1.265-1.743,2.29h0ZM66.515,88.72a0.742,0.742,0,0,0,.513-0.513,65.248,65.248,0,0,0,3.555-6.9,0.3,0.3,0,0,1,.274-0.239c0.091,0.046.1,0.183,0.034,0.41q-1.47,4.512-2.529,6.973a57.343,57.343,0,0,0-3.008,8.784,4.081,4.081,0,0,1-.581,1.641,0.7,0.7,0,0,1-.547.273,1.491,1.491,0,0,1-.718-0.786,5.179,5.179,0,0,1-.615-2.085,1.084,1.084,0,0,1,.376-0.991,3.173,3.173,0,0,0,.752-1.367,22.852,22.852,0,0,0,.957-3.726,1.208,1.208,0,0,0-.034-1.025,0.386,0.386,0,0,0-.479-0.1,1.1,1.1,0,0,0-.684.444,6.818,6.818,0,0,1-1.162,1.025,0.859,0.859,0,0,1-.615.308,1.216,1.216,0,0,1-.513-0.957,6.157,6.157,0,0,1-.308-1.812,0.7,0.7,0,0,1,.376-0.684,5.544,5.544,0,0,0,1.162-.923A7.741,7.741,0,0,0,64.4,83.8a1.423,1.423,0,0,0,.239-1.025,0.544,0.544,0,0,0-.273-0.205,0.682,0.682,0,0,0-.478.205,6.094,6.094,0,0,1-1.982.889,2.381,2.381,0,0,1-.684.171,0.706,0.706,0,0,1-.308-0.547,7.477,7.477,0,0,1-.41-2.222,0.722,0.722,0,0,1,.478-0.786,11.244,11.244,0,0,0,3.213-2.119,8.769,8.769,0,0,0,1.948-2.871,4.309,4.309,0,0,0,.547-1.88,1.522,1.522,0,0,0-.171-0.889q-0.137-.171,0-0.273,0.068-.136.41,0.1a9.221,9.221,0,0,1,2.085,1.709,3.3,3.3,0,0,1,.889,1.572,3.017,3.017,0,0,1-.1.991,0.834,0.834,0,0,1-.615.581,3.18,3.18,0,0,0-1.265.65,13.86,13.86,0,0,0-1.709,1.743,0.779,0.779,0,0,0-.239.547,0.218,0.218,0,0,0,.171.171,1.391,1.391,0,0,1,1.025.649,3.8,3.8,0,0,1,.41,1.777,2.572,2.572,0,0,1-.308,1.47Q66.48,85.37,65.66,86.532a1.181,1.181,0,0,0-.308.718,0.685,0.685,0,0,0,.478.342,0.611,0.611,0,0,1,.41.581q0.068,0.547.273,0.547h0Zm9.228-1.812a5.193,5.193,0,0,1,.923.547,1.037,1.037,0,0,1,.478.513,1,1,0,0,1-.239.786,22.994,22.994,0,0,0-1.265,2.427,33.061,33.061,0,0,1-1.846,3.247,23.665,23.665,0,0,1-2.051,2.7,14.647,14.647,0,0,1-1.709,1.607,0.4,0.4,0,0,1-.478.068,1.233,1.233,0,0,1-.171-0.991q0.171-.82.513-2.051,0.376-1.3.923-1.333a0.687,0.687,0,0,0,.479-0.342,11.7,11.7,0,0,0,1.333-2.119,31.652,31.652,0,0,0,1.47-3.589,2.281,2.281,0,0,0,.137-0.82,0.434,0.434,0,0,0-.068-0.171,2.892,2.892,0,0,1-.718.137,2.206,2.206,0,0,1-1.846-1.572q-0.718-1.436.205-1.675a1.284,1.284,0,0,0,.513-0.308,38.526,38.526,0,0,0,3.828-4.58,22.861,22.861,0,0,0-2.5,1.265,1.334,1.334,0,0,1-1.436-.444,5.022,5.022,0,0,1-1.709-2.017q-0.615-1.333.1-.82a4.294,4.294,0,0,0,2.256.2,21.275,21.275,0,0,0,2.461-.615q0.751-.991,1.162-1.538a1.664,1.664,0,0,0,.308-1.265,0.253,0.253,0,0,0-.171-0.239A5.091,5.091,0,0,0,75.5,73a4.467,4.467,0,0,0-1.025-.547,0.306,0.306,0,0,1-.342-0.137,0.5,0.5,0,0,1,.273-0.444,2.093,2.093,0,0,1,.82-0.444,4.692,4.692,0,0,1,1.3-.137,5.864,5.864,0,0,1,1.811.376,3.346,3.346,0,0,1,1.333.786,1.215,1.215,0,0,1,.41.889,3.311,3.311,0,0,1-.478,1.538,1.817,1.817,0,0,1-.786.581,3.387,3.387,0,0,0-.923.513,14.558,14.558,0,0,1,1.846-.615,8.754,8.754,0,0,0,1.709-.581,2.553,2.553,0,0,1,1.88-.034,3.641,3.641,0,0,1,1.5,1.333q0.444,0.855-.923.991a21.606,21.606,0,0,0-3.384.615,1.145,1.145,0,0,0-.513.171A34.146,34.146,0,0,0,76.324,82.4a3.623,3.623,0,0,0-.786,1.367q0.068,0.274.991-.137a10.513,10.513,0,0,1,2.461-.889A9.007,9.007,0,0,1,80.6,82.6a13.934,13.934,0,0,1-.581-1.811q-0.308-1.093.649-.547a9.489,9.489,0,0,1,2.905,2.29,4.626,4.626,0,0,1,.513,1.948,1.828,1.828,0,0,1-.273,1.47,0.881,0.881,0,0,1-.855-0.034,3.8,3.8,0,0,1-1.3-1.162,3.647,3.647,0,0,0-.2-0.308,11.994,11.994,0,0,0-2.666.65A14.118,14.118,0,0,0,75.333,86.7a0.03,0.03,0,0,0-.034.034,1.376,1.376,0,0,1,.444.171h0ZM86.2,95.248q0.341-.615.547-1.06a2.885,2.885,0,0,0,.308-1.231,13.139,13.139,0,0,0-.068-2.222,0.2,0.2,0,0,1,.034-0.137q0.068-.068.1,0.034a22.794,22.794,0,0,1,1.436,3.623,12.553,12.553,0,0,1,.513,3.144,1.163,1.163,0,0,1-.171.82,1.453,1.453,0,0,1-.718.376,19.428,19.428,0,0,1-3.247.41,28.133,28.133,0,0,1-4.443-.1,3.342,3.342,0,0,1-1.367-.444,4.111,4.111,0,0,1-.889-0.889,3.963,3.963,0,0,1-.547-1.3,4.455,4.455,0,0,1-.1-1.2q0.205-1.469.547-3.657a19.656,19.656,0,0,0,.41-3.35,0.91,0.91,0,0,0-.171-0.684,1.384,1.384,0,0,0-.615-0.547q-0.274-.171.068-0.376a2.426,2.426,0,0,1,1.265-.239,3.283,3.283,0,0,1,1.538.478,2.626,2.626,0,0,1,.957,1.025,0.714,0.714,0,0,1,.1.615,2.072,2.072,0,0,1-.239.547,5.522,5.522,0,0,0-.479,1.06q-0.615,1.778-.82,2.529a13.265,13.265,0,0,0-.342,2.29,1.26,1.26,0,0,0,.1.649,1.273,1.273,0,0,0,.718.649,5.045,5.045,0,0,0,1.88.41,9.294,9.294,0,0,0,2.393-.308,2.02,2.02,0,0,0,1.3-.923h0Zm27.084-5.776q2.119-.205,4.614-0.205,2.325-.034,4-0.068a4,4,0,0,1,2.8.752,3.925,3.925,0,0,1,.923.991,5.463,5.463,0,0,1,.752,1.743q0.239,0.787-.718.649-0.786-.136-2.734-0.547a22.7,22.7,0,0,0-4.375-.615q-1.881-.068-4.956.137a38.293,38.293,0,0,0-5.059.649,25.7,25.7,0,0,0-3.349.957,12.273,12.273,0,0,0-2.735,1.538,1.156,1.156,0,0,1-1.777-.376A22.588,22.588,0,0,1,99.1,92.89q-0.1-.41.65-0.513a29.467,29.467,0,0,0,4.136-1.025,39.6,39.6,0,0,1,4.341-1.162,2.361,2.361,0,0,1,.683-0.1,3.763,3.763,0,0,0,1.162-1.572,24.787,24.787,0,0,0,1.06-4.409,5.078,5.078,0,0,0-.034-2.222,2.32,2.32,0,0,1-.24-0.65q-0.922.171-1.845,0.376a1.777,1.777,0,0,1-1.265-.2,3.79,3.79,0,0,1-1.128-1.128,3.476,3.476,0,0,1-.581-1.641,1.093,1.093,0,0,1,.513-1.06q0.581-.376.478,0.068a0.6,0.6,0,0,0,.2.684,3.067,3.067,0,0,0,1.47.034,19.62,19.62,0,0,0,3.315-.923,16.721,16.721,0,0,0,3.487-1.777,1.425,1.425,0,0,1,1.709-.137,6.551,6.551,0,0,1,1.162,1.094,8.61,8.61,0,0,1,.82,1.094,0.555,0.555,0,0,1-.239.855,5.575,5.575,0,0,1-1.4.444,8.154,8.154,0,0,0-2.564.752q-0.992.445-1.709,0.752A2.872,2.872,0,0,1,114,81.2a1.757,1.757,0,0,1,.444,1.094,6.156,6.156,0,0,1-.171.957q-0.136.581-.376,1.846a33.439,33.439,0,0,1-.786,3.281,0.945,0.945,0,0,0,.171,1.094h0Zm43.559-10.459a15.448,15.448,0,0,1-1.778,3.144c-0.159.183-.319,0.376-0.478,0.581a0.54,0.54,0,0,1,.205.137,1.666,1.666,0,0,1,.547.786,0.591,0.591,0,0,1-.1.65,1.7,1.7,0,0,1-1.059.581,14.341,14.341,0,0,0-3.213,1.06,14.3,14.3,0,0,1-3.9,1.264,11.367,11.367,0,0,0-4.411,1.675,0.32,0.32,0,0,1-.239.068q-0.069-.068.171-0.308a6.362,6.362,0,0,1,1.811-1.3,21.047,21.047,0,0,1,2.427-.991,1.669,1.669,0,0,0,1-.513,1.056,1.056,0,0,0-.415-0.786,11.363,11.363,0,0,1-1.1-1.47q-0.684-.991.069-0.684a3.767,3.767,0,0,0,1.273.376,1.031,1.031,0,0,0-.1-0.137,2.644,2.644,0,0,1-.449-1.06,6.767,6.767,0,0,1-.242-1.5,19.661,19.661,0,0,1-3.213,1.367,0.993,0.993,0,0,1-1.093-.581,13.939,13.939,0,0,1-.889-2.017,0.983,0.983,0,0,1,.068-0.923,1.034,1.034,0,0,1,.581-0.068,5.424,5.424,0,0,0,2.119-.068,13.508,13.508,0,0,1,2.5-.513V77.235a3.03,3.03,0,0,0-.65-1.162q-0.615-.82-1.162-1.47a0.827,0.827,0,0,1-.171-0.786,1.144,1.144,0,0,1,1.128-.239,15.238,15.238,0,0,1,1.914.513,2.855,2.855,0,0,1,1.333.889,3.229,3.229,0,0,1,.479,1.333v1.094a25.986,25.986,0,0,0,2.666-.615,16.226,16.226,0,0,0,2.426-.854h0.035q0.273-1.367.478-2.939,0.206-1.231-.342-1.47a0.494,0.494,0,0,0-.615.068c-0.183.205-.273,0.16-0.273-0.137a1.016,1.016,0,0,1,.273-0.786,1.789,1.789,0,0,1,.752-0.444,2.133,2.133,0,0,1,1.367.137,5.612,5.612,0,0,1,.923.513,1.91,1.91,0,0,1,.752,1.025,7.594,7.594,0,0,1-.239,2.905,1.8,1.8,0,0,0-.1.376,4.889,4.889,0,0,1,1.026-.1,2.135,2.135,0,0,1,1.743,1.128,2.019,2.019,0,0,1,.547,1.3,0.65,0.65,0,0,1-.479.273,32.922,32.922,0,0,1-3.725.718h0a1.656,1.656,0,0,0-.171.513h0Zm-4.307,3.316a1.342,1.342,0,0,1,.171-0.205,10.936,10.936,0,0,0,1.538-3.555,4.771,4.771,0,0,1-.615-0.2,2.059,2.059,0,0,0-1.231-.1,9.6,9.6,0,0,0-1.3.273,9.929,9.929,0,0,0-1.47.547q-0.206,1.367-.342,3.725c-0.023.137-.046,0.273-0.068,0.41q0.511-.1,1.128-0.205a6.3,6.3,0,0,0,1.743-.547,1.435,1.435,0,0,1,.444-0.137h0Zm-4.853,13.4q0.1,0.377,1.435-.137a14.6,14.6,0,0,1,3.589-1.025,12.246,12.246,0,0,1,2.6-.068q-0.376-.888-0.718-1.914-0.274-.888.478-0.479a14.4,14.4,0,0,1,4.273,3.418,5.836,5.836,0,0,1,.752,2.905,1.176,1.176,0,0,1-.171,1.128,0.726,0.726,0,0,1-.65.034,6.449,6.449,0,0,1-1.948-1.572,9.591,9.591,0,0,1-.854-1.162,17.057,17.057,0,0,0-4.068.513,17.275,17.275,0,0,0-4.648,1.641,4.51,4.51,0,0,1-2.29.889q-1.3-.069-2.153-1.948-0.855-1.71.273-2.017a1.358,1.358,0,0,0,.649-0.342,49.082,49.082,0,0,0,4.512-4.409,1.6,1.6,0,0,0-.547.137,37.924,37.924,0,0,0-5.981,2.119q-0.548.308-1.607-.718a6.117,6.117,0,0,1-1.709-2.5q-0.479-1.572.274-.923,0.922,0.718,3.725.684a27.977,27.977,0,0,0,6.358-1.3,40.668,40.668,0,0,1,5.6-1.436,21.777,21.777,0,0,0,3.008-.786,2.762,2.762,0,0,1,2.119.239,3.605,3.605,0,0,1,1.573,1.709q0.409,0.992-1.163,1.025a33.495,33.495,0,0,0-5.844.376,7.974,7.974,0,0,0-1.47.273,32.926,32.926,0,0,0-4.512,4.409,2.5,2.5,0,0,0-.888,1.23h0Zm30.262-15.859a12.814,12.814,0,0,1-1.333-.41,9.73,9.73,0,0,1-2.221-1.265,1.5,1.5,0,0,1-.581-0.923q0.067-.273.41-0.171a19.871,19.871,0,0,0,2.256.615,21.408,21.408,0,0,0,2.836.171,0.224,0.224,0,0,1,.171,0,9.693,9.693,0,0,1,.923-1.094,25.876,25.876,0,0,1,2.905-2.8,2.628,2.628,0,0,1,1.778-.752,2.587,2.587,0,0,1,1.606.273,5.058,5.058,0,0,1,.821.923,2.767,2.767,0,0,1,.376,1.333,3.126,3.126,0,0,1-.957,1.777,6.423,6.423,0,0,1-1.368,1.128,8.485,8.485,0,0,1-2.461,1.025,13.8,13.8,0,0,1-2.8.239q-0.548.992-1.607,2.974a1.813,1.813,0,0,1,.991.342,5.336,5.336,0,0,1,1.5,1.709,18.73,18.73,0,0,1,.957,2.188,0.923,0.923,0,0,0,.479.752,4.1,4.1,0,0,0,.581-1.231,13.885,13.885,0,0,1,1.846-3.691,6.308,6.308,0,0,1,1.3-1.367,2.328,2.328,0,0,1,1.231-.444,3.3,3.3,0,0,1,1.572.308,2.728,2.728,0,0,1,1.5,1.3,1.2,1.2,0,0,1-.649,1.606q-4.923,3.35-5.777,4-3.862,2.974-4.306,3.828a3.527,3.527,0,0,0-.274,1.675,0.4,0.4,0,0,0,.376.376,6.046,6.046,0,0,0,1.3.308,16.731,16.731,0,0,0,1.914.1q1.093-.034,4.375-0.478a2.278,2.278,0,0,1,1.3.684,1.233,1.233,0,0,1,.581.957q0,0.991-.41,1.025a4.128,4.128,0,0,0-1.47.855q-0.649.273-6.391,1.641a22.028,22.028,0,0,0,4.443-2.632,10.579,10.579,0,0,1-2.427.718,10.124,10.124,0,0,1-2.392-.308,8.419,8.419,0,0,1-1.949-.786,4.416,4.416,0,0,1-1.128-1.128,2.36,2.36,0,0,1-.341-1.333,4.45,4.45,0,0,1,.341-1.846,8.809,8.809,0,0,1,2.188-2.358q2.05-1.606,4.238-3.384,4.307-3.076,4.17-3.52a0.506,0.506,0,0,0-.239-0.137,3.532,3.532,0,0,0-.547-0.034,1.858,1.858,0,0,0-1.128.684,12.8,12.8,0,0,0-1.4,2.392q-0.684,1.675-1.094,2.94a6.262,6.262,0,0,0-.376,1.47,5.9,5.9,0,0,1,0,2.222,1.266,1.266,0,0,1-1.094.513,1.784,1.784,0,0,1-1.094-1.06,4.777,4.777,0,0,1-.615-1.675q0-.581-0.1-1.606a7.749,7.749,0,0,0-.411-1.777,1.794,1.794,0,0,0-.888-1.094,4.2,4.2,0,0,0-1.948-.342,5.536,5.536,0,0,1-.992,1.265,1.669,1.669,0,0,1-.854.239,0.855,0.855,0,0,1-.786-0.41,1.69,1.69,0,0,1-.1-1.5,20.705,20.705,0,0,1,2.256-3.691,8.825,8.825,0,0,1,.991-1.3h0Zm4.409-2.5a15.048,15.048,0,0,0,2.6-1.06,1.048,1.048,0,0,0,.615-0.547,0.5,0.5,0,0,0-.239-0.308,0.289,0.289,0,0,0-.239-0.034,2.083,2.083,0,0,0-.923.273,11.822,11.822,0,0,0-1.812,1.675h0Zm22.778,23.037a0.968,0.968,0,0,1-.855-0.581,6.446,6.446,0,0,1-.991-2.222,34.2,34.2,0,0,1-.239-5.64V91.8q-0.957.787-2.017,1.641a0.475,0.475,0,0,1-.683-0.034,2.457,2.457,0,0,1-.616-1.06,4.772,4.772,0,0,1-.136-1.811q0.135-.991.444-0.547a20.554,20.554,0,0,0,2.666-3.247,14.987,14.987,0,0,0,.752-1.606c-0.046.046-.057,0.068-0.034,0.068,0-.046.011-0.068,0.034-0.068-0.023-.022-0.023-0.034,0-0.034q0.067-.786.2-1.538-0.478.445-.923,0.889a1.913,1.913,0,0,1-.752.513,3.348,3.348,0,0,1-.581.034,3.7,3.7,0,0,1-1.4-.273,4.854,4.854,0,0,1-1.538-1.812q-0.377-.649.239-0.615a4.257,4.257,0,0,0,1.914-.615,13.908,13.908,0,0,0,2.8-1.777,5.006,5.006,0,0,1,.854-0.649,29.957,29.957,0,0,0,.342-3.9,5.7,5.7,0,0,0-.308-2.564,1.374,1.374,0,0,0-.581-0.444c-0.273-.068-0.376-0.182-0.307-0.342a0.912,0.912,0,0,1,.854-0.308,3.564,3.564,0,0,1,1.641.444,7.315,7.315,0,0,1,1.435,1.06,1.678,1.678,0,0,1,.513.855,4.794,4.794,0,0,1-.41,1.811,15.484,15.484,0,0,0-.649,2.222,0.6,0.6,0,0,1,.273-0.068q1.4-.136,1.743.615A1.105,1.105,0,0,1,208.21,80q-1.128.718-2.085,1.47a4.727,4.727,0,0,0-.205,1.162,0.779,0.779,0,0,1,.137.342,2.841,2.841,0,0,1-.376,2.085,0.5,0.5,0,0,0-.137.239,14.131,14.131,0,0,0-.137,1.436,2.782,2.782,0,0,1,.41-0.342,16.194,16.194,0,0,0,1.538-1.538,22.53,22.53,0,0,0,1.88-2.529c0.046-.114.114-0.137,0.2-0.069a0.494,0.494,0,0,1,.069.376q-0.855,2.085-1.3,2.939a17.892,17.892,0,0,1-1.025,1.675,19.55,19.55,0,0,1-1.983,2.427,0.03,0.03,0,0,0-.034.034v0.171a52.141,52.141,0,0,0,.137,8.545q0.169,1.948-.171,1.982h0Zm4.99-7.314a8.049,8.049,0,0,1-1.025-1.88,2.877,2.877,0,0,1-.2-1.914,26.465,26.465,0,0,0,.854-2.8,7.192,7.192,0,0,0,.205-1.948q-0.035-.991,0-1.538,0.035-.581.786,0.137a3.047,3.047,0,0,1,.855,1.265,4.227,4.227,0,0,1,.239,1.4v0.034a6.164,6.164,0,0,1,1.47-1.2,2.239,2.239,0,0,1,.957-0.376,3.081,3.081,0,0,1,.991.547,6.036,6.036,0,0,1,1.5-1.367,2.248,2.248,0,0,0-.41-1.128,0.51,0.51,0,0,0-.137-0.376,6.25,6.25,0,0,0-1.572.615,4.347,4.347,0,0,1-1.162.547q-0.684-.034-0.547-1.3a6.943,6.943,0,0,1,.752-2.529,10.816,10.816,0,0,0,1.025-1.3,10.028,10.028,0,0,1,.684-1.025h-0.069a18.03,18.03,0,0,0-1.743.855,5.8,5.8,0,0,0-1.333,1.094,0.844,0.844,0,0,1-1.333,0,14.014,14.014,0,0,1-1.47-1.333q-0.137-.273.411-0.478a15.863,15.863,0,0,0,2.085-1.025,14.584,14.584,0,0,1,2.187-1.162q1.059-.478,2.324-0.923a28.115,28.115,0,0,1,2.769-.752q1.3-.308,2.153-0.547a4.631,4.631,0,0,1,1.06-.068q0.375,0.1.786,0.239a2.9,2.9,0,0,1,.957.684,4.8,4.8,0,0,1,.923,1.3q0.34,0.615-.479.649-0.479,0-1.538-.034a23.516,23.516,0,0,0-2.427.1,18.213,18.213,0,0,0-2.153.479,3.741,3.741,0,0,0-.718,1.4,4.917,4.917,0,0,1-1.128,1.436,4.328,4.328,0,0,0-1.059,1.4c0.022,0.046.1,0.034,0.239-.034a2.457,2.457,0,0,1,1.2-.273,3.883,3.883,0,0,1,1.641,1.23,2.162,2.162,0,0,1,.444,1.025,4.143,4.143,0,0,1,1.06-.376,5.346,5.346,0,0,1,1.675-.308,2.777,2.777,0,0,1,1.367.444,8.137,8.137,0,0,1,1.538,1.538,4.014,4.014,0,0,1,.205,1.572,4.856,4.856,0,0,1-.684,2.153,0.411,0.411,0,0,1-.068.1c0.159,0.091.308,0.183,0.444,0.273a5.958,5.958,0,0,1,1.778,1.983,2.13,2.13,0,0,1,.239,1.641,0.966,0.966,0,0,1-.718.547,2.143,2.143,0,0,1-.547,0,2.41,2.41,0,0,0-.82-0.068q-0.478.034-2.119,0.034-0.411-.034-0.376-0.171,0-.136.444-0.171a11.528,11.528,0,0,0,1.573-.513,0.882,0.882,0,0,0,.444-0.41,1.381,1.381,0,0,0-.479-0.649q-0.615-.513-1.059-0.855l-0.342.342a5.225,5.225,0,0,1-1.572,1.2,2.543,2.543,0,0,1-1.026.171,2.648,2.648,0,0,1-1.025-.068,2.485,2.485,0,0,0-.308-0.1c-0.023.183-.046,0.376-0.068,0.581a21.173,21.173,0,0,1-1.094,3.452q1.914-.136,3.9-0.137a32.327,32.327,0,0,0,3.759-.273,2.686,2.686,0,0,1,1.641.137,3.619,3.619,0,0,1,.889.547,3.948,3.948,0,0,1,.752.752,3.458,3.458,0,0,1,.547,1.2,1.22,1.22,0,0,1-.035.786,0.548,0.548,0,0,1-.512.342,7.031,7.031,0,0,1-1.88-.342,39.678,39.678,0,0,0-4.033-.923,24.332,24.332,0,0,0-5.093-.034,16.981,16.981,0,0,0-4.375.786q-1.368.581-3.35,1.436a1.177,1.177,0,0,1-1.128-.1,4.829,4.829,0,0,1-1.162-.957,3.506,3.506,0,0,1-.41-0.991,0.718,0.718,0,0,1,.1-0.786,0.657,0.657,0,0,1,.615-0.1,4.661,4.661,0,0,0,2.221-.342,27.58,27.58,0,0,1,5.879-.889V94.633a11.752,11.752,0,0,0-1.264-1.709,10.7,10.7,0,0,1-1.3-1.641q-0.307-.615.342-0.273a5.25,5.25,0,0,0,1.709.444,1.557,1.557,0,0,0,.991-0.171,4.783,4.783,0,0,0,.615-2.393,25.585,25.585,0,0,0-.034-3.486,6.208,6.208,0,0,0-1.367,1.3,1.429,1.429,0,0,0-.137.273,3.764,3.764,0,0,0-.342,1.367q-0.1.445-.342,1.162a2.563,2.563,0,0,1-.752,1.094,0.725,0.725,0,0,1-.615.137,1.172,1.172,0,0,1-.342-0.684,1.821,1.821,0,0,1,.206-0.855,8.13,8.13,0,0,0,.478-1.675,5.839,5.839,0,0,0,.034-1.025,0.343,0.343,0,0,0-.205-0.273,0.281,0.281,0,0,0-.171.1,5.054,5.054,0,0,0-.991,1.367q-0.444.342-.991,0.683-0.206,1.436-.444,3.9h0q-0.309,1.675-.855.82h0Zm11.724-6.9,0.683,0.273a4.395,4.395,0,0,0,.376-0.718,2.462,2.462,0,0,0,.274-1.2,2.021,2.021,0,0,0-.205-0.649,1.24,1.24,0,0,0-.718-0.171,5.945,5.945,0,0,0-1.47.376,5.734,5.734,0,0,1-1.3.513c-0.205.068-.353,0.114-0.444,0.137q-0.035.513-.068,1.025a1.975,1.975,0,0,1,.717-0.068,8.739,8.739,0,0,1,2.154.479h0Zm-0.957,1.3Q220,87.045,218.977,86.6q-0.069,1.23-.1,2.29a1.035,1.035,0,0,0,.376,0,1.239,1.239,0,0,0,.889-0.137,4.848,4.848,0,0,0,1.025-.718A1.191,1.191,0,0,1,221.4,87.8a5.107,5.107,0,0,0-.512-0.308h0ZM245,91.112a0.987,0.987,0,0,0,.376-0.273,8.789,8.789,0,0,0,1.4-1.777,18.03,18.03,0,0,0,1.265-2.017,12.739,12.739,0,0,1-.752,2.769q-0.889,1.983-1.23,2.632a3.633,3.633,0,0,0-.308.923,0.32,0.32,0,0,1-.308.308,4.3,4.3,0,0,1-1.709-.786,20.23,20.23,0,0,1-1.059,2.188,1.913,1.913,0,0,1-1.265,1.025,7.139,7.139,0,0,1-1.675-.376A6.4,6.4,0,0,1,238.2,94.8a5.105,5.105,0,0,1-.991-1.333,3.034,3.034,0,0,1-.273-1.367,5.972,5.972,0,0,1,.854-3.042,20.818,20.818,0,0,1,1.948-2.905,14.836,14.836,0,0,1-.376-1.948,23.891,23.891,0,0,1-.341-3.76,13.141,13.141,0,0,1,.239-2.119,9.292,9.292,0,0,1,.478-1.675,0.41,0.41,0,0,1,.342-0.308h0.137a2.345,2.345,0,0,1,.273,1.162q0.273,1.915.786,4.58,0.206,1.026.342,1.846l0.513-.513a25.784,25.784,0,0,1,4.17-3.452,15.19,15.19,0,0,0,.444-1.846,17.293,17.293,0,0,0,.444-2.871q0-.957-0.034-1.367l-0.034-.2a1.428,1.428,0,0,0-.649.752,2.169,2.169,0,0,1,.273-1.265,1.807,1.807,0,0,1,.786-0.137,1.6,1.6,0,0,1,.752.1,2.225,2.225,0,0,1,.889,1.641,25.8,25.8,0,0,1-.479,4.068,8.318,8.318,0,0,1,2.906-.684,16.248,16.248,0,0,1,2.8.239,6.615,6.615,0,0,1,2.359,1.094,5.185,5.185,0,0,1,1.743,2.222,9.865,9.865,0,0,1,.684,3.691,19.26,19.26,0,0,1-1.094,5.981,14.468,14.468,0,0,1-2.154,3.9,9.893,9.893,0,0,1-3.349,3.042,5.485,5.485,0,0,1-2.393.615,12.743,12.743,0,0,0,1.47-.991,8.424,8.424,0,0,0,2.393-2.837,16.554,16.554,0,0,0,1.5-4.272,26.8,26.8,0,0,0,.479-5.059,8.99,8.99,0,0,0-.239-2.324,3.828,3.828,0,0,0-.889-1.606,3.7,3.7,0,0,0-1.367-1.128,5.476,5.476,0,0,0-1.948-.376,9.45,9.45,0,0,0-3.623,1.23q-0.513,1.743-1.368,4.033-1.161,3.111-2.016,5.2h0a0.758,0.758,0,0,0,.41.308h0Zm-0.376-5.981q0.341-1.025.684-1.88a9.45,9.45,0,0,0-1.744,1.538,16.954,16.954,0,0,0-1.4,1.5,1.811,1.811,0,0,1,.137.342q0.581,1.4.923,2.153,0.581-1.572,1.4-3.657h0Zm-2.529,6.46a13.46,13.46,0,0,1-1.333-2.324,6.6,6.6,0,0,1-.342-0.718,4.15,4.15,0,0,0-.41.752,6.308,6.308,0,0,0-.889,2.8,1.053,1.053,0,0,0,.479.684,1.8,1.8,0,0,0,.991.376,1.372,1.372,0,0,0,.957-0.615l0.547-.957h0Zm32.587-11.006q-0.616,1.675-1.333,3.828a55.466,55.466,0,0,0-1.538,5.435,38.988,38.988,0,0,0-.992,6.118,2.734,2.734,0,0,1-.307,1.265,5.093,5.093,0,0,0-.581.855,0.932,0.932,0,0,1-.445.444,1.943,1.943,0,0,1-1.333-1.3,3.189,3.189,0,0,1-.136-1.094,22.863,22.863,0,0,1,1.025-5.435,80.809,80.809,0,0,1,3.315-9.194,0.2,0.2,0,0,1,.035-0.137,0.139,0.139,0,0,0-.1.034,15.937,15.937,0,0,1-3.213.718,3.177,3.177,0,0,1-1.47-.547,4.808,4.808,0,0,1-1.2-1.2,1.278,1.278,0,0,1-.239-0.752,0.336,0.336,0,0,1,.342-0.41c0.113,0.023.216,0.046,0.307,0.068a2.126,2.126,0,0,0,1.06.376,12.265,12.265,0,0,0,2.939-.444q1.777-.513,3.042-0.854a24.864,24.864,0,0,1,1.675-2.837,12.743,12.743,0,0,1,2.153-2.461,2.257,2.257,0,0,1,.992-0.273,1.049,1.049,0,0,1,.581.137,3.127,3.127,0,0,1,.478.342q0.273,0.24.684,0.547,0.58,0.445,1.025.855a1.281,1.281,0,0,1,.581.786,2.629,2.629,0,0,1-.957,1.5,12.79,12.79,0,0,1-3.76,2.427q-1.47.684-2.631,1.2h0Zm4.99-5.127a1.633,1.633,0,0,0-.239-0.649q-0.275-.444-0.513-0.889a0.581,0.581,0,0,0-.308-0.273,1.647,1.647,0,0,0-.786.342,9.514,9.514,0,0,0-1.3,2.256,13.226,13.226,0,0,0-.615,1.265,17.45,17.45,0,0,1,1.846-.923,8.2,8.2,0,0,0,1.914-1.128h0Zm-6.631,12.168a26.94,26.94,0,0,1,2.8-2.392,34.409,34.409,0,0,1,3.862-2.529q1.366-.751,2.7-1.367a4.525,4.525,0,0,1,1.3-.376,1.717,1.717,0,0,1,1.2.649,2.226,2.226,0,0,1,.65,1.4,1.472,1.472,0,0,1-.308.82,3.068,3.068,0,0,1-1.094.855,6.916,6.916,0,0,0-1.64,1.333A24.375,24.375,0,0,0,280.835,88a7.3,7.3,0,0,0-1.06,1.914,4.243,4.243,0,0,0-.341,1.436,0.706,0.706,0,0,0,.2.615,3.1,3.1,0,0,0,1.948.718q1.538,0.137,2.187.137a5.074,5.074,0,0,0,.718-0.1q0.546-.034.65-0.034a6.063,6.063,0,0,1,2.529.41,1.423,1.423,0,0,1,.991,1.23,1.218,1.218,0,0,1-.683,1.094,3.97,3.97,0,0,1-1.778.376,3.3,3.3,0,0,0-1.4.376q-1.368.752-3.452,1.675a12.95,12.95,0,0,1-2.632.752q0.99-.547,2.051-1.094,1.23-.718,2.392-1.436a0.85,0.85,0,0,0,.445-0.342c0-.137-0.206-0.216-0.616-0.239a12.184,12.184,0,0,1-3.418-.752,2.535,2.535,0,0,1-1.606-1.3,3.238,3.238,0,0,1-.308-1.333A6.255,6.255,0,0,1,278,90.121,8.765,8.765,0,0,1,279.16,87.9q0.684-.854,1.538-1.811a27.855,27.855,0,0,1,2.666-2.427,0.394,0.394,0,0,0,.137-0.273q0-.171-0.342-0.171a5.818,5.818,0,0,0-1.538.2q-1.093.376-2.632,0.991a54.087,54.087,0,0,0-5.947,3.213h0ZM308.876,73.92a17.429,17.429,0,0,0,3.008-.855,16.924,16.924,0,0,1,2.632-.923,10.446,10.446,0,0,0,1.435-.478,2.551,2.551,0,0,1,2.119-.034,4.258,4.258,0,0,1,1.778,1.538q0.512,0.923-1.06,1.128a12.446,12.446,0,0,0-2.734.581,24.777,24.777,0,0,0-2.871,1.094,26.114,26.114,0,0,0-2.7,1.4q-0.546.342-1.606-.513a5.358,5.358,0,0,1-1.948-2.222q-0.615-1.469.136-.923a3.137,3.137,0,0,0,1.812.2h0Zm-3.691,22.969a0.921,0.921,0,0,0,.649-0.034,55.819,55.819,0,0,0,7.144-1.436,15.754,15.754,0,0,1,2.871-.478,46.735,46.735,0,0,1-4.888-5.127,15.551,15.551,0,0,1-.855,3.213q-0.717,1.436-1.23,1.4-0.582-.068-0.82-1.641a5.549,5.549,0,0,1,.136-2.871,14.018,14.018,0,0,0,.718-3.144,5.212,5.212,0,0,0,.1-1.88,5.784,5.784,0,0,0-1.709-1.333q-0.615-.341.1-1.811,0.649-1.3,1.06-1.059l0.068,0.068c0-.022.034-0.034,0.1-0.034a6.852,6.852,0,0,0,2.221-.786,11.061,11.061,0,0,0,2.427-1.743,4.469,4.469,0,0,0,.752-0.82,1.257,1.257,0,0,0,.171-0.923,0.335,0.335,0,0,1,.068-0.376q0.1-.136.445,0.068a7.036,7.036,0,0,1,2.324,1.948,1.5,1.5,0,0,1,.342,1.367,1.258,1.258,0,0,1-.479.649,0.647,0.647,0,0,1-.478.137,1.282,1.282,0,0,0-.684.068,10.93,10.93,0,0,0-1.846.718,22.663,22.663,0,0,1-3.828,1.436l0.41,0.684a3.837,3.837,0,0,1,.718,2.324q0.342-.1.684-0.239,0.853-.308,3.554-1.675a20.983,20.983,0,0,1,3.589-1.538,2.1,2.1,0,0,1,.923.068,2.3,2.3,0,0,1,.889.957,1.806,1.806,0,0,1,.376.991,0.988,0.988,0,0,1-.581.478q-1.983.787-3.452,1.436l0.034,0.034a1.924,1.924,0,0,1,.342.718,3.224,3.224,0,0,1,.034.786,14.063,14.063,0,0,0-.1,1.846q0,1.915.034,4.409a2.715,2.715,0,0,1-.239,1.094,13.261,13.261,0,0,1,1.641-.034,3.525,3.525,0,0,1,2.5,1.572q1.572,2.6-.205,2.29a31.318,31.318,0,0,0-5.366-.65,23.083,23.083,0,0,0-4.649.65q-1.4.308-2.871,0.718a3.53,3.53,0,0,0-1.367.547,1.087,1.087,0,0,1-.581.239,2.5,2.5,0,0,1-.889-0.342,17.583,17.583,0,0,1-1.982-2.051,5.245,5.245,0,0,1-.855-2.563,20.976,20.976,0,0,1-.034-4.512q0.171-3.281.137-10.6a1,1,0,0,1,.957-1.3q0.513,0,.513.342a0.643,0.643,0,0,1-.411.342,0.328,0.328,0,0,0,0,.479,6.759,6.759,0,0,0,.992,1.846,3.069,3.069,0,0,1,.341,1.572,8.264,8.264,0,0,1-.171,2.153,27.534,27.534,0,0,0-.649,4.888,24.14,24.14,0,0,0,.376,5.879h0a1.434,1.434,0,0,0,.479.581h0Zm6.562-8.579a0.765,0.765,0,0,1-.615.068v0.137l-0.069.615a13.734,13.734,0,0,0,3.008,1.982,1.47,1.47,0,0,0,1.3.205,1.336,1.336,0,0,0,.068-0.684,37.591,37.591,0,0,0-.444-3.76,28.954,28.954,0,0,0-3.247,1.436h0Zm29.2-3.35a10.369,10.369,0,0,1-2.256,1.743,2.78,2.78,0,0,1-1.23.444A7.365,7.365,0,0,1,335,85.678a1.683,1.683,0,0,1-.513-1.435q0.034-.41.274-0.41h0.273a2.06,2.06,0,0,0,1.2.752,9.84,9.84,0,0,0,1.265-.478q1.4-.615,1.743-0.82a15.143,15.143,0,0,1,3.213-1.743q0.238-.581.376-0.923a10.65,10.65,0,0,0,.786-3.384,3.672,3.672,0,0,0-.1-0.991,0.2,0.2,0,0,0-.1-0.1,0.677,0.677,0,0,0-.41.1,0.517,0.517,0,0,1-.308.137,0.313,0.313,0,0,1-.2-0.376,0.586,0.586,0,0,1,.24-0.444,1.314,1.314,0,0,1,.615-0.273,2.085,2.085,0,0,1,1.367.376,3.305,3.305,0,0,1,1.2,2.153,8.54,8.54,0,0,1-.512,2.427,3.472,3.472,0,0,0-.274.786,5.9,5.9,0,0,1,2.871.513,4.334,4.334,0,0,1,.513.376,0.03,0.03,0,0,1,.034-0.034,0.121,0.121,0,0,1,.137.137,3.681,3.681,0,0,1,1.606,1.743,6.51,6.51,0,0,1,.513,2.256,17.013,17.013,0,0,1-.684,3.794,15.563,15.563,0,0,1-2.016,4.2,7.905,7.905,0,0,1-2.735,2.871,4.806,4.806,0,0,1-2.119.581,1.988,1.988,0,0,1-1.2-.683,12.783,12.783,0,0,1-1.025-1.743,9.387,9.387,0,0,1-.923-2.871,15.306,15.306,0,0,0-1.88,2.769,0.91,0.91,0,0,1-.718.684,2.049,2.049,0,0,1-1.094-.342,0.818,0.818,0,0,1-.444-0.718,1.917,1.917,0,0,1,.273-0.684A48.674,48.674,0,0,0,339.549,88h0q0.752-1.709,1.4-3.042h0Zm0.069,6.016a2.4,2.4,0,0,0-.308.376,5.2,5.2,0,0,0,.478.889,13.449,13.449,0,0,0,1.709,2.085,2.139,2.139,0,0,0,1.026.478,1.869,1.869,0,0,0,1.025-.547,7.426,7.426,0,0,0,1.743-2.358,16.068,16.068,0,0,0,1.3-3.179,11.436,11.436,0,0,0,.513-2.7,4.677,4.677,0,0,0-.308-1.572,2.445,2.445,0,0,0-.752-0.991q-4.238,4.649-6.425,7.519h0Zm1.606-4.648a1.648,1.648,0,0,0-.2.718,0.238,0.238,0,0,0,.273.2A0.6,0.6,0,0,0,343,86.942a18.267,18.267,0,0,1,1.948-2.051q0.719-.718,1.948-1.743a3.915,3.915,0,0,0-1.777-.41c-0.319.023-.559,0.046-0.718,0.068q-0.751,1.675-1.777,3.521h0Zm9.707-6.768a11.06,11.06,0,0,1,1.606-.513,7.773,7.773,0,0,1,1.3-.171,3.942,3.942,0,0,1,1.367.342,9.656,9.656,0,0,1,2.051,1.094,5.419,5.419,0,0,1,1.4,1.5,4.6,4.6,0,0,1,.547,2.256,1.6,1.6,0,0,1-.308.923,0.618,0.618,0,0,1-.547.342,1.325,1.325,0,0,1-.684-0.479,1.483,1.483,0,0,0-.478-0.273,2.436,2.436,0,0,0-.855-0.1q-2.016.069-3.383,0.1,0.752-.308,2.392-0.855a2.712,2.712,0,0,1,.752-0.171q0.444-.068.444-0.2a2.892,2.892,0,0,0-.786-1.231,8.109,8.109,0,0,0-1.333-1.059,6.584,6.584,0,0,0-2.119-.786,8.341,8.341,0,0,0-1.538-.171,0.174,0.174,0,0,1-.171-0.171,0.435,0.435,0,0,1,.342-0.376h0Zm2.188-6.084a6.048,6.048,0,0,0,.717.513,1,1,0,0,0,.445.205,0.455,0.455,0,0,0,.136-0.205,0.954,0.954,0,0,0,.24-0.444,0.865,0.865,0,0,0,.171-0.308,0.287,0.287,0,0,1,.239-0.171,0.618,0.618,0,0,1,.068.547q-0.035.957-.137,1.709c-0.068.456-.114,0.73-0.136,0.82l-0.069.2a1.442,1.442,0,0,1-.683-0.239,2.586,2.586,0,0,1-.821-0.684,3.539,3.539,0,0,1-.615-1.06,4.169,4.169,0,0,1-.239-0.923q-0.069-.205.171-0.239h0a0.744,0.744,0,0,1,.513.274h0Zm3.178-2.427a4.062,4.062,0,0,1,1.367.308,2.114,2.114,0,0,1,1.128.957,1.709,1.709,0,0,1,.274.786,0.624,0.624,0,0,1-.684.684,1.037,1.037,0,0,1-.376-0.1,1.121,1.121,0,0,1-.615-0.615,7.87,7.87,0,0,0-.889-1.23q-0.752-.786-0.205-0.786h0ZM45.959,114.809a7.7,7.7,0,0,1,2.188,1.948,3.3,3.3,0,0,1,.342,1.606,1.634,1.634,0,0,1-.342,1.3,0.825,0.825,0,0,1-.786-0.068,3.468,3.468,0,0,1-.957-1.026,10.092,10.092,0,0,1-1.094-3.315q-0.171-.992.649-0.444h0ZM34.235,137.128a0.627,0.627,0,0,1-.376.068,0.583,0.583,0,0,1-.171-0.034q0,1.026-.957-0.239a10.952,10.952,0,0,1-1.3-5.264,10.473,10.473,0,0,1,.649-4.717,0.2,0.2,0,0,1,.034-0.136,8.976,8.976,0,0,0-1.162.922,0.779,0.779,0,0,1-1.265-.17,7.678,7.678,0,0,1-.82-0.923q-0.137.376-.273,0.717a51.685,51.685,0,0,0-2.734,8.956,5.306,5.306,0,0,1-.513,1.572,0.586,0.586,0,0,1-.547.307,1.287,1.287,0,0,1-.718-0.752,4.363,4.363,0,0,1-.615-1.948,1.244,1.244,0,0,1,.308-0.991,3.426,3.426,0,0,0,.718-1.333,21.067,21.067,0,0,0,.889-3.623,1.207,1.207,0,0,0-.034-1.025,0.332,0.332,0,0,0-.444-0.1,1.084,1.084,0,0,0-.615.444,7.122,7.122,0,0,1-1.025.957,0.885,0.885,0,0,1-.615.274,1.2,1.2,0,0,1-.479-0.889,6.65,6.65,0,0,1-.273-1.743,0.685,0.685,0,0,1,.342-0.649,4.738,4.738,0,0,0,1.06-.923,8.439,8.439,0,0,0,1.538-2.6,1.39,1.39,0,0,0,.171-0.991,0.433,0.433,0,0,0-.239-0.171,0.5,0.5,0,0,0-.41.2,4.85,4.85,0,0,1-1.811.786,1.51,1.51,0,0,1-.649.171,0.625,0.625,0,0,1-.308-0.478,7.125,7.125,0,0,1-.41-2.188,0.673,0.673,0,0,1,.479-0.718,9.76,9.76,0,0,0,2.939-2.119,7.658,7.658,0,0,0,1.743-2.768,4.242,4.242,0,0,0,.513-1.778,1.443,1.443,0,0,0-.171-0.854,0.207,0.207,0,0,1,0-.274q0.1-.1.41,0.137a7.583,7.583,0,0,1,2.017,1.641,2.606,2.606,0,0,1,.82,1.469,2.5,2.5,0,0,1-.034.923,0.757,0.757,0,0,1-.581.581,2.943,2.943,0,0,0-1.128.684,10.952,10.952,0,0,0-1.538,1.709,0.711,0.711,0,0,0-.205.512,0.219,0.219,0,0,0,.171.172,1.2,1.2,0,0,1,.923.683,3.249,3.249,0,0,1,.308,1.675,2.427,2.427,0,0,1-.239,1.4q-0.718,1.128-1.47,2.256a1.292,1.292,0,0,0-.239.718,0.518,0.518,0,0,0,.376.342,0.613,0.613,0,0,1,.308.547,0.621,0.621,0,0,0,.342.581,0.859,0.859,0,0,0,.479-0.581,76.892,76.892,0,0,0,3.179-7.486,0.3,0.3,0,0,1,.274-0.239,0.408,0.408,0,0,1,.068.376q-0.957,3.178-1.709,5.434,1.264-.375,2.905-1.025a12.128,12.128,0,0,1,2.393-.923q0.888-.82,1.435-1.435a0.742,0.742,0,0,0,.171-0.581q-0.034-.137-0.273,0a7.694,7.694,0,0,0-1.538.717,6.2,6.2,0,0,1-1.5.889,0.309,0.309,0,0,1-.239.034,0.372,0.372,0,0,1-.171-0.307,12.6,12.6,0,0,1-.376-1.846,2.527,2.527,0,0,1,.068-0.444,0.344,0.344,0,0,1,.273-0.171,8.689,8.689,0,0,0,1.23-.513q0.478-.206,1.025-0.41a0.41,0.41,0,0,0,.308-0.274,0.291,0.291,0,0,0-.342-0.17,2.927,2.927,0,0,1-1.641-.582,2.34,2.34,0,0,1-.923-0.991,2.021,2.021,0,0,1-.376-0.854,0.2,0.2,0,0,1,0-.171,0.3,0.3,0,0,1,.1-0.308c0.114-.022.182,0,0.205,0.069q0.854-.684,1.777-1.5a9.81,9.81,0,0,0,1.162-1.2,1.462,1.462,0,0,0,.239-0.888,2.653,2.653,0,0,0-1.982-1.026q-0.376-.239-0.034-0.376a6.926,6.926,0,0,1,2.905-.752,2.858,2.858,0,0,1,1.948.889,3.075,3.075,0,0,1,.581,1.2,2.281,2.281,0,0,1-.1,1.2,1.705,1.705,0,0,1-1.23.615,9.075,9.075,0,0,0-2.393.889,24.676,24.676,0,0,1-2.461,1.23,0.2,0.2,0,0,1,.137.034,4.207,4.207,0,0,0,1.4-.034,15.413,15.413,0,0,0,4-1.333,1.641,1.641,0,0,1,.547-0.205,2.362,2.362,0,0,1,.581.273,2.724,2.724,0,0,1,1.094,1.436,0.63,0.63,0,0,1,.068.376,1.152,1.152,0,0,1-.444.2,23.7,23.7,0,0,0-2.6,1.914,0.37,0.37,0,0,0-.171.273,0.134,0.134,0,0,0,.137.1,2.475,2.475,0,0,0,.649-0.171,0.412,0.412,0,0,1,.273-0.068,1.52,1.52,0,0,1,.308.171,8.1,8.1,0,0,1,1.3,1.162,0.422,0.422,0,0,1,.1.239,1.1,1.1,0,0,1-.239.478,8.054,8.054,0,0,1-.889,1.129,1.778,1.778,0,0,1,.41-0.1,20,20,0,0,1,2.871-.444q-0.1-.719-0.137-1.436-0.274-2.666-.308-4.922a30.337,30.337,0,0,0-.308-3.076,1.709,1.709,0,0,0-.444-1.06,0.4,0.4,0,0,0-.581.137q-0.376.411-.376,0.069a2.166,2.166,0,0,1,.273-0.821,0.822,0.822,0,0,1,.684-0.513,4.022,4.022,0,0,1,1.47.684,4.448,4.448,0,0,1,1.5,1.572,2.127,2.127,0,0,1,.376,1.675,25.355,25.355,0,0,0-.308,2.564,30.347,30.347,0,0,0,.068,4.511,3.138,3.138,0,0,0,.034.445q1.436-.171,2.5-0.308a5.459,5.459,0,0,1,1.572.068q0.273,0.138.615,0.274a2.361,2.361,0,0,1,.718.649,4.5,4.5,0,0,1,.649,1.162q0.171,0.513-.479.479-0.65-.067-2.222-0.2a24.008,24.008,0,0,0-3.145-.171q0.171,1.436.41,2.905,0.171,0.992.308,1.914A2.769,2.769,0,0,1,45,128.207a4.094,4.094,0,0,0,.41-2.358q-0.1-.684.342-0.787a1.418,1.418,0,0,1,.615.24,2.143,2.143,0,0,1,.718.717,1.644,1.644,0,0,1,.444,1.128,3.253,3.253,0,0,1-.855,2.29q-0.65.855-1.3,1.607c0.022,0.068.045,0.148,0.068,0.239a37.731,37.731,0,0,0,1.367,3.726,1.509,1.509,0,0,0,.444.683,1.073,1.073,0,0,0,.41-0.752,12.5,12.5,0,0,0,.547-3.349c0-.091.034-0.137,0.1-0.137s0.114,0.08.137,0.239a29.118,29.118,0,0,1,.137,4.136,6.954,6.954,0,0,0,.137,2.017,12.836,12.836,0,0,1,.205,2.119,1.157,1.157,0,0,1-.171.718,1.342,1.342,0,0,1-.752-0.411A11.577,11.577,0,0,1,46.3,138.29a22.834,22.834,0,0,1-1.675-3.486,14.958,14.958,0,0,1-.718-2.256,7.378,7.378,0,0,1-2.119,1.3,15.487,15.487,0,0,1-1.709.478c-0.046.319-.08,0.593-0.1,0.82A11.572,11.572,0,0,1,39.4,137.3a11.4,11.4,0,0,1-.649,1.23,0.54,0.54,0,0,1-.615.308,1.121,1.121,0,0,1-.718-0.684q-0.513-.957-0.854-1.777a9.231,9.231,0,0,0-2.324.752h0Zm-0.581-1.709a6,6,0,0,0,1.265-.445,4.305,4.305,0,0,1,1.025-.341,3.062,3.062,0,0,1,.649,0,1.129,1.129,0,0,1,1.025.718,0.814,0.814,0,0,0,.137-0.377,17.642,17.642,0,0,0,.308-2.734q0.068-1.128-.034-4.1a0.4,0.4,0,0,0-.1-0.376,0.786,0.786,0,0,0-.444.1,10.2,10.2,0,0,1-1.367.479,6.891,6.891,0,0,0-2.324,1.572v0.752a5.244,5.244,0,0,1,1.606-.239,4.212,4.212,0,0,1,1.436.649,1.756,1.756,0,0,1,.889,1.162,0.833,0.833,0,0,1-.581.65,4.065,4.065,0,0,1-1.333.136,10.558,10.558,0,0,1-1.982-.581q-0.035.855-.068,1.607a10.2,10.2,0,0,0-.1,1.367h0Zm3.008-9.365a3.233,3.233,0,0,1,1.23-.411,2.143,2.143,0,0,1,1.2.411,5.165,5.165,0,0,1,.991.82,1.755,1.755,0,0,1,.273,1.094q0.034,2.906-.068,4.443c-0.046.3-.08,0.593-0.1,0.889a18.393,18.393,0,0,0,2.905-2.324c0.137-.16.251-0.285,0.342-0.377q-0.376-1.537-.889-4.409a20.2,20.2,0,0,1-.41-2.187q-1.094.1-2.461,0.342a24.459,24.459,0,0,0-4.033.923,8.681,8.681,0,0,0-1.914.717q-0.035.959,0,2.7a0.4,0.4,0,0,1,.068-0.1,11.819,11.819,0,0,1,1.265-1.47,5.046,5.046,0,0,1,1.607-1.059h0Zm24.862-12.51a0.753,0.753,0,0,1,.649.342,2.1,2.1,0,0,1,.1,1.538,38.9,38.9,0,0,0-1.5,6.836q0,0.307.444,0.342a1.3,1.3,0,0,0,.376-0.684,47.473,47.473,0,0,1,3.042-7.007A11.692,11.692,0,0,1,66,113.1a1.9,1.9,0,0,1,1.265-.376,2.019,2.019,0,0,1,1.231.376,7.26,7.26,0,0,1,.923,1.264,13.414,13.414,0,0,1,1.2,2.871,15.539,15.539,0,0,1,.581,4.033,30.253,30.253,0,0,1-.342,3.931,29.548,29.548,0,0,1-.923,4.375,18.165,18.165,0,0,1-1.47,3.76,11.831,11.831,0,0,1-1.5,2.358,14.654,14.654,0,0,1-2.324,2.188,10.5,10.5,0,0,1-3.008,1.538,12.26,12.26,0,0,0,2.256-2.222,14.565,14.565,0,0,0,1.811-3.076,24.482,24.482,0,0,0,1.5-4.17q0.513-2.05.82-4.136a38.632,38.632,0,0,0,.308-4.546q-0.069-2.016-.205-3.486a19.748,19.748,0,0,0-.308-2.222,0.505,0.505,0,0,0-.547-0.41,2.021,2.021,0,0,0-.957.308,5.115,5.115,0,0,0-1.3,1.572,10.31,10.31,0,0,0-1.333,3.008q-0.718,2.5-1.128,3.555a10.31,10.31,0,0,0-.82,3.281q0,1.334-.547,1.025a3.778,3.778,0,0,1-1.025-.888,7.184,7.184,0,0,1-.889-1.4,4.308,4.308,0,0,1-.444-2.016,26.463,26.463,0,0,1,.479-4.341q0.41-2.05.923-3.828a8.29,8.29,0,0,1,.342-0.855q0.341-.581.479-0.82a0.482,0.482,0,0,1,.478-0.2h0Zm39.423,10.322a1.142,1.142,0,0,0-.034-1.333,0.5,0.5,0,0,0-.547-0.068q-0.273.238-.239-0.171a0.933,0.933,0,0,1,.41-0.615,1.318,1.318,0,0,1,.718-0.274,2.246,2.246,0,0,1,1.162.41,5,5,0,0,1,.718.616,1.4,1.4,0,0,1,.444.991,7.429,7.429,0,0,1-.718,2.529,21.261,21.261,0,0,1-1.674,3.316q0.819,1.64,1.572,2.905a29.652,29.652,0,0,0,2.666,3.9,2.026,2.026,0,0,0,.683.65,1.257,1.257,0,0,0,.547-0.923,13.935,13.935,0,0,0,.684-4.1,0.124,0.124,0,0,1,.068-0.1,0.246,0.246,0,0,1,.1.171q0.238,3.007.2,4.067a7.356,7.356,0,0,0,.171,1.982q0.137,0.821.239,2.085a1.07,1.07,0,0,1-.137.718,1.146,1.146,0,0,1-.923-0.273,11.509,11.509,0,0,1-2.324-1.743,21.418,21.418,0,0,1-2.6-3.418,29.728,29.728,0,0,1-2.051-3.692,2.868,2.868,0,0,0-.24-0.444,5.4,5.4,0,0,1-.786.82,7.343,7.343,0,0,1-2.29,1.367,6.357,6.357,0,0,1-2.563.308,0.281,0.281,0,0,1-.273-0.171,0.308,0.308,0,0,1,.239-0.239,11.626,11.626,0,0,0,2.734-1.812,12.072,12.072,0,0,0,1.914-2.632q-0.445-1.059-.991-2.324a45.174,45.174,0,0,1-1.709-4.58,3.141,3.141,0,0,0-.342.479,36.551,36.551,0,0,1-2.666,3.418,5.649,5.649,0,0,1,1.709.239,3.479,3.479,0,0,1,1.3.547,0.646,0.646,0,0,1,.239.512,1.379,1.379,0,0,1-.239.582,21.021,21.021,0,0,0-1.606,3.212,15.744,15.744,0,0,1-1.743,3.247,6.881,6.881,0,0,1-1.572,1.5,0.994,0.994,0,0,1-.513.205,1.24,1.24,0,0,1-.581-0.41,18.283,18.283,0,0,1-1.572-2.5,6.93,6.93,0,0,1-.615-2.119,0.522,0.522,0,0,1-.41-0.273,7.578,7.578,0,0,1-.649-1.914,0.672,0.672,0,0,1,.273-0.787,15.187,15.187,0,0,1,1.88-.854,20.327,20.327,0,0,0,2.7-2.564,22.353,22.353,0,0,0,3.076-4.58,45.247,45.247,0,0,0-4.375,3.179,1.489,1.489,0,0,1-1.025.068,10.107,10.107,0,0,1-2.085-.82,1.35,1.35,0,0,1-.205-0.137,3.375,3.375,0,0,1-.1.821,17.053,17.053,0,0,0-.786,3.794,16.725,16.725,0,0,0,0,2.632,22.88,22.88,0,0,1,.068,2.529,7.4,7.4,0,0,1-.649,2.666,2.642,2.642,0,0,1-.889,1.333,0.651,0.651,0,0,1-.581.1,1.671,1.671,0,0,1-.547-0.82,5.3,5.3,0,0,1-.581-1.846,22.134,22.134,0,0,1-.137-3.247c-0.023-.09.011-0.125,0.1-0.1a0.291,0.291,0,0,1,.273.273,3.483,3.483,0,0,0,.342,1.47,0.459,0.459,0,0,0,.308.273,1.072,1.072,0,0,0,.273-0.615,11.014,11.014,0,0,0,.239-1.914,19.424,19.424,0,0,0-.205-2.871,23.175,23.175,0,0,1-.1-3.11A12.291,12.291,0,0,1,84.678,120a9.362,9.362,0,0,0,.513-1.812,0.427,0.427,0,0,1,.137-0.41,0.9,0.9,0,0,1,.513.581,12.137,12.137,0,0,1,1.094,2.5,3.391,3.391,0,0,1,.1.547,0.391,0.391,0,0,1,.273-0.137,8.949,8.949,0,0,0,2.837-1.709,20.147,20.147,0,0,1,3.11-2.153,13.4,13.4,0,0,1,1.3-.752q-0.205-.751-0.342-1.4a32.88,32.88,0,0,0-1.025-3.247,1.913,1.913,0,0,0-.718-1.06,0.442,0.442,0,0,0-.615.274c-0.228.341-.354,0.4-0.376,0.171a1.872,1.872,0,0,1,.034-0.787,0.852,0.852,0,0,1,.547-0.649,2.923,2.923,0,0,1,1.47.308,5.209,5.209,0,0,1,1.743,1.093,2.726,2.726,0,0,1,.923,1.812,12.6,12.6,0,0,0,.239,2.085,6.532,6.532,0,0,1,2.769.82,1.666,1.666,0,0,1,.923,1.128,1.385,1.385,0,0,1-.205.82,1.151,1.151,0,0,1-.615.65,3,3,0,0,0-1.128.752,4.321,4.321,0,0,0-.649.649q0.205,0.649.444,1.3,0.888,2.564,1.948,5.059,0.513-1.2,1.025-2.564h0Zm-12.646,6.6a8.24,8.24,0,0,0,2.461,1.709,1.333,1.333,0,0,0,.376.1,0.513,0.513,0,0,0,.308-0.341,12.354,12.354,0,0,0,1.23-3.418q0.1-.411-0.1-0.445a0.937,0.937,0,0,0-.478.1,22.717,22.717,0,0,0-3.794,2.29h0Zm11.587-16.68a3.829,3.829,0,0,1-.82-0.478,0.7,0.7,0,0,1,.068-1.3,3,3,0,0,1,1.469-.308,4.955,4.955,0,0,1,2.769.615,3.475,3.475,0,0,1,.82,1.846q0.342,1.264-.068,1.5a1.34,1.34,0,0,1-.991-0.034,11.938,11.938,0,0,1-1.3-.752,10.976,10.976,0,0,0-1.948-1.094h0Zm29.613,3.965a11.282,11.282,0,0,1,.171-1.709,16.345,16.345,0,0,1,.581-2.461,6.49,6.49,0,0,1,.889-1.675,1.03,1.03,0,0,1,.717-0.41h0.2q0.1,0.548.1,0.581a7.475,7.475,0,0,0,1.094,1.675,6.339,6.339,0,0,0,1.845,1.333,20.948,20.948,0,0,0,3.282,1.23,2.716,2.716,0,0,1,.649.171,2.446,2.446,0,0,1,.581.923,1.542,1.542,0,0,1-.718.821,1.713,1.713,0,0,1-.957.58c-0.228.024-.729,0.046-1.5,0.069q-0.478.034-1.4,0.034a20.076,20.076,0,0,0-3.008.239v0.24q0.035,0.615.274,3.281a27.485,27.485,0,0,1,.171,3.144,3.2,3.2,0,0,1-.2,1.128,13.082,13.082,0,0,1,.273,2.871,10.059,10.059,0,0,1-.308,2.632,13.137,13.137,0,0,1-1.435,3.589,9.936,9.936,0,0,1-2.5,2.6,14.037,14.037,0,0,1-2.94,1.811,15.586,15.586,0,0,0,2.222-2.632,14.328,14.328,0,0,0,1.23-2.426,20.011,20.011,0,0,0,.889-3.179,12.987,12.987,0,0,0,.239-1.982,3.611,3.611,0,0,1-.581.444,3.424,3.424,0,0,1-1.469.649,3.81,3.81,0,0,1-1.949-.615,1.575,1.575,0,0,1-.581-1.47q0.035-.751.171-2.119a13.218,13.218,0,0,1,.615-2.392,3.835,3.835,0,0,1,1.094-1.607,2.147,2.147,0,0,1,.991-0.41,3.19,3.19,0,0,1,1.06.273,0.881,0.881,0,0,1,.342.2q-0.1-1.059-.137-2.016-0.035-.444-0.034-1.572-1.334.239-2.6,0.581a31.079,31.079,0,0,0-4.341,1.5q-1.812.819-2.871,1.367a4.352,4.352,0,0,1-.957.41,1.722,1.722,0,0,1-1.2-.82,2.175,2.175,0,0,1-.513-1.368c0-.182.046-0.273,0.137-0.273a3.364,3.364,0,0,0,1.025-.2q4.683-1.436,8.819-2.5h0a25.048,25.048,0,0,1,2.529-.547h0Zm0.068,9.263a4.355,4.355,0,0,0,.1-0.581l-0.1-.411a3,3,0,0,0-.854-1.025,0.831,0.831,0,0,0-.479-0.1,0.663,0.663,0,0,0-.512.308,3.029,3.029,0,0,0-.547,1.094,5.606,5.606,0,0,0-.308,1.435q-0.069.959-.068,1.5c0,0.251.079,0.376,0.239,0.376a1.478,1.478,0,0,0,.581-0.341,8.2,8.2,0,0,0,1.2-1.06,2.844,2.844,0,0,0,.752-1.2h0Zm2.461-9.673q3.144-.342,4.1-0.342c0.25,0,.376-0.068.376-0.2a0.717,0.717,0,0,0-.41-0.376,11.965,11.965,0,0,1-1.47-.991,9.007,9.007,0,0,1-1.777-1.538,6.425,6.425,0,0,1-.787-1.4q-0.035.582-.034,2.051v2.8h0Zm37.543,15.381a6.281,6.281,0,0,1-.034-1.162v-0.035a4.665,4.665,0,0,0-1.2.65,1.056,1.056,0,0,1-.41.136,1.285,1.285,0,0,1-.445-0.136,14.908,14.908,0,0,1-1.3-.752,2,2,0,0,1-.41-0.752,0.849,0.849,0,0,1,.069-0.615,0.965,0.965,0,0,1,.581-0.171,4.808,4.808,0,0,0,1.367-.376,5.024,5.024,0,0,1,1.162-.41,1.8,1.8,0,0,1,.273-0.376,2.444,2.444,0,0,0,.308-0.547v-0.137a1.468,1.468,0,0,0-.957-0.2,4.229,4.229,0,0,1-1.846-.444q-1.024-.547-0.273-1.2a18.1,18.1,0,0,1,2.085-.82,0.485,0.485,0,0,1,.068-0.2,7.6,7.6,0,0,1,.547-1.025,1.042,1.042,0,0,0,.171-0.445,1.5,1.5,0,0,0-1.128-.376q-1.128-.1-2.563-0.342a5.035,5.035,0,0,0-.787-0.17,5.03,5.03,0,0,1-.136,1.777,23.035,23.035,0,0,0-.581,4.648,54.8,54.8,0,0,0,.171,6.8q0.341,3.657-.069,4.58a0.634,0.634,0,0,1-.342.41,0.833,0.833,0,0,1-.512-0.444,10.382,10.382,0,0,1-1.3-2.427,5.878,5.878,0,0,1-.068-2.085q0.1-1.332.136-4.135,0-2.734.1-4.273,0.068-1.469.034-3.11-0.034-1.539.1-3.521a1.046,1.046,0,0,1,.239-0.683q0.2-.206.82,0.341a5.356,5.356,0,0,1,1.231,1.538,1.558,1.558,0,0,1,.068.171,0.469,0.469,0,0,1,.308-0.171,2.946,2.946,0,0,0,1.64-.341,17.2,17.2,0,0,0,2.051-1.2q0.375-.273.684-0.512a5.844,5.844,0,0,1,.034-0.65,1.243,1.243,0,0,1,.273-0.718q0.206-.239.82,0.274a3.053,3.053,0,0,1,.957-0.41,3.464,3.464,0,0,1,1.675,0,2.374,2.374,0,0,1,1.094.649,0.8,0.8,0,0,1,.205.821,1.083,1.083,0,0,1-.444.615,8.126,8.126,0,0,0-1.538,1.538c-0.16.2-.342,0.422-0.547,0.649a13.134,13.134,0,0,0-.239,1.436q0.34-.069.581-0.1a0.98,0.98,0,0,1,1.162.376,5.074,5.074,0,0,1,.376.889,0.3,0.3,0,0,1-.171.444,2.643,2.643,0,0,0-.923.752q-0.377.377-1.231,1.128v0.308a2.012,2.012,0,0,1,.752-0.137,5.269,5.269,0,0,1,.992-0.034,1.288,1.288,0,0,1,.683.273,2.946,2.946,0,0,1,.684.923,0.851,0.851,0,0,1,.068.65,0.752,0.752,0,0,1-.444.376,2.436,2.436,0,0,0-.991.786q-0.445.546-1.5,1.606a10.824,10.824,0,0,1,0,1.2,6.946,6.946,0,0,1,.854-0.17q0.411-.034,1.265-0.171a4.04,4.04,0,0,1,1.4.034,1.863,1.863,0,0,1,1.265.923,4.7,4.7,0,0,1,.547,1.675q0.068,0.477-.376.444a23.231,23.231,0,0,0-2.7-.1,14.068,14.068,0,0,0-2.256.239,15.534,15.534,0,0,0-2.222.616,11.253,11.253,0,0,0-1.743.854,1.27,1.27,0,0,1-.444.205,1.659,1.659,0,0,1-.616-0.068,3.838,3.838,0,0,1-1.469-.684,1.867,1.867,0,0,1-.684-1.059,1.082,1.082,0,0,1,.068-0.752,0.769,0.769,0,0,1,.547-0.2,2,2,0,0,0,.65-0.205,29.783,29.783,0,0,0,3.213-2.256h0a2.524,2.524,0,0,1,.512-0.41h0Zm-7.28-13.262a1.309,1.309,0,0,1-.786.479,0.6,0.6,0,0,1-.41-0.445,4.815,4.815,0,0,1-.342-0.957,28.719,28.719,0,0,1-1.367,4.1,17.876,17.876,0,0,0-.821,2.392,17.15,17.15,0,0,1-.957,2.666,1.223,1.223,0,0,1-1.025.821q-0.923.035-.957-1.5a8.481,8.481,0,0,1,.444-2.427,6.58,6.58,0,0,0,.513-2.119,1.4,1.4,0,0,0-.205-0.889,1.758,1.758,0,0,0-.547.547,19.366,19.366,0,0,0-2.119,4.443q0.033,1.2.137,2.94,0.1,1.812-.65,1.059a12.521,12.521,0,0,1-1.5-1.709,3.073,3.073,0,0,1-.649-1.914q0.067-1.6.068-2.563a6.994,6.994,0,0,0-.273-1.675,14.328,14.328,0,0,1-.479-2.017q-0.1-.786,1.06-0.034a4.246,4.246,0,0,1,1.538,1.4,3.564,3.564,0,0,1,.376.786,18.658,18.658,0,0,1,2.392-3.384,2.333,2.333,0,0,1,1.47-1.094,1.256,1.256,0,0,1,1.026.65,4.6,4.6,0,0,1,.512,2.255,1.18,1.18,0,0,0,.171.821,0.846,0.846,0,0,0,.342-0.445,21.5,21.5,0,0,0,1.333-3.281,0.133,0.133,0,0,1,.1-0.136q-0.035-.275-0.069-0.513a0.478,0.478,0,0,1,.239-0.581,7.011,7.011,0,0,0,1.914-1.778,12.417,12.417,0,0,0,1.778-2.837,4.96,4.96,0,0,0,.376-1.2,1.341,1.341,0,0,0-.239-0.786,0.446,0.446,0,0,1-.1-0.342,0.347,0.347,0,0,1,.376-0.136,6.407,6.407,0,0,1,2.666.615,1.48,1.48,0,0,1,.854.957,1.917,1.917,0,0,1-.136.718,0.8,0.8,0,0,1-.342.41,1.283,1.283,0,0,0-.649.478,3.464,3.464,0,0,0-.821,1.026q0.82-.377,1.47-0.718a2.833,2.833,0,0,1,1.47-.41,3.351,3.351,0,0,1,1.23.341,1.339,1.339,0,0,1,.752.616,1.948,1.948,0,0,1,.137,1.264,3.533,3.533,0,0,1-.752,1.675,7.885,7.885,0,0,1-1.846,1.846,14.336,14.336,0,0,1-2.973,1.64q-0.138.1-.171,0a0.188,0.188,0,0,1,.1-0.2,16.815,16.815,0,0,0,1.983-1.845,5,5,0,0,0,.854-1.538,1.489,1.489,0,0,0,.1-0.992,1.275,1.275,0,0,0-.752-0.341q-0.615-.206-1.573-0.547a0.832,0.832,0,0,1-.41-0.274,0.42,0.42,0,0,0-.1.171,21.753,21.753,0,0,1-3.76,4.512h0Zm48.1,6.528a1.872,1.872,0,0,0-.41.034q-1.23.206-2.187,0.445-1.061.273-3.008,0.923c-0.114.046-.183,0.023-0.205-0.069a0.3,0.3,0,0,1,.171-0.307,18.685,18.685,0,0,1,2.324-1.538,27.99,27.99,0,0,0-5.811.341,19.328,19.328,0,0,0-5.024,1.231q-1.5.752-3.794,1.914a1.41,1.41,0,0,1-1.4-.068,5.1,5.1,0,0,1-1.5-1.06,3.429,3.429,0,0,1-.581-1.231,1.042,1.042,0,0,1,.068-0.957,0.8,0.8,0,0,1,.752-0.17,6.117,6.117,0,0,0,2.6-.513,34.217,34.217,0,0,1,6.8-1.436q3.075-.444,6.459-0.649a28.587,28.587,0,0,0,4.375-.581,3.42,3.42,0,0,1,1.949.068,4.3,4.3,0,0,1,1.059.581,6.727,6.727,0,0,1,.923.889,2.989,2.989,0,0,1,.718,1.333,1.438,1.438,0,0,1,.068.957,0.679,0.679,0,0,1-.615.41,7.589,7.589,0,0,1-2.187-.239q-0.89-.206-1.539-0.308h0Zm21.923,9.229a1.47,1.47,0,0,1,.957-0.479,4.581,4.581,0,0,1,1.026.342,2.043,2.043,0,0,0,1.435-.137,17.648,17.648,0,0,1,1.88-.718,0.845,0.845,0,0,1,.615-0.034q0.206,0.138-.444.479a6.631,6.631,0,0,0-1.709,1.538,6.485,6.485,0,0,0-.991,2.119,0.855,0.855,0,0,1-.342.581,1.377,1.377,0,0,1-.684-0.41,3.683,3.683,0,0,1-.649-0.855,2.249,2.249,0,0,1-.41-1.264,0.762,0.762,0,0,0-.308-0.65,0.149,0.149,0,0,0-.2.035,10.139,10.139,0,0,1-1.5,1.709,10.975,10.975,0,0,0-1.606,1.709,11.093,11.093,0,0,0-.855,1.2,0.49,0.49,0,0,1-.957-0.205,6.25,6.25,0,0,1-.957-2.119,9.053,9.053,0,0,1-.239-2.427,4.878,4.878,0,0,1,.205-1.265q0.273-.615.274,0.24a4.117,4.117,0,0,0,.307.957,0.694,0.694,0,0,0,.444.478,0.658,0.658,0,0,0,.547.1,39.633,39.633,0,0,0,3.965-.718,0.308,0.308,0,0,1,.2-0.205h0Zm7.144-1.128a0.88,0.88,0,0,0,.205.2c0.091,0.068.148,0.091,0.171,0.068a0.53,0.53,0,0,0,.547,0,29.927,29.927,0,0,0,4.375-1.469q0.444-.411.205,0.239a10.488,10.488,0,0,1-1.607,2.085,17.737,17.737,0,0,0-1.435,1.743q-0.446.684-.752,1.23a0.547,0.547,0,0,1-.274.342,0.616,0.616,0,0,1-.512-0.376,4.252,4.252,0,0,1-.855-1.47,5.047,5.047,0,0,1-.376-1.777,2.4,2.4,0,0,1,.069-0.923q0.033-.546.239,0.1h0Zm8.135-.855a9.942,9.942,0,0,1,3.486,1.641,4.562,4.562,0,0,1,.991,1.88q0.411,1.468,0,1.88a0.975,0.975,0,0,1-1.059.2,3.869,3.869,0,0,1-1.573-.957,14.159,14.159,0,0,1-2.529-3.794q-0.649-1.3.684-.855h0Zm-15.108-3.349a2.058,2.058,0,0,1-.512-1.4v-1.914c-0.3.115-.559,0.217-0.787,0.308a0.8,0.8,0,0,1-.82-0.171,3.158,3.158,0,0,1-.957-1.128q-0.376-.82.171-0.854,1.23-.137,2.29-0.274a14.228,14.228,0,0,0-.376-1.811,5.329,5.329,0,0,1-.41-1.5q-0.069-.581.786-0.069a3.294,3.294,0,0,1,1.162,1.026,6.5,6.5,0,0,1,.581,1.3q0.035,0.238.068,0.581c0.251-.091.513-0.183,0.787-0.274,0.25-.091.524-0.182,0.82-0.273v-0.171q-0.035-.581-0.137-1.231a11.935,11.935,0,0,1-.137-1.435,1.321,1.321,0,0,1,.171-0.615,0.69,0.69,0,0,1,.752.239,4.871,4.871,0,0,1,1.231,1.3,1.272,1.272,0,0,1,.068.854,2.465,2.465,0,0,0-.1.513q1.094-.308,2.461-0.65v-0.136a2.324,2.324,0,0,0-.342-1.094q-0.446-.752-0.786-1.4a0.532,0.532,0,0,1-.069-0.513,0.785,0.785,0,0,1,.752-0.068q0.546,0.171,1.162.41a1.952,1.952,0,0,1,.786.649,2.47,2.47,0,0,1,.376,1.2v0.445a18.814,18.814,0,0,1,2.8-.615,11.017,11.017,0,0,0,.1-1.5,5.111,5.111,0,0,0-.752-2.769,0.823,0.823,0,0,1-.171-0.307q-1.641.375-2.905,0.717-2.905.89-7.52,2.735a1.107,1.107,0,0,1-1.025-.24,7.447,7.447,0,0,1-1.778-1.367,1.16,1.16,0,0,1-.307-0.615,0.6,0.6,0,0,1,.581-0.239q0.683-.069,1.333-0.171,0.615-.649,1.128-1.3a7.96,7.96,0,0,0,.512-0.991,6.876,6.876,0,0,0,.376-1.094,4,4,0,0,0,.171-1.025,3.894,3.894,0,0,0,0-.752,2.2,2.2,0,0,0-.444-0.718,0.623,0.623,0,0,1-.1-0.752,1.035,1.035,0,0,1,.65-0.547,1.4,1.4,0,0,1,1.2.581,5.592,5.592,0,0,1,1.162,1.538,1.081,1.081,0,0,1,.069.991q-0.582,1.743-.821,2.29c-0.091.183-.182,0.376-0.273,0.581a25.654,25.654,0,0,1,4.853-1.606,21.263,21.263,0,0,1,4.922-.854,3.308,3.308,0,0,1,1.231.2,1.537,1.537,0,0,1,.683.478,1.1,1.1,0,0,1,.308.718,2.835,2.835,0,0,1-.034.547,0.508,0.508,0,0,1-.445.239c-0.569.091-1.071,0.183-1.5,0.273a2.277,2.277,0,0,1,.752.787,3.815,3.815,0,0,1,.308,2.905,4.419,4.419,0,0,0-.137.786,3.515,3.515,0,0,1,.786-0.273A3.1,3.1,0,0,1,249,121.884a1.35,1.35,0,0,1,.239.718,0.64,0.64,0,0,1-.273.546,1.078,1.078,0,0,1-.581.1,6.555,6.555,0,0,0-1.948.513,6.1,6.1,0,0,0-.958.41,8.853,8.853,0,0,1-3.349,4.477,22.637,22.637,0,0,1,2.768-.1,10.4,10.4,0,0,0,3.042-.171q0.889-.376,2.017.957a3.522,3.522,0,0,1,.957,1.641,0.647,0.647,0,0,1-.171.683,1.132,1.132,0,0,1-.923-0.034,15.8,15.8,0,0,0-4.238-.684,54.372,54.372,0,0,0-5.64.342,68.055,68.055,0,0,0-9.5,2.5,1.313,1.313,0,0,1-.82.069,3.126,3.126,0,0,1-.923-0.445,0.988,0.988,0,0,1-.444-0.957,2.578,2.578,0,0,1,.581-1.23q0.513-.581.478-0.069c0,0.3.183,0.4,0.547,0.308a30.76,30.76,0,0,1,3.111-.991c-0.183-.228-0.342-0.422-0.479-0.581h0ZM235.5,125.4a12.669,12.669,0,0,0-1.709.547q0,1.641.239,4.238a31.671,31.671,0,0,1,4.409-1.025,19.335,19.335,0,0,1,2.53-.376,24.592,24.592,0,0,0,2.768-5.2q0.034-.137.069-0.24a0.327,0.327,0,0,0-.205,0,20.043,20.043,0,0,0-2.427.479q-0.206,1.128-.41,3.076-0.206,1.163-.855.718a1.89,1.89,0,0,1-.547-0.581,1.652,1.652,0,0,1-.273-0.855,10.3,10.3,0,0,1,.1-1.88,16.907,16.907,0,0,0-2.05.581q0.068,0.787.205,1.744a4.289,4.289,0,0,1,.1,1.709,0.685,0.685,0,0,1-.376.512,0.8,0.8,0,0,1-.649-0.478,4.836,4.836,0,0,1-.65-0.889,3.493,3.493,0,0,1-.136-0.854q-0.035-.479-0.137-1.231h0Zm38.6-7.69a15.128,15.128,0,0,0,2.8-.547,10,10,0,0,0,2.051-.889,3.485,3.485,0,0,1,1.846-.376,4.224,4.224,0,0,1,1.88.65,3.151,3.151,0,0,1,.991,1.162,0.9,0.9,0,0,1-.068.957,1.5,1.5,0,0,1-.923.718,10.78,10.78,0,0,0-2.8,1.469,13.312,13.312,0,0,1-3.384,1.709,10.548,10.548,0,0,0-3.828,2.222,0.54,0.54,0,0,1-.376.2,1.128,1.128,0,0,1,.2-0.513,5.887,5.887,0,0,1,.991-1.367,14.729,14.729,0,0,1,1.538-1.3,1.51,1.51,0,0,0,.581-0.581,1.791,1.791,0,0,0-.922-0.991q-1.128-.719-2.393-1.675-1.435-1.2-.171-1.093a3.554,3.554,0,0,0,1.983.239h0Zm-8.58,12.885a5.625,5.625,0,0,0,2.564-.581,31.759,31.759,0,0,1,6.665-1.5q3.042-.513,6.357-0.752a35.42,35.42,0,0,0,4.307-.65,3.159,3.159,0,0,1,1.914.034,4.084,4.084,0,0,1,1.231.684,11.342,11.342,0,0,1,1.127.991,3.965,3.965,0,0,1,.889,1.572,1.989,1.989,0,0,1,.069,1.128,0.786,0.786,0,0,1-.718.513,7.6,7.6,0,0,1-2.188-.239,37.116,37.116,0,0,0-4.682-.82,33.96,33.96,0,0,0-5.845.307,19.359,19.359,0,0,0-4.956,1.2q-1.5.718-3.76,1.88a1.493,1.493,0,0,1-1.538-.034,5.8,5.8,0,0,1-1.675-1.162,4.248,4.248,0,0,1-.615-1.333,0.986,0.986,0,0,1,.068-1.06,0.882,0.882,0,0,1,.786-0.171h0Zm36.962,2.837a8.62,8.62,0,0,0-.888-2.905,9.939,9.939,0,0,1-.479-3.384,6.332,6.332,0,0,1,.308-2.29,6.983,6.983,0,0,1,1.3-2.563,12.037,12.037,0,0,1,2.05-1.983,16.35,16.35,0,0,1,2.837-1.5,18.273,18.273,0,0,1,3.213-1.059,15.031,15.031,0,0,1,2.735-.273,8.67,8.67,0,0,1,3.144.581,7.28,7.28,0,0,1,2.119,1.572,9.2,9.2,0,0,1,1.846,2.768,11.514,11.514,0,0,1,.752,4.41,20.228,20.228,0,0,1-.547,3.862,11.149,11.149,0,0,1-1.846,3.623q-0.923,1.024-1.367,1.435a11.031,11.031,0,0,1-7.212,2.188,33.388,33.388,0,0,0,3.452-2.188,16.514,16.514,0,0,0,2.735-3.178,8.5,8.5,0,0,0,1.059-2.427,16.9,16.9,0,0,0,.171-6.187,8.818,8.818,0,0,0-.649-1.914,4.36,4.36,0,0,0-1.265-1.333,4.237,4.237,0,0,0-2.392-.615,9.069,9.069,0,0,0-2.564.308,0.868,0.868,0,0,0-.41.136,4.331,4.331,0,0,1,.308,1.812,7.543,7.543,0,0,1-.855,3.213,23.933,23.933,0,0,1-2.017,3.76,20.551,20.551,0,0,1-4.272,4.785q-1.128.684-1.265-.65h0Zm2.12-3.178a75.756,75.756,0,0,0,4.374-7.93,3.915,3.915,0,0,0,.308-1.333q-0.582.206-1.094,0.444a26.346,26.346,0,0,0-2.6,1.436,8.946,8.946,0,0,0-1.949,2.119,4.044,4.044,0,0,0-.786,2.153,7.786,7.786,0,0,0,.24,2.359,3.942,3.942,0,0,0,.649,1.435,1.081,1.081,0,0,0,.855-0.683h0Zm29.75,4.922q-0.548.581-1.06-.274a9.175,9.175,0,0,1-.991-2.221q-0.308-1.095.41-1.128a4.72,4.72,0,0,0,1.914-.992,41.614,41.614,0,0,0,3.247-2.666q0.067-1.5.2-2.973,0.034-.615.068-1.162a7.794,7.794,0,0,0-.649.581,14.842,14.842,0,0,0-2.085,2.016q-0.41.48-1.777-.068a5.8,5.8,0,0,1-2.53-1.641q-1.059-1.3-.1-0.957a3.066,3.066,0,0,0,1.743-.273,10.9,10.9,0,0,0,2.632-1.572q1.4-.992,2.256-1.5c0.342-.2.66-0.41,0.957-0.616q0.137-1.025.273-1.88a13.121,13.121,0,0,0,.1-3.828,2.09,2.09,0,0,0-.718-1.4q-0.513-.444-0.171-0.786a0.636,0.636,0,0,1,.923-0.068,6.4,6.4,0,0,1,1.811,1.2,3.071,3.071,0,0,1,.821,1.572,6.28,6.28,0,0,1-.069,2.256q-0.238.957-.478,2.222a3.471,3.471,0,0,1,1.811.888q0.751,0.753-.683,1.367a7.522,7.522,0,0,0-1.709.855q-0.411,2.05-.65,4.033a39.729,39.729,0,0,1,3.384-2.529,10.087,10.087,0,0,1,2.974-2.427q0.923-.546,1.982-1.264a19.582,19.582,0,0,0,.855-3.624,10.339,10.339,0,0,0-.171-3.144,1.9,1.9,0,0,0-.547-1.2,2.484,2.484,0,0,0-1.162-.479c-0.3-.068-0.433-0.182-0.41-0.342a1.165,1.165,0,0,1,.444-0.547,2.081,2.081,0,0,1,1.2-.376,2.691,2.691,0,0,1,1.47.411,2.331,2.331,0,0,1,1.06.957,3.755,3.755,0,0,1,.581,1.606,10.331,10.331,0,0,1-.034,3.008c0.5,0,1-.011,1.5-0.034a2.983,2.983,0,0,1,1.744,2.016c0.136,0.32-.1.615-0.718,0.889a14.7,14.7,0,0,0-3.247,1.88,1.423,1.423,0,0,0-.445.307q-0.342,1.06-.957,2.53a1.028,1.028,0,0,0-.1.82,0.893,0.893,0,0,0,.649.137,3.265,3.265,0,0,1,1.573.2,2.811,2.811,0,0,1,1.333,1.2,4.388,4.388,0,0,1,.546,1.436,4.98,4.98,0,0,1-.273.923,16.976,16.976,0,0,0-.684,1.948q-0.273.649-.615,1.4,0.853,0.446,1.914,1.06a19.608,19.608,0,0,1,3.179,2.085,5.4,5.4,0,0,1,1.777,2.8q0.513,2.052.205,2.188a1.179,1.179,0,0,1-1.093-.2,20.927,20.927,0,0,1-3.179-2.393,48.5,48.5,0,0,0-4.2-3.349,8.4,8.4,0,0,1-1.162,1.2,8.155,8.155,0,0,1-2.325,1.367,7.691,7.691,0,0,1-1.982.274,3.946,3.946,0,0,1-1.846-.445,6.615,6.615,0,0,1-1.777-1.435,0.418,0.418,0,0,1-.137-0.342c0.023-.091.1-0.1,0.24-0.034a4.455,4.455,0,0,0,1.948.478,5.154,5.154,0,0,0,2.119-.512,7.785,7.785,0,0,0,2.256-1.607l0.41-.478a16.336,16.336,0,0,0-2.427-1.231,17.034,17.034,0,0,0-4.1-1.162q-0.719-.068-0.718-0.308c-0.023-.136.216-0.239,0.718-0.307a13.084,13.084,0,0,1,3.281-.205,11.925,11.925,0,0,1,3.452.82q0.546,0.206,1.06.444a14,14,0,0,0,1.162-2.973,0.657,0.657,0,0,0,.034-0.547,1.112,1.112,0,0,0-.547-0.034,4.63,4.63,0,0,0-2.461,1.469,0.487,0.487,0,0,1-.376.274,0.694,0.694,0,0,1-.342-0.239,3.137,3.137,0,0,1-.82-1.675,3.332,3.332,0,0,1,.034-1.06,6.881,6.881,0,0,1,.376-1.094,2.811,2.811,0,0,1,.239-0.581,2.13,2.13,0,0,1-.82-0.1,4.506,4.506,0,0,0-1.982.034c-0.183.046-.308,0.08-0.376,0.1q-1.539,2.358-3.282,4.545a6,6,0,0,0-.683.821q-0.069,1.743.034,3.691,0.171,2.975.2,4.033,0.1,1.128.2,2.7c0.046,0.637-.012.968-0.171,0.991a1.413,1.413,0,0,1-.718-0.581,23.3,23.3,0,0,1-1.811-2.154,27.042,27.042,0,0,0-2.837-3.11l-0.1.1h0Zm3.349-.1q0-1.743.034-3.486-1.367,1.4-2.905,3.076a7.123,7.123,0,0,0,2.051,1.162,0.851,0.851,0,0,0,.718.034,1.46,1.46,0,0,0,.1-0.786h0Z" transform="translate(-21.188 -70.156)"/>
</svg>
