<svg xmlns="http://www.w3.org/2000/svg" width="44.531" height="20.281" viewBox="0 0 44.531 20.281">
  <defs>
    <style>
      .cls-1 {
        fill: #fff;
        fill-rule: evenodd;
      }
    </style>
  </defs>
  <path id="txt_skill006.svg" class="cls-1" d="M729.321,731.308a1.493,1.493,0,0,0-.2-0.352l-1.034-1.452a0.736,0.736,0,0,0-.374-0.264,0.484,0.484,0,0,0-.33.286l-0.88,1.5h-0.044v-8.383c0-1.98.022-4.555,0.066-6.843,0.748-.44.836-0.484,0.836-0.7a0.564,0.564,0,0,0-.264-0.418l-1.408-1.145a0.771,0.771,0,0,0-.419-0.22,0.531,0.531,0,0,0-.352.286l-0.638.837h-3.234l-2.442-1.057a19.577,19.577,0,0,1,.374,5c0.022,1.8,0,10.65,0,12.652-0.771,0-1.915-.044-2.993-0.132l0.352,0.792a13.477,13.477,0,0,1,2.377-.132h10.253C729.145,731.55,729.321,731.506,729.321,731.308Zm-5-6.073h-3.3v-4.907h3.3v4.907Zm0-5.435h-3.3v-4.84h3.3v4.84Zm0,11.222h-3.3v-5.259h3.3v5.259Zm-8.647-17.008a0.39,0.39,0,0,0-.242-0.353l-2.574-1.3a12.421,12.421,0,0,1-.924,4.423,6.754,6.754,0,0,0-2.333-.682l-0.088.154a7.546,7.546,0,0,1,1.672,2.794,1.231,1.231,0,0,0,1.123.968,1.211,1.211,0,0,0,1.188-1.3,1.955,1.955,0,0,0-1.056-1.672c0.374-.308,1.672-1.716,2.508-2.618C715.173,714.41,715.679,714.388,715.679,714.014Zm2.773,13.4c0-1.562-2-2.6-2.839-2.948l-0.132.154a6.218,6.218,0,0,1,.726,2.794,1.353,1.353,0,0,0,1.166,1.343A1.209,1.209,0,0,0,718.452,727.413Zm0.352-4.378c0-1.87-2.465-2.641-3.213-2.861l-0.132.132a4.429,4.429,0,0,1,.792,1.387c-2.244.2-2.816,0.22-3.256,0.242a52.582,52.582,0,0,0,4.356-4.137c0.374-.022.9-0.066,0.9-0.44a0.564,0.564,0,0,0-.264-0.4l-2.4-1.628c-0.308,2.288-2.9,6.183-3.212,6.623a15.93,15.93,0,0,1-3.631-.242l0.792,2.332c0.11,0.33.176,0.484,0.4,0.484a0.526,0.526,0,0,0,.418-0.506c0.4-.088,2.377-0.682,2.817-0.814v3.828c0,0.837,0,2.663-.088,4.115-0.022.418-.022,0.66-0.022,0.7a0.693,0.693,0,0,0,.814.792c1.342,0,1.342-1.056,1.342-1.65,0-.132-0.088-3.895-0.088-4.445s0.022-3.322.022-3.938c0.308-.11.616-0.2,1.254-0.44,0.132,0.418.286,0.88,0.352,1.056a1.065,1.065,0,0,0,1.012,1.012A1.152,1.152,0,0,0,718.8,723.035Zm-5.919,2.794a0.4,0.4,0,0,0-.33-0.33l-2.223-.9a16.673,16.673,0,0,1-1.43,6.821l0.132,0.088a13.731,13.731,0,0,0,3.323-5.215C712.709,726.137,712.885,726.071,712.885,725.829Zm39.36-8.295a0.405,0.405,0,0,0-.2-0.308l-2.068-1.672a0.763,0.763,0,0,0-.418-0.242,0.425,0.425,0,0,0-.331.286l-0.99,1.65h-3.916c0-.33,0-2.266.022-2.53,0.11-.11.682-0.506,0.792-0.616a0.344,0.344,0,0,0,.132-0.264,0.284,0.284,0,0,0-.264-0.221l-3.521-.814a12.264,12.264,0,0,1,.572,4.445h-4.29c-0.242,0-1.782-.022-3.125-0.132l0.352,0.814a11.069,11.069,0,0,1,2.377-.154h14.544C752.069,717.776,752.245,717.754,752.245,717.534Zm1.034,13.6a0.473,0.473,0,0,0-.22-0.33l-2.068-1.694a0.772,0.772,0,0,0-.418-0.22,0.511,0.511,0,0,0-.33.286l-1.189,1.65H743.8c1.958-2.794,2.882-4.8,4.884-9.395,0.792-.4,1.035-0.506,1.035-0.726a0.339,0.339,0,0,0-.221-0.309l-3.344-1.452c0.066,2.509-1.606,8.758-2.948,11.882h-6.557c-0.242,0-1.783,0-3.125-.132l0.352,0.814a12.8,12.8,0,0,1,2.377-.154h16.7A0.265,0.265,0,0,0,753.279,731.132Zm-11.42-4.115c0-2.948-3.256-6.6-4.554-7.437l-0.11.088a13.733,13.733,0,0,1,1.1,2.971,20.946,20.946,0,0,1,.748,4.422c0.044,0.551.176,1.783,1.32,1.783A1.588,1.588,0,0,0,741.859,727.017Z" transform="translate(-708.75 -712.375)"/>
</svg>
