<svg xmlns="http://www.w3.org/2000/svg" width="44.75" height="20.25" viewBox="0 0 44.75 20.25">
  <defs>
    <style>
      .cls-1 {
        fill: #fff;
        fill-rule: evenodd;
      }
    </style>
  </defs>
  <path id="txt_skill005.svg" class="cls-1" d="M481.461,719.866a0.665,0.665,0,0,0-.308-0.418l-1.276-.9a0.826,0.826,0,0,0-.418-0.2,0.48,0.48,0,0,0-.418.33l-0.418.594h-2.178l-2.311-.9a31.84,31.84,0,0,1,.22,4.643c0,1.628-.066,5.325-0.088,6.359,0,0.176-.044,1.1-0.044,1.32a0.679,0.679,0,0,0,.814.726c1.431,0,1.387-1.056,1.321-2.046h2.332c-0.022.726-.044,1.122,0.682,1.122a1.855,1.855,0,0,0,1.078-.352,0.794,0.794,0,0,0,.264-0.77c0-1.232-.088-7.217-0.088-8.559C481.4,720.086,481.461,720.042,481.461,719.866Zm-2.772,4h-2.332V719.8h2.332v4.071Zm0,4.973h-2.332V724.4h2.332v4.445Zm14.346-5.941a0.472,0.472,0,0,0-.22-0.352l-1.254-.968a0.966,0.966,0,0,0-.418-0.22,0.582,0.582,0,0,0-.352.286l-0.77.946h-2.509c0-.33-0.022-1.98,0-2.333h4.313a0.279,0.279,0,0,0,.33-0.242,0.514,0.514,0,0,0-.22-0.352l-1.1-.924a0.751,0.751,0,0,0-.4-0.242,0.585,0.585,0,0,0-.352.286l-0.793.946h-1.782c0-.154.022-0.726,0.022-0.836a0.9,0.9,0,0,0,.7-0.616c0-.22-0.176-0.286-0.462-0.352l-1.76-.374c0.77-.2.77-0.242,0.682-1.958h5.853a0.279,0.279,0,0,0,.33-0.242,0.433,0.433,0,0,0-.22-0.33l-1.518-1.254a1.074,1.074,0,0,0-.4-0.243,0.492,0.492,0,0,0-.352.287l-0.99,1.254H486.7v-0.99a1.083,1.083,0,0,0,.682-0.661,0.357,0.357,0,0,0-.352-0.286l-2.684-.572a8.918,8.918,0,0,1,.264,2.509h-3.543c0-.242,0-0.418.022-1.056a1.059,1.059,0,0,0,.748-0.617,0.356,0.356,0,0,0-.352-0.308l-2.706-.594a15.3,15.3,0,0,1,.286,2.575h-2.574c-0.242,0-1.8-.022-3.125-0.132l0.352,0.792a13.477,13.477,0,0,1,2.377-.132h2.97c0,0.286-.066,1.738-0.066,1.8,0,0.264,0,.7.836,0.7,1.3,0,1.3-.77,1.3-1.1,0-.088-0.044-1.232-0.066-1.408h3.565c0,0.2-.022,1.232-0.022,1.3a0.629,0.629,0,0,0,.682.726,14.108,14.108,0,0,1,.154,2.112c-0.836,0-2.178-.044-3.411-0.132l0.352,0.792a13.493,13.493,0,0,1,2.377-.132h0.682c0.022,0.771.044,1.563,0.044,2.333h-1.232c-0.242,0-1.8,0-3.147-.132l0.374,0.814a12.628,12.628,0,0,1,2.377-.154h3.19a20.3,20.3,0,0,1,.176,2.53h-2.9c-0.242,0-1.782,0-3.125-.132l0.352,0.814a12.8,12.8,0,0,1,2.377-.154h3.3c0.022,0.7.022,2.311,0.022,3.191,0,0.506-.066.638-0.374,0.638-0.132,0-1.716-.088-1.958-0.088a1.181,1.181,0,0,0,.44-0.968c0-1.585-1.98-1.937-3.169-2.179l-0.088.132a4.465,4.465,0,0,1,.969,1.937c0.242,0.858.374,1.32,1.122,1.32a1.139,1.139,0,0,0,.462-0.088,5.208,5.208,0,0,1,1.32,1.232,3.4,3.4,0,0,1,.594,1.452c1.98-.44,2.618-1.144,2.728-2,0.045-.264.022-4.159,0.022-4.577H492.6a0.265,0.265,0,0,0,.33-0.22,0.459,0.459,0,0,0-.242-0.352l-1.078-.946a0.777,0.777,0,0,0-.418-0.22,0.714,0.714,0,0,0-.352.308l-0.7.9h-0.815V724.6a1.07,1.07,0,0,0,.639-0.638,0.367,0.367,0,0,0-.33-0.286l-1.981-.55h5.061C492.859,723.123,493.035,723.1,493.035,722.9Zm25.08-3.763v-0.176a11.671,11.671,0,0,1-6.337-4.664,0.57,0.57,0,0,0,.418-0.484,0.451,0.451,0,0,0-.418-0.419l-2.552-.88c-0.4,3.257-4.027,7.723-4.467,8.23a6.24,6.24,0,0,0-1.848-.969l1.958-2.112c0.682-.066.9-0.11,0.9-0.418,0-.154-0.066-0.176-0.374-0.4l-2.266-1.54c-0.242,1.518-2.156,5.082-3.1,6.491-0.683.044-1.233,0.066-1.5,0.066a11.66,11.66,0,0,1-1.65-.132l0.792,2.222a0.526,0.526,0,0,0,.374.462c0.242,0,.264-0.242.308-0.462,0.352-.11,1.959-0.66,2.289-0.77-0.022,1.474-.088,6.953-0.11,7.943,0,0.132-.066.7-0.066,0.814a0.719,0.719,0,0,0,.9.748,1.767,1.767,0,0,0,1.166-.418,1,1,0,0,0,.22-0.88c0-.616-0.132-3.388-0.132-3.961,0-.77-0.022-4.246-0.022-4.95,0.66-.264.9-0.374,1.122-0.462,0.066,0.2.176,1.144,0.22,1.342a0.814,0.814,0,0,0,.88.726,1.3,1.3,0,0,0,1.254-1.364,2.376,2.376,0,0,0-1.078-1.8,20.226,20.226,0,0,0,6.4-6.381,12.831,12.831,0,0,0,4.467,6.645A4.208,4.208,0,0,1,518.115,719.14Zm-14.522,2.421c-1.628.11-2.332,0.154-2.706,0.2a20.191,20.191,0,0,0,1.87-1.805A3.677,3.677,0,0,1,503.593,721.561Zm10.914-.308a0.49,0.49,0,0,0-.22-0.33l-1.277-1.189a0.7,0.7,0,0,0-.418-0.242,0.47,0.47,0,0,0-.33.286l-0.858,1.189H510.04c-0.242,0-1.8,0-3.124-.132l0.352,0.814a10.821,10.821,0,0,1,2.376-.154h4.511C514.309,721.5,514.507,721.473,514.507,721.253Zm-10.98-7.107a0.506,0.506,0,0,0-.418-0.418l-2.508-1.167a18.2,18.2,0,0,1-1.079,4.247,19.839,19.839,0,0,0-2.244-.682l-0.11.2a4.221,4.221,0,0,1,1.518,2.42c0.242,0.814.418,1.386,1.167,1.386a1.291,1.291,0,0,0,1.3-1.254,2.262,2.262,0,0,0-.99-1.694,27.234,27.234,0,0,0,2.552-2.64C503.219,714.476,503.527,714.41,503.527,714.146Zm13.6,10.825a0.448,0.448,0,0,0-.22-0.33l-1.65-1.408a0.6,0.6,0,0,0-.418-0.22,0.477,0.477,0,0,0-.33.264l-0.968,1.408h-4.863c-0.242,0-1.8-.022-3.147-0.132l0.352,0.814a13.039,13.039,0,0,1,2.6-.154,34.765,34.765,0,0,1-.99,4.489,10.641,10.641,0,0,1-2.817-.132l1.012,2.574c0.154,0.4.264,0.44,0.374,0.44a0.583,0.583,0,0,0,.506-0.506c1.959-.506,5.677-1.694,7.152-2.266a9.746,9.746,0,0,1,.352,1.3,1.327,1.327,0,0,0,1.188,1.342,1.39,1.39,0,0,0,1.386-1.43c0-2.574-3.191-3.851-4.6-4.4l-0.132.154a7.36,7.36,0,0,1,1.562,2.421c-2.31.286-4.246,0.44-5.236,0.484,0.55-.7,2.442-3.257,3.19-4.467h5.347C516.927,725.213,517.125,725.191,517.125,724.971Zm-11.156,2.619c0-1.145-1.3-2.443-2.9-3.081l-0.132.132a5.839,5.839,0,0,1,.792,2.794,1.254,1.254,0,0,0,1.1,1.387A1.159,1.159,0,0,0,505.969,727.59Zm-5.39-1.717c0-.176-0.066-0.22-0.374-0.33l-2.069-.792a24.258,24.258,0,0,1-1.188,6.623l0.176,0.066a15.892,15.892,0,0,0,2.861-5.061,1.745,1.745,0,0,1,.352-0.176A0.341,0.341,0,0,0,500.579,725.873Z" transform="translate(-473.375 -712.5)"/>
</svg>
