<svg xmlns="http://www.w3.org/2000/svg" width="44.156" height="20.5" viewBox="0 0 44.156 20.5">
  <defs>
    <style>
      .cls-1 {
        fill: #fff;
        fill-rule: evenodd;
      }
    </style>
  </defs>
  <path id="txt_skill004.svg" class="cls-1" d="M257.585,719.338l-0.022-.22a14.666,14.666,0,0,1-9.747-5.016,0.637,0.637,0,0,0,.638-0.463,0.489,0.489,0,0,0-.4-0.374L245.4,712.3c-0.506,2.267-4.246,7.547-8.647,10.408l0.088,0.176a22,22,0,0,0,10.672-8.427,14.87,14.87,0,0,0,7.921,7.349A3.68,3.68,0,0,1,257.585,719.338Zm-4.18,7.591a0.361,0.361,0,0,0-.265-0.308l-2.508-1.474A14.247,14.247,0,0,1,248.5,730.6l0.154,0.132a20.556,20.556,0,0,0,3.894-3.3C253.184,727.347,253.405,727.193,253.405,726.929Zm3.014,4.467a0.458,0.458,0,0,0-.22-0.33l-1.672-1.386a0.682,0.682,0,0,0-.418-0.242,0.559,0.559,0,0,0-.352.286l-1.145,1.386h-4.62v-6.381H254.9c0.154,0,.33-0.022.33-0.22a0.472,0.472,0,0,0-.22-0.352l-1.65-1.232a0.87,0.87,0,0,0-.441-0.242,0.706,0.706,0,0,0-.33.286l-1.034,1.232h-3.564v-3.168h3.674c0.154,0,.33-0.022.33-0.242a0.491,0.491,0,0,0-.22-0.331l-1.32-1.254a0.706,0.706,0,0,0-.418-0.264,0.677,0.677,0,0,0-.352.286L248.7,720.5h-4.445c-0.594,0-1.584-.044-2.464-0.11l0.33,0.749a15.36,15.36,0,0,1,1.738-.11h1.826V724.2h-3.674c-0.946,0-2.068-.022-3.147-0.132l0.352,0.814a14.777,14.777,0,0,1,2.4-.154h4.07v6.381h-5.1c-0.242,0-1.805-.022-3.147-0.132l0.374,0.792a13.305,13.305,0,0,1,2.377-.132h15.908A0.27,0.27,0,0,0,256.419,731.4Zm-12.19-2.618a2.839,2.839,0,0,0-1.166-2.025,9.074,9.074,0,0,0-2.64-1.166l-0.088.154a5.85,5.85,0,0,1,1.3,2.663c0.264,1.188.418,1.782,1.3,1.782A1.406,1.406,0,0,0,244.229,728.778ZM280.9,715.884a0.433,0.433,0,0,0-.22-0.33l-1.606-1.32a0.661,0.661,0,0,0-.4-0.242,0.6,0.6,0,0,0-.352.286l-0.792,1.3H273.4a8.6,8.6,0,0,0,.968-1.386c0.572-.11.858-0.176,0.858-0.506a0.507,0.507,0,0,0-.374-0.353l-2.684-1.056A18.99,18.99,0,0,1,269,718.986l0.132,0.154a15.115,15.115,0,0,0,3.807-3.036h0.418a10.2,10.2,0,0,1,1.078,1.694,3.113,3.113,0,0,0,.726,1.3l-2.09-.682a11.666,11.666,0,0,1-.374,3.059h-0.99l-2.487-1.079a19.131,19.131,0,0,1,.176,3.015c0,2.442-.088,7.063-0.176,8.163-0.022.286-.022,0.484-0.022,0.528a0.768,0.768,0,0,0,.946.638,1.4,1.4,0,0,0,1.343-.748,2.762,2.762,0,0,0,.066-0.77h5.478c-0.066,1.056-.088,1.518.793,1.518a1.667,1.667,0,0,0,1.364-.594,2.732,2.732,0,0,0,.11-1.32c0-.792-0.088-4.731-0.088-5.611,0-1.144.022-1.958,0.022-2.552,0.638-.374.7-0.418,0.7-0.638a0.775,0.775,0,0,0-.308-0.44l-1.122-.946a1,1,0,0,0-.528-0.265,0.9,0.9,0,0,0-.44.287l-0.7.814H273.6a8.586,8.586,0,0,0,1.716-1.343c0.572-.044.9-0.11,0.9-0.4a0.613,0.613,0,0,0-.484-0.462,1.228,1.228,0,0,0,1.188-1.122c0-1.254-1.628-1.76-2.486-2.046h6.139C280.729,716.1,280.9,716.082,280.9,715.884Zm-3.851,10.1h-5.5V722h5.5v3.982Zm0,4.709h-5.5v-4.181h5.5v4.181Zm-6.314-15.05a0.447,0.447,0,0,0-.221-0.33l-1.3-1.144a1.3,1.3,0,0,0-.418-0.242,0.6,0.6,0,0,0-.33.286l-0.682,1.144H265.5c0.352-.44.55-0.682,0.88-1.144a0.949,0.949,0,0,0,.9-0.484,0.678,0.678,0,0,0-.418-0.4l-2.53-1.078a8.31,8.31,0,0,1-.616,2,19.642,19.642,0,0,1-2.685,4.532l0.132,0.11a15.018,15.018,0,0,0,3.851-3.014h0.352a5.943,5.943,0,0,1,.55,2.046,1.024,1.024,0,0,0,1.056,1.056,1.128,1.128,0,0,0,1.166-1.144c0-.968-0.682-1.364-2.068-1.958h4.334A0.267,0.267,0,0,0,270.74,715.642Zm-3.807,5.083c0-1.387-2.134-1.937-3.609-1.871l-0.066.176a5.588,5.588,0,0,1,1.321,1.761c0.462,0.858.594,1.122,1.166,1.122A1.175,1.175,0,0,0,266.933,720.725Zm-2,3.124c0-.616-0.528-1.98-3.7-1.76l-0.088.132a7.875,7.875,0,0,1,1.562,2.068c0.484,0.748.55,0.858,0.991,0.858A1.277,1.277,0,0,0,264.931,723.849Zm3.652-3.058-0.176-.066c-1.98,2.9-2.882,4.18-3.784,5.39-0.88,1.21-1.145,1.32-1.761,1.32a4,4,0,0,1-.682-0.066l-0.088.132a2.69,2.69,0,0,1,1.122,2.333c0,0.242-.154,1.32-0.154,1.562a1.118,1.118,0,0,0,1.189,1.254,1.475,1.475,0,0,0,1.518-1.562,2.669,2.669,0,0,0-.154-0.836,2.626,2.626,0,0,1-.308-1.188,3.282,3.282,0,0,1,.11-0.814,32.391,32.391,0,0,1,1.672-3.851A29.072,29.072,0,0,0,268.583,720.791Z" transform="translate(-236.75 -712.25)"/>
</svg>
