<svg xmlns="http://www.w3.org/2000/svg" width="44.062" height="20.125" viewBox="0 0 44.062 20.125">
  <defs>
    <style>
      .cls-1 {
        fill: #fff;
        fill-rule: evenodd;
      }
    </style>
  </defs>
  <path id="txt_skill001.svg" class="cls-1" d="M257.475,314.3v-0.154a15.525,15.525,0,0,1-9.131-8.471h8.141a0.262,0.262,0,0,0,.33-0.242,0.523,0.523,0,0,0-.22-0.33l-1.848-1.518a0.81,0.81,0,0,0-.418-0.242,0.5,0.5,0,0,0-.33.286l-1.1,1.518h-4.906c0-.506.044-2.816,0.044-3.3v-0.44c0.616-.33.924-0.484,0.924-0.793a0.308,0.308,0,0,0-.308-0.264l-3.367-.748a20.889,20.889,0,0,1,.528,5.545h-5.28c-1.034,0-2.091-.044-3.125-0.132l0.352,0.814a12.387,12.387,0,0,1,2.377-.154h4.444a27.694,27.694,0,0,1-7.613,11l0.066,0.11a18.711,18.711,0,0,0,6.051-4.445,19.747,19.747,0,0,0,2.728-3.608c0,0.836-.022,4.532-0.044,5.28s-0.2,3.961-.2,4.665a0.878,0.878,0,0,0,.991,1.034c1.606,0,1.606-1.034,1.606-1.782,0-1.034-.22-5.611-0.22-6.557-0.022-2.046,0-3.234.022-5.5,0.924,4.533,4.356,9.264,6.733,10.5A4.457,4.457,0,0,1,257.475,314.3Zm23.562,2.971a1.144,1.144,0,0,0-.506-0.66c-0.264-.264-0.462-0.418-0.726-2.883h-0.176a6.653,6.653,0,0,1-1.21,2.8,4.146,4.146,0,0,1-2.421.44,29.145,29.145,0,0,1-4.092-.088c-0.55-.132-0.55-0.66-0.55-1.606,0-.9-0.022-5.061-0.022-5.765v-1.43l1.782-.727c0,1.123-.066,6.029-0.066,7.041a0.945,0.945,0,0,0,.88,1.189,1.358,1.358,0,0,0,1.386-1.563c0-.066-0.044-1.562-0.044-1.738a2.882,2.882,0,0,1,1.078,2.377c3.1-.485,3.1-2.509,3.1-4.665,0-.594-0.022-3.235-0.022-3.785a1.446,1.446,0,0,0,.594-0.814,0.445,0.445,0,0,0-.264-0.4l-1.54-1.034a1.012,1.012,0,0,0-.506-0.22,0.538,0.538,0,0,0-.353.374l-0.594,1.166-1.584.638c0.022-.682.022-3.718,0.022-4.334a1.1,1.1,0,0,0,.7-0.726c0-.2-0.176-0.265-0.572-0.375l-2.486-.66a37.76,37.76,0,0,1,.264,6.953l-1.782.726c0.022-.77.044-3.476,0.044-3.63a1.114,1.114,0,0,0,.682-0.726,0.6,0.6,0,0,0-.55-0.4l-2.421-.682a41.05,41.05,0,0,1,.22,6.271c-1.32.506-1.606,0.616-2.552,0.9l0.638,0.616a11,11,0,0,1,1.914-.946c0,0.946,0,1.3-.022,4.554-1.628.528-2.354,0.726-2.838,0.858v-7.041h2.222a0.284,0.284,0,0,0,.33-0.2,0.745,0.745,0,0,0-.2-0.4l-0.9-1.034a0.563,0.563,0,0,0-.4-0.242,0.469,0.469,0,0,0-.33.286l-0.682,1.056h-0.044c0-.99,0-3.718.022-4.488,0.66-.374.792-0.528,0.792-0.726,0-.242-0.176-0.33-0.506-0.418l-2.684-.771a18.1,18.1,0,0,1,.242,3.477v2.926c-0.638-.022-2.465-0.088-2.993-0.132l0.374,0.814a12.473,12.473,0,0,1,2.619-.154c0,2.531-.022,5.061-0.044,7.592a8.8,8.8,0,0,1-3.169.418l1.474,2.6a0.551,0.551,0,0,0,.4.374,0.86,0.86,0,0,0,.55-0.77,60.689,60.689,0,0,0,5.765-3.631c-0.022,3.389-.022,3.763.418,4.357,0.66,0.858,1.585.858,5.655,0.858a16.2,16.2,0,0,0,4.049-.2A2.067,2.067,0,0,0,281.037,317.274Zm-3.851-11.6c0,0.968.044,4.841-.044,5.457-0.11.946-.286,0.946-1.87,0.9-0.022-.792-0.066-4.665-0.066-5.545Z" transform="translate(-236.969 -299.594)"/>
</svg>
