<svg xmlns="http://www.w3.org/2000/svg" width="39.219" height="20.813" viewBox="0 0 39.219 20.813">
  <defs>
    <style>
      .cls-1 {
        fill: #fff;
        fill-rule: evenodd;
      }
    </style>
  </defs>
  <path id="txt_skill003.svg" class="cls-1" d="M729.123,304.6v-0.11a11.832,11.832,0,0,1-7.393-3.542,0.5,0.5,0,0,0,.44-0.375,0.3,0.3,0,0,0-.242-0.308l-2.662-.88c-0.132,1.276-2.179,5.083-5.039,7.745l0.088,0.132a12.46,12.46,0,0,0,3.124-1.87l0.11,0.2a11.935,11.935,0,0,1,1.651-.088h0.55v2.157h-1.585c-0.242,0-1.782-.022-3.124-0.133l0.352,0.815a11.057,11.057,0,0,1,2.376-.154h1.981c-0.022.286,0,1.672,0,1.98,0,0.792,0,.9-0.66.9a4.946,4.946,0,0,1-1.233-.2l-0.022.132a3.346,3.346,0,0,1,1.189,2.508c0.594-.088,2.222-0.33,2.618-1.21a34.567,34.567,0,0,0,.132-4.114h5.215a0.27,0.27,0,0,0,.33-0.242,0.448,0.448,0,0,0-.22-0.33l-1.5-1.277a0.749,0.749,0,0,0-.4-0.242,0.526,0.526,0,0,0-.33.286l-0.792,1.277h-2.31V305.5H723.6a0.279,0.279,0,0,0,.33-0.242,0.473,0.473,0,0,0-.22-0.33l-0.9-.814a0.7,0.7,0,0,0-.418-0.242,0.533,0.533,0,0,0-.33.286l-0.572.814H719.6c-0.2,0-.858-0.022-1.585-0.044A17.31,17.31,0,0,0,721.4,301.1a10.888,10.888,0,0,0,5.941,5.786A4.005,4.005,0,0,1,729.123,304.6Zm-1.87,7.327c0-2.068-3.521-2.86-4.731-2.86l-0.044.132a10.512,10.512,0,0,1,2.266,2.662c0.661,1.012.793,1.21,1.387,1.21A1.061,1.061,0,0,0,727.253,311.927Zm-12.608-10.055c0-1.651-3.1-1.981-3.829-2.047l-0.066.132a6.454,6.454,0,0,1,1.7,2.135,1.251,1.251,0,0,0,1.122,1.012A1.179,1.179,0,0,0,714.645,301.872Zm-1.892,3.828c0-1.122-1.673-2.134-3.741-2.112l-0.022.132a5.523,5.523,0,0,1,1.43,1.936c0.484,1.012.594,1.232,1.211,1.232A1.2,1.2,0,0,0,712.753,305.7Zm6.139,4.313a0.332,0.332,0,0,0-.2-0.308l-2.2-1.166a16.343,16.343,0,0,1-2.948,4.752l0.066,0.11a15.68,15.68,0,0,0,4.642-3.08C718.65,310.277,718.892,310.233,718.892,310.013Zm-3.433-7.459-0.132-.044a73.7,73.7,0,0,1-4.049,6.579,1.394,1.394,0,0,1-1.166.616c-0.2,0-.4-0.044-0.616-0.066v0.132a2.433,2.433,0,0,1,1.3,1.914c0,0.2-.066,1.078-0.066,1.232a1.929,1.929,0,0,0,.22.924,0.905,0.905,0,0,0,.837.4,1.328,1.328,0,0,0,1.408-1.408,1.906,1.906,0,0,0-.2-0.792,2.658,2.658,0,0,1-.44-1.232,2.91,2.91,0,0,1,.2-0.9C713.105,308.847,715.085,303.742,715.459,302.554Zm13.224,16.194a0.448,0.448,0,0,0-.22-0.33l-1.65-1.452a0.81,0.81,0,0,0-.418-0.242,0.643,0.643,0,0,0-.33.286l-1.035,1.452h-4.994c-0.022-.594-0.022-1.21-0.022-2.2H726.2a0.29,0.29,0,0,0,.352-0.242,0.448,0.448,0,0,0-.22-0.33l-1.585-1.409a0.907,0.907,0,0,0-.418-0.242,0.454,0.454,0,0,0-.352.286l-0.836,1.409h-3.124c0-.154,0-0.924.022-1.078,0.462-.265.594-0.353,0.594-0.573a0.333,0.333,0,0,0-.33-0.286l-2.729-.594a12.772,12.772,0,0,1,.264,2.531h-3.454c-0.242,0-1.8-.022-3.125-0.132l0.353,0.792a13.471,13.471,0,0,1,2.376-.132h3.85v2.2H712.4c-0.242,0-1.8-.022-3.147-0.132l0.374,0.792a13.305,13.305,0,0,1,2.377-.132h16.326A0.29,0.29,0,0,0,728.683,318.748Zm12.1,1.43c7.063-2.684,7.437-8.449,7.437-11.331,0-.572,0-6.711-3.256-6.711-2.6,0-4.313,4.576-5.039,6.667a0.762,0.762,0,0,1-.286.506,1.592,1.592,0,0,1-.154-0.924,11.791,11.791,0,0,1,1.3-5.3,3.51,3.51,0,0,0,.528-1.452c0-1.013-1.518-1.827-2.4-1.827a2.652,2.652,0,0,0-1.474.484,2.054,2.054,0,0,1,1.386,1.893c0,0.154-.088.77-0.286,2.178a34.026,34.026,0,0,0-.506,5.171c0,3.058.946,4.62,1.958,4.62a0.937,0.937,0,0,0,.924-1.078c0-.374-0.22-2.156-0.22-2.574,0-2.442,1.892-7.239,3.565-7.239,1.43,0,1.54,3.454,1.54,4.951,0,5.9-2.112,9.681-5.105,11.837Z" transform="translate(-709 -299.375)"/>
</svg>
