<svg xmlns="http://www.w3.org/2000/svg" width="43.812" height="20.375" viewBox="0 0 43.812 20.375">
  <defs>
    <style>
      .cls-1 {
        fill: #fff;
        fill-rule: evenodd;
      }
    </style>
  </defs>
  <path id="txt_skill002.svg" class="cls-1" d="M482.5,301.388c0,0.616,0,1.232-.022,6.733a0.914,0.914,0,0,1-.111-0.088l-0.946-.947a0.765,0.765,0,0,0-.4-0.242,0.478,0.478,0,0,0-.33.286l-0.506.947h-0.2v-2.8h2.09a0.263,0.263,0,0,0,.331-0.242,0.524,0.524,0,0,0-.221-0.33l-0.814-.726a0.577,0.577,0,0,0-.4-0.22,0.462,0.462,0,0,0-.33.264l-0.528.726h-0.132c0-.616.022-0.99,0.044-1.43,0.374-.176.572-0.264,0.572-0.528a0.469,0.469,0,0,0-.44-0.374l-2.354-.55a8.039,8.039,0,0,1,.308,2.882c-0.858,0-1.232-.022-1.98-0.066v-3.3H482.5Zm2.772,0.044a0.546,0.546,0,0,0-.308-0.4l-1.21-.9a0.9,0.9,0,0,0-.462-0.264,0.6,0.6,0,0,0-.374.286l-0.529.705h-6.16l-2.443-1.013a40.471,40.471,0,0,1,.352,6.1c0,9.2-.726,11.53-1.3,13.356l0.154,0.066a17.554,17.554,0,0,0,3.147-10.671,11.394,11.394,0,0,1,1.606-.088h4.51a0.662,0.662,0,0,0,.221-0.044c0,1.056.022,6.249,0.022,7.415,0,0.748,0,1.034-.595,1.034-0.176,0-1.76-.066-2.2-0.088l-0.022.176a3.489,3.489,0,0,1,2,2.662c2.949-.594,2.949-2.222,2.949-2.948,0-.506-0.088-3.037-0.088-3.609v-11C485.18,301.762,485.268,301.652,485.268,301.432Zm-7.151,3.85c0,0.44-.022,2.4-0.022,2.8-0.66,0-1.3-.044-1.958-0.066v-2.773l0.066,0.154A9.269,9.269,0,0,1,478.117,305.282Zm3.96,5.875a0.587,0.587,0,0,0-.286-0.418l-1.012-.726a0.8,0.8,0,0,0-.4-0.22,0.413,0.413,0,0,0-.33.264l-0.44.594h-1.276l-1.8-.858a8.021,8.021,0,0,1,.11,1.826c0,2.332.022,3.037-.022,3.7,0,0.11-.044.638-0.044,0.77a0.642,0.642,0,0,0,.748.682c1.188,0,1.122-.924,1.078-1.65h1.32c-0.044.572,0.066,0.88,0.682,0.88a1.034,1.034,0,0,0,1.144-.946c0-.066-0.022-2.751,0-3.279A0.932,0.932,0,0,0,482.077,311.157Zm-2.332,3.433h-1.364v-3.411h1.364v3.411Zm12.85-7.636a0.467,0.467,0,0,0-.242-0.374l-2.2-1.826a19.471,19.471,0,0,1-5.039,7.261l0.11,0.154a19.361,19.361,0,0,0,6.535-4.885C491.957,307.306,492.6,307.35,492.6,306.954Zm-0.44-5.434a0.43,0.43,0,0,0-.286-0.374l-2.354-1.761a20.424,20.424,0,0,1-4.6,6.887L485,306.4a21.813,21.813,0,0,0,6.139-4.554C491.869,301.894,492.155,301.806,492.155,301.52Zm0.924,11.309a0.458,0.458,0,0,0-.242-0.374l-2.288-2.024a21.889,21.889,0,0,1-6.183,8.977l0.11,0.132a17.975,17.975,0,0,0,7.745-6.4c0.132,0,.242.022,0.352,0.022A0.409,0.409,0,0,0,493.079,312.829Zm23.584-12.145a0.362,0.362,0,0,0-.374-0.309l-2.9-.682a13.769,13.769,0,0,1,.4,3.5c0,0.638-.022,10.715-0.022,12.718,0,0.7-.154.836-0.573,0.836-0.132,0-2.64-.11-3.146-0.132v0.176c2.684,0.946,2.816,2.244,2.86,2.882,3.191-.242,3.191-2.156,3.191-3.08,0-.418-0.044-2.4-0.044-2.861-0.044-3.256-.066-8.867-0.066-12.343A1.487,1.487,0,0,0,516.663,300.684Zm-4.313,1.738a0.413,0.413,0,0,0-.4-0.352l-2.6-.616a21.514,21.514,0,0,1,.462,5.1c0,0.836-.022,2.157-0.066,3.785,0,0.506-.11,2.728-0.11,3.234a0.848,0.848,0,0,0,.99.946,1.5,1.5,0,0,0,1.122-.528,1.058,1.058,0,0,0,.176-0.7c0-.242-0.066-1.518-0.066-1.8-0.044-2.794-.088-6.381-0.022-8.383A2.729,2.729,0,0,0,512.35,302.422Zm-3.5,1.166a0.522,0.522,0,0,0-.22-0.33L507.18,302a0.776,0.776,0,0,0-.4-0.242,0.549,0.549,0,0,0-.353.286l-0.88,1.254h-1.342c0-.726,0-2.112.022-2.2a1.2,1.2,0,0,0,.594-0.617,0.439,0.439,0,0,0-.33-0.352l-2.728-.594a13.67,13.67,0,0,1,.308,3.763h-1.628c-1.057,0-2.091-.044-3.125-0.132l0.352,0.814a10.916,10.916,0,0,1,2.377-.154h1.65a24.154,24.154,0,0,1-.924,3.146,9.842,9.842,0,0,0-2.839-.88l-0.088.154a9.119,9.119,0,0,1,2.465,3.279,1.186,1.186,0,0,0,1.056.792,1.174,1.174,0,0,0,1.166-1.232,2.124,2.124,0,0,0-1.188-1.805,24.023,24.023,0,0,0,2.178-2.354c0.33-.022.66-0.044,0.66-0.374a0.477,0.477,0,0,0-.352-0.352l-0.88-.374h5.567C508.654,303.83,508.852,303.83,508.852,303.588Zm-1.1,3.806a0.515,0.515,0,0,0-.242-0.374l-2.487-1.694a19.614,19.614,0,0,1-7.987,9.264l0.066,0.154a17.2,17.2,0,0,0,9.7-6.931C507.532,307.7,507.752,307.659,507.752,307.394Zm1.012,10.562c0-1.782-2.8-2.86-3.5-3.1a23.09,23.09,0,0,0,2.531-2.993c0.55-.066.88-0.088,0.88-0.374a0.7,0.7,0,0,0-.308-0.44l-2.333-1.474c-0.968,2.772-4.774,7.481-8.933,9.835l0.044,0.176a17.169,17.169,0,0,0,7.723-4.378,7.6,7.6,0,0,1,1.43,2.662c0.331,0.924.507,1.386,1.211,1.386A1.277,1.277,0,0,0,508.764,317.956Z" transform="translate(-472.844 -299.375)"/>
</svg>
