<?xml version="1.0" encoding="UTF-8"?>
<svg width="65px" height="187px" viewBox="0 0 65 187" version="1.1" xmlns="http://www.w3.org/2000/svg" xmlns:xlink="http://www.w3.org/1999/xlink">
    <!-- Generator: Sketch 43.2 (39069) - http://www.bohemiancoding.com/sketch -->
    <title>Page 1</title>
    <desc>Created with Sketch.</desc>
    <defs></defs>
    <g id="Page-1" stroke="none" stroke-width="1" fill="none" fill-rule="evenodd">
        <g id="Fill-1" fill="#F3F3F3">
            <path d="M21.4758,118.502 C21.2838,118.59 21.1198,118.731 21.0028,118.908 C20.1588,119.709 19.1018,120.25 17.9588,120.466 C17.5448,120.555 17.1668,120.768 16.8768,121.076 C16.4088,121.527 16.0208,122.054 15.7288,122.635 C15.6628,122.784 15.5708,122.921 15.4588,123.04 C15.3678,123.112 15.3088,123.219 15.2968,123.335 C15.3038,123.425 15.3358,123.511 15.3908,123.582 C15.4448,123.622 15.4778,123.683 15.4848,123.749 C15.4848,123.784 15.4758,123.818 15.4588,123.849 C15.4528,123.868 15.4498,123.889 15.4498,123.909 C15.6228,124.432 15.9288,124.901 16.3358,125.271 C16.6068,125.545 16.8558,125.84 17.0818,126.152 L17.3508,126.492 L17.2838,127.034 C17.1258,127.815 16.8518,128.567 16.4728,129.268 C15.6338,130.666 14.6348,131.961 13.4968,133.129 C13.1598,133.536 12.8218,133.943 12.7538,134.011 C12.7328,134.06 12.7248,134.113 12.7278,134.166 C12.8268,134.887 13.0898,135.576 13.4968,136.179 C13.7168,136.586 14.0788,136.899 14.5128,137.059 C14.6488,137.073 14.7728,137.146 14.8498,137.259 C13.9868,138.369 13.0648,139.433 12.0888,140.445 C11.3098,141.199 10.6488,142.066 10.1278,143.018 C9.9918,143.305 9.9178,143.618 9.9118,143.936 C9.9098,144.314 10.0338,144.683 10.2638,144.983 C10.3688,145.132 10.4588,145.291 10.5338,145.457 C10.6588,145.654 10.7708,145.857 10.8718,146.067 C11.0608,146.269 11.2208,146.497 11.3458,146.744 C11.6008,147.35 12.0538,147.851 12.6298,148.167 C12.8948,148.349 13.1438,148.553 13.3738,148.777 C13.3738,148.844 6.3428,151.486 5.8738,151.622 C5.5078,151.696 5.1758,151.886 4.9268,152.164 C4.8508,152.226 4.7528,152.25 4.6568,152.231 C4.5078,152.229 4.3818,152.342 4.3688,152.491 C4.3688,152.518 4.3738,152.545 4.3858,152.57 L4.2508,152.638 C4.0748,152.627 3.9238,152.761 3.9128,152.937 L3.9128,152.976 C3.8818,153.11 3.7768,153.216 3.6428,153.248 C3.5808,153.262 3.5238,153.294 3.4808,153.341 C3.4838,153.358 3.4938,153.373 3.5068,153.383 L3.1698,153.518 L3.1028,153.586 L2.9668,153.722 C2.8338,153.722 2.8318,153.788 2.8318,153.854 L2.7638,153.921 C2.6668,153.952 2.5758,153.997 2.4928,154.056 C2.4178,154.11 2.3618,154.185 2.3308,154.272 C2.3328,154.294 2.3418,154.314 2.3578,154.328 C2.3798,154.341 2.3958,154.362 2.4028,154.387 C2.3758,154.425 2.3358,154.452 2.2908,154.464 L2.0908,154.598 C1.9428,154.634 1.8038,154.702 1.6848,154.798 C1.6318,154.824 1.5848,154.847 1.5498,154.869 L1.5498,155.883 C1.6158,155.8 1.7138,155.75 1.8198,155.746 C2.0328,155.696 2.2228,155.577 2.3608,155.408 C4.0358,154.415 5.9028,153.791 7.8378,153.578 C8.6038,153.445 9.3378,153.169 10.0018,152.765 C10.1358,152.697 11.0148,152.427 11.9618,152.088 C12.9088,151.749 13.7868,151.478 13.8548,151.41 C14.0008,151.319 14.1608,151.252 14.3278,151.21 C14.5278,151.143 14.9368,151.01 15.0718,150.939 C15.1598,150.837 15.2788,150.767 15.4098,150.739 C15.6648,150.704 15.9148,150.637 16.1528,150.539 C16.5598,150.404 17.1008,150.201 17.4368,150.133 C17.6368,150.065 18.2488,149.862 18.5878,149.727 C18.8038,149.633 19.0308,149.565 19.2628,149.527 C19.3308,149.527 19.6688,149.39 19.9398,149.327 C20.2058,149.259 20.4768,149.214 20.7498,149.191 C20.8778,149.203 21.0038,149.153 21.0878,149.056 C21.1638,148.994 21.2628,148.969 21.3588,148.988 L21.5588,148.919 L21.4248,149.119 C21.0548,149.428 20.6128,149.638 20.1398,149.729 C20.0528,149.744 19.9718,149.788 19.9118,149.853 C19.9118,149.861 19.9208,149.864 19.9378,149.864 C19.9428,149.863 19.9468,149.867 19.9468,149.871 C19.6118,150.207 19.2198,150.48 18.7878,150.677 C18.1128,151.083 17.3678,151.49 17.0988,151.626 C17.0308,151.693 16.4218,152.1 16.1508,152.304 C15.9678,152.505 15.7648,152.686 15.5438,152.845 C15.0768,153.132 14.6448,153.474 14.2578,153.862 C14.2568,153.87 14.2608,153.877 14.2688,153.879 L14.2728,153.879 C14.3098,153.879 14.4198,153.779 14.5298,153.726 C14.6108,153.68 14.7018,153.653 14.7948,153.647 C14.8528,153.647 14.8838,153.666 14.8838,153.691 C14.8828,153.705 14.8768,153.717 14.8668,153.726 C14.8618,153.73 14.8568,153.735 14.8538,153.742 C14.8748,153.742 15.0538,153.631 15.2708,153.52 C16.0138,153.046 18.4478,151.759 19.9358,151.014 C20.6788,150.608 21.6928,150.065 22.1658,149.795 C22.4858,149.601 22.8258,149.442 23.1798,149.321 C23.5208,149.218 23.8418,149.058 24.1278,148.846 C24.2838,148.714 24.4688,148.622 24.6678,148.575 C25.0408,148.469 25.3878,148.284 25.6828,148.033 C25.9668,147.834 26.2878,147.695 26.6278,147.627 C26.7438,147.588 26.8568,147.543 26.9668,147.491 C27.1668,147.424 27.6418,147.291 27.9808,147.22 C28.3008,147.175 28.6168,147.108 28.9268,147.02 C29.0708,146.964 29.2228,146.931 29.3758,146.92 C29.4818,146.921 29.5848,146.957 29.6698,147.02 L29.8698,147.156 L29.7338,147.291 C29.7058,147.302 29.6798,147.317 29.6558,147.337 C29.6618,147.34 29.6688,147.34 29.6748,147.337 C29.7168,147.337 29.8348,147.321 30.0748,147.287 C30.1748,147.272 30.2748,147.263 30.3748,147.261 C30.5028,147.232 30.6338,147.301 30.6818,147.423 C30.7998,147.577 30.9888,147.66 31.1818,147.644 C31.2418,147.644 31.3018,147.638 31.3598,147.626 C31.4328,147.599 31.5098,147.584 31.5868,147.581 C31.7008,147.585 31.8108,147.624 31.9008,147.694 C32.0578,147.818 32.2548,147.881 32.4548,147.87 C32.6318,147.866 32.8078,147.852 32.9828,147.829 C33.1818,147.795 33.3828,147.781 33.5828,147.786 C34.4298,147.776 35.2738,147.881 36.0928,148.1 C36.2638,148.17 36.4458,148.209 36.6308,148.213 C36.7008,148.22 36.7708,148.205 36.8308,148.168 L36.8308,147.968 C36.8158,147.931 36.8068,147.891 36.8028,147.851 C36.8028,147.761 36.9278,147.751 37.4398,147.697 C37.5878,147.696 37.7318,147.659 37.8618,147.59 C37.8608,147.579 37.8548,147.568 37.8468,147.561 C37.8168,147.449 37.7938,147.336 37.7778,147.222 C37.7638,147.078 37.7178,146.939 37.6428,146.816 C37.5928,146.736 37.5588,146.647 37.5428,146.553 C37.5418,146.525 37.5528,146.497 37.5718,146.477 C37.5778,146.464 37.5808,146.449 37.5798,146.435 C37.3068,145.872 36.9108,145.377 36.4218,144.987 C35.9868,144.562 35.5808,144.109 35.2038,143.632 C35.1488,143.467 35.0268,143.332 34.8688,143.26 C34.8218,143.264 34.7758,143.276 34.7318,143.294 C34.0178,143.417 33.2928,143.462 32.5688,143.429 C31.7568,143.429 31.7568,143.429 31.7568,143.294 C31.7848,143.162 31.8548,143.043 31.9568,142.954 C32.2418,142.647 32.3958,142.241 32.3878,141.822 C32.3838,141.564 32.3518,141.309 32.2938,141.058 C32.2528,140.689 32.1128,140.338 31.8888,140.042 C31.4618,139.501 30.9608,139.022 30.4018,138.619 C30.1438,138.429 29.8948,138.226 29.6568,138.01 C29.5888,137.926 29.4938,137.868 29.3878,137.847 C29.3628,137.846 29.3378,137.856 29.3198,137.874 L29.2518,138.01 C29.2518,138.077 29.1848,138.077 28.9138,138.077 C28.7308,138.062 28.5478,138.085 28.3738,138.144 C28.2378,138.144 27.6288,138.344 27.0208,138.484 C26.3098,138.647 25.6088,138.85 24.9208,139.093 C23.7718,139.543 22.5998,139.927 21.4068,140.244 L20.9338,140.381 L21.2038,140.109 C22.1798,139.216 23.3658,138.587 24.6518,138.281 C25.5448,138.076 26.3928,137.709 27.1518,137.197 C27.2948,137.084 27.4548,136.992 27.6238,136.925 L27.7608,136.791 C27.8358,136.729 27.9348,136.704 28.0298,136.723 C28.1648,136.723 28.3688,136.655 28.4358,136.655 C28.4928,136.639 28.5358,136.593 28.5488,136.536 C28.5458,136.503 28.5298,136.472 28.5038,136.451 C28.4708,136.422 28.4508,136.382 28.4488,136.338 C28.4838,136.22 28.5838,136.132 28.7058,136.113 C28.8028,136.085 28.8788,136.01 28.9058,135.913 C28.9338,135.816 29.0088,135.74 29.1058,135.713 C29.2168,135.639 29.2698,135.504 29.2408,135.374 C29.2408,135.167 29.3198,135.08 29.4178,135.08 C29.4508,135.081 29.4828,135.089 29.5118,135.104 C29.5398,135.104 29.5568,135.104 29.5568,135.089 C29.5288,135.021 29.4908,134.957 29.4438,134.9 C29.3758,134.799 29.3338,134.683 29.3218,134.562 C29.3098,134.514 29.3398,134.465 29.3888,134.453 C29.3928,134.452 29.3968,134.451 29.4018,134.451 C29.4418,134.455 29.4798,134.47 29.5118,134.494 C29.5488,134.506 29.5878,134.512 29.6268,134.512 C29.7568,134.53 29.8808,134.456 29.9268,134.334 C29.9268,134.319 29.9228,134.304 29.9158,134.29 C29.8838,134.133 29.8618,133.975 29.8488,133.816 L29.8488,133.803 C29.8208,133.646 29.8438,133.484 29.9158,133.342 L29.9838,133.142 C29.7558,132.577 29.5968,131.986 29.5108,131.382 C29.5608,131.121 29.6518,130.869 29.7808,130.636 C29.9608,130.23 30.0518,130.094 30.0518,130.069 C30.0298,130.077 30.0088,130.086 29.9888,130.098 C29.9648,130.102 29.9428,130.085 29.9388,130.061 C29.9378,130.057 29.9378,130.052 29.9388,130.047 C29.9458,129.994 29.9618,129.942 29.9888,129.895 C30.0208,129.742 30.0378,129.586 30.0398,129.43 C30.0598,129.356 30.0408,129.276 29.9888,129.219 C29.9208,129.219 29.9208,129.082 29.9208,128.947 C29.9248,128.864 29.9348,128.781 29.9508,128.7 C29.9508,128.683 29.9428,128.677 29.9208,128.677 C29.7208,128.677 29.7208,128.405 29.7208,127.795 C29.7338,127.687 29.7398,127.577 29.7398,127.468 C29.7478,127.04 29.6488,126.617 29.4508,126.237 C29.3598,126.09 29.2928,125.931 29.2508,125.763 C29.0528,125.196 28.7548,124.669 28.3728,124.205 C28.1728,123.934 27.9668,123.527 27.7648,123.256 C26.6188,121.501 25.1208,120.002 23.3648,118.856 C23.0448,118.584 22.6358,118.44 22.2158,118.45 C21.9678,118.46 21.7198,118.482 21.4728,118.518 L21.4758,118.502 Z M20.8098,143.899 C20.9458,143.832 21.0098,143.832 21.0098,143.764 C21.0098,143.696 21.1438,143.696 21.2798,143.696 C21.4888,143.65 21.6928,143.583 21.8878,143.496 C22.3758,143.283 22.9018,143.173 23.4338,143.172 C23.5528,143.162 23.6708,143.181 23.7808,143.226 C23.7898,143.23 23.7948,143.239 23.7938,143.249 C23.2188,144.057 22.5318,144.779 21.7528,145.394 L20.8058,146.273 L19.6568,146.545 C19.0478,146.745 18.2368,146.951 17.8318,147.087 C17.6188,147.162 17.3968,147.212 17.1718,147.239 C17.1298,147.239 17.1078,147.23 17.1078,147.212 C17.1298,147.158 17.1708,147.114 17.2228,147.087 C17.2838,147.07 17.3278,147.019 17.3358,146.956 C17.3308,146.907 17.3158,146.859 17.2908,146.816 C17.2498,146.724 17.2258,146.624 17.2198,146.523 C17.2288,146.372 17.3018,146.232 17.4198,146.139 C17.6568,145.937 17.8428,145.682 17.9608,145.394 C18.3348,144.901 18.8228,144.506 19.3818,144.242 C19.6078,144.113 19.8468,144.007 20.0938,143.925 L20.1068,143.925 C20.0768,143.97 20.0368,144.007 19.9898,144.034 L19.8548,144.169 L20.0548,144.169 C20.2078,144.145 20.3498,144.075 20.4618,143.969 C20.4968,143.925 20.5388,143.887 20.5868,143.857 C20.5958,143.857 20.5958,143.874 20.5958,143.902 C20.5958,143.93 20.5958,143.952 20.6218,143.952 C20.6828,143.942 20.7418,143.925 20.7988,143.902 L20.8098,143.899 Z M14.9958,170.386 C14.9548,170.398 14.9208,170.427 14.9018,170.466 C14.9018,170.476 14.9118,170.482 14.9358,170.482 C14.9798,170.479 15.0228,170.469 15.0638,170.454 C15.1938,170.445 15.3188,170.405 15.4288,170.336 C15.4018,170.315 15.3668,170.31 15.3338,170.318 L14.9958,170.386 Z M20.4728,176.145 L20.5398,176.212 L20.5398,176.075 L20.4728,176.145 Z M1.3828,155.015 C1.3848,155.034 1.3948,155.051 1.4098,155.062 C1.4238,155.076 1.4318,155.094 1.4328,155.113 C1.3648,155.255 1.2618,155.378 1.1328,155.469 C0.9778,155.556 0.8688,155.706 0.8328,155.88 C0.8338,155.926 0.8458,155.971 0.8668,156.012 C0.9058,156.111 0.9998,156.179 1.1068,156.183 C1.2608,156.163 1.3968,156.075 1.4768,155.943 L1.5438,155.877 L1.5438,154.875 C1.4708,154.899 1.4118,154.955 1.3828,155.027 L1.3828,155.015 Z M20.2038,101.615 L20.1358,101.751 L20.2038,101.751 L20.2038,101.615 Z M10.6038,89.624 L10.7388,89.353 L10.8738,89.218 L10.6738,89.353 C10.5688,89.478 10.4778,89.614 10.4028,89.759 L10.2688,89.959 L10.4028,89.823 C10.4968,89.797 10.5718,89.727 10.6018,89.635 L10.6038,89.624 Z M49.9508,169.024 C49.6128,169.294 48.8698,169.904 48.3958,170.378 C45.4948,172.818 42.3188,174.91 38.9318,176.611 C38.2928,177.022 37.6028,177.345 36.8788,177.571 C36.8628,177.572 36.8478,177.568 36.8348,177.559 C36.8288,177.552 36.8258,177.543 36.8258,177.534 C37.0228,177.294 37.2848,177.114 37.5798,177.017 C40.3838,175.536 43.0928,173.885 45.6928,172.071 C47.9228,170.446 49.0048,169.633 49.4108,169.294 C49.7678,168.969 50.1518,168.674 50.5588,168.414 C50.3958,168.655 50.1888,168.864 49.9488,169.03 L49.9508,169.024 Z M20.7438,162.181 C19.9938,162.44 19.2248,162.645 18.4438,162.791 C18.2438,162.791 18.1738,162.791 18.1068,162.655 C18.1008,162.635 18.0988,162.614 18.0988,162.594 C18.2318,162.029 18.5148,161.511 18.9178,161.094 C19.2648,160.744 19.6918,160.486 20.1618,160.342 C20.1758,160.342 20.1888,160.344 20.2018,160.349 C20.2288,160.362 20.2578,160.369 20.2878,160.368 C20.4318,160.373 20.5608,160.282 20.6068,160.146 C20.8298,160.009 21.0948,159.961 21.3508,160.01 C21.5768,159.94 21.8208,159.965 22.0278,160.078 L22.1618,160.278 C22.1918,160.309 22.2328,160.325 22.2758,160.322 C22.4458,160.304 22.6138,160.266 22.7758,160.21 C23.3748,160.101 23.9818,160.036 24.5908,160.019 C24.6878,159.997 24.7888,160.014 24.8738,160.065 C24.8748,160.068 24.8748,160.071 24.8738,160.074 C24.5538,160.342 24.1868,160.548 23.7918,160.684 L23.6578,160.752 C22.7128,161.283 21.7398,161.763 20.7418,162.187 L20.7438,162.181 Z M56.1038,155.949 C55.9248,156.012 55.7898,156.163 55.7488,156.349 C55.7488,156.375 55.7548,156.4 55.7668,156.424 L55.7668,156.434 C55.1698,156.698 54.5238,156.834 53.8718,156.834 C53.6888,156.823 53.5048,156.846 53.3298,156.901 C53.1188,157.008 52.8908,157.075 52.6548,157.101 C52.4938,157.079 52.3298,157.103 52.1818,157.169 C51.6198,157.385 51.0248,157.499 50.4238,157.507 C49.7358,157.537 49.0558,157.65 48.3948,157.846 C48.3538,157.861 48.3108,157.871 48.2678,157.874 C48.2328,157.874 48.2208,157.862 48.2208,157.845 C48.2258,157.818 48.2388,157.795 48.2598,157.778 C48.2728,157.757 48.2798,157.732 48.2818,157.708 C48.2818,157.643 48.1708,157.643 47.8538,157.643 C47.6818,157.682 47.5018,157.654 47.3488,157.567 C47.4078,157.497 47.4918,157.451 47.5838,157.44 C48.2598,157.239 51.9838,156.288 53.1958,156.018 C53.9028,155.858 54.6238,155.768 55.3498,155.746 C55.6018,155.744 55.8538,155.767 56.1028,155.813 L56.3738,155.813 L56.1038,155.949 Z M64.0808,157.711 C64.0178,157.42 63.9738,157.126 63.9468,156.83 C63.9058,156.574 63.7878,156.338 63.6078,156.152 C63.4728,155.952 63.0668,155.475 62.8648,155.136 C62.7538,154.9 62.5918,154.692 62.3918,154.526 C62.2738,154.501 62.1548,154.486 62.0358,154.482 C61.9178,154.473 61.8018,154.514 61.7148,154.594 C61.6548,154.661 61.5678,154.698 61.4778,154.694 C61.2138,154.669 60.9528,154.614 60.7008,154.531 C60.1708,154.403 59.6238,154.358 59.0788,154.396 C57.0198,154.413 54.9648,154.571 52.9278,154.87 C51.7758,155.006 48.2618,155.48 47.9908,155.48 C47.9038,155.48 47.8688,155.468 47.8688,155.444 C47.9138,155.371 47.9798,155.313 48.0588,155.277 C48.1648,155.225 48.2398,155.124 48.2578,155.006 L48.4578,154.735 C48.4888,154.716 48.5228,154.701 48.5588,154.69 C48.5618,154.69 48.5658,154.692 48.5668,154.697 L48.5668,154.698 C48.5568,154.735 48.5418,154.77 48.5218,154.803 C48.5218,154.831 48.5218,154.847 48.5378,154.847 C48.6048,154.819 48.6688,154.781 48.7258,154.735 C48.8788,154.654 49.0028,154.526 49.0798,154.37 C49.0808,154.355 49.0748,154.34 49.0638,154.329 C49.0558,154.313 49.0508,154.294 49.0518,154.275 C49.0668,154.177 49.1518,154.106 49.2508,154.107 C49.2788,154.107 49.3058,154.114 49.3308,154.125 C49.7528,153.917 50.1228,153.616 50.4118,153.245 C50.5288,153.11 50.6628,152.991 50.8118,152.892 C50.8188,152.893 50.8238,152.898 50.8228,152.905 L50.8228,152.906 L50.9568,152.906 C51.0498,152.821 51.1698,152.773 51.2948,152.77 C51.4948,152.77 51.4948,152.704 51.4948,152.638 C51.5828,152.459 51.7698,152.352 51.9698,152.367 C52.0068,152.377 52.0468,152.373 52.0808,152.354 C52.0708,152.333 52.0558,152.314 52.0358,152.3 C52.0138,152.285 51.9978,152.261 51.9928,152.234 C52.0168,152.179 52.0548,152.131 52.1028,152.096 L52.3738,151.96 C52.6018,151.929 52.8288,151.884 53.0508,151.825 C53.2628,151.773 53.4778,151.739 53.6958,151.725 C53.7528,151.722 53.8088,151.731 53.8618,151.753 C54.0368,151.773 54.2128,151.782 54.3888,151.78 C55.0048,151.782 55.6208,151.728 56.2278,151.618 C56.6868,151.489 57.1218,151.283 57.5128,151.008 C57.9188,150.737 58.5258,150.398 58.7958,150.263 C59.3918,149.96 59.8858,149.488 60.2168,148.907 C60.4178,148.508 60.4878,148.055 60.4168,147.614 L60.4168,147.555 C60.4578,147.094 60.3898,146.63 60.2168,146.2 C60.1158,145.795 59.9568,145.408 59.7438,145.049 C59.5628,144.74 59.3598,144.446 59.1358,144.168 C58.5918,143.353 57.9558,142.603 57.2418,141.932 C56.7818,141.382 56.2048,140.943 55.5518,140.646 C55.3848,140.605 55.2248,140.537 55.0778,140.446 C54.7588,140.311 54.4088,140.263 54.0648,140.309 C52.9378,140.317 51.8178,140.134 50.7518,139.767 C50.0748,139.497 49.3998,139.294 49.3328,139.225 C49.3188,139.216 49.3098,139.202 49.3088,139.186 C49.3908,139.091 49.4898,139.012 49.6018,138.954 C50.0078,138.683 51.2248,137.736 51.5628,137.465 C51.7638,137.33 52.0358,136.99 52.3068,136.788 C52.8588,136.314 53.4468,135.884 54.0648,135.499 C54.2658,135.364 54.5378,135.162 54.6728,135.094 C54.8678,135.005 55.0498,134.892 55.2138,134.755 C55.3538,134.673 55.4898,134.583 55.6198,134.484 L55.8198,134.348 L56.0898,134.01 C56.2648,133.698 56.5218,133.44 56.8328,133.264 C56.9838,133.196 57.1558,133.196 57.3078,133.264 C57.4458,133.281 57.5868,133.257 57.7128,133.196 C58.0998,132.993 58.5078,132.834 58.9308,132.722 C59.2678,132.587 59.2678,132.522 59.2678,132.112 C59.2788,131.881 59.3248,131.653 59.4028,131.435 C59.4678,131.212 59.5008,130.982 59.5028,130.75 C59.5108,130.567 59.4758,130.385 59.4028,130.217 C59.2898,130.001 59.1988,129.773 59.1318,129.538 C59.0388,129.228 58.9018,128.932 58.7258,128.659 C58.0218,127.601 57.2308,126.603 56.3608,125.677 C56.0178,125.34 55.7008,124.978 55.4128,124.593 C55.1628,124.12 54.8438,123.686 54.4668,123.306 L54.0618,122.832 L53.7238,122.832 C53.5878,122.832 53.4828,122.862 53.4228,122.862 C53.3958,122.862 53.3798,122.854 53.3798,122.832 C53.3748,122.826 53.3688,122.821 53.3618,122.817 C53.5118,122.669 53.6768,122.539 53.8538,122.426 C54.3758,121.975 54.7128,121.348 54.7998,120.664 C54.7838,120.394 54.9128,120.136 55.1388,119.987 C55.3378,119.987 55.4078,119.648 55.4078,118.903 C55.3978,117.973 55.4648,117.044 55.6078,116.125 L55.7428,115.989 C55.7608,115.96 55.7738,115.929 55.7828,115.896 C55.7838,115.892 55.7808,115.889 55.7768,115.888 L55.7758,115.888 C55.7168,115.915 55.6598,115.948 55.6078,115.988 C55.5128,116.07 55.4098,116.143 55.3008,116.205 C55.2888,116.205 55.2778,116.201 55.2688,116.193 C55.2398,116.119 55.2298,116.038 55.2398,115.959 C55.2398,115.707 55.2688,115.288 55.2688,114.838 L55.2018,113.483 L55.0018,112.737 C54.8568,112.248 54.7438,111.751 54.6638,111.247 C54.5908,110.37 54.3378,109.517 53.9198,108.741 L53.7838,108.605 C53.7838,108.537 53.7168,108.199 53.6488,107.86 C53.3508,106.847 53.1918,105.799 53.1768,104.743 C53.1768,103.998 53.1088,102.848 53.0418,102.305 C52.8978,100.733 52.8118,99.67 52.8118,98.758 C52.8088,97.97 52.8868,97.184 53.0418,96.412 C53.3718,94.757 53.5978,93.083 53.7168,91.399 C53.8058,90.313 54.0318,89.243 54.3928,88.215 C54.4838,87.928 54.5518,87.633 54.5928,87.334 C54.7208,86.937 54.8108,86.529 54.8628,86.115 C54.8868,85.762 54.9778,85.417 55.1338,85.099 C55.2078,84.781 55.2298,84.453 55.2018,84.127 L55.2018,84.083 C55.2258,83.581 55.2938,83.082 55.4018,82.591 C55.5078,81.896 55.6888,81.214 55.9428,80.559 C56.0638,80.689 56.1348,80.856 56.1428,81.033 C56.1578,81.149 56.1998,81.26 56.2658,81.357 C56.2728,81.357 56.2788,81.341 56.2788,81.305 C56.2538,81.075 56.2088,80.849 56.1428,80.627 C56.1098,80.411 56.0938,80.193 56.0938,79.975 C56.1038,79.214 56.2828,78.466 56.6158,77.782 C56.6908,77.544 56.8318,77.334 57.0218,77.172 C57.1568,77.172 57.1568,77.105 57.1568,76.902 C57.2338,76.073 57.6498,75.314 58.3078,74.802 C58.5428,74.634 58.7488,74.428 58.9158,74.192 C59.2528,73.582 59.5908,72.905 59.7928,72.566 C60.0748,72.044 60.2368,71.465 60.2678,70.872 C60.1058,70.166 59.8558,69.483 59.5228,68.84 C58.5238,67.245 57.2678,65.825 55.8068,64.64 C54.8798,63.924 53.9088,63.269 52.8988,62.676 C52.2698,62.359 51.5748,62.197 50.8708,62.202 C50.5998,62.202 50.2608,62.269 50.1928,62.269 C50.0738,62.295 49.9598,62.341 49.8558,62.405 C49.7088,62.481 49.5478,62.526 49.3828,62.54 C49.1688,62.622 48.9808,62.763 48.8418,62.946 C48.6598,63.129 48.4558,63.289 48.2328,63.421 C48.1108,63.473 48.0148,63.57 47.9628,63.692 L47.8948,63.827 C47.6888,63.954 47.5068,64.115 47.3538,64.302 C47.1588,64.518 46.9318,64.7 46.6788,64.843 L46.4778,64.979 L46.3428,65.179 C46.1958,65.252 46.0778,65.371 46.0048,65.518 L45.9378,65.586 L45.9378,65.653 L45.8698,65.789 C45.5528,66.111 45.3198,66.506 45.1928,66.94 C44.9998,67.276 44.7488,67.575 44.4508,67.822 C43.7008,68.545 43.0208,69.339 42.4218,70.192 C41.8498,71.086 41.3308,72.014 40.8668,72.969 L40.9348,73.174 C40.9548,73.249 41.0108,73.309 41.0838,73.335 C41.1048,73.333 41.1238,73.324 41.1388,73.308 L41.4078,73.037 C42.1518,72.097 42.9658,71.213 43.8418,70.395 C46.3418,68.095 46.5418,68.024 47.3568,67.956 C47.4538,67.94 47.5518,67.93 47.6498,67.925 C47.7008,67.925 47.7298,67.933 47.7288,67.957 C47.6128,68.122 47.4638,68.261 47.2898,68.363 C46.3988,69.042 45.5628,69.789 44.7898,70.598 C44.4878,70.972 44.1478,71.312 43.7748,71.614 C42.7298,72.786 41.8028,74.057 41.0038,75.409 C40.2938,76.75 39.4558,78.02 38.5038,79.201 L38.2328,79.472 L38.2328,79.337 C38.2938,78.786 38.4068,78.242 38.5708,77.712 C38.6158,77.597 38.6488,77.479 38.6708,77.357 C38.6708,77.342 38.6708,77.336 38.6608,77.336 C38.3898,77.66 38.1548,78.013 37.9608,78.389 C37.1048,79.81 36.3808,81.307 35.7978,82.86 C35.7338,83.111 35.6328,83.351 35.4978,83.572 C35.4868,83.572 35.4818,83.55 35.4818,83.506 C35.5038,83.221 35.5408,82.937 35.5948,82.656 C35.6288,82.327 35.6458,81.997 35.6468,81.666 C35.6468,81.336 35.6288,80.997 35.5948,80.624 L35.5948,80.6 C35.5948,79.993 35.6618,79.388 35.7938,78.795 C35.8618,78.437 35.8618,78.07 35.7938,77.712 C35.7618,77.2 35.6468,76.697 35.4548,76.221 C35.3878,76.085 35.2548,75.611 35.1158,75.205 C35.0468,74.464 34.6498,73.794 34.0338,73.376 C33.7618,73.105 33.4688,72.856 33.1568,72.63 C32.9568,72.495 32.5488,72.292 32.3448,72.157 C32.1648,72.023 31.9568,71.93 31.7368,71.885 C31.2878,72.013 30.9018,72.303 30.6538,72.699 C30.3898,72.978 30.1418,73.272 29.9108,73.579 C29.1978,74.283 28.5828,75.082 28.0848,75.951 L27.8158,76.493 C27.7488,76.627 27.5448,77.102 27.3418,77.509 C26.9658,78.311 26.4888,79.062 25.9228,79.744 C25.4478,80.286 22.8128,83.944 20.7158,86.789 C19.9058,87.941 19.1618,88.889 19.0938,88.957 C19.0878,88.987 19.0588,89.007 19.0288,89.002 C18.9978,88.996 18.9778,88.966 18.9838,88.936 C18.9878,88.915 19.0048,88.897 19.0258,88.892 C19.0258,88.824 19.1618,88.146 19.2258,87.538 L19.2938,86.386 L19.1588,86.046 C18.7498,85.14 18.1228,84.35 17.3328,83.746 L17.0638,83.546 L16.5228,83.816 C16.2428,83.981 15.9718,84.162 15.7108,84.358 C14.9848,84.983 14.3068,85.663 13.6828,86.391 C13.3118,86.831 12.9048,87.238 12.4648,87.609 C12.1328,87.849 11.8748,88.178 11.7218,88.558 C11.5018,89.11 11.1808,89.615 10.7748,90.049 C9.4568,92.146 8.7108,94.551 8.6118,97.026 L8.6118,98.042 L8.8118,98.448 C9.1768,98.991 9.3788,99.626 9.3948,100.279 C9.3928,100.46 9.3798,100.64 9.3528,100.819 C9.3378,100.991 9.3258,101.134 9.3258,101.26 C9.3358,101.716 9.6088,102.126 10.0258,102.31 C10.7618,102.802 11.4618,103.346 12.1208,103.936 C12.3458,104.193 12.6218,104.4 12.9318,104.545 C13.1268,104.633 13.3088,104.747 13.4728,104.885 C14.1178,105.266 14.7978,105.583 15.5028,105.832 C15.8388,105.969 16.3118,106.104 16.5828,106.24 C16.8468,106.35 17.1178,106.44 17.3938,106.511 C17.5938,106.578 18.0028,106.711 18.2738,106.781 C18.4748,106.837 18.6778,106.882 18.8828,106.916 L19.0168,106.916 C19.0148,106.89 19.0338,106.866 19.0598,106.864 C19.0658,106.863 19.0708,106.864 19.0758,106.865 C19.1488,106.873 19.2198,106.89 19.2878,106.916 C19.4798,106.986 19.6838,107.02 19.8878,107.016 C20.4848,107.094 21.0788,106.851 21.4498,106.377 L21.4498,105.972 C21.4448,105.911 21.4338,105.85 21.4188,105.79 C21.4188,105.775 21.4268,105.768 21.4498,105.768 C21.5718,105.685 21.6648,105.567 21.7198,105.43 L21.8548,105.158 L21.5838,104.819 C21.4498,104.619 21.1788,104.142 20.9768,103.804 C20.8788,103.578 20.7408,103.371 20.5698,103.193 C20.4968,103.12 20.4498,103.025 20.4358,102.923 C20.4308,102.856 20.4018,102.794 20.3538,102.747 C20.3318,102.754 20.3128,102.769 20.2998,102.788 C20.2928,102.814 20.2728,102.834 20.2468,102.839 C20.1488,102.733 20.0948,102.593 20.0968,102.448 C20.0858,102.311 20.0628,102.175 20.0288,102.042 L20.0288,101.842 L19.9618,101.642 C19.9618,101.551 19.9318,101.46 19.9328,101.348 C19.9328,101.287 19.9428,101.226 19.9618,101.167 C20.0078,101.093 20.0418,101.013 20.0618,100.928 C20.0648,100.914 20.0558,100.899 20.0408,100.897 C20.0388,100.896 20.0358,100.896 20.0328,100.896 C20.0058,100.861 19.9968,100.816 20.0068,100.773 C20.0008,100.533 20.0568,100.296 20.1688,100.084 L20.2378,99.884 C20.2168,99.863 20.2068,99.835 20.2088,99.805 C20.2318,99.669 20.2658,99.536 20.3088,99.405 C20.3548,99.302 20.3808,99.192 20.3868,99.08 C20.3868,98.98 20.3478,98.931 20.3088,98.931 L20.2428,98.795 C20.2428,98.728 20.3088,98.389 20.3088,98.186 C20.3218,97.955 20.3678,97.726 20.4448,97.508 C20.4878,97.405 20.5118,97.295 20.5148,97.183 C20.5398,97.084 20.4798,96.983 20.3808,96.959 C20.3758,96.958 20.3718,96.957 20.3678,96.956 C20.3478,96.957 20.3288,96.96 20.3088,96.966 C20.2388,96.983 20.1678,96.939 20.1508,96.869 C20.1478,96.856 20.1468,96.844 20.1478,96.831 C20.1498,96.785 20.1588,96.739 20.1738,96.695 L20.3088,96.357 L20.4448,96.086 C20.5348,96.023 20.5938,95.925 20.6058,95.816 C20.6038,95.769 20.5958,95.723 20.5788,95.679 C20.5528,95.611 20.5368,95.54 20.5288,95.467 C20.5228,95.441 20.5388,95.416 20.5648,95.409 C20.5698,95.408 20.5738,95.408 20.5788,95.408 C20.6158,95.399 20.6438,95.371 20.6528,95.334 C20.6258,95.284 20.5678,95.258 20.5118,95.273 L20.4448,95.137 L20.3768,95.069 L20.4448,95.002 C20.4928,94.946 20.5268,94.879 20.5448,94.808 C20.5298,94.75 20.4948,94.698 20.4448,94.663 C20.3838,94.6 20.3518,94.514 20.3598,94.426 C20.3598,94.326 20.3768,94.189 20.3768,93.986 C20.3838,93.533 20.3608,93.081 20.3088,92.631 C20.2928,92.41 20.2838,92.174 20.2838,91.931 C20.2608,91.32 20.3368,90.709 20.5118,90.122 C20.6838,89.612 20.8868,89.114 21.1198,88.63 C21.3668,88.259 21.5928,87.875 21.7968,87.479 C22.1848,86.655 22.6368,85.863 23.1478,85.109 C23.4188,84.702 24.2978,83.617 25.2478,82.263 C25.4478,81.993 25.9248,81.451 26.1958,81.111 C26.4168,80.805 26.7218,80.57 27.0728,80.435 C27.3288,80.323 27.5588,80.161 27.7508,79.959 C27.8328,79.857 27.9408,79.778 28.0638,79.732 C28.0758,79.731 28.0858,79.739 28.0868,79.751 C28.0878,79.753 28.0878,79.755 28.0868,79.757 C28.0868,79.825 28.1548,80.435 28.2228,81.247 C28.2998,81.976 28.3368,82.708 28.3348,83.441 C28.3348,84.026 28.3178,84.759 28.2918,85.854 C28.3048,87.854 28.1238,89.85 27.7508,91.815 C27.6078,92.78 27.5178,93.753 27.4798,94.728 C27.4798,94.863 27.4118,95.338 27.3438,95.812 C27.3238,95.965 27.3138,96.12 27.3138,96.274 C27.3138,96.559 27.3438,96.783 27.3438,96.829 C27.3438,96.896 27.2758,97.505 27.2098,98.183 C27.1438,98.861 27.0098,99.605 27.0098,99.808 C27.0328,100.021 26.9858,100.235 26.8748,100.418 C26.7048,100.613 26.6028,100.859 26.5868,101.118 C26.5878,101.177 26.5928,101.237 26.6038,101.295 C26.6308,101.366 26.6458,101.44 26.6488,101.516 C26.6538,101.596 26.6088,101.669 26.5358,101.702 C26.4008,101.776 26.3158,101.917 26.3118,102.071 C26.3228,102.222 26.3528,102.371 26.4018,102.514 C26.7468,103.481 27.3008,104.36 28.0238,105.089 C28.6028,105.735 29.2618,106.304 29.9848,106.782 C30.5428,107.147 31.1318,107.464 31.7428,107.73 C31.9018,107.812 32.0398,107.928 32.1488,108.069 C32.5358,108.425 33.0428,108.619 33.5678,108.611 C33.8458,108.692 34.1438,108.642 34.3798,108.475 L34.5798,108.275 L34.9178,108.409 C35.0228,108.457 35.1348,108.49 35.2478,108.509 C35.2758,108.51 35.3048,108.5 35.3248,108.48 C35.3438,108.46 35.3528,108.432 35.3508,108.404 C35.3378,108.312 35.3058,108.222 35.2568,108.142 C35.2038,107.967 35.1818,107.784 35.1878,107.601 C35.2168,107.525 35.2318,107.444 35.2328,107.363 C35.2238,107.21 35.1848,107.061 35.1198,106.922 C35.0388,106.752 34.9928,106.568 34.9858,106.38 L35.0548,106.11 C35.0268,106.017 35.0118,105.921 35.0088,105.824 C35.0128,105.708 35.0508,105.595 35.1198,105.501 C35.2208,105.332 35.2698,105.137 35.2638,104.94 C35.2638,104.785 35.2378,104.631 35.1878,104.484 C34.9308,103.686 34.7268,102.871 34.5798,102.045 C34.5268,101.552 34.5038,101.056 34.5108,100.56 C34.4918,99.628 34.5608,98.696 34.7158,97.777 C34.8968,96.934 34.9938,96.075 35.0038,95.213 C35.0038,95.039 34.9978,94.876 34.9858,94.729 L34.9858,94.701 C34.9638,94.393 34.9868,94.083 35.0548,93.781 C35.0808,93.713 35.0978,93.641 35.1038,93.568 C35.1098,93.543 35.0948,93.518 35.0688,93.511 C35.0638,93.51 35.0588,93.51 35.0548,93.51 C35.0258,93.477 35.0168,93.433 35.0288,93.391 C35.0878,92.68 35.1868,91.973 35.3288,91.274 C35.6648,89.445 35.9368,87.887 36.0048,87.274 C36.0848,86.815 36.1978,86.361 36.3428,85.918 C36.6808,84.902 37.6938,81.65 37.7628,81.176 C37.7968,80.963 37.8638,80.758 37.9618,80.566 L38.0298,80.296 C38.3588,79.601 38.7918,78.96 39.3138,78.396 C39.5148,78.126 39.8548,77.719 40.0588,77.447 C40.2618,77.175 41.0038,76.363 41.6808,75.686 C42.6498,74.816 43.4918,73.813 44.1808,72.706 C44.6938,71.884 45.3878,71.189 46.2078,70.673 C46.3428,70.605 46.6818,70.473 46.9508,70.334 C47.1428,70.235 47.3478,70.168 47.5598,70.134 C47.6598,70.134 47.7238,70.134 47.7238,70.295 C47.7198,70.377 47.7108,70.46 47.6958,70.541 C47.4248,73.251 47.3568,74.199 47.2898,75.825 C47.2668,76.729 47.2888,77.633 47.3568,78.535 C47.4248,79.008 47.4928,79.482 47.4928,79.619 C47.5598,80.432 47.7648,82.057 47.8978,82.666 C47.9198,82.774 47.9308,82.885 47.9298,82.995 C47.9298,83.21 47.8978,83.436 47.8978,83.75 C47.8898,84.226 47.9128,84.701 47.9658,85.174 C48.0378,85.645 48.0828,86.12 48.1008,86.596 C48.0798,86.869 48.1028,87.144 48.1688,87.409 C48.2738,87.783 48.3198,88.172 48.3038,88.56 C48.3708,89.102 48.4388,89.712 48.4388,89.915 C48.4388,90.118 48.5058,90.661 48.5058,91.202 C48.5738,93.102 48.5058,93.167 48.6428,93.235 C48.7538,93.324 48.8088,93.467 48.7828,93.608 C48.7788,93.78 48.7548,93.95 48.7088,94.116 C48.6918,94.184 48.6828,94.252 48.6818,94.322 C48.6758,94.421 48.7118,94.517 48.7808,94.588 C48.8428,94.664 48.8678,94.764 48.8498,94.86 C48.8438,94.999 48.8658,95.137 48.9158,95.267 C48.9848,95.452 49.0188,95.648 49.0168,95.846 C49.0148,95.992 49.0048,96.139 48.9878,96.284 C48.9878,96.553 48.9578,96.793 48.9578,96.924 C48.9578,96.99 48.9658,97.024 48.9878,97.024 C49.0768,97.238 49.1008,97.474 49.0568,97.701 C49.0788,98.136 49.1448,98.568 49.2558,98.99 C49.2848,99.14 49.3018,99.293 49.3068,99.445 C49.3048,99.565 49.2878,99.685 49.2558,99.801 C49.2248,99.92 49.2068,100.043 49.2048,100.166 C49.2048,100.273 49.2218,100.378 49.2558,100.479 C49.3458,100.741 49.3908,101.016 49.3918,101.292 C49.4078,101.385 49.4168,101.479 49.4188,101.573 C49.4308,101.67 49.3948,101.767 49.3238,101.834 C49.2778,101.895 49.2588,101.971 49.2718,102.046 C49.2718,102.172 49.2888,102.376 49.3238,102.715 C49.3518,102.926 49.3688,103.138 49.3738,103.35 C49.3768,103.479 49.3598,103.607 49.3238,103.73 C49.2528,104.053 49.2198,104.383 49.2248,104.713 C49.2248,105.103 49.2578,105.594 49.3238,106.304 C49.3708,106.859 49.3938,107.293 49.3938,107.617 C49.4688,107.874 49.4108,108.15 49.2398,108.356 C49.2218,108.356 49.2028,108.349 49.1878,108.338 L49.1398,108.338 L49.2738,108.404 C49.3428,108.432 49.3938,108.489 49.4148,108.56 C49.4148,108.588 49.3928,108.608 49.3418,108.608 C49.2578,108.608 49.1988,108.634 49.1988,108.702 C49.2068,108.767 49.2328,108.828 49.2738,108.879 C49.3408,108.957 49.3408,109.072 49.2738,109.15 C49.2498,109.189 49.2318,109.232 49.2238,109.277 C49.2288,109.309 49.2478,109.336 49.2738,109.354 L49.2738,109.489 C49.2558,109.504 49.2448,109.527 49.2448,109.551 C49.2658,109.626 49.2998,109.697 49.3458,109.76 C49.3728,109.81 49.3898,109.864 49.3948,109.92 C49.3938,109.962 49.3758,110.002 49.3458,110.03 C49.3068,110.3 49.2838,110.572 49.2768,110.844 L49.2768,110.882 C49.2918,111.3 49.2678,111.718 49.2088,112.131 C49.1268,112.398 49.0588,112.669 49.0088,112.944 C48.9418,113.265 48.8038,113.566 48.6028,113.825 C48.5418,113.898 48.5168,113.995 48.5348,114.088 L48.5348,114.096 C48.5508,114.124 48.5588,114.154 48.5598,114.185 C48.5308,114.288 48.4398,114.361 48.3328,114.367 C48.2298,114.38 48.1348,114.427 48.0618,114.501 L47.9948,114.637 L47.8588,114.837 L47.7928,115.108 C47.7308,115.181 47.7068,115.278 47.7258,115.372 L47.7258,115.379 C47.7398,115.42 47.7478,115.464 47.7488,115.508 C47.7338,115.624 47.6388,115.712 47.5218,115.717 C47.3868,115.785 46.9798,116.056 46.6428,116.259 C46.3068,116.462 45.8988,116.733 45.7648,116.801 C45.5898,116.812 45.4338,116.915 45.3568,117.072 L45.3568,117.208 L45.0198,117.072 C44.7798,116.922 44.5318,116.786 44.2758,116.665 C43.5138,116.344 42.7678,115.982 42.0448,115.581 C41.9808,115.505 41.8968,115.449 41.8028,115.42 C41.7898,115.417 41.7778,115.424 41.7748,115.436 C41.7738,115.439 41.7738,115.442 41.7748,115.445 C41.7148,115.445 40.8608,114.592 39.8178,113.612 C38.7368,112.596 37.8578,111.782 37.7898,111.782 C37.7588,111.779 37.7308,111.802 37.7268,111.833 C37.7268,111.838 37.7268,111.842 37.7278,111.847 C37.8198,112.13 38.0098,112.372 38.2638,112.528 C38.3438,112.544 38.4188,112.579 38.4838,112.628 C38.4818,112.64 38.4758,112.651 38.4658,112.659 C38.4658,112.726 41.1658,115.707 41.5078,115.977 C41.6428,116.113 42.1158,116.52 42.5908,116.927 C43.5358,117.739 45.0908,119.027 46.1058,119.772 C46.3738,119.922 46.6048,120.129 46.7818,120.38 C47.4868,121.503 48.3638,122.508 49.3818,123.357 C48.5818,123.494 47.4948,123.697 46.9818,123.836 C46.6898,123.879 46.4058,123.968 46.1418,124.098 C46.1418,124.105 46.1508,124.107 46.1718,124.107 C46.1928,124.107 46.1938,124.107 46.1938,124.114 C45.8388,124.334 45.4718,124.534 45.0948,124.714 C44.4198,125.053 43.6068,125.459 42.2548,126.001 C41.6258,126.199 41.0328,126.497 40.4968,126.881 C40.2958,127.071 40.0678,127.231 39.8208,127.356 C39.6438,127.407 39.4818,127.501 39.3488,127.627 C39.2218,127.873 39.0618,128.101 38.8738,128.304 C38.3688,128.879 37.9778,129.546 37.7258,130.268 C37.6758,130.487 37.5838,130.694 37.4548,130.878 C37.2068,131.251 37.0228,131.663 36.9138,132.097 C36.8428,132.448 36.7288,132.789 36.5758,133.113 L36.3758,133.52 L36.3758,133.32 C36.3468,133.198 36.3328,133.073 36.3338,132.948 C36.4028,132.157 36.6238,131.387 36.9828,130.679 C37.0308,130.578 37.0688,130.472 37.0968,130.363 C37.0968,130.339 37.0798,130.339 37.0518,130.339 C36.7998,130.544 36.5938,130.797 36.4428,131.084 C36.3318,131.417 36.2418,131.756 36.1718,132.1 C36.0198,132.768 35.9308,133.449 35.9018,134.133 C35.8448,134.518 35.8678,134.909 35.9708,135.284 L36.0378,135.216 C36.0378,135.205 36.0378,135.199 36.0488,135.199 C36.1448,135.27 36.2128,135.372 36.2398,135.487 C36.3968,136.221 36.7468,136.899 37.2528,137.453 C37.6718,137.983 38.1748,138.441 38.7418,138.808 C39.0628,138.995 39.3578,139.223 39.6208,139.485 C40.1378,140.031 40.7588,140.468 41.4458,140.771 C41.6418,140.831 41.7938,140.983 41.8518,141.179 C41.8818,141.292 41.9528,141.388 42.0518,141.449 C42.1488,141.48 42.2398,141.526 42.3228,141.585 C42.3788,141.601 42.4228,141.646 42.4348,141.702 C42.4328,141.735 42.4158,141.766 42.3908,141.787 C42.3058,141.841 42.2528,141.934 42.2488,142.034 C42.2398,142.076 42.2668,142.117 42.3088,142.126 C42.3128,142.127 42.3178,142.127 42.3228,142.127 L42.5228,141.991 C42.7268,141.874 42.9648,141.826 43.1978,141.855 C43.4708,141.873 43.7438,141.85 44.0098,141.787 C44.2748,141.722 44.5488,141.699 44.8208,141.72 C45.2058,141.733 45.5908,141.711 45.9718,141.653 C46.2148,141.586 46.4628,141.541 46.7138,141.517 C46.8988,141.496 47.0818,141.451 47.2548,141.381 C47.3928,141.294 47.5488,141.239 47.7108,141.219 C47.7628,141.22 47.8138,141.229 47.8628,141.245 C48.4818,141.416 49.1168,141.53 49.7568,141.585 C50.2808,141.664 50.7338,141.992 50.9738,142.465 C51.0748,142.63 51.1878,142.789 51.3108,142.939 C51.3248,142.952 51.3328,142.97 51.3328,142.989 C50.9578,143.641 50.4708,144.221 49.8928,144.701 C48.8858,145.839 47.7758,146.882 46.5788,147.817 C45.7898,148.458 44.8988,148.962 43.9428,149.308 C42.7368,149.669 41.5968,150.217 40.5618,150.933 L40.4888,150.933 L40.4208,151.068 L40.2868,151.137 C40.2768,151.126 40.2638,151.119 40.2488,151.118 C40.1558,151.174 40.0768,151.25 40.0168,151.34 C39.9638,151.462 39.8668,151.559 39.7458,151.611 C39.5608,151.695 39.4558,151.894 39.4888,152.094 C39.4868,152.185 39.5058,152.274 39.5428,152.356 C39.5588,152.382 39.5668,152.411 39.5688,152.441 C39.5348,152.536 39.4788,152.623 39.4078,152.694 C39.0018,153.169 38.8658,153.507 38.8658,154.862 C38.8818,155.657 38.8138,156.452 38.6658,157.233 C38.5858,157.675 38.5398,158.121 38.5268,158.569 C38.5188,158.977 38.6128,159.379 38.7998,159.74 C39.1578,160.355 39.6428,160.885 40.2218,161.297 C40.4788,161.564 40.8078,161.752 41.1678,161.84 C41.4438,161.91 41.7148,162.001 41.9778,162.111 C42.3198,162.255 42.6898,162.323 43.0608,162.312 L43.6688,162.378 L44.4138,161.973 C44.7918,161.737 45.2028,161.561 45.6338,161.449 C45.6828,161.446 45.7298,161.464 45.7658,161.498 C45.8058,161.52 45.8508,161.53 45.8958,161.528 C46.4768,161.425 47.0458,161.257 47.5898,161.028 C48.4068,160.842 49.1708,160.471 49.8218,159.944 C49.9438,159.838 50.0778,159.747 50.2228,159.673 L50.2898,159.606 C50.5768,159.327 50.9788,159.202 51.3728,159.268 C51.8308,159.309 52.2798,159.132 52.5888,158.792 C52.8638,158.484 53.2138,158.252 53.6028,158.116 C53.9248,157.994 54.2658,157.93 54.6098,157.926 C55.1828,157.947 55.7408,158.106 56.2398,158.386 C56.4298,158.483 56.6098,158.597 56.7808,158.726 L56.9808,158.861 L56.6428,159.537 C55.9218,160.918 54.9858,162.176 53.8718,163.264 C53.3978,163.738 52.7898,164.347 52.5208,164.687 C50.9588,166.353 49.2888,167.913 47.5208,169.36 C44.3968,171.942 40.9958,174.169 37.3788,175.999 C36.3028,176.441 35.1948,176.804 34.0648,177.083 C32.9518,177.406 31.8148,177.643 30.6648,177.791 C30.3718,177.811 30.1018,177.632 30.0058,177.355 L29.8708,177.154 L30.2088,176.815 C30.3118,176.732 30.3908,176.623 30.4368,176.5 C30.4378,176.488 30.4298,176.478 30.4168,176.476 C30.4158,176.476 30.4138,176.476 30.4118,176.477 C30.2808,176.568 30.1658,176.684 30.0738,176.815 C29.9248,176.972 29.7388,177.089 29.5328,177.154 C29.2618,177.128 29.0148,176.989 28.8508,176.773 C28.8508,176.764 28.8528,176.755 28.8568,176.747 C28.8588,176.727 28.8648,176.706 28.8738,176.689 C28.8488,176.673 28.8168,176.67 28.7888,176.679 C28.6528,176.679 28.6528,176.612 28.6528,176.544 C28.7678,176.217 28.9798,175.933 29.2618,175.731 C30.4118,174.647 32.5758,172.751 33.5888,172.004 C33.7348,171.932 33.8538,171.814 33.9268,171.667 C34.0228,171.529 34.1688,171.433 34.3328,171.397 C34.5128,171.316 34.6738,171.201 34.8078,171.058 C34.9618,170.815 35.2028,170.642 35.4808,170.573 C35.5048,170.572 35.5278,170.575 35.5498,170.583 C35.5878,170.575 35.6248,170.6 35.6328,170.638 C35.6348,170.645 35.6348,170.651 35.6338,170.659 C35.6338,170.701 35.6158,170.752 35.6158,170.786 C35.6188,170.84 35.6628,170.881 35.7158,170.881 C35.7508,170.88 35.7848,170.87 35.8158,170.855 C35.8518,170.831 35.8928,170.814 35.9338,170.803 C35.9508,170.803 35.9508,170.819 35.9508,170.855 L36.0188,170.988 L36.2188,170.921 C36.2168,170.896 36.2348,170.872 36.2618,170.87 C36.2668,170.869 36.2718,170.87 36.2768,170.871 C36.3498,170.878 36.4208,170.895 36.4888,170.921 C36.5778,170.963 36.6698,170.996 36.7658,171.022 C36.7888,171.022 36.8108,171.011 36.8268,170.992 C36.8438,170.975 36.8668,170.965 36.8918,170.965 C36.9848,170.989 37.0768,171.023 37.1648,171.065 C37.3168,171.116 37.4778,171.14 37.6398,171.133 C37.6758,171.114 37.7158,171.105 37.7568,171.105 C37.8588,171.115 37.9578,171.149 38.0448,171.204 C38.1908,171.296 38.3508,171.363 38.5178,171.404 C38.7058,171.447 38.8888,171.514 39.0588,171.605 C39.0938,171.648 39.1438,171.675 39.1988,171.683 C39.2508,171.674 39.2978,171.647 39.3288,171.605 L39.5288,171.605 L39.6638,171.739 C39.6638,171.808 39.7988,171.808 40.0018,171.808 L40.3388,171.875 L40.2048,171.675 C40.1428,171.582 40.1078,171.473 40.1048,171.361 C40.1048,171.269 40.1378,171.2 40.2048,171.2 C40.2608,171.198 40.3038,171.152 40.3018,171.097 C40.3018,171.091 40.3008,171.084 40.2988,171.078 C40.2968,170.979 40.2318,170.892 40.1378,170.862 C40.0588,170.844 39.9988,170.78 39.9848,170.701 C39.9938,170.631 40.0578,170.581 40.1278,170.59 C40.1308,170.59 40.1338,170.591 40.1378,170.591 C40.1628,170.591 40.1728,170.572 40.1728,170.54 C40.1298,170.311 39.9948,170.109 39.7988,169.981 L39.5998,169.846 L39.4628,169.71 C39.3658,169.683 39.2908,169.606 39.2638,169.51 C39.1538,169.231 38.9338,169.01 38.6548,168.9 C38.4188,168.819 38.2248,168.649 38.1138,168.426 C38.1008,168.402 38.0938,168.375 38.0928,168.348 C38.2618,167.974 38.5248,167.65 38.8568,167.41 C39.0958,167.194 39.3138,166.957 39.5098,166.701 C39.3718,166.788 39.2438,166.892 39.1298,167.008 C39.0668,167.095 38.9658,167.145 38.8588,167.143 C38.6138,167.269 38.3868,167.429 38.1838,167.616 C37.9818,167.805 37.7548,167.964 37.5078,168.09 C37.3968,168.056 37.3018,167.985 37.2358,167.891 C37.1478,167.788 37.0298,167.718 36.8988,167.69 C36.6178,167.798 36.3198,167.854 36.0188,167.854 C35.9058,167.854 35.7928,167.845 35.6818,167.826 C35.4368,167.77 35.1868,167.747 34.9378,167.758 C34.7378,167.758 34.3978,167.69 34.1948,167.69 C33.7878,167.622 31.4898,167.555 30.6118,167.555 C29.2588,167.555 28.9208,167.555 28.7858,167.69 L28.6498,167.826 L28.7888,167.826 C28.7958,167.795 28.8268,167.776 28.8568,167.783 C28.8878,167.79 28.9068,167.82 28.8998,167.851 C28.8948,167.872 28.8788,167.89 28.8568,167.895 C28.7968,167.946 28.7188,167.973 28.6388,167.968 C28.5148,167.977 28.3938,167.924 28.3168,167.826 L28.3838,167.758 L28.4508,167.69 L28.3838,167.69 C28.3168,167.69 27.6388,167.758 26.8288,167.826 C26.6828,167.829 26.5418,167.877 26.4228,167.962 L26.2228,167.962 C26.2028,167.941 26.1738,167.931 26.1448,167.934 C26.0318,167.952 25.9208,167.986 25.8158,168.033 C25.5448,168.1 24.1268,168.371 23.9908,168.371 L23.5858,167.559 L23.5178,167.287 C23.4578,167.208 23.4188,167.114 23.4058,167.017 C23.4058,166.974 23.4218,166.948 23.4498,166.948 L23.5178,166.748 C23.5088,166.72 23.5038,166.69 23.5038,166.66 C23.5008,166.466 23.6128,166.289 23.7878,166.206 C23.9078,166.179 24.0218,166.133 24.1268,166.069 C24.2778,166.002 24.4368,165.956 24.5998,165.935 L24.9358,165.799 C24.9808,165.763 25.0328,165.737 25.0888,165.724 C25.1018,165.724 25.1128,165.733 25.1138,165.746 C25.1138,165.747 25.1138,165.749 25.1128,165.751 C25.1068,165.792 25.0938,165.831 25.0728,165.867 C25.0728,165.885 25.0778,165.894 25.0888,165.894 C25.1798,165.849 25.2648,165.795 25.3428,165.732 C25.4508,165.62 25.5998,165.556 25.7548,165.555 C25.8548,165.555 25.9998,165.57 26.2228,165.595 C26.5588,165.595 26.9658,165.664 27.0328,165.664 C27.5988,165.655 28.1628,165.609 28.7228,165.527 C29.1448,165.386 29.5528,165.204 29.9398,164.985 C29.9568,164.972 29.9668,164.952 29.9668,164.931 C29.9368,164.844 29.8798,164.769 29.8048,164.715 C29.7508,164.648 29.7128,164.57 29.6938,164.486 C29.6908,164.466 29.7048,164.447 29.7248,164.444 C29.7288,164.443 29.7328,164.443 29.7368,164.444 C29.8558,164.388 29.9698,164.321 30.0758,164.244 C30.1578,164.197 30.2518,164.174 30.3458,164.177 L30.5458,164.109 C30.6178,164.043 30.7108,164.008 30.8078,164.009 C30.8918,164.001 30.9728,164.039 31.0198,164.109 L31.2198,164.244 L31.4898,164.313 C31.5678,164.379 31.6828,164.379 31.7608,164.313 C31.8098,164.283 31.8648,164.266 31.9208,164.261 C31.9628,164.262 32.0028,164.28 32.0308,164.313 C32.1348,164.394 32.2478,164.46 32.3688,164.512 C32.4868,164.546 32.5998,164.592 32.7078,164.649 C32.8188,164.678 32.9318,164.7 33.0448,164.716 C33.2578,164.736 33.4708,164.69 33.6538,164.581 C33.8218,164.484 34.0048,164.417 34.1948,164.381 C34.6628,164.257 35.0708,163.969 35.3458,163.569 C35.4788,163.369 35.7498,162.959 35.9528,162.688 C36.1558,162.415 36.4928,161.943 36.6958,161.605 C36.8538,161.341 37.0348,161.092 37.2358,160.859 C37.5888,160.482 37.8238,160.012 37.9128,159.503 C38.0488,159.029 38.3178,158.487 38.3868,158.284 L38.5218,157.878 L38.3868,157.269 C38.1848,156.48 37.8658,155.726 37.4398,155.033 C37.3048,154.833 37.1018,154.492 36.8988,154.22 C36.5528,153.658 36.1188,153.154 35.6128,152.729 L35.3458,152.594 C35.0318,152.313 34.6918,152.064 34.3298,151.849 C33.1818,151.172 32.5038,150.765 32.2348,150.561 C32.0888,150.418 31.8928,150.338 31.6878,150.338 C31.5708,150.335 31.4548,150.366 31.3548,150.426 C31.2538,150.468 31.1428,150.485 31.0338,150.476 C30.8648,150.476 30.6118,150.46 30.2058,150.426 C29.8678,150.393 29.5808,150.375 29.2938,150.375 C29.0068,150.375 28.7178,150.393 28.3808,150.426 C28.1648,150.456 27.9478,150.472 27.7298,150.476 C27.6268,150.49 27.5228,150.473 27.4298,150.426 L27.2298,150.426 L26.9588,150.494 C25.8888,150.636 24.8278,150.839 23.7808,151.103 C23.5788,151.176 23.3938,151.292 23.2398,151.442 C23.1528,151.544 23.0338,151.614 22.9018,151.642 C22.5308,151.825 22.1698,152.028 21.8208,152.251 C21.7388,152.329 21.6708,152.421 21.6208,152.522 C21.5698,152.644 21.5028,152.757 21.4208,152.861 L20.9478,153.336 L20.6088,153.742 L20.7438,153.942 L20.9438,154.01 L21.1438,154.01 L21.3438,153.942 C21.3918,153.922 21.4438,153.914 21.4948,153.916 C21.7678,153.938 22.0358,153.992 22.2948,154.077 C22.4708,154.129 22.6528,154.152 22.8358,154.145 C23.3028,154.001 23.7378,153.771 24.1208,153.468 L24.3908,153.268 L24.9298,153.468 C25.2328,153.586 25.5538,153.653 25.8778,153.668 C26.3568,153.686 26.8318,153.752 27.2968,153.868 L27.2968,153.875 C26.9868,154.73 26.6248,155.565 26.2118,156.375 C25.6088,157.425 24.8308,158.364 23.9118,159.153 C23.6208,159.419 23.2678,159.608 22.8858,159.705 C22.8668,159.706 22.8488,159.703 22.8308,159.695 C22.7848,159.682 22.7478,159.647 22.7308,159.602 C22.7308,159.576 22.7648,159.56 22.8308,159.56 C22.8968,159.56 22.8978,159.424 22.8978,159.153 C22.8478,158.583 22.5518,158.064 22.0858,157.731 C21.3428,157.054 20.0578,155.969 19.9908,155.969 C19.7928,155.887 19.6108,155.773 19.4508,155.63 L18.9758,155.292 L18.5028,155.428 C18.3268,155.437 18.1588,155.508 18.0298,155.628 L17.8298,155.764 C17.6808,155.784 17.5508,155.876 17.4818,156.009 C17.4798,156.02 17.4838,156.029 17.4918,156.036 C17.4978,156.041 17.5008,156.048 17.5008,156.056 C17.3358,156.241 17.1218,156.375 16.8818,156.441 C16.7478,156.51 16.6818,156.51 16.6818,156.578 L16.6138,156.645 C16.5178,156.676 16.4258,156.722 16.3428,156.78 C16.2368,156.857 16.1238,156.924 16.0058,156.981 C15.5108,157.363 15.0778,157.82 14.7218,158.335 C14.6588,158.468 14.5668,158.583 14.4518,158.674 L14.2518,158.81 L14.4518,159.009 C14.5358,159.109 14.6468,159.182 14.7718,159.216 C14.7868,159.219 14.8008,159.208 14.8028,159.193 L14.8028,159.189 C14.8018,159.173 14.7968,159.158 14.7888,159.146 C14.7888,159.09 14.8338,159.045 14.8888,159.045 C14.9238,159.047 14.9578,159.057 14.9888,159.073 C15.0788,159.073 15.1698,159.104 15.2388,159.104 C15.2708,159.106 15.3028,159.095 15.3268,159.073 C15.3888,159.039 15.4568,159.022 15.5268,159.023 C15.6628,159.03 15.7988,159.047 15.9318,159.073 C16.1498,159.129 16.3248,159.228 16.4198,159.228 C16.4388,159.229 16.4588,159.223 16.4728,159.209 C16.4988,159.197 16.5268,159.191 16.5548,159.192 C16.7288,159.205 16.8808,159.316 16.9448,159.48 C17.0078,159.625 17.0398,159.783 17.0398,159.942 C17.0168,160.346 16.8648,160.731 16.6068,161.042 C16.5408,161.177 16.3358,161.517 16.1338,161.856 C15.9988,162.117 15.8408,162.367 15.6608,162.602 L15.5268,162.801 L15.0528,162.463 C13.5558,161.26 12.3528,159.731 11.5368,157.991 C11.2398,157.602 11.0738,157.127 11.0638,156.636 C11.0828,156.45 11.1288,156.268 11.1988,156.094 L11.1328,155.959 C11.0518,155.959 11.0198,155.866 11.0198,155.759 C11.0188,155.687 11.0348,155.616 11.0638,155.55 C11.1928,155.471 11.3278,155.404 11.4688,155.35 C11.8578,155.171 12.1698,154.859 12.3488,154.471 C12.3488,154.371 12.3488,154.308 12.2948,154.308 C12.2658,154.311 12.2378,154.32 12.2128,154.335 C11.9008,154.476 11.6238,154.684 11.4018,154.944 C11.1558,155.197 10.8838,155.424 10.5908,155.621 C9.6018,156.336 8.7338,157.205 8.0208,158.196 L7.8208,158.603 L8.0208,159.212 C8.1288,159.496 8.2648,159.768 8.4268,160.024 C8.5288,160.112 8.5988,160.231 8.6268,160.363 C8.6628,160.512 8.7318,160.65 8.8268,160.771 C8.9678,161.005 9.0818,161.255 9.1658,161.516 C9.4478,162.363 9.8578,163.162 10.3818,163.886 C11.1148,164.879 11.9788,165.768 12.9508,166.528 C13.1298,166.69 13.3398,166.815 13.5678,166.892 C13.5908,166.892 13.6118,166.883 13.6278,166.867 C13.7838,166.753 13.9768,166.704 14.1678,166.732 L14.6418,166.732 L14.5078,166.532 C14.4448,166.428 14.3988,166.314 14.3718,166.194 C14.3718,166.082 14.3918,166.031 14.4558,166.031 C14.5458,166.046 14.6318,166.078 14.7098,166.125 L14.8448,166.125 L14.8448,165.99 C14.8138,165.99 14.7998,165.98 14.7998,165.961 C14.9558,165.724 15.1858,165.544 15.4538,165.449 C15.5528,165.425 15.6528,165.411 15.7538,165.408 C15.9578,165.426 16.1558,165.485 16.3358,165.583 C17.6888,166.058 18.0268,166.465 18.0958,167.413 C18.1078,167.755 18.1528,168.096 18.2298,168.429 C18.2838,168.719 18.3068,169.015 18.2978,169.31 L18.2978,169.648 L17.8928,169.783 C17.7298,169.811 17.5708,169.856 17.4178,169.919 C17.3178,169.981 17.1988,170.005 17.0818,169.987 C16.9158,170 16.7548,170.047 16.6068,170.123 C16.1998,170.317 15.7678,170.454 15.3228,170.529 C15.0778,170.56 14.8448,170.653 14.6468,170.8 C14.4468,170.921 14.2208,170.992 13.9868,171.006 C13.8948,171.006 13.8358,170.983 13.8358,170.936 C13.8358,170.918 13.8188,170.91 13.7848,170.91 C13.5228,170.955 13.2678,171.031 13.0238,171.139 C12.8138,171.25 12.5848,171.317 12.3488,171.339 C12.2038,171.343 12.0618,171.39 11.9428,171.474 L11.7428,171.611 C11.0728,171.841 10.4178,172.112 9.7818,172.424 C8.7678,172.898 7.8218,173.372 7.6188,173.44 C7.3188,173.56 7.0258,173.695 6.7398,173.846 C6.4388,174.031 6.1218,174.19 5.7938,174.321 C5.3928,174.432 5.0068,174.591 4.6438,174.795 C4.3658,174.887 4.0938,175 3.8328,175.134 L3.6978,175.27 L3.5618,175.405 L3.4268,175.606 L3.3588,175.74 L3.2238,175.875 C3.0588,176.12 2.8238,176.309 2.5488,176.418 C2.3488,176.484 2.3488,176.485 2.3488,176.679 L2.3488,176.689 C2.3798,176.818 2.3258,176.954 2.2138,177.027 C1.9228,177.206 1.6878,177.465 1.5378,177.773 C1.5108,177.869 1.4348,177.944 1.3378,177.972 C1.2638,177.996 1.2198,178.073 1.2378,178.149 C1.2288,178.237 1.2678,178.324 1.3378,178.378 C1.3728,178.396 1.4118,178.403 1.4508,178.403 C1.4818,178.403 1.5118,178.399 1.5408,178.391 C1.6708,178.351 1.7868,178.275 1.8778,178.175 C2.0078,178.014 2.2168,177.938 2.4198,177.975 C2.6028,177.979 2.7848,177.955 2.9608,177.906 C3.0728,177.889 3.1868,177.881 3.2998,177.881 C3.7378,177.89 4.1708,177.967 4.5838,178.11 C4.7008,178.157 4.8258,178.183 4.9518,178.185 C5.5468,178.061 6.0978,177.777 6.5438,177.365 C7.1298,176.991 7.6938,176.584 8.2338,176.147 C8.5848,175.832 8.9708,175.56 9.3828,175.333 C9.5828,175.265 9.9928,174.994 10.2628,174.859 C10.4768,174.743 10.7038,174.652 10.9378,174.588 C11.3088,174.477 11.6538,174.292 11.9528,174.046 C12.1738,173.88 12.4278,173.765 12.6968,173.707 C12.9658,173.571 13.4398,173.437 13.7108,173.3 C13.9018,173.201 14.1068,173.134 14.3188,173.101 L14.5888,173.033 C14.7858,172.93 14.9898,172.84 15.1978,172.762 C15.2928,172.718 15.3938,172.691 15.4978,172.685 C15.5638,172.682 15.6268,172.711 15.6668,172.762 L15.7348,172.762 C16.2308,172.388 16.8178,172.151 17.4348,172.078 C17.4548,172.078 17.4758,172.08 17.4948,172.083 L17.6948,172.083 L17.9648,171.883 L18.1648,171.815 L18.1648,172.145 C18.2318,172.551 18.2998,175.87 18.2998,176.413 C18.2998,177.158 17.8948,180.613 17.8268,180.813 C17.6408,181.097 17.4378,181.368 17.2178,181.626 C17.0298,181.829 16.8708,182.057 16.7448,182.304 L16.6088,182.574 C16.5928,182.603 16.5838,182.634 16.5818,182.666 C16.6028,182.731 16.6348,182.792 16.6768,182.846 C16.7448,182.913 16.9468,183.251 17.1498,183.522 C17.8328,184.431 18.6028,185.271 19.4498,186.029 C19.4808,186.048 19.5148,186.062 19.5498,186.07 C19.5588,186.069 19.5648,186.063 19.5638,186.055 L19.5638,186.052 C19.5558,185.997 19.5398,185.944 19.5188,185.893 C19.5098,185.865 19.5038,185.836 19.5018,185.806 C19.4978,185.769 19.5258,185.735 19.5628,185.731 L19.5808,185.731 C19.6788,185.744 19.7728,185.775 19.8578,185.825 C19.9648,185.892 20.0878,185.926 20.2128,185.925 C20.3088,185.939 20.4058,185.9 20.4668,185.825 C20.4828,185.808 20.5048,185.797 20.5278,185.797 C20.6028,185.818 20.6728,185.852 20.7358,185.897 C20.7858,185.934 20.8378,185.967 20.8918,185.997 C20.9118,185.994 20.9288,185.983 20.9398,185.968 C21.1368,185.74 21.2548,185.455 21.2778,185.155 C21.2828,184.967 21.3288,184.781 21.4128,184.613 C21.4418,184.56 21.4568,184.5 21.4578,184.439 C21.4488,184.31 21.4098,184.184 21.3448,184.071 C21.0258,183.3 20.8868,182.466 20.9398,181.633 C20.9588,181.084 20.8908,180.535 20.7398,180.007 C20.6428,179.469 20.5768,178.926 20.5398,178.381 C20.5398,177.839 20.4048,176.958 20.4048,176.552 L20.4048,176.514 C20.3678,176.231 20.3908,175.944 20.4728,175.671 C20.4808,175.642 20.4988,175.615 20.5238,175.598 C20.5448,175.642 20.5508,175.691 20.5398,175.739 C20.5358,175.764 20.5358,175.788 20.5398,175.813 C20.5458,175.813 20.5618,175.755 20.6028,175.671 C20.7158,175.252 20.7618,174.817 20.7378,174.384 C20.8058,172.962 20.9378,172.352 21.4828,171.742 C21.6598,171.582 21.7788,171.368 21.8208,171.133 C21.8278,170.956 21.8988,170.787 22.0208,170.659 C22.1048,170.531 22.2408,170.447 22.3918,170.429 C22.4498,170.431 22.5058,170.44 22.5608,170.455 L22.6958,170.387 L22.7638,170.319 L22.8988,170.387 C22.8908,170.395 22.8848,170.404 22.8818,170.416 C22.8818,170.427 22.8908,170.431 22.9098,170.431 C23.0048,170.416 23.0938,170.378 23.1688,170.319 C23.2738,170.257 23.3888,170.211 23.5078,170.184 C23.7138,170.15 23.9168,170.106 24.1168,170.049 C24.4038,169.957 24.6968,169.891 24.9948,169.849 C25.0708,169.832 25.1478,169.823 25.2258,169.821 C25.3188,169.821 25.3568,169.842 25.3558,169.873 C25.3538,169.89 25.3458,169.905 25.3328,169.916 C25.3238,169.929 25.3178,169.944 25.3148,169.96 C25.3148,169.988 25.3438,170 25.3938,170 C25.6838,169.959 25.9608,169.861 26.2128,169.713 C26.3038,169.646 26.4048,169.594 26.5128,169.561 C26.5538,169.561 26.5538,169.611 26.5538,169.713 C26.5538,169.78 26.6218,169.813 26.7408,169.813 C26.9088,169.804 27.0748,169.771 27.2318,169.713 C27.3048,169.685 27.3808,169.667 27.4588,169.662 C27.5208,169.664 27.5818,169.682 27.6358,169.713 C27.6938,169.743 27.7588,169.759 27.8238,169.758 C27.9918,169.745 28.1578,169.707 28.3138,169.645 C28.6248,169.56 28.9398,169.493 29.2588,169.445 C29.3268,169.43 29.3948,169.421 29.4638,169.418 C29.5978,169.418 29.5978,169.48 29.5978,169.581 L29.5298,169.716 L29.3948,169.852 C29.3828,169.9 29.4118,169.95 29.4608,169.963 C29.4758,169.967 29.4908,169.967 29.5048,169.963 C29.6048,169.957 29.7038,169.942 29.7998,169.919 C29.9998,169.919 30.7468,169.852 31.4898,169.852 C31.9638,169.8 32.4428,169.822 32.9098,169.919 L32.9778,170.055 L32.9098,170.123 C33.1738,170.212 33.4588,170.212 33.7228,170.123 C33.8188,170.053 33.9408,170.027 34.0588,170.055 C34.1388,170.037 34.2228,170.044 34.2998,170.074 C34.2918,170.094 34.2798,170.11 34.2638,170.123 L34.2638,170.245 L34.3298,170.312 C34.2638,170.38 33.7878,170.787 33.1128,171.328 C30.8818,173.228 28.5838,175.394 26.1498,177.764 C25.7608,178.19 25.3298,178.575 24.8648,178.916 L24.7288,179.116 L24.4588,179.316 C24.2578,179.388 24.1238,179.577 24.1218,179.79 L24.0538,179.926 C24.0408,179.926 24.0358,179.94 24.0358,179.963 C24.0818,180.207 24.1558,180.444 24.2558,180.671 C24.3928,181.078 24.6618,181.484 24.7288,181.687 C24.8648,182.026 24.9288,182.026 24.9998,182.026 C25.1898,182.013 25.3788,182.061 25.5398,182.161 C25.6938,182.273 25.8738,182.345 26.0628,182.367 C26.1418,182.367 26.2188,182.343 26.2838,182.298 C26.2978,182.287 26.3078,182.273 26.3108,182.255 C26.2648,182.222 26.2048,182.212 26.1498,182.229 C26.0988,182.25 26.0438,182.266 25.9878,182.273 C25.9468,182.273 25.9468,182.242 25.9468,182.166 C25.9788,181.937 26.1688,181.762 26.4008,181.75 C26.4308,181.749 26.4598,181.753 26.4878,181.76 C26.7548,181.822 27.0258,181.867 27.2978,181.895 C27.5738,181.937 27.8458,182.004 28.1088,182.095 C28.2188,182.124 28.3308,182.139 28.4438,182.139 C28.6968,182.128 28.9478,182.091 29.1918,182.027 C29.2918,182.027 29.3538,181.99 29.3528,181.945 C29.3508,181.925 29.3418,181.905 29.3268,181.891 C29.3148,181.883 29.3068,181.87 29.3028,181.856 C29.3028,181.846 29.3158,181.841 29.3438,181.841 C29.4518,181.85 29.5588,181.866 29.6638,181.891 C29.9188,181.901 30.1738,181.856 30.4088,181.756 C30.5318,181.705 30.6598,181.672 30.7908,181.656 C30.8238,181.653 30.8558,181.663 30.8818,181.683 C31.0948,181.65 31.2998,181.582 31.4898,181.483 C31.8228,181.376 32.1238,181.19 32.3688,180.941 C32.5108,180.807 32.6698,180.692 32.8418,180.602 C33.2578,180.5 33.6648,180.364 34.0588,180.196 C34.8118,179.982 35.5218,179.638 36.1578,179.18 C36.3688,179.04 36.5968,178.927 36.8338,178.841 C37.1618,178.683 37.4778,178.502 37.7808,178.299 C38.7648,177.639 39.7798,177.028 40.8238,176.47 C41.4988,176.065 42.3778,175.523 42.7168,175.319 C42.9328,175.132 43.1858,174.993 43.4598,174.912 C43.5268,174.912 43.9338,174.574 44.5418,174.235 C44.9018,173.971 45.2868,173.744 45.6918,173.557 C45.8448,173.534 45.9858,173.464 46.0978,173.357 C46.2718,173.184 46.4778,173.046 46.7048,172.951 C46.9078,172.879 47.0928,172.763 47.2458,172.612 C47.3568,172.505 47.4988,172.435 47.6518,172.412 C47.8128,172.381 47.9718,172.335 48.1248,172.276 C48.3208,172.19 48.5238,172.122 48.7328,172.076 C49.1068,171.982 49.4398,171.769 49.6808,171.466 C49.7858,171.272 50.0018,171.164 50.2208,171.196 C50.4908,171.196 50.4908,171.196 50.4908,171.061 C50.5188,170.839 50.6428,170.641 50.8298,170.519 C51.0958,170.338 51.3438,170.134 51.5728,169.909 C51.8648,169.62 52.2088,169.391 52.5868,169.231 C53.0798,169.047 53.5038,168.716 53.8038,168.283 C54.1838,167.874 54.5918,167.489 55.0208,167.131 C55.8508,166.527 56.5998,165.821 57.2518,165.031 C57.5268,164.678 57.8448,164.359 58.1978,164.084 C58.4908,163.912 58.7648,163.707 59.0118,163.473 C59.2578,163.24 59.5288,163.036 59.8198,162.863 C59.8888,162.863 59.8888,162.796 59.9568,162.663 C60.1058,162.473 60.2888,162.313 60.4968,162.19 C60.8368,161.93 61.1988,161.703 61.5798,161.512 C61.6468,161.445 61.7798,161.241 62.0518,160.903 C62.4578,160.36 62.5248,160.293 62.7278,160.293 C63.4498,160.07 63.9928,159.474 64.1478,158.735 C64.1798,158.645 64.1938,158.549 64.1928,158.453 C64.1808,158.204 64.1428,157.958 64.0788,157.717 L64.0808,157.711 Z M20.5398,4.845 C20.4888,4.967 20.3928,5.064 20.2708,5.116 C19.9088,5.304 19.5678,5.531 19.2548,5.793 C17.6328,7.013 15.6038,9.18 15.6038,9.723 L15.8038,9.994 L15.9398,10.129 L15.6008,11.01 C15.0088,12.493 14.3318,13.94 13.5728,15.345 C13.2008,16.014 12.7708,16.65 12.2888,17.245 C11.4768,18.33 10.0578,19.955 9.0438,21.045 C8.1648,21.924 8.0968,22.128 8.0968,22.398 C8.0968,22.534 8.0968,22.598 8.2968,22.598 C8.4228,22.595 8.5428,22.547 8.6358,22.462 L8.9068,22.394 C9.0618,22.338 9.2008,22.245 9.3118,22.124 C9.4468,21.988 9.8518,21.785 10.0558,21.582 C10.2598,21.379 10.5288,21.175 10.6638,21.041 C11.1618,20.703 11.7548,20.537 12.3548,20.566 C12.7008,20.541 13.0648,20.525 13.4118,20.525 C13.8998,20.5 14.3888,20.56 14.8558,20.701 C15.0018,20.757 15.1548,20.79 15.3108,20.796 C15.4868,20.79 15.6578,20.733 15.8018,20.633 C15.9298,20.568 16.0668,20.523 16.2078,20.498 C16.2758,20.498 16.6128,20.43 16.9508,20.362 C17.1098,20.332 17.2708,20.315 17.4328,20.311 C17.5448,20.309 17.6568,20.327 17.7628,20.362 C17.8198,20.385 17.8818,20.396 17.9428,20.392 C18.0928,20.392 18.3038,20.362 18.5748,20.362 C18.8618,20.293 19.1638,20.367 19.3858,20.562 C19.4458,20.63 19.5318,20.671 19.6228,20.675 C19.6818,20.673 19.7398,20.658 19.7908,20.629 C19.8588,20.562 21.2108,20.021 21.7518,19.816 C22.0568,19.656 22.3508,19.475 22.6308,19.274 C22.9688,19.074 23.1708,18.869 23.2388,18.869 C23.4968,18.733 23.7258,18.549 23.9148,18.327 C24.2098,18.012 24.5268,17.717 24.8618,17.445 C25.4008,17.028 25.8408,16.496 26.1468,15.887 C26.4168,15.481 26.7548,14.939 26.9578,14.668 C27.1558,14.374 27.3148,14.055 27.4308,13.72 C27.5048,13.519 27.5428,13.306 27.5428,13.092 C27.5378,12.894 27.5238,12.696 27.4988,12.5 C27.4498,11.734 27.2178,10.991 26.8228,10.333 C26.6698,10.048 26.5348,9.753 26.4168,9.452 C26.3038,9.256 26.1678,9.074 26.0108,8.91 C25.8568,8.746 25.7228,8.564 25.6108,8.368 C25.5358,8.205 25.4188,8.065 25.2718,7.961 C24.9578,7.714 24.6638,7.443 24.3938,7.149 C23.9178,6.597 23.3448,6.138 22.7028,5.793 C22.4248,5.659 22.1728,5.475 21.9598,5.251 C21.6008,4.965 21.1858,4.757 20.7418,4.641 C20.6448,4.669 20.5698,4.744 20.5418,4.841 L20.5398,4.845 Z M63.6058,45.967 C63.3918,45.809 63.2658,45.558 63.2678,45.291 C63.2708,44.965 63.1498,44.649 62.9308,44.409 C62.8218,44.291 62.7508,44.144 62.7248,43.986 C62.7218,43.936 62.7498,43.889 62.7948,43.867 C62.7948,43.867 62.8038,43.867 62.8038,43.853 C62.4978,43.094 62.1098,42.372 61.6458,41.699 C59.4418,38.68 56.7978,36.008 53.8028,33.773 C53.5638,33.549 53.2908,33.366 52.9928,33.231 C52.9398,33.231 52.9148,33.245 52.9138,33.272 C53.0528,33.482 53.2418,33.654 53.4638,33.772 C54.0098,34.201 54.4698,34.73 54.8168,35.33 C55.0178,35.669 55.6968,36.618 56.2368,37.363 C56.7508,38.011 57.2248,38.69 57.6568,39.395 L57.5888,39.463 C57.4478,39.487 57.3108,39.533 57.1838,39.598 C56.7608,39.793 56.2958,39.876 55.8318,39.839 C55.5008,39.839 55.0868,39.824 54.5468,39.801 C52.4518,39.733 51.3698,39.463 50.4898,38.853 C50.2868,38.701 50.0588,38.586 49.8148,38.514 C49.6038,38.416 49.3998,38.303 49.2058,38.175 C48.9518,37.971 48.6808,37.789 48.3938,37.633 C47.4518,37.042 46.5688,36.362 45.7578,35.602 C43.5158,33.598 41.5588,31.295 39.9428,28.759 C39.3998,28.001 38.9458,27.182 38.5908,26.32 C38.5908,26.253 38.3918,25.983 38.1858,25.576 L37.4418,24.085 C37.0868,23.328 36.6318,22.622 36.0898,21.985 C35.9148,21.813 35.7738,21.609 35.6738,21.385 C35.6728,21.379 35.6758,21.373 35.6818,21.371 L35.6838,21.371 C35.8198,21.303 37.4418,19.813 37.6448,19.61 C37.8858,19.358 38.0698,19.058 38.1858,18.729 C38.3198,18.391 38.5238,17.916 38.5908,17.78 C38.9338,17.307 39.1228,16.74 39.1318,16.156 C39.1098,15.405 39.2728,14.661 39.6058,13.988 C40.2188,13.671 40.8818,13.465 41.5658,13.378 C41.9838,13.257 42.4128,13.179 42.8468,13.145 C43.1878,13.159 43.5098,13.317 43.7278,13.581 C43.9288,13.717 44.2698,13.919 44.4748,14.055 C44.6748,14.162 44.8558,14.299 45.0148,14.462 L45.2838,14.662 L45.4188,14.798 C45.8378,15.302 46.2898,15.777 46.7718,16.22 C47.2948,16.781 47.8598,17.302 48.4618,17.777 C48.6748,17.923 48.8578,18.107 49.0028,18.321 C49.1968,18.61 49.4828,18.824 49.8148,18.93 C49.9268,18.961 50.0228,19.032 50.0838,19.13 C50.2708,19.391 50.4748,19.64 50.6928,19.875 C51.1768,20.317 51.6278,20.792 52.0448,21.297 C52.4178,21.764 52.8768,22.155 53.3968,22.449 C53.8358,22.688 54.3098,22.852 54.8038,22.935 C54.8308,22.936 54.8578,22.932 54.8838,22.923 C55.4378,22.784 55.9808,22.603 56.5068,22.381 C57.1838,21.907 57.5888,20.349 57.7258,17.91 C57.7488,17.562 57.7668,17.333 57.7668,17.151 C57.7618,16.854 57.7018,16.56 57.5888,16.285 C56.5628,12.762 54.7878,9.504 52.3828,6.733 C49.6108,3.55 46.8388,1.45 44.3388,0.772 C43.3078,0.467 42.2368,0.307 41.1608,0.298 C40.6838,0.303 40.2078,0.258 39.7408,0.163 C39.3988,0.065 39.0468,0.009 38.6908,0 C38.5668,0 38.4428,0.009 38.3198,0.027 C37.5108,0.163 37.1038,0.365 35.2788,1.856 C34.7948,2.173 34.3618,2.561 33.9938,3.008 C34.5688,3.73 35.2828,4.328 36.0948,4.768 C38.3398,6.233 40.5068,7.816 42.5848,9.51 C43.0128,9.755 43.3088,10.176 43.3958,10.661 L43.3958,11.001 L42.8548,11.137 C42.5178,11.203 41.9758,11.272 41.6378,11.337 C41.3868,11.365 41.2258,11.382 41.1068,11.382 C40.9608,11.383 40.8168,11.345 40.6908,11.27 C40.5858,11.22 40.4688,11.196 40.3518,11.201 C40.1908,11.17 40.0328,11.126 39.8798,11.067 C39.6088,10.917 39.3088,10.824 39.0008,10.796 C38.6858,10.804 38.3778,10.709 38.1218,10.525 C38.0198,10.437 37.9498,10.317 37.9218,10.185 L37.7868,9.985 C37.7498,9.93 37.6908,9.894 37.6258,9.885 C37.5178,9.902 37.4118,9.936 37.3128,9.985 C37.0838,10.041 36.8728,10.158 36.7048,10.324 C36.5648,10.459 36.4048,10.572 36.2318,10.661 C36.1068,10.735 35.9928,10.827 35.8938,10.933 C35.6078,11.185 35.2568,11.349 34.8798,11.408 C34.7828,11.435 34.7068,11.511 34.6808,11.608 C34.6278,11.715 34.5268,11.79 34.4088,11.808 C33.8528,12.22 33.3738,12.724 32.9888,13.299 C32.8728,13.452 32.7368,13.589 32.5838,13.706 C31.6998,14.521 30.9058,15.429 30.2168,16.415 C28.8878,18.261 27.6678,20.184 26.5648,22.174 C26.3598,22.703 26.0868,23.204 25.7538,23.664 C24.7398,25.358 23.8618,26.779 22.6448,28.61 C22.1038,29.454 21.5178,30.268 20.8868,31.047 L20.7508,31.319 C20.3888,31.85 19.9818,32.348 19.5338,32.809 C18.8588,33.554 17.9128,34.709 17.3708,35.383 C14.6338,38.946 11.2648,41.978 7.4328,44.325 C6.7868,44.807 6.0798,45.205 5.3328,45.508 C5.3078,45.512 5.2818,45.5 5.2688,45.477 C5.1198,45.254 5.0268,44.999 4.9978,44.732 C5.0748,43.951 5.3548,43.204 5.8098,42.564 C6.1658,41.979 6.4408,41.348 6.6258,40.689 C6.6278,40.682 6.6278,40.674 6.6258,40.667 C6.6218,40.666 6.6178,40.666 6.6138,40.667 C5.0948,42.254 3.6968,43.953 2.4338,45.751 C2.2058,46.057 1.8838,46.531 1.5548,47.036 C1.0058,47.878 0.4398,48.8 0.2698,49.136 L-0.0002,49.61 L0.1998,49.881 C0.4638,50.247 0.8978,50.452 1.3488,50.423 L1.5488,50.448 L1.8858,50.49 L2.2248,50.29 C2.4248,50.155 2.8338,49.952 3.1048,49.816 C3.3338,49.724 3.5408,49.586 3.7128,49.41 C4.1378,48.978 4.6428,48.633 5.1998,48.394 C6.4988,47.852 7.6558,47.017 8.5798,45.955 C9.4798,45.043 10.4528,44.205 11.4868,43.449 C12.5508,42.555 13.5668,41.605 14.5308,40.604 C14.8238,40.307 15.1408,40.035 15.4768,39.79 C15.9988,39.419 16.4758,38.987 16.8948,38.503 C17.5328,37.765 18.3308,37.184 19.2288,36.803 C19.2398,36.801 19.2508,36.801 19.2618,36.803 L19.3978,36.735 L19.4658,36.668 C19.7908,36.46 20.0858,36.208 20.3438,35.921 C20.7358,35.539 21.1658,35.198 21.6278,34.905 C22.0338,34.731 22.4018,34.478 22.7098,34.161 C22.8458,34.026 23.1828,33.754 23.3858,33.551 C23.6738,33.298 23.9448,33.026 24.1968,32.738 C24.3828,32.426 24.6688,32.188 25.0088,32.06 C25.4098,31.907 25.7448,31.62 25.9558,31.248 C26.2928,30.842 26.8348,30.232 27.2408,29.826 C28.0678,29.044 28.8148,28.181 29.4708,27.251 C29.7408,26.913 30.0798,26.439 30.2818,26.235 L30.6868,25.897 L31.3638,26.031 L33.3928,29.081 C34.3128,30.289 35.1288,31.573 35.8308,32.919 C35.8318,32.927 35.8318,32.934 35.8308,32.942 L35.9668,33.01 C36.0248,33.009 36.0788,33.044 36.1028,33.098 C35.9798,33.228 35.8048,33.294 35.6258,33.279 C34.1668,33.48 32.7218,33.774 31.2998,34.161 C29.5168,34.855 27.8858,35.891 26.4998,37.21 C26.2488,37.483 26.0218,37.777 25.8228,38.09 C25.5848,38.371 25.3128,38.622 25.0118,38.835 C24.5308,39.259 24.0998,39.736 23.7268,40.258 C23.5638,40.497 23.3838,40.723 23.1858,40.935 C23.1018,40.97 23.0378,41.041 23.0108,41.128 C23.0138,41.158 23.0288,41.187 23.0518,41.206 C23.0628,41.217 23.0688,41.232 23.0688,41.248 C22.9768,41.453 22.8578,41.644 22.7128,41.816 C22.5598,41.976 22.4538,42.176 22.4078,42.393 C22.4098,42.451 22.4218,42.507 22.4428,42.561 C22.4718,42.61 22.4888,42.665 22.4938,42.722 C22.4938,42.764 22.4748,42.804 22.4428,42.832 C22.2958,42.904 22.1768,43.024 22.1038,43.171 C22.0088,43.268 21.9478,43.393 21.9288,43.527 C21.9328,43.591 21.9468,43.653 21.9698,43.713 C22.0388,44.294 22.3938,44.803 22.9158,45.067 C23.4288,45.171 23.9488,45.238 24.4708,45.267 C24.6028,45.204 24.7188,45.11 24.8088,44.995 C24.9018,44.884 25.0388,44.819 25.1828,44.816 C25.4048,44.84 25.6208,44.901 25.8228,44.995 L26.2298,45.13 L26.9048,44.995 C27.9568,44.753 28.9618,44.341 29.8798,43.775 C30.3528,43.504 31.2318,42.962 31.7728,42.691 L32.7868,42.217 L32.9868,42.556 L33.1868,42.827 L32.6458,43.571 C32.0368,44.385 31.7668,44.656 30.5458,46.079 C29.3248,47.502 28.2458,48.856 27.2998,50.211 C27.1748,50.417 27.0158,50.6 26.8278,50.752 C26.7228,50.892 26.6538,51.055 26.6278,51.228 C26.4868,51.646 26.4408,52.09 26.4938,52.528 L26.4938,52.579 C26.4288,53.252 26.5458,53.93 26.8318,54.543 C26.8878,54.675 26.9328,54.812 26.9668,54.951 C26.9718,54.971 26.9598,54.992 26.9388,54.997 C26.9358,54.998 26.9328,54.998 26.9298,54.998 C26.6388,54.85 26.3758,54.65 26.1558,54.409 C25.1848,53.522 24.3828,52.465 23.7888,51.291 C23.6428,50.921 23.4368,50.578 23.1798,50.275 C22.4498,49.253 21.8158,48.164 21.2878,47.024 C21.2678,46.87 21.1968,46.727 21.0878,46.617 C20.9698,46.333 20.8798,46.038 20.8178,45.736 C20.6828,45.264 20.4808,44.584 20.4128,44.45 C20.0678,43.757 19.9048,42.987 19.9398,42.214 C19.9638,41.212 20.2428,40.233 20.7498,39.369 C21.0798,38.807 21.3328,38.204 21.5028,37.575 C21.5038,37.563 21.5008,37.55 21.4948,37.54 C21.4888,37.535 21.4798,37.532 21.4718,37.533 C21.1098,37.709 20.7938,37.966 20.5478,38.285 C19.4318,39.629 18.6238,41.202 18.1818,42.892 C18.0678,43.457 18.0128,44.032 18.0188,44.608 C18.0328,46.023 18.2468,47.43 18.6558,48.785 C19.8438,51.645 21.2918,54.39 22.9818,56.985 C23.6488,57.874 24.4738,58.632 25.4158,59.221 C25.6758,59.342 25.9478,59.433 26.2278,59.492 C26.4238,59.546 26.6248,59.577 26.8278,59.583 C27.2048,59.568 27.5548,59.384 27.7808,59.083 L28.0498,58.814 L27.8498,58.406 C27.7398,58.174 27.6928,57.918 27.7138,57.662 C27.7218,57.263 27.8138,56.87 27.9848,56.51 C28.2248,56.671 28.4508,56.853 28.6598,57.052 C28.8708,57.251 29.0968,57.432 29.3368,57.594 C29.5518,57.683 29.7558,57.796 29.9448,57.932 C30.2848,58.135 30.6488,58.294 31.0278,58.406 C31.2618,58.473 31.4888,58.564 31.7038,58.678 C32.1538,58.955 32.6638,59.118 33.1908,59.152 C33.4848,59.138 33.7798,59.161 34.0678,59.22 C34.2728,59.276 34.4838,59.308 34.6958,59.315 C34.7808,59.316 34.8648,59.307 34.9478,59.288 C35.2188,59.288 35.5578,59.22 35.8278,59.22 C36.0098,59.211 36.1898,59.188 36.3688,59.152 C36.4358,59.152 36.8408,59.083 37.2458,59.083 C37.6778,59.079 38.1078,59.034 38.5318,58.949 C38.8018,58.88 39.2748,58.88 39.6138,58.814 C39.9528,58.748 40.5598,58.746 40.8308,58.678 C41.1008,58.678 41.3708,58.61 41.5058,58.61 L41.7058,58.61 L41.6388,58.88 C41.5708,59.016 41.3678,59.22 41.2378,59.422 C41.0258,59.709 40.8658,60.03 40.7648,60.372 C40.7448,60.416 40.7328,60.462 40.7288,60.509 C40.7288,60.574 40.8028,60.574 41.0338,60.574 C41.5068,60.574 41.6428,60.574 43.1968,59.558 C43.7028,59.166 44.2748,58.868 44.8878,58.678 C45.2758,58.633 45.6468,58.494 45.9708,58.272 C46.6458,57.864 46.7128,57.798 46.7128,56.646 C46.7638,56.251 46.6938,55.849 46.5138,55.494 C46.2108,54.898 45.7408,54.403 45.1608,54.072 C44.7958,53.919 44.4068,53.827 44.0128,53.801 C43.6058,53.766 43.1668,53.749 42.7178,53.749 C42.2688,53.749 41.8178,53.766 41.3748,53.801 C41.1068,53.848 40.8358,53.87 40.5638,53.869 C40.5498,53.854 40.5408,53.833 40.5408,53.812 C40.6318,53.592 40.7788,53.4 40.9708,53.258 C41.2408,52.987 41.5778,52.581 41.7128,52.445 C41.8168,52.283 41.9938,52.182 42.1858,52.174 L42.4568,52.106 L42.1178,52.378 C42.0088,52.466 41.9218,52.579 41.8648,52.708 C41.8638,52.717 41.8708,52.725 41.8798,52.725 L41.8838,52.725 C41.9728,52.696 42.0528,52.647 42.1178,52.581 C42.3058,52.423 42.5098,52.287 42.7268,52.174 C42.8368,52.144 42.9338,52.084 43.0108,52 C43.0108,51.989 43.0058,51.979 42.9978,51.971 L42.8628,52.039 L42.5928,52.106 C42.5728,52.107 42.5558,52.091 42.5548,52.071 C42.5548,52.067 42.5548,52.064 42.5558,52.061 C42.5938,51.918 42.6788,51.792 42.7958,51.701 C42.9028,51.56 43.0398,51.444 43.1958,51.361 C43.8088,51.123 44.3968,50.828 44.9548,50.48 C45.0158,50.386 45.0828,50.295 45.1548,50.21 C45.2138,50.128 45.2598,50.036 45.2898,49.939 C45.4508,49.779 45.6328,49.643 45.8308,49.533 C46.2988,49.193 46.7138,48.786 47.0628,48.326 C47.0628,48.319 47.0578,48.313 47.0508,48.313 L47.0478,48.313 C47.0448,48.314 47.0418,48.312 47.0408,48.308 L47.0408,48.306 C47.3178,47.913 47.6378,47.551 47.9948,47.229 L49.0768,46.213 L49.4148,46.413 C49.7268,46.532 50.0218,46.691 50.2928,46.887 C50.9618,47.362 51.6898,47.75 52.4578,48.039 C52.9318,48.239 53.6728,48.514 54.1468,48.716 C54.9468,49.128 55.8198,49.381 56.7158,49.462 C57.7598,49.572 57.9548,49.637 57.9548,49.73 C57.9528,49.754 57.9448,49.778 57.9338,49.8 C57.9208,49.823 57.9128,49.849 57.9108,49.875 C57.9108,49.964 58.0428,50.017 58.4748,50.075 C58.6348,50.035 58.8048,50.059 58.9478,50.142 C58.9858,50.19 59.0498,50.21 59.1078,50.193 C59.2148,50.192 59.3198,50.175 59.4208,50.142 C59.4678,50.115 59.5188,50.098 59.5728,50.092 C59.5978,50.088 59.6198,50.105 59.6228,50.129 C59.6238,50.133 59.6238,50.138 59.6228,50.142 L59.7588,50.142 L60.0288,50.075 L60.0968,50.142 L60.0288,50.21 C60.0278,50.224 60.0378,50.237 60.0528,50.238 C60.0548,50.239 60.0578,50.238 60.0598,50.238 C60.1438,50.217 60.2258,50.183 60.2988,50.138 C60.4748,50.074 60.6588,50.036 60.8468,50.026 C60.9298,50.026 60.9758,50.043 60.9758,50.071 C61.0078,50.1 61.0538,50.11 61.0948,50.098 C61.3508,50.086 61.6038,50.055 61.8538,50.003 C61.9888,50.003 62.0548,50.003 62.0548,50.071 C62.0908,50.126 62.1558,50.154 62.2218,50.144 C62.4408,50.122 62.6578,50.075 62.8668,50.003 C63.2718,49.867 63.2718,49.803 63.2718,49.665 C63.2918,49.591 63.2648,49.512 63.2038,49.465 C63.1798,49.401 63.1698,49.333 63.1768,49.265 C63.1748,49.013 63.2068,48.762 63.2718,48.519 L63.4728,48.179 L63.6718,47.909 C63.7028,47.82 63.7258,47.73 63.7398,47.637 C63.8058,47.359 63.8288,47.073 63.8088,46.789 L63.8088,46.757 C63.8098,46.17 63.7408,46.035 63.6058,45.967 L63.6058,45.967 Z"></path>
        </g>
    </g>
</svg>