<svg xmlns="http://www.w3.org/2000/svg" width="95.657" height="13.906" viewBox="0 0 95.657 13.906">
  <defs>
    <style>
      .cls-1 {
        fill: #fff;
        fill-rule: evenodd;
      }
    </style>
  </defs>
  <path id="btn_nav002.svg" class="cls-1" d="M167.465,98.879h-9.69V88.139h10.619a0.689,0.689,0,0,0,.72-0.315l-1.364-.96-0.72.915h-9.075l-1.17-.495v13.08h0.15a0.929,0.929,0,0,0,.84-0.345v-0.78h11.189a0.676,0.676,0,0,0,.72-0.315l-1.439-1.005Zm-2.31-6.015h2.805a0.652,0.652,0,0,0,.7-0.315l-1.3-.9-0.69.855h-5.82V90.449a44.391,44.391,0,0,0,5.64-.915,1.32,1.32,0,0,0,.48.12,0.391,0.391,0,0,0,.27-0.09l-1.095-1.02A31.633,31.633,0,0,1,161,90.074l-1.095-.345v2.895a8.916,8.916,0,0,1-1.35,5.55l0.195,0.21c1.875-1.545,2.085-3.81,2.1-5.52h3.36v5.52h0.15a0.97,0.97,0,0,0,.795-0.3v-5.22Zm12.945,6.33c4.8-.42,6.659-2.67,6.659-5.475,0-3.255-1.994-5.55-5.684-5.55a6.466,6.466,0,0,0-6.795,6.33c0,1.875.75,3.135,1.815,3.135,2.235,0,4.2-4.62,4.2-7.38a1.876,1.876,0,0,0-.57-1.5A6.957,6.957,0,0,1,179,88.6c3.39,0,4.665,2.31,4.665,5.04,0,2.4-1.53,4.62-5.67,5.19Zm-0.54-9.36c0,2.46-1.695,6.75-3.405,6.75-0.615,0-.975-0.945-0.975-2.115a5.636,5.636,0,0,1,4.14-5.625A1.9,1.9,0,0,1,177.56,89.834ZM198.7,92.5h-1.62v-2.91H200.6a0.665,0.665,0,0,0,.705-0.315l-1.32-.945-0.689.9h-2.22V87.06c0.525-.075.69-0.18,0.705-0.42l-1.665-.15v2.745h-3.57l0.075,0.27-0.81-.615-0.63.855h-0.54V87.03c0.57-.075.645-0.18,0.675-0.42l-1.635-.135v3.27H187.3l0.09,0.36h2.3v3.72c-1.065.24-1.935,0.42-2.445,0.495l0.555,1.3a0.508,0.508,0,0,0,.33-0.345c0.555-.21,1.08-0.42,1.56-0.615v4.17a0.248,0.248,0,0,1-.3.3h-1.665v0.24c1.02,0.09,1.455.255,1.455,0.99,1.275-.15,1.47-0.72,1.47-1.515V94.274c0.915-.375,1.68-0.69,2.3-0.96l-0.06-.225-2.235.525V90.1h1.665a0.652,0.652,0,0,0,.7-0.315l-0.255-.2h3.36V92.5H193.01l0.105,0.36h0.765a10.64,10.64,0,0,0,2.175,4.59,11.922,11.922,0,0,1-4.53,2.655l0.09,0.255a12.9,12.9,0,0,0,4.95-2.355,10.471,10.471,0,0,0,3.839,2.37,1.184,1.184,0,0,1,.975-0.84l0.03-.15a11.365,11.365,0,0,1-4.154-1.98,10.533,10.533,0,0,0,2.639-4.29,0.818,0.818,0,0,0,.615-0.21l-1.124-1.035Zm0.06,0.36a10.148,10.148,0,0,1-2.13,3.99,8.764,8.764,0,0,1-2.415-3.99h4.545Zm15.179-6.39H208.79v13.889h5.144v-0.255a7.646,7.646,0,0,1,0-13.379V86.475Zm13.591,12.194h-4.32V89.024h4.8a0.675,0.675,0,0,0,.719-0.315l-1.439-1.02-0.78.975H216.83l0.1,0.36H222.2v9.645H215.8l0.105,0.36h13.124a0.686,0.686,0,0,0,.72-0.315l-1.455-1.02Zm15.87-7.035v0.72a1.138,1.138,0,0,0,.959-0.345V88.2a1.063,1.063,0,0,0,.585-0.27l-1.244-.885-0.435.57h-4.545l-1.02-.465V92.5a0.89,0.89,0,0,0,.945-0.345V91.634H243.4Zm0-.36H238.64v-3.3H243.4v3.3Zm-6.63.105a0.647,0.647,0,0,0,.69-0.33l-1.2-.885-0.645.855h-0.645v-3.03c0.525-.165.99-0.345,1.38-0.5a1.481,1.481,0,0,0,.45.09,0.43,0.43,0,0,0,.315-0.12l-1.275-.975a20.993,20.993,0,0,1-4.35,2.13l0.09,0.24a23.715,23.715,0,0,0,2.43-.57v2.73H231.53l0.09,0.36h2.145a16.6,16.6,0,0,1-2.385,5.985l0.225,0.21a12.417,12.417,0,0,0,2.4-3.585v6.36h0.15a0.907,0.907,0,0,0,.81-0.33V93.374a4.9,4.9,0,0,1,1.275,2.01,0.614,0.614,0,0,0,.405.18,0.517,0.517,0,0,0,.465-0.57c0-.525-0.51-1.32-2.145-1.875v-1.74h1.8ZM243.65,99.4h-2.16v-2.67h2.759a0.641,0.641,0,0,0,.69-0.315l-1.244-.885-0.645.84h-1.56v-2.43h2.984a0.652,0.652,0,0,0,.705-0.315l-1.274-.915-0.66.87H237.11l0.1,0.36h3.3v2.43h-3.15l0.1,0.36h3.045V99.4h-4.2l0.1,0.36h8.5a0.665,0.665,0,0,0,.7-0.315l-1.3-.93Zm3.645,0.96h5.145V86.475H247.3V86.73a7.645,7.645,0,0,1,0,13.379v0.255Z" transform="translate(-156.781 -86.469)"/>
</svg>
