<svg xmlns="http://www.w3.org/2000/svg" width="97.688" height="13.906" viewBox="0 0 97.688 13.906">
  <defs>
    <style>
      .cls-1 {
        fill: #fff;
        fill-rule: evenodd;
      }
    </style>
  </defs>
  <path id="btn_nav001.svg" class="cls-1" d="M150.752,49.371a13.924,13.924,0,0,0,1.935-2.4v8.28h0.195a1.1,1.1,0,0,0,.81-0.33V45.876a0.544,0.544,0,0,0,.465-0.27l-0.54-.21a26.427,26.427,0,0,0,1.485-3.225,0.5,0.5,0,0,0,.585-0.255l-1.605-.525a27.128,27.128,0,0,1-3.555,7.845Zm8.025-7.65a92.754,92.754,0,0,1-2.4,11.49c-0.72.06-1.32,0.09-1.755,0.105l0.645,1.41a0.569,0.569,0,0,0,.39-0.315c3.21-.54,5.58-0.99,7.335-1.38a8.153,8.153,0,0,1,.33,1.965,0.728,0.728,0,0,0,.5.24c0.345,0,.615-0.42.615-1.14,0-1.23-.765-3.3-3.21-5.5L161,48.7a16.264,16.264,0,0,1,1.9,4c-2.31.2-4.5,0.375-6.165,0.495a64.547,64.547,0,0,0,3.255-10.8c0.42-.015.585-0.12,0.63-0.33Zm19.725,8.79a0.9,0.9,0,0,0,.525-0.255l-1.185-.825-0.405.525h-4.29l-1.095-.465v4.545h0.15a0.923,0.923,0,0,0,.8-0.3V53.421h4.56v0.435h0.15a1.123,1.123,0,0,0,.8-0.345v-3Zm-0.945,1.02H173V50.316h4.56v1.215Zm-4.56.36h4.56v1.17H173v-1.17Zm5.43-7.92-0.435.57h-5.5l-0.99-.45v5.4a0.9,0.9,0,0,0,.915-0.33v-0.24h5.73v0.405a1.149,1.149,0,0,0,.915-0.3v-3.87a1.233,1.233,0,0,0,.63-0.3Zm-6.015.93h5.73v3.66h-5.73V44.9Zm3.645,0.84h-1.59l-0.96-.435v2.865h0.12a0.8,0.8,0,0,0,.69-0.285v-0.27h1.86V48.1A0.949,0.949,0,0,0,177,47.811v-1.56a0.847,0.847,0,0,0,.5-0.225l-1.08-.75Zm-1.74.36h1.86v1.155h-1.86V46.1Zm5.28-2.565a0.652,0.652,0,0,0,.7-0.315l-1.3-.945-0.675.9h-2.595v-1.26c0.525-.075.69-0.18,0.7-0.405l-1.665-.15v1.815h-4.35l0.09,0.36h9.09Zm-10.65,2.475h1.53a0.684,0.684,0,0,0,.7-0.33l-1.17-.9-0.615.87h-0.45V42.306c0.5-.075.69-0.15,0.72-0.405L168,41.766v3.885h-1.68l0.1,0.36H168v5.34c-0.735.18-1.335,0.315-1.71,0.375l0.645,1.32a0.532,0.532,0,0,0,.33-0.36c1.74-.78,3.015-1.44,3.915-1.89l-0.06-.21c-0.75.2-1.485,0.375-2.175,0.54V46.011Zm9.39,8.535H169.4l0.09,0.36h10.2a0.676,0.676,0,0,0,.72-0.315l-1.365-.96Zm5.235-4.965v-2.19h2.745v0.54a1.253,1.253,0,0,0,.915-0.3v-3.21a1.233,1.233,0,0,0,.63-0.3l-1.26-.885-0.435.57h-1.545c0.27-.555.645-1.3,0.855-1.845,0.375-.015.51-0.105,0.555-0.33l-1.575-.24c-0.075.72-.21,1.755-0.33,2.415h-0.36l-1.11-.48V54.891h0.15a0.863,0.863,0,0,0,.765-0.315v-1.05h2.955v0.75a1.063,1.063,0,0,0,.915-0.315V50.2a1.23,1.23,0,0,0,.645-0.3l-1.26-.885-0.45.57h-2.805Zm2.745-2.55h-2.745V44.166h2.745v2.865Zm-2.745,2.91h2.955v3.225h-2.955V49.941Zm11.355-8.175-0.645.825h-6.465l0.1,0.36h3.5v2.985h-1.725l-1.11-.48v7.77h0.15a0.9,0.9,0,0,0,.78-0.33V46.3h1.905v8.985h0.135a0.929,0.929,0,0,0,.81-0.315V46.3h2v5.46c0,0.2-.06.24-0.21,0.24h-1.155v0.225c0.825,0.045,1.035.24,1.035,0.975a1.2,1.2,0,0,0,1.26-1.41V46.551a1.233,1.233,0,0,0,.63-0.3l-1.26-.9-0.45.585h-1.845V42.951h3.105a0.618,0.618,0,0,0,.69-0.315Zm11.76,8.13h6.045v4.05h-6.045V49.9Zm-3.945,1.23a16.744,16.744,0,0,0,2.97-1.74v5.895a0.91,0.91,0,0,0,.975-0.36V54.306h6.045v0.885a1.25,1.25,0,0,0,.99-0.315V50.181a1.244,1.244,0,0,0,.6-0.255,18.266,18.266,0,0,0,1.59.915,1.169,1.169,0,0,1,.84-0.825l0.03-.225a14.816,14.816,0,0,1-6.675-4.845,0.588,0.588,0,0,0,.615-0.3l-1.68-.435a16.208,16.208,0,0,1-6.39,6.675Zm4.035-1.59-0.78-.36a15.594,15.594,0,0,0,3.84-4.065,12.4,12.4,0,0,0,3.18,3.84l-0.435.585h-5.805ZM203.582,46a13.516,13.516,0,0,0,4.275-3.525,1.5,1.5,0,0,0,.24.03,0.34,0.34,0,0,0,.33-0.18l-1.44-.75a14.093,14.093,0,0,1-3.555,4.2Zm7.635-4.05a9.989,9.989,0,0,1,3.66,3.48,0.772,0.772,0,0,0,.405.12,0.515,0.515,0,0,0,.495-0.6c0-.825-1.05-2.31-4.47-3.18Zm18.84,13.334c0.84,0,.975-0.345.975-0.39V42.606c0.465-.045.615-0.165,0.645-0.375l-1.62-.15v13.2Zm-9.765-8.895c0,2.91-.225,6.315-1.905,8.715l0.24,0.165c2.265-2.25,2.61-5.895,2.625-8.88v-3.75c0.5-.06.63-0.135,0.66-0.375l-1.62-.15v4.275Zm4.71,7.53c0.84,0,.975-0.33.975-0.375V43.326c0.465-.045.6-0.15,0.63-0.375l-1.6-.135v11.1Zm16.575-2.565-0.63.81h-2.16V50.766h1.68v0.495a1.129,1.129,0,0,0,.945-0.315v-3.03a1.292,1.292,0,0,0,.645-0.3l-1.29-.9-0.45.585h-3.885l-1.125-.48v4.65h0.15a0.876,0.876,0,0,0,.78-0.315v-0.39h1.605v1.395H234.2l0.09,0.36h3.555v2.76h0.15a0.933,0.933,0,0,0,.8-0.285V52.521H242.1a0.638,0.638,0,0,0,.7-0.33Zm-1.11-2.52h-4.23v-1.17h4.23v1.17Zm-4.23.36h4.23v1.215h-4.23V49.191ZM242,46.056a0.641,0.641,0,0,0,.69-0.315l-1.23-.855-0.645.81h-1.38a13.815,13.815,0,0,0,1.155-1.635,0.487,0.487,0,0,0,.57-0.21l-1.26-.375h1.785a0.641,0.641,0,0,0,.69-0.315l-1.245-.87-0.645.825h-1.695v-1.17c0.525-.075.675-0.18,0.7-0.405l-1.65-.15v1.725h-3.2l0.105,0.36h1.455l-0.15.075a3.923,3.923,0,0,1,.45,1.98,0.9,0.9,0,0,0,.18.165h-2.415l0.105,0.36H242Zm-4.815-.36a0.723,0.723,0,0,0,.3-0.615,2.073,2.073,0,0,0-1.215-1.605h3.405c-0.165.675-.405,1.56-0.63,2.22h-1.86Zm8.9-4.17a12.518,12.518,0,0,1-3.7,3.525l0.18,0.255a13.885,13.885,0,0,0,4.32-2.85,1.915,1.915,0,0,0,.255.03,0.333,0.333,0,0,0,.3-0.15Zm0.39,3.945a11.814,11.814,0,0,1-4.2,4.11l0.15,0.255a12.107,12.107,0,0,0,4.86-3.48,1.732,1.732,0,0,0,.24.03,0.322,0.322,0,0,0,.315-0.165Zm-5.22,9.78a11.414,11.414,0,0,0,6.375-4.635,1.3,1.3,0,0,0,.225.015,0.373,0.373,0,0,0,.375-0.18l-1.425-.7A11.286,11.286,0,0,1,241.112,55Z" transform="translate(-150.531 -41.375)"/>
</svg>
