<svg xmlns="http://www.w3.org/2000/svg" width="45.625" height="13.906" viewBox="0 0 45.625 13.906">
  <defs>
    <style>
      .cls-1 {
        fill: #fff;
        fill-rule: evenodd;
      }
    </style>
  </defs>
  <path id="btn_nav003.svg" class="cls-1" d="M161.073,134.438a1.2,1.2,0,0,0,.96-0.3v-4.23a1.23,1.23,0,0,0,.645-0.3l-1.305-.93-0.45.6h-2.864l-1.14-.5v3.87c0,2.205-.06,4.605-1.155,6.525l0.21,0.165c1.59-1.665,1.86-4,1.905-5.94h3.194v1.035Zm0-1.395h-3.194v-3.405h3.194v3.405Zm7-2.31H164.4v-3.314a28,28,0,0,0,4.365-.87,1.576,1.576,0,0,0,.45.1,0.43,0.43,0,0,0,.315-0.12l-1.29-1.08a20.4,20.4,0,0,1-3.66,1.605l-1.14-.405v5.129c0,2.835-.375,5.385-2.655,7.38l0.195,0.195c3.06-1.905,3.42-4.86,3.42-7.575v-0.69h2.55v8.25h0.15a0.944,0.944,0,0,0,.825-0.315v-7.935h1.4a0.665,0.665,0,0,0,.7-0.315l-1.29-.93Zm-6.315-5.024-0.69.9h-5.144l0.09,0.36h6.329a0.671,0.671,0,0,0,.7-0.33Zm22.44,1.739-0.735.915H176.9a22.591,22.591,0,0,0,.84-2.2c0.39,0.015.54-.075,0.6-0.255l-1.59-.465a20.438,20.438,0,0,1-.93,2.924h-4.064l0.09,0.36h3.824a18.871,18.871,0,0,1-1.259,2.445l-0.315-.06v0.555a13.611,13.611,0,0,1-2.475,2.835l0.165,0.2a12.281,12.281,0,0,0,2.31-1.98v6.63h0.15a0.832,0.832,0,0,0,.809-0.36v-7.29c0.39-.045.54-0.15,0.57-0.315l-0.405-.075a16.793,16.793,0,0,0,1.515-2.58h8.115a0.686,0.686,0,0,0,.72-0.315Zm-3.36,10.965v-5.025H184.1a0.665,0.665,0,0,0,.7-0.315l-1.29-.9-0.675.855h-2v-2.94c0.45-.06.6-0.15,0.615-0.375l-1.59-.135v3.45h-3.555l0.09,0.36h3.465v5.025h-4.125l0.09,0.36h9.015a0.652,0.652,0,0,0,.7-0.315l-1.35-.945-0.705.9h-2.655Zm19.815-2.685a10.742,10.742,0,0,1-.645,2.115,0.733,0.733,0,0,1-.675.24H195c-0.795,0-.9-0.09-0.9-0.72v-5.82l2.145-.99v5.52c0.81,0,.945-0.33.945-0.36v-5.58l2.2-1.005v5.01c0,0.165-.045.225-0.27,0.225h-1.17v0.18c0.87,0.1.975,0.225,0.975,0.93,1.215-.12,1.41-0.645,1.41-1.305v-5.04a1.13,1.13,0,0,0,.69-0.4l-1.365-.735-0.45.825-2.025.93v-3.749c0.465-.045.6-0.15,0.63-0.375l-1.575-.135v4.694l-2.145.975v-3.66c0.51-.074.63-0.164,0.66-0.4l-1.605-.135v4.634l-1.83.84,0.24,0.27,1.59-.72v5.355c0,1.32.405,1.6,1.89,1.6h4.26c1.59,0,2.07-.165,2.07-0.615,0-.165-0.1-0.225-0.6-0.375l0.03-2.22h-0.15Zm-8.745-5.5a0.641,0.641,0,0,0,.69-0.315l-1.17-.93-0.615.885h-0.629v-3.389c0.48-.075.689-0.15,0.7-0.405l-1.649-.135v3.929h-1.86l0.09,0.36h1.77v5.43c-0.81.2-1.47,0.345-1.89,0.42l0.66,1.32a0.56,0.56,0,0,0,.33-0.375c1.935-.81,3.344-1.485,4.349-1.965l-0.06-.225c-0.84.21-1.68,0.42-2.444,0.6v-5.2h1.724Z" transform="translate(-155.75 -125.438)"/>
</svg>
