<svg xmlns="http://www.w3.org/2000/svg" width="65" height="310.688" viewBox="0 0 65 310.688">
  <defs>
    <style>
      .cls-1 {
        fill: #f3f3f3;
        fill-rule: evenodd;
      }
    </style>
  </defs>
  <path id="logo.svg" class="cls-1" d="M217.117,150.122a0.83,0.83,0,0,1-.338-0.676,1.289,1.289,0,0,0-.338-0.882,0.838,0.838,0,0,1-.206-0.423,0.124,0.124,0,0,1,.071-0.119s0.008,0,.008-0.014a11.055,11.055,0,0,0-1.157-2.154,37.4,37.4,0,0,0-7.844-7.926,2.988,2.988,0,0,0-.809-0.542c-0.053,0-.078.014-0.079,0.041a1.509,1.509,0,0,0,.55.5,5.466,5.466,0,0,1,1.353,1.558c0.2,0.339.88,1.288,1.42,2.033a20.8,20.8,0,0,1,1.42,2.032l-0.068.068a1.424,1.424,0,0,0-.406.135,2.705,2.705,0,0,1-1.351.241c-0.331,0-.745-0.015-1.285-0.038-2.095-.068-3.177-0.338-4.057-0.948a2.13,2.13,0,0,0-.675-0.339,4.757,4.757,0,0,1-.609-0.339,5.527,5.527,0,0,0-.812-0.542,17.335,17.335,0,0,1-2.636-2.031,32.856,32.856,0,0,1-5.815-6.843,12.114,12.114,0,0,1-1.352-2.439c0-.067-0.2-0.337-0.405-0.744l-0.744-1.491a9.439,9.439,0,0,0-1.352-2.1,1.971,1.971,0,0,1-.416-0.6,0.011,0.011,0,0,1,.009-0.014c0.137-.068,1.759-1.558,1.962-1.761a2.451,2.451,0,0,0,.541-0.881c0.134-.338.338-0.813,0.405-0.949a2.839,2.839,0,0,0,.541-1.624,4.586,4.586,0,0,1,.474-2.168,5.873,5.873,0,0,1,1.96-.61,6.434,6.434,0,0,1,1.28-.233,1.208,1.208,0,0,1,.882.436c0.2,0.136.542,0.338,0.746,0.474a2.165,2.165,0,0,1,.54.407l0.27,0.2,0.135,0.136a14.445,14.445,0,0,0,1.353,1.422,14.966,14.966,0,0,0,1.69,1.557,2.077,2.077,0,0,1,.541.544,1.541,1.541,0,0,0,.812.609,0.459,0.459,0,0,1,.269.2,7.508,7.508,0,0,0,.609.745,14.1,14.1,0,0,1,1.352,1.422,4.672,4.672,0,0,0,1.352,1.152,4.5,4.5,0,0,0,1.406.486,0.227,0.227,0,0,0,.081-0.012,11.078,11.078,0,0,0,1.623-.542c0.676-.474,1.082-2.032,1.218-4.471,0.024-.348.041-0.577,0.041-0.759a2.38,2.38,0,0,0-.177-0.866,25.406,25.406,0,0,0-5.206-9.552c-2.772-3.183-5.544-5.283-8.044-5.961a11.563,11.563,0,0,0-3.178-.474,6.745,6.745,0,0,1-1.42-.135,4.193,4.193,0,0,0-1.05-.163,2.647,2.647,0,0,0-.371.027c-0.81.136-1.216,0.338-3.041,1.829a5.73,5.73,0,0,0-1.285,1.152,6.87,6.87,0,0,0,2.1,1.76,76.361,76.361,0,0,1,6.491,4.742,1.665,1.665,0,0,1,.811,1.151v0.34l-0.541.136c-0.338.066-.88,0.135-1.218,0.2-0.251.028-.412,0.045-0.53,0.045a0.8,0.8,0,0,1-.416-0.112,0.724,0.724,0,0,0-.339-0.069,2.72,2.72,0,0,1-.472-0.134,2.239,2.239,0,0,0-.879-0.271,1.445,1.445,0,0,1-.879-0.271,0.621,0.621,0,0,1-.2-0.34l-0.135-.2a0.234,0.234,0,0,0-.161-0.1,1.1,1.1,0,0,0-.313.1,1.3,1.3,0,0,0-.608.339,1.986,1.986,0,0,1-.473.337,1.546,1.546,0,0,0-.338.272,2,2,0,0,1-1.014.475,0.287,0.287,0,0,0-.2.2,0.364,0.364,0,0,1-.271.2,6.032,6.032,0,0,0-1.42,1.491,2.129,2.129,0,0,1-.405.407,16.7,16.7,0,0,0-2.367,2.709,57.715,57.715,0,0,0-3.652,5.759,6.623,6.623,0,0,1-.811,1.49c-1.014,1.694-1.892,3.115-3.109,4.946a27.163,27.163,0,0,1-1.758,2.437l-0.136.272a11.165,11.165,0,0,1-1.217,1.49c-0.675.745-1.621,1.9-2.163,2.574a36.727,36.727,0,0,1-9.938,8.942,9.489,9.489,0,0,1-2.1,1.183,0.061,0.061,0,0,1-.064-0.031,1.656,1.656,0,0,1-.271-0.745,4.5,4.5,0,0,1,.812-2.168,7.538,7.538,0,0,0,.816-1.875,0.037,0.037,0,0,0,0-.022,0.016,0.016,0,0,0-.012,0,43.56,43.56,0,0,0-4.18,5.084c-0.228.306-.55,0.78-0.879,1.285-0.549.842-1.115,1.764-1.285,2.1l-0.27.474,0.2,0.271a1.313,1.313,0,0,0,1.149.542l0.2,0.025,0.337,0.042,0.339-.2c0.2-.135.609-0.338,0.88-0.474a1.771,1.771,0,0,0,.608-0.406,4.673,4.673,0,0,1,1.487-1.016,9.146,9.146,0,0,0,3.38-2.439,23.844,23.844,0,0,1,2.907-2.506,39.636,39.636,0,0,0,3.044-2.845,7.668,7.668,0,0,1,.946-0.814,8.058,8.058,0,0,0,1.418-1.287,6.37,6.37,0,0,1,2.334-1.7,0.111,0.111,0,0,1,.033,0l0.136-.068,0.068-.067a4.323,4.323,0,0,0,.878-0.747,7.947,7.947,0,0,1,1.284-1.016,3.359,3.359,0,0,0,1.082-.744c0.136-.135.473-0.407,0.676-0.61a8.767,8.767,0,0,0,.811-0.813,1.6,1.6,0,0,1,.812-0.678,1.845,1.845,0,0,0,.947-0.812c0.337-.406.879-1.016,1.285-1.422a17.089,17.089,0,0,0,2.23-2.575c0.27-.338.609-0.812,0.811-1.016l0.405-.338,0.677,0.134,2.029,3.05a26.839,26.839,0,0,1,2.438,3.838,0.079,0.079,0,0,1,0,.023l0.135,0.068a0.147,0.147,0,0,1,.137.088,0.587,0.587,0,0,1-.477.181,34.207,34.207,0,0,0-4.326.882,14.679,14.679,0,0,0-4.8,3.049,6.306,6.306,0,0,0-.677.88,4.391,4.391,0,0,1-.811.745,8.436,8.436,0,0,0-1.285,1.423,5.685,5.685,0,0,1-.541.677,0.307,0.307,0,0,0-.175.193,0.114,0.114,0,0,0,.041.078,0.061,0.061,0,0,1,.017.042,2.424,2.424,0,0,1-.356.568,1.193,1.193,0,0,0-.305.577,0.5,0.5,0,0,0,.035.168,0.383,0.383,0,0,1,.051.161,0.149,0.149,0,0,1-.051.11,0.746,0.746,0,0,0-.339.339,0.636,0.636,0,0,0-.175.356,0.605,0.605,0,0,0,.041.186,1.747,1.747,0,0,0,.946,1.354,10.771,10.771,0,0,0,1.555.2,0.951,0.951,0,0,0,.338-0.272,0.5,0.5,0,0,1,.374-0.179,2.061,2.061,0,0,1,.64.179l0.407,0.135,0.675-.135a9.882,9.882,0,0,0,2.975-1.22c0.473-.271,1.352-0.813,1.893-1.084l1.014-.474,0.2,0.339,0.2,0.271-0.541.744c-0.609.814-.879,1.085-2.1,2.508s-2.3,2.777-3.246,4.132a2.093,2.093,0,0,1-.472.541,1.053,1.053,0,0,0-.2.476,2.939,2.939,0,0,0-.134,1.3v0.051a3.783,3.783,0,0,0,.338,1.964,2.711,2.711,0,0,1,.135.408,0.038,0.038,0,0,1-.037.047,2.7,2.7,0,0,1-.774-0.589,10.873,10.873,0,0,1-2.367-3.118,3.652,3.652,0,0,0-.609-1.016,20.122,20.122,0,0,1-1.892-3.251,0.712,0.712,0,0,0-.2-0.407,4.79,4.79,0,0,1-.27-0.881c-0.135-.472-0.337-1.152-0.405-1.286a4.545,4.545,0,0,1-.473-2.236,5.894,5.894,0,0,1,.81-2.845,7.329,7.329,0,0,0,.753-1.794,0.058,0.058,0,0,0-.008-0.035,0.033,0.033,0,0,0-.023-0.007,2.609,2.609,0,0,0-.924.752,11.928,11.928,0,0,0-2.366,4.607,8.186,8.186,0,0,0-.163,1.716,14.97,14.97,0,0,0,.637,4.177,50.563,50.563,0,0,0,4.326,8.2,9.008,9.008,0,0,0,2.434,2.236,3.721,3.721,0,0,0,.812.271,2.52,2.52,0,0,0,.6.091,1.255,1.255,0,0,0,.953-0.5l0.269-.269-0.2-.408a1.45,1.45,0,0,1-.136-0.744,2.8,2.8,0,0,1,.271-1.152,5.2,5.2,0,0,1,.675.542,5.308,5.308,0,0,0,.677.542,3.017,3.017,0,0,1,.608.338,4.716,4.716,0,0,0,1.083.474,3.517,3.517,0,0,1,.676.272,3.226,3.226,0,0,0,1.487.474,3.534,3.534,0,0,1,.877.068,2.69,2.69,0,0,0,.628.095,1.082,1.082,0,0,0,.252-0.027c0.27,0,.609-0.068.88-0.068a3.661,3.661,0,0,0,.541-0.068c0.067,0,.472-0.069.877-0.069a6.879,6.879,0,0,0,1.286-.134c0.269-.069.743-0.069,1.082-0.135s0.946-.068,1.217-0.136c0.27,0,.54-0.068.675-0.068h0.2l-0.068.27c-0.067.136-.27,0.34-0.4,0.542a3.061,3.061,0,0,0-.474.95,0.443,0.443,0,0,0-.035.137c0,0.065.073,0.065,0.305,0.065,0.473,0,.608,0,2.163-1.016a5.347,5.347,0,0,1,1.69-.88,2.392,2.392,0,0,0,1.083-.406c0.676-.408.743-0.474,0.743-1.626a1.982,1.982,0,0,0-.2-1.152,3.415,3.415,0,0,0-1.352-1.422,3.56,3.56,0,0,0-1.149-.271c-0.406-.035-0.845-0.052-1.294-0.052s-0.9.017-1.343,0.052a4.587,4.587,0,0,1-.811.068,0.081,0.081,0,0,1-.023-0.057,1.311,1.311,0,0,1,.429-0.554c0.271-.271.608-0.677,0.743-0.813a0.59,0.59,0,0,1,.473-0.271l0.271-.068-0.339.272a0.882,0.882,0,0,0-.253.33,0.016,0.016,0,0,0,.019.017,0.589,0.589,0,0,0,.234-0.144,3.281,3.281,0,0,1,.609-0.407,0.6,0.6,0,0,0,.284-0.174,0.042,0.042,0,0,0-.013-0.029l-0.135.068-0.27.067a0.037,0.037,0,0,1-.038-0.045,0.678,0.678,0,0,1,.241-0.36,1.211,1.211,0,0,1,.4-0.34,10.533,10.533,0,0,0,1.759-.881,2.643,2.643,0,0,1,.2-0.27,0.971,0.971,0,0,0,.135-0.271,2.463,2.463,0,0,1,.541-0.406,5.909,5.909,0,0,0,1.232-1.207,0.013,0.013,0,0,0-.015-0.013,0.006,0.006,0,0,1-.007-0.007,6.469,6.469,0,0,1,.954-1.077l1.082-1.016,0.338,0.2a3.82,3.82,0,0,1,.878.474,9.533,9.533,0,0,0,2.165,1.152c0.473,0.2,1.215.475,1.689,0.677a6.994,6.994,0,0,0,2.569.746c1.044,0.11,1.239.175,1.239,0.268a0.185,0.185,0,0,1-.021.07,0.164,0.164,0,0,0-.023.075c0,0.089.132,0.142,0.563,0.2a0.641,0.641,0,0,1,.474.067,0.151,0.151,0,0,0,.16.051,1.049,1.049,0,0,0,.313-0.051,0.382,0.382,0,0,1,.152-0.05,0.044,0.044,0,0,1,.05.05h0.136l0.27-.067,0.067,0.067-0.067.068a0.026,0.026,0,0,0,.031.028,0.848,0.848,0,0,0,.239-0.1,1.9,1.9,0,0,1,.547-0.112c0.083,0,.129.017,0.129,0.045a0.129,0.129,0,0,0,.12.027,4.814,4.814,0,0,0,.759-0.095c0.135,0,.2,0,0.2.068a0.169,0.169,0,0,0,.167.073,2.885,2.885,0,0,0,.646-0.141c0.405-.136.405-0.2,0.405-0.338a0.192,0.192,0,0,0-.068-0.2,0.431,0.431,0,0,1-.027-0.2,2.758,2.758,0,0,1,.095-0.746l0.2-.34,0.2-.27a1.543,1.543,0,0,0,.068-0.272,2.835,2.835,0,0,0,.069-0.848v-0.032C217.321,150.325,217.252,150.19,217.117,150.122ZM174.051,109a0.512,0.512,0,0,1-.269.271,5.6,5.6,0,0,0-1.016.677c-1.622,1.22-3.651,3.387-3.651,3.93l0.2,0.271,0.136,0.135-0.339.881a41.55,41.55,0,0,1-2.028,4.335,13.213,13.213,0,0,1-1.284,1.9c-0.812,1.085-2.231,2.71-3.245,3.8-0.879.879-.947,1.083-0.947,1.353,0,0.136,0,.2.2,0.2a0.517,0.517,0,0,0,.339-0.136l0.271-.068a1.023,1.023,0,0,0,.405-0.27c0.135-.136.54-0.339,0.744-0.542s0.473-.407.608-0.541a2.769,2.769,0,0,1,1.691-.475c0.346-.025.71-0.041,1.057-0.041a4.233,4.233,0,0,1,1.444.176,1.428,1.428,0,0,0,.455.095,0.916,0.916,0,0,0,.491-0.163,1.424,1.424,0,0,1,.406-0.135c0.068,0,.405-0.068.743-0.136a3,3,0,0,1,.482-0.051,0.99,0.99,0,0,1,.33.051,0.408,0.408,0,0,0,.18.03c0.15,0,.361-0.03.632-0.03a0.906,0.906,0,0,1,.811.2,0.333,0.333,0,0,0,.237.113,0.363,0.363,0,0,0,.168-0.046c0.068-.067,1.42-0.608,1.961-0.813a7.494,7.494,0,0,0,.879-0.542c0.338-.2.54-0.405,0.608-0.405a2.3,2.3,0,0,0,.676-0.542,9.573,9.573,0,0,1,.947-0.882,4.561,4.561,0,0,0,1.285-1.558c0.27-.406.608-0.948,0.811-1.219a4.144,4.144,0,0,0,.473-0.948,1.825,1.825,0,0,0,.112-0.628,5.843,5.843,0,0,0-.044-0.592,4.818,4.818,0,0,0-.676-2.167,7.945,7.945,0,0,1-.406-0.881,2.813,2.813,0,0,0-.406-0.542,2.848,2.848,0,0,1-.4-0.542,1.015,1.015,0,0,0-.339-0.407,7.472,7.472,0,0,1-.878-0.812,5.957,5.957,0,0,0-1.691-1.356,2.557,2.557,0,0,1-.743-0.542,3.3,3.3,0,0,0-1.218-.61,0.291,0.291,0,0,0-.2.2m43.539,152.87a7.214,7.214,0,0,1-.134-0.881,1.258,1.258,0,0,0-.339-0.678c-0.136-.2-0.541-0.677-0.743-1.016a1.77,1.77,0,0,0-.474-0.61,1.959,1.959,0,0,0-.355-0.044,0.426,0.426,0,0,0-.321.112,0.3,0.3,0,0,1-.237.1,3.57,3.57,0,0,1-.777-0.163,5.341,5.341,0,0,0-1.622-.135,44.825,44.825,0,0,0-6.152.474c-1.151.136-4.666,0.61-4.936,0.61-0.087,0-.122-0.012-0.122-0.036a0.436,0.436,0,0,1,.189-0.167,0.363,0.363,0,0,0,.2-0.271l0.2-.271a0.444,0.444,0,0,1,.1-0.045,0.008,0.008,0,0,1,.009.008,0.436,0.436,0,0,1-.045.105c0,0.028,0,.044.016,0.044a0.767,0.767,0,0,0,.187-0.112,0.826,0.826,0,0,0,.355-0.365,0.056,0.056,0,0,0-.016-0.041,0.11,0.11,0,0,1-.013-0.054,0.2,0.2,0,0,1,.2-0.168,0.2,0.2,0,0,1,.08.018,3.122,3.122,0,0,0,1.081-.88,1.97,1.97,0,0,1,.4-0.353,0.012,0.012,0,0,1,.011.014h0.134a0.518,0.518,0,0,1,.338-0.136c0.2,0,.2-0.066.2-0.132h0v0a0.486,0.486,0,0,1,.474-0.271,0.151,0.151,0,0,0,.112-0.013,0.131,0.131,0,0,0-.045-0.054,0.1,0.1,0,0,1-.043-0.066,0.321,0.321,0,0,1,.11-0.138l0.271-.136a5.541,5.541,0,0,0,.677-0.135,3.693,3.693,0,0,1,.645-0.1,0.385,0.385,0,0,1,.166.028,4.053,4.053,0,0,0,.526.027,10.222,10.222,0,0,0,1.84-.162,4.221,4.221,0,0,0,1.284-.61c0.407-.271,1.014-0.61,1.284-0.745a3.43,3.43,0,0,0,1.421-1.356,2.125,2.125,0,0,0,.2-1.293V251.71a2.943,2.943,0,0,0-.2-1.355,4.324,4.324,0,0,0-.473-1.151,7.061,7.061,0,0,0-.609-0.881,12.862,12.862,0,0,0-1.893-2.236,4.79,4.79,0,0,0-1.69-1.286,1.652,1.652,0,0,1-.474-0.2,1.937,1.937,0,0,0-1.013-.137,9.958,9.958,0,0,1-3.313-.542c-0.677-.27-1.352-0.473-1.419-0.542a0.055,0.055,0,0,1-.025-0.039,1.011,1.011,0,0,1,.294-0.232c0.406-.271,1.622-1.218,1.961-1.489,0.2-.135.473-0.475,0.743-0.677a14.46,14.46,0,0,1,1.759-1.289c0.2-.135.473-0.337,0.608-0.405a2.422,2.422,0,0,0,.541-0.339,4.037,4.037,0,0,0,.406-0.271l0.2-.136,0.27-.338a1.954,1.954,0,0,1,.743-0.746,0.576,0.576,0,0,1,.474,0,0.732,0.732,0,0,0,.406-0.068,5.787,5.787,0,0,1,1.217-.474c0.337-.135.337-0.2,0.337-0.61a2.4,2.4,0,0,1,.136-0.677,2.531,2.531,0,0,0,.1-0.685,1.212,1.212,0,0,0-.1-0.533,3.538,3.538,0,0,1-.271-0.679,3.461,3.461,0,0,0-.406-0.879,22.773,22.773,0,0,0-2.365-2.982,9.459,9.459,0,0,1-.948-1.084,5.449,5.449,0,0,0-.946-1.287l-0.405-.474h-0.339c-0.135,0-.24.03-0.3,0.03-0.027,0-.043-0.008-0.043-0.03a0.065,0.065,0,0,0-.018-0.015,2.964,2.964,0,0,1,.492-0.391,2.8,2.8,0,0,0,.946-1.762,0.758,0.758,0,0,1,.338-0.677c0.2,0,.27-0.339.27-1.084a16.875,16.875,0,0,1,.2-2.778l0.135-.136a0.348,0.348,0,0,0,.04-0.093,0.007,0.007,0,0,0-.007-0.008,0.839,0.839,0,0,0-.168.1,1.936,1.936,0,0,1-.307.217,0.048,0.048,0,0,1-.032-0.012,0.491,0.491,0,0,1-.029-0.234c0-.252.029-0.671,0.029-1.121l-0.067-1.355-0.2-.746a11.745,11.745,0,0,1-.338-1.49,6.422,6.422,0,0,0-.744-2.506l-0.136-.136c0-.068-0.067-0.406-0.135-0.745a11.631,11.631,0,0,1-.472-3.117c0-.745-0.068-1.895-0.135-2.438-0.144-1.572-.23-2.635-0.23-3.547a11.688,11.688,0,0,1,.23-2.346,40.225,40.225,0,0,0,.675-5.013,12.736,12.736,0,0,1,.676-3.184,5.305,5.305,0,0,0,.2-0.881,6.734,6.734,0,0,0,.27-1.219,2.723,2.723,0,0,1,.271-1.016,3.116,3.116,0,0,0,.068-0.972v-0.044a8.908,8.908,0,0,1,.2-1.492,9.629,9.629,0,0,1,.541-2.032,0.745,0.745,0,0,1,.2.474,0.757,0.757,0,0,0,.122.324c0.008,0,.014-0.016.014-0.052a3.881,3.881,0,0,0-.136-0.678,4.249,4.249,0,0,1-.049-0.652,5.17,5.17,0,0,1,.522-2.193,1.329,1.329,0,0,1,.406-0.61c0.135,0,.135-0.067.135-0.27a3.015,3.015,0,0,1,1.15-2.1,2.594,2.594,0,0,0,.609-0.61c0.337-.61.675-1.287,0.877-1.626a3.994,3.994,0,0,0,.474-1.694,8.568,8.568,0,0,0-.744-2.032,17.055,17.055,0,0,0-3.717-4.2,27.624,27.624,0,0,0-2.907-1.964,4.432,4.432,0,0,0-2.028-.474c-0.272,0-.61.067-0.678,0.067a1.112,1.112,0,0,0-.337.136,1.263,1.263,0,0,1-.473.135,1.231,1.231,0,0,0-.541.406,3.035,3.035,0,0,1-.609.475,0.511,0.511,0,0,0-.27.271l-0.068.135a2.175,2.175,0,0,0-.541.475,2.686,2.686,0,0,1-.676.541l-0.2.136-0.135.2a0.753,0.753,0,0,0-.338.339l-0.067.068v0.067l-0.068.136a2.742,2.742,0,0,0-.677,1.151,3.253,3.253,0,0,1-.742.882,16.32,16.32,0,0,0-2.029,2.37,27.086,27.086,0,0,0-1.555,2.777l0.068,0.205a0.236,0.236,0,0,0,.149.161,0.082,0.082,0,0,0,.054-0.027l0.27-.271a23.871,23.871,0,0,1,2.434-2.642c2.5-2.3,2.7-2.371,3.515-2.439a2.565,2.565,0,0,1,.293-0.031c0.051,0,.08.008,0.079,0.032a1.412,1.412,0,0,1-.439.406,21.361,21.361,0,0,0-2.5,2.235,6.818,6.818,0,0,1-1.015,1.016,24.241,24.241,0,0,0-2.771,3.795,23.842,23.842,0,0,1-2.5,3.792l-0.271.271v-0.135a8.73,8.73,0,0,1,.338-1.625,1.879,1.879,0,0,0,.1-0.355c0-.015,0-0.021-0.01-0.021a5.7,5.7,0,0,0-.7,1.053,27.179,27.179,0,0,0-2.163,4.471,2.6,2.6,0,0,1-.3.712c-0.011,0-.016-0.022-0.016-0.066a7.722,7.722,0,0,1,.112-0.85,9.5,9.5,0,0,0,.053-0.99c0-.33-0.018-0.669-0.053-1.042v-0.024a8.358,8.358,0,0,1,.2-1.805,2.9,2.9,0,0,0,0-1.083,4.773,4.773,0,0,0-.339-1.491c-0.068-.136-0.2-0.61-0.339-1.016a2.49,2.49,0,0,0-1.082-1.829,7.388,7.388,0,0,0-.877-0.746c-0.2-.135-0.608-0.338-0.812-0.473a1.52,1.52,0,0,0-.608-0.272,1.892,1.892,0,0,0-1.083.814,10.254,10.254,0,0,0-.743.88,11.068,11.068,0,0,0-1.826,2.372l-0.269.542c-0.067.134-.271,0.609-0.474,1.016a10.481,10.481,0,0,1-1.419,2.235c-0.475.542-3.11,4.2-5.207,7.045-0.81,1.152-1.554,2.1-1.622,2.168a0.056,0.056,0,1,1-.068-0.065v0c0-.068.136-0.746,0.2-1.354l0.068-1.152-0.135-.34a6.007,6.007,0,0,0-1.826-2.3l-0.269-.2-0.541.27a8.6,8.6,0,0,0-.812.542,18.99,18.99,0,0,0-2.028,2.033,10.21,10.21,0,0,1-1.218,1.218,2.165,2.165,0,0,0-.743.949,4.77,4.77,0,0,1-.947,1.491,14.178,14.178,0,0,0-2.163,6.977v1.016l0.2,0.406a3.441,3.441,0,0,1,.583,1.831,3.891,3.891,0,0,1-.042.54c-0.015.172-.027,0.315-0.027,0.441a1.176,1.176,0,0,0,.7,1.05,18.82,18.82,0,0,1,2.095,1.626,2.464,2.464,0,0,0,.811.609,2.3,2.3,0,0,1,.541.34,11.609,11.609,0,0,0,2.03.947c0.336,0.137.809,0.272,1.08,0.408a6.052,6.052,0,0,0,.811.271c0.2,0.067.609,0.2,0.88,0.27a5.648,5.648,0,0,0,.609.135h0.134a0.048,0.048,0,0,1,.059-0.051,0.818,0.818,0,0,1,.212.051,1.649,1.649,0,0,0,.6.1,1.705,1.705,0,0,0,1.562-.639v-0.405a1.133,1.133,0,0,0-.031-0.182c0-.015.008-0.022,0.031-0.022a0.745,0.745,0,0,0,.27-0.338l0.135-.272-0.271-.339c-0.134-.2-0.405-0.677-0.607-1.015a2.084,2.084,0,0,0-.407-0.611,0.472,0.472,0,0,1-.134-0.27,0.275,0.275,0,0,0-.082-0.176,0.1,0.1,0,0,0-.054.041,0.07,0.07,0,0,1-.053.051,0.562,0.562,0,0,1-.15-0.391,2.409,2.409,0,0,0-.068-0.406v-0.2l-0.067-.2c0-.091-0.03-0.182-0.029-0.294a0.575,0.575,0,0,1,.029-0.181,0.815,0.815,0,0,0,.1-0.239,0.027,0.027,0,0,0-.029-0.032,0.142,0.142,0,0,1-.026-0.123,1.4,1.4,0,0,1,.162-0.689l0.069-.2a0.1,0.1,0,0,1-.029-0.079,2.6,2.6,0,0,1,.1-0.4,0.915,0.915,0,0,0,.078-0.325c0-.1-0.039-0.149-0.078-0.149l-0.066-.136c0-.067.066-0.406,0.066-0.609a2.4,2.4,0,0,1,.136-0.678,0.921,0.921,0,0,0,.07-0.325,0.185,0.185,0,0,0-.147-0.227,0.221,0.221,0,0,0-.059.01,0.131,0.131,0,0,1-.161-0.135,0.444,0.444,0,0,1,.026-0.136l0.135-.338,0.136-.271a0.384,0.384,0,0,0,.161-0.27,0.444,0.444,0,0,0-.027-0.137,0.821,0.821,0,0,1-.05-0.212,0.048,0.048,0,0,1,.05-0.059,0.1,0.1,0,0,0,.074-0.074,0.124,0.124,0,0,0-.141-0.061l-0.067-.136-0.068-.068,0.068-.067a0.475,0.475,0,0,0,.1-0.194,0.254,0.254,0,0,0-.1-0.145,0.3,0.3,0,0,1-.085-0.237c0-.1.017-0.237,0.017-0.44a10.507,10.507,0,0,0-.068-1.355c-0.016-.221-0.025-0.457-0.025-0.7a5.579,5.579,0,0,1,.228-1.809,12.843,12.843,0,0,1,.608-1.492,12.362,12.362,0,0,0,.677-1.151,17.529,17.529,0,0,1,1.351-2.37c0.271-.407,1.15-1.492,2.1-2.846,0.2-.27.677-0.812,0.948-1.152a1.942,1.942,0,0,1,.877-0.676,2.092,2.092,0,0,0,.678-0.476,0.733,0.733,0,0,1,.313-0.227,0.021,0.021,0,0,1,.023.025c0,0.068.068,0.678,0.136,1.49a20.458,20.458,0,0,1,.112,2.194c0,0.585-.017,1.318-0.043,2.413a30.912,30.912,0,0,1-.541,5.961,26.948,26.948,0,0,0-.271,2.913c0,0.135-.068.61-0.136,1.084a3.417,3.417,0,0,0-.03.462c0,0.285.03,0.509,0.03,0.555,0,0.067-.068.676-0.134,1.354s-0.2,1.422-.2,1.625a0.975,0.975,0,0,1-.135.61,1.175,1.175,0,0,0-.288.7,0.99,0.99,0,0,0,.017.177,0.715,0.715,0,0,1,.045.221,0.191,0.191,0,0,1-.113.186,0.432,0.432,0,0,0-.224.369,1.775,1.775,0,0,0,.09.443,6.983,6.983,0,0,0,1.622,2.575,10.167,10.167,0,0,0,1.961,1.693,11.891,11.891,0,0,0,1.758.948,1.224,1.224,0,0,1,.406.339,2.052,2.052,0,0,0,1.419.542,0.944,0.944,0,0,0,.812-0.136l0.2-.2,0.338,0.134a1.355,1.355,0,0,0,.33.1,0.106,0.106,0,0,0,.077-0.029,0.1,0.1,0,0,0,.026-0.076,0.708,0.708,0,0,0-.094-0.262,1.656,1.656,0,0,1-.069-0.541,0.714,0.714,0,0,0,.045-0.238,1.2,1.2,0,0,0-.113-0.441,1.36,1.36,0,0,1-.134-0.542l0.068-.27a1.141,1.141,0,0,1-.045-0.286,0.569,0.569,0,0,1,.111-0.323,1.03,1.03,0,0,0,.143-0.561,1.413,1.413,0,0,0-.075-0.456,18.542,18.542,0,0,1-.608-2.439,12.494,12.494,0,0,1-.07-1.485,14.981,14.981,0,0,1,.206-2.783,12.888,12.888,0,0,0,.288-2.564c0-.174-0.006-0.337-0.018-0.484v-0.028a3.189,3.189,0,0,1,.068-0.92,0.769,0.769,0,0,0,.05-0.213,0.047,0.047,0,0,0-.05-0.058,0.127,0.127,0,0,1-.025-0.119,18.1,18.1,0,0,1,.3-2.117c0.336-1.829.608-3.387,0.676-4a9.735,9.735,0,0,1,.338-1.356c0.337-1.016,1.351-4.268,1.419-4.742a2.054,2.054,0,0,1,.2-0.61l0.068-.27a7.585,7.585,0,0,1,1.284-1.9c0.2-.27.541-0.677,0.744-0.949s0.946-1.084,1.622-1.761a13.757,13.757,0,0,0,2.5-2.98,6.422,6.422,0,0,1,2.028-2.033c0.135-.068.473-0.2,0.743-0.339a2.01,2.01,0,0,1,.609-0.2c0.1,0,.163,0,0.163.161a1.743,1.743,0,0,1-.027.246c-0.271,2.71-.339,3.658-0.406,5.284a26.744,26.744,0,0,0,.067,2.71c0.068,0.473.136,0.947,0.136,1.084,0.067,0.813.271,2.438,0.405,3.047a1.564,1.564,0,0,1,.031.329c0,0.215-.031.441-0.031,0.755a10.972,10.972,0,0,0,.068,1.424,12.55,12.55,0,0,1,.135,1.422,2.551,2.551,0,0,0,.068.813,3.7,3.7,0,0,1,.135,1.151c0.067,0.542.135,1.152,0.135,1.355s0.067,0.746.067,1.287c0.068,1.9,0,1.965.136,2.033a0.39,0.39,0,0,1,.141.373,2.094,2.094,0,0,1-.074.508,0.9,0.9,0,0,0-.028.206,0.354,0.354,0,0,0,.1.266,0.33,0.33,0,0,1,.068.272,1.02,1.02,0,0,0,.067.407,1.581,1.581,0,0,1,.1.579,4.167,4.167,0,0,1-.028.438c0,0.269-.03.509-0.03,0.64,0,0.066.008,0.1,0.03,0.1a1.18,1.18,0,0,1,.068.677,6.422,6.422,0,0,0,.2,1.289,2.9,2.9,0,0,1,.05.455,1.405,1.405,0,0,1-.05.356,1.505,1.505,0,0,0-.051.365,0.969,0.969,0,0,0,.051.313,2.524,2.524,0,0,1,.135.813,1.758,1.758,0,0,1,.028.281,0.308,0.308,0,0,1-.095.261,0.273,0.273,0,0,0-.052.212c0,0.126.017,0.33,0.052,0.669a5.681,5.681,0,0,1,.05.635,1.236,1.236,0,0,1-.05.38,4.26,4.26,0,0,0-.1.983c0,0.39.034,0.881,0.1,1.591,0.047,0.555.07,0.989,0.07,1.313a0.806,0.806,0,0,1-.154.739,0.091,0.091,0,0,1-.052-0.018H202.65l0.135,0.066a0.239,0.239,0,0,1,.141.156c0,0.028-.022.048-0.073,0.048-0.084,0-.143.026-0.143,0.094a0.355,0.355,0,0,0,.075.177,0.209,0.209,0,0,1,0,.271,0.372,0.372,0,0,0-.051.127,0.121,0.121,0,0,0,.051.077v0.135a0.083,0.083,0,0,0-.029.062,0.652,0.652,0,0,0,.1.209,0.406,0.406,0,0,1,.05.16,0.152,0.152,0,0,1-.05.11,7.129,7.129,0,0,0-.068.814v0.038a7.044,7.044,0,0,1-.068,1.249,7.127,7.127,0,0,0-.2.813,2.154,2.154,0,0,1-.406.881,0.315,0.315,0,0,0-.068.263v0.008a0.2,0.2,0,0,1,.025.089,0.25,0.25,0,0,1-.227.182,0.464,0.464,0,0,0-.271.134l-0.067.136-0.136.2-0.066.271a0.316,0.316,0,0,0-.068.264v0.007a0.429,0.429,0,0,1,.024.129,0.24,0.24,0,0,1-.227.209c-0.136.068-.542,0.339-0.879,0.542s-0.744.474-.879,0.542a0.487,0.487,0,0,0-.407.271v0.136l-0.337-.136a7.331,7.331,0,0,0-.744-0.407,22.994,22.994,0,0,1-2.231-1.084,0.517,0.517,0,0,0-.243-0.161,0.022,0.022,0,0,0-.027.025,0,0,0,0,1,0,.005c-0.06,0-.914-0.853-1.957-1.833-1.081-1.016-1.96-1.83-2.028-1.83a0.057,0.057,0,0,0-.062.065,1.252,1.252,0,0,0,.535.681,0.542,0.542,0,0,1,.221.1,0.051,0.051,0,0,1-.018.031c0,0.067,2.7,3.048,3.042,3.318,0.135,0.136.608,0.543,1.083,0.95,0.945,0.812,2.5,2.1,3.515,2.845a2.052,2.052,0,0,1,.676.608,12.594,12.594,0,0,0,2.6,2.977c-0.8.137-1.887,0.34-2.4,0.479a2.85,2.85,0,0,0-.841.262c0,0.007.01,0.009,0.031,0.009s0.022,0,.022.007a11.686,11.686,0,0,1-1.1.6c-0.674.339-1.487,0.745-2.839,1.287a6.219,6.219,0,0,0-1.758.88,2.887,2.887,0,0,1-.676.475,1.156,1.156,0,0,0-.473.271,3.059,3.059,0,0,1-.474.677,5.962,5.962,0,0,0-1.149,1.964,1.725,1.725,0,0,1-.27.61,3.929,3.929,0,0,0-.541,1.219,4.472,4.472,0,0,1-.338,1.016l-0.2.407v-0.2a1.505,1.505,0,0,1-.042-0.372,6.209,6.209,0,0,1,.649-2.269,1.643,1.643,0,0,0,.113-0.316c0-.024-0.016-0.024-0.045-0.024a2.39,2.39,0,0,0-.608.745,8.667,8.667,0,0,0-.271,1.016,11.33,11.33,0,0,0-.27,2.033,2.808,2.808,0,0,0,.068,1.151l0.068-.068c0-.011,0-0.017.011-0.017a0.5,0.5,0,0,1,.191.288,4.227,4.227,0,0,0,1.013,1.966,6.18,6.18,0,0,0,1.489,1.355,4.334,4.334,0,0,1,.879.677,5.647,5.647,0,0,0,1.825,1.286,0.608,0.608,0,0,1,.406.408,0.455,0.455,0,0,0,.2.27,0.98,0.98,0,0,1,.271.136,0.157,0.157,0,0,1,.112.117,0.122,0.122,0,0,1-.045.085,0.306,0.306,0,0,0-.141.247,0.077,0.077,0,0,0,.074.093l0.2-.136a1.079,1.079,0,0,1,.675-0.136,2.773,2.773,0,0,0,.812-0.068,2.58,2.58,0,0,1,.811-0.067,6.257,6.257,0,0,0,1.15-.067,4.382,4.382,0,0,1,.743-0.136,2.085,2.085,0,0,0,.541-0.136,1.1,1.1,0,0,1,.456-0.162,0.476,0.476,0,0,1,.152.026,10.525,10.525,0,0,0,1.894.34,1.635,1.635,0,0,1,1.216.88,4.5,4.5,0,0,0,.338.474,0.067,0.067,0,0,1,.022.05,6.332,6.332,0,0,1-1.441,1.712,24.805,24.805,0,0,1-3.313,3.116,9.094,9.094,0,0,1-2.636,1.491,11.954,11.954,0,0,0-3.381,1.625H194l-0.068.135-0.134.069a0.055,0.055,0,0,0-.038-0.019,0.741,0.741,0,0,0-.233.222,0.516,0.516,0,0,1-.27.271,0.449,0.449,0,0,0-.257.483,0.594,0.594,0,0,0,.054.262,0.2,0.2,0,0,1,.026.085,0.69,0.69,0,0,1-.161.253c-0.406.475-.542,0.813-0.542,2.168a11.545,11.545,0,0,1-.2,2.371,8.9,8.9,0,0,0-.139,1.336,2.447,2.447,0,0,0,.273,1.171,5.01,5.01,0,0,0,1.421,1.557,1.973,1.973,0,0,0,.947.543,5.77,5.77,0,0,1,.81.271,2.588,2.588,0,0,0,1.083.2l0.608,0.067,0.745-.405a4.386,4.386,0,0,1,1.22-.524,0.175,0.175,0,0,1,.131.049,0.259,0.259,0,0,0,.131.03,8.01,8.01,0,0,0,1.694-.5,5.5,5.5,0,0,0,2.232-1.084,1.967,1.967,0,0,1,.4-0.271l0.068-.068a1.261,1.261,0,0,1,1.083-.338,1.465,1.465,0,0,0,1.216-.475,2.435,2.435,0,0,1,1.014-.676,2.932,2.932,0,0,1,1.007-.19,3.6,3.6,0,0,1,1.63.46,3.776,3.776,0,0,1,.541.339l0.2,0.136-0.338.676a14.759,14.759,0,0,1-2.771,3.727c-0.474.474-1.082,1.083-1.351,1.422a52.057,52.057,0,0,1-5,4.674,54.638,54.638,0,0,1-10.142,6.639,23.648,23.648,0,0,1-3.314,1.084,22.525,22.525,0,0,1-3.4.708,0.652,0.652,0,0,1-.659-0.437l-0.135-.2,0.338-.339a0.741,0.741,0,0,0,.228-0.315,0.022,0.022,0,0,0-.025-0.024,1.369,1.369,0,0,0-.338.339,1.283,1.283,0,0,1-.541.339,0.969,0.969,0,0,1-.682-0.382,0.051,0.051,0,0,1,.006-0.025,0.16,0.16,0,0,1,.017-0.059,0.105,0.105,0,0,0-.085-0.009c-0.136,0-.136-0.067-0.136-0.135a1.678,1.678,0,0,1,.609-0.813c1.15-1.085,3.314-2.98,4.327-3.727a0.748,0.748,0,0,0,.338-0.337,0.673,0.673,0,0,1,.406-0.271,1.442,1.442,0,0,0,.474-0.339,1.118,1.118,0,0,1,.674-0.484,0.192,0.192,0,0,1,.069.01,0.07,0.07,0,0,1,.084.076c0,0.042-.018.093-0.018,0.127a0.1,0.1,0,0,0,.1.095,0.231,0.231,0,0,0,.1-0.027,0.4,0.4,0,0,1,.118-0.051c0.017,0,.017.016,0.017,0.051l0.068,0.134,0.2-.067a0.047,0.047,0,0,1,.058-0.05,0.765,0.765,0,0,1,.212.05,1.567,1.567,0,0,0,.276.1,0.081,0.081,0,0,0,.062-0.029,0.088,0.088,0,0,1,.064-0.027,1.535,1.535,0,0,1,.274.1,1.318,1.318,0,0,0,.474.068,0.257,0.257,0,0,1,.118-0.029,0.682,0.682,0,0,1,.288.1,1.613,1.613,0,0,0,.473.2,2.207,2.207,0,0,1,.541.2,0.215,0.215,0,0,0,.14.078,0.2,0.2,0,0,0,.13-0.078h0.2l0.135,0.135c0,0.068.135,0.068,0.338,0.068l0.337,0.068-0.134-.2a0.6,0.6,0,0,1-.1-0.314c0-.093.032-0.161,0.1-0.161a0.1,0.1,0,0,0,.094-0.122,0.231,0.231,0,0,0-.162-0.216,0.2,0.2,0,0,1-.152-0.161,0.128,0.128,0,0,1,.152-0.11c0.026,0,.036-0.019.036-0.051a0.859,0.859,0,0,0-.374-0.559l-0.2-.135-0.136-.136a0.292,0.292,0,0,1-.2-0.2,1.075,1.075,0,0,0-.608-0.61,0.944,0.944,0,0,1-.541-0.474,0.17,0.17,0,0,1-.021-0.079,2.354,2.354,0,0,1,.764-0.937,5.319,5.319,0,0,0,.653-0.709s0,0,0,0a2.116,2.116,0,0,0-.38.307,0.327,0.327,0,0,1-.271.134,3.059,3.059,0,0,0-.675.474,2.978,2.978,0,0,1-.676.474,0.522,0.522,0,0,1-.272-0.2,0.613,0.613,0,0,0-.337-0.2,2.445,2.445,0,0,1-.88.163,2.093,2.093,0,0,1-.338-0.027,2.753,2.753,0,0,0-.743-0.068c-0.2,0-.54-0.068-0.743-0.068-0.407-.068-2.705-0.135-3.583-0.135-1.353,0-1.691,0-1.826.135l-0.136.136H182.3a0.057,0.057,0,1,1,.068.068,0.306,0.306,0,0,1-.218.074,0.376,0.376,0,0,1-.322-0.142l0.067-.068,0.067-.068h-0.067c-0.067,0-.745.068-1.555,0.136a0.725,0.725,0,0,0-.406.136h-0.2a0.1,0.1,0,0,0-.078-0.029,1.376,1.376,0,0,0-.329.1c-0.271.066-1.689,0.338-1.825,0.338l-0.405-.813-0.068-.271a0.572,0.572,0,0,1-.112-0.271c0-.043.016-0.068,0.044-0.068l0.068-.2a0.289,0.289,0,0,1-.014-0.088,0.494,0.494,0,0,1,.284-0.454,1.155,1.155,0,0,0,.339-0.137,1.723,1.723,0,0,1,.473-0.135l0.336-.135a0.38,0.38,0,0,1,.153-0.075,0.023,0.023,0,0,1,.024.027,0.315,0.315,0,0,1-.04.116c0,0.018.005,0.026,0.016,0.026a1.356,1.356,0,0,0,.254-0.161,0.576,0.576,0,0,1,.412-0.177c0.1,0,.245.015,0.468,0.04,0.336,0,.743.069,0.81,0.069a13.082,13.082,0,0,0,1.69-.137,6.915,6.915,0,0,0,1.217-.542,0.071,0.071,0,0,0,.027-0.054,0.444,0.444,0,0,0-.162-0.216,0.549,0.549,0,0,1-.111-0.229,0.037,0.037,0,0,1,.043-0.042,2.159,2.159,0,0,0,.339-0.2,0.512,0.512,0,0,1,.27-0.067l0.2-.068a0.378,0.378,0,0,1,.262-0.1,0.229,0.229,0,0,1,.212.1l0.2,0.135,0.27,0.068a0.209,0.209,0,0,0,.271,0,0.375,0.375,0,0,1,.16-0.051,0.148,0.148,0,0,1,.11.051,1.515,1.515,0,0,0,.338.2,1.818,1.818,0,0,1,.339.137,2.908,2.908,0,0,0,.337.067,1.006,1.006,0,0,0,.609-0.135,1.709,1.709,0,0,1,.541-0.2,2.023,2.023,0,0,0,1.15-.812c0.134-.2.405-0.61,0.608-0.882s0.54-.744.743-1.083a5.435,5.435,0,0,1,.54-0.745,2.653,2.653,0,0,0,.677-1.356c0.136-.474.405-1.016,0.473-1.219l0.136-.406-0.136-.61a8.056,8.056,0,0,0-.946-2.235c-0.136-.2-0.338-0.541-0.541-0.813a6.173,6.173,0,0,0-1.286-1.491l-0.268-.135a6.426,6.426,0,0,0-1.015-.745c-1.149-.677-1.826-1.084-2.095-1.288a0.778,0.778,0,0,0-.547-0.223,0.621,0.621,0,0,0-.333.088,0.692,0.692,0,0,1-.321.05c-0.169,0-.422-0.016-0.828-0.05-0.338-.033-0.625-0.051-0.912-0.051s-0.576.018-.913,0.051a5.52,5.52,0,0,1-.651.05,0.513,0.513,0,0,1-.3-0.05h-0.2l-0.271.068a28.075,28.075,0,0,0-3.178.609,1.5,1.5,0,0,0-.541.339,0.612,0.612,0,0,1-.338.2,11.108,11.108,0,0,0-1.081.609,0.961,0.961,0,0,0-.2.271,1.48,1.48,0,0,1-.2.339l-0.473.475-0.339.406,0.135,0.2,0.2,0.068h0.2l0.2-.068a0.35,0.35,0,0,1,.151-0.026,3.444,3.444,0,0,1,.8.161,1.67,1.67,0,0,0,.541.068,3.96,3.96,0,0,0,1.285-.677l0.27-.2,0.539,0.2a3,3,0,0,0,.948.2,6.906,6.906,0,0,1,1.419.2s0,0,0,.007a22.16,22.16,0,0,1-1.085,2.5,10.676,10.676,0,0,1-2.3,2.778,2.385,2.385,0,0,1-1.026.552,0.113,0.113,0,0,1-.055-0.01,0.154,0.154,0,0,1-.1-0.094c0-.025.034-0.042,0.1-0.042s0.067-.135.067-0.406a1.959,1.959,0,0,0-.812-1.422c-0.743-.677-2.028-1.762-2.095-1.762a1.917,1.917,0,0,1-.54-0.339l-0.475-.338-0.473.136a0.748,0.748,0,0,0-.473.2l-0.2.136a0.459,0.459,0,0,0-.348.245,0.029,0.029,0,0,0,.01.027,0.023,0.023,0,0,1,.009.019,1.289,1.289,0,0,1-.619.386c-0.134.069-.2,0.069-0.2,0.137l-0.068.066a1.008,1.008,0,0,0-.271.136,2.072,2.072,0,0,1-.337.2,6.1,6.1,0,0,0-1.284,1.355,0.959,0.959,0,0,1-.27.339l-0.2.135,0.2,0.2a0.641,0.641,0,0,0,.32.207,0.027,0.027,0,0,0,.031-0.028,0.105,0.105,0,0,0-.014-0.043,0.1,0.1,0,0,1,.1-0.1,0.246,0.246,0,0,1,.1.028c0.09,0,.181.03,0.25,0.03a0.116,0.116,0,0,0,.088-0.03,0.412,0.412,0,0,1,.2-0.051,2.955,2.955,0,0,1,.405.051c0.218,0.056.393,0.154,0.488,0.154a0.071,0.071,0,0,0,.053-0.018,0.18,0.18,0,0,1,.082-0.017,0.456,0.456,0,0,1,.39.287,1.166,1.166,0,0,1,.095.463,1.891,1.891,0,0,1-.433,1.1c-0.066.135-.271,0.474-0.473,0.813a4.9,4.9,0,0,1-.473.746l-0.134.2-0.474-.338a12.61,12.61,0,0,1-3.516-4.472,2.309,2.309,0,0,1-.473-1.355,1.982,1.982,0,0,1,.135-0.542l-0.066-.135c-0.081,0-.113-0.093-0.113-0.2a0.494,0.494,0,0,1,.044-0.209,2.4,2.4,0,0,1,.405-0.2,1.8,1.8,0,0,0,.88-0.879c0-.1,0-0.163-0.054-0.163a0.206,0.206,0,0,0-.082.027,2.319,2.319,0,0,0-.811.609,5.2,5.2,0,0,1-.811.677,11.369,11.369,0,0,0-2.57,2.575l-0.2.406,0.2,0.61a4.483,4.483,0,0,0,.406.812,0.626,0.626,0,0,1,.2.339,1.058,1.058,0,0,0,.2.407,3.565,3.565,0,0,1,.339.745,8.769,8.769,0,0,0,1.216,2.371,13.624,13.624,0,0,0,2.569,2.642,1.745,1.745,0,0,0,.617.363,0.08,0.08,0,0,0,.06-0.024,0.732,0.732,0,0,1,.54-0.135h0.474l-0.134-.2a1.132,1.132,0,0,1-.136-0.338c0-.112.02-0.163,0.084-0.163a0.728,0.728,0,0,1,.254.094h0.135v-0.135c-0.031,0-.045-0.011-0.045-0.029a1.3,1.3,0,0,1,.654-0.512,1.438,1.438,0,0,1,.3-0.041,1.486,1.486,0,0,1,.582.175c1.353,0.474,1.691.882,1.76,1.83a5.293,5.293,0,0,0,.134,1.016,4.151,4.151,0,0,1,.068.88v0.339l-0.405.135a2.226,2.226,0,0,0-.475.136,0.5,0.5,0,0,1-.336.068,1.251,1.251,0,0,0-.475.136,4.824,4.824,0,0,1-1.284.406,1.431,1.431,0,0,0-.676.271,1.443,1.443,0,0,1-.66.206c-0.092,0-.151-0.023-0.151-0.071,0-.017-0.017-0.025-0.051-0.025a3.229,3.229,0,0,0-.761.229,1.79,1.79,0,0,1-.675.2,0.735,0.735,0,0,0-.406.135l-0.2.137a17.005,17.005,0,0,0-1.961.813c-1.014.474-1.96,0.948-2.163,1.016a9.252,9.252,0,0,0-.879.406,6.2,6.2,0,0,1-.946.475,5.141,5.141,0,0,0-1.15.474,5.707,5.707,0,0,0-.811.339l-0.135.135-0.136.136-0.135.2-0.068.135-0.135.135a1.469,1.469,0,0,1-.675.543c-0.2.066-.2,0.067-0.2,0.261v0.009a0.317,0.317,0,0,1-.135.339,1.8,1.8,0,0,0-.676.745v0a0.291,0.291,0,0,1-.2.2,0.149,0.149,0,0,0-.1.177,0.256,0.256,0,0,0,.1.229,0.25,0.25,0,0,0,.113.025,0.319,0.319,0,0,0,.09-0.012,0.766,0.766,0,0,0,.337-0.216,0.564,0.564,0,0,1,.542-0.2,1.87,1.87,0,0,0,.541-0.069,2.19,2.19,0,0,1,.339-0.025,4.192,4.192,0,0,1,1.284.229,1.018,1.018,0,0,0,.368.074,3.357,3.357,0,0,0,1.592-.819,18.365,18.365,0,0,0,1.69-1.219,6.17,6.17,0,0,1,1.149-.813c0.2-.068.61-0.339,0.88-0.474a3.226,3.226,0,0,1,.675-0.271,2.925,2.925,0,0,0,1.015-.542,1.892,1.892,0,0,1,.744-0.339c0.269-.136.743-0.271,1.014-0.407a1.991,1.991,0,0,1,.608-0.2l0.27-.067a5.242,5.242,0,0,1,.609-0.271,0.854,0.854,0,0,1,.3-0.078,0.205,0.205,0,0,1,.169.078h0.068a3.509,3.509,0,0,1,1.7-.684,0.451,0.451,0,0,1,.06.005h0.2l0.27-.2,0.2-.068V276.3c0.067,0.406.135,3.725,0.135,4.268,0,0.745-.405,4.2-0.473,4.4a8.192,8.192,0,0,1-.609.813,2.962,2.962,0,0,0-.473.678l-0.136.27a0.206,0.206,0,0,0-.027.092,0.569,0.569,0,0,0,.095.18c0.068,0.067.27,0.405,0.473,0.676a17.339,17.339,0,0,0,2.3,2.507,0.325,0.325,0,0,0,.1.041,0.015,0.015,0,0,0,.014-0.018,0.72,0.72,0,0,0-.045-0.159,0.338,0.338,0,0,1-.017-0.087,0.068,0.068,0,0,1,.079-0.074,0.738,0.738,0,0,1,.277.093,0.661,0.661,0,0,0,.355.1,0.279,0.279,0,0,0,.254-0.1,0.082,0.082,0,0,1,.061-0.028,0.674,0.674,0,0,1,.208.1,1.376,1.376,0,0,0,.156.1,0.074,0.074,0,0,0,.048-0.029,1.412,1.412,0,0,0,.338-0.813,1.276,1.276,0,0,1,.135-0.542,0.381,0.381,0,0,0,.045-0.174,0.859,0.859,0,0,0-.113-0.368,5.46,5.46,0,0,1-.405-2.438,5.269,5.269,0,0,0-.2-1.626,14.582,14.582,0,0,1-.2-1.626c0-.542-0.135-1.423-0.135-1.829v-0.038a2,2,0,0,1,.068-0.843,0.128,0.128,0,0,1,.051-0.073,0.222,0.222,0,0,1,.016.141,0.2,0.2,0,0,0,0,.074c0.006,0,.022-0.058.063-0.142a4.091,4.091,0,0,0,.135-1.287c0.068-1.422.2-2.032,0.745-2.642a1.078,1.078,0,0,0,.338-0.609,0.724,0.724,0,0,1,.2-0.474,0.518,0.518,0,0,1,.371-0.23,0.711,0.711,0,0,1,.169.026l0.135-.068,0.068-.068,0.135,0.068a0.053,0.053,0,0,0-.017.029c0,0.011.009,0.015,0.028,0.015a0.561,0.561,0,0,0,.259-0.112,1.165,1.165,0,0,1,.339-0.135,5.4,5.4,0,0,0,.609-0.135,5.277,5.277,0,0,1,.878-0.2,1.215,1.215,0,0,1,.231-0.028c0.093,0,.131.021,0.13,0.052a0.068,0.068,0,0,1-.023.043,0.1,0.1,0,0,0-.018.044c0,0.028.029,0.04,0.079,0.04a2.239,2.239,0,0,0,.819-0.287,0.967,0.967,0,0,1,.3-0.152c0.041,0,.041.05,0.041,0.152,0,0.067.068,0.1,0.187,0.1a1.7,1.7,0,0,0,.491-0.1,0.745,0.745,0,0,1,.227-0.051,0.375,0.375,0,0,1,.177.051,0.4,0.4,0,0,0,.188.045,1.679,1.679,0,0,0,.49-0.113,8.236,8.236,0,0,1,.945-0.2,1.147,1.147,0,0,1,.205-0.027c0.134,0,.134.062,0.134,0.163l-0.068.135-0.135.136a0.091,0.091,0,0,0,.11.111,1.745,1.745,0,0,0,.295-0.044c0.2,0,.947-0.067,1.69-0.067a4.574,4.574,0,0,1,1.42.067l0.068,0.136-0.068.068a1.264,1.264,0,0,0,.812,0,0.412,0.412,0,0,1,.336-0.068,0.418,0.418,0,0,1,.241.019,0.106,0.106,0,0,1-.036.049V274.4l0.067,0.067c-0.067.068-.542,0.475-1.217,1.016-2.231,1.9-4.529,4.066-6.963,6.436a8.727,8.727,0,0,1-1.285,1.152l-0.136.2-0.27.2a0.507,0.507,0,0,0-.337.474l-0.068.136c-0.013,0-.018.013-0.018,0.037a3.2,3.2,0,0,0,.22.708c0.136,0.407.406,0.813,0.473,1.016,0.136,0.339.2,0.339,0.271,0.339a0.905,0.905,0,0,1,.54.135,1.1,1.1,0,0,0,.523.206,0.389,0.389,0,0,0,.221-0.069,0.073,0.073,0,0,0,.027-0.043,0.185,0.185,0,0,0-.161-0.026,0.667,0.667,0,0,1-.162.044c-0.041,0-.041-0.031-0.041-0.107v0a0.482,0.482,0,0,1,.454-0.416,0.323,0.323,0,0,1,.087.01,6.517,6.517,0,0,0,.81.135,4.547,4.547,0,0,1,.811.2,1.326,1.326,0,0,0,.335.044,3.6,3.6,0,0,0,.748-0.112c0.1,0,.162-0.037.161-0.082a0.085,0.085,0,0,0-.026-0.054,0.062,0.062,0,0,1-.024-0.035c0-.01.013-0.015,0.041-0.015a2.22,2.22,0,0,1,.32.05,1.734,1.734,0,0,0,.745-0.135,1.464,1.464,0,0,1,.382-0.1,0.129,0.129,0,0,1,.091.027,1.962,1.962,0,0,0,.608-0.2,2.165,2.165,0,0,0,.879-0.542,2.1,2.1,0,0,1,.473-0.339,7.912,7.912,0,0,0,1.216-.406,6.742,6.742,0,0,0,2.1-1.016,3.168,3.168,0,0,1,.676-0.339,7.669,7.669,0,0,0,.947-0.542,35.258,35.258,0,0,1,3.043-1.829c0.675-.406,1.554-0.948,1.892-1.151a2.023,2.023,0,0,1,.744-0.407c0.067,0,.474-0.338,1.082-0.677a6.65,6.65,0,0,1,1.15-.678,0.746,0.746,0,0,0,.405-0.2,1.923,1.923,0,0,1,.608-0.406,1.474,1.474,0,0,0,.541-0.339,0.738,0.738,0,0,1,.406-0.2,2.737,2.737,0,0,0,.473-0.136,3.248,3.248,0,0,1,.608-0.2,1.751,1.751,0,0,0,.947-0.61,0.527,0.527,0,0,1,.54-0.27c0.271,0,.271,0,0.271-0.135a0.76,0.76,0,0,1,.339-0.542,5.527,5.527,0,0,0,.743-0.61,3.212,3.212,0,0,1,1.014-.678,2.576,2.576,0,0,0,1.216-.948,13.238,13.238,0,0,1,1.218-1.152,12.231,12.231,0,0,0,2.231-2.1,5.416,5.416,0,0,1,.946-0.947,4.509,4.509,0,0,0,.813-0.611,4.577,4.577,0,0,1,.809-0.61c0.068,0,.068-0.067.137-0.2a1.945,1.945,0,0,1,.54-0.474,6.864,6.864,0,0,1,1.083-.677c0.067-.067.2-0.271,0.471-0.609,0.407-.543.474-0.61,0.677-0.61a2.076,2.076,0,0,0,1.42-1.558,0.846,0.846,0,0,0,.045-0.282A3.655,3.655,0,0,0,217.59,261.872Zm-7.977-1.762a0.548,0.548,0,0,0-.355.4,0.159,0.159,0,0,0,.017.075,0.038,0.038,0,0,1,0,.01,4.675,4.675,0,0,1-1.894.4,1.5,1.5,0,0,0-.542.067,1.967,1.967,0,0,1-.675.2,0.87,0.87,0,0,0-.474.068,5.073,5.073,0,0,1-1.757.338,8.436,8.436,0,0,0-2.029.339,0.435,0.435,0,0,1-.128.028c-0.034,0-.047-0.012-0.047-0.029a0.119,0.119,0,0,1,.04-0.067,0.152,0.152,0,0,0,.022-0.07c0-.065-0.111-0.065-0.428-0.065a0.71,0.71,0,0,1-.506-0.076,0.377,0.377,0,0,1,.236-0.128c0.676-.2,4.4-1.151,5.612-1.421a11.311,11.311,0,0,1,2.153-.272,3.922,3.922,0,0,1,.754.067h0.271Zm-35.36,6.232a16.1,16.1,0,0,1-2.3.61c-0.2,0-.27,0-0.337-0.136a0.225,0.225,0,0,1-.008-0.061,3.22,3.22,0,0,1,.819-1.5,2.983,2.983,0,0,1,1.244-.752,0.093,0.093,0,0,1,.04.007,0.184,0.184,0,0,0,.086.019,0.325,0.325,0,0,0,.319-0.222,1.044,1.044,0,0,1,.744-0.136,0.878,0.878,0,0,1,.677.068l0.134,0.2a0.146,0.146,0,0,0,.114.044,2.319,2.319,0,0,0,.5-0.112,11.985,11.985,0,0,1,1.815-.191,0.385,0.385,0,0,1,.283.046,0.013,0.013,0,0,1,0,.009,3.426,3.426,0,0,1-1.082.61l-0.134.068A29.6,29.6,0,0,1,174.253,266.342Zm29.207,6.843c-0.338.27-1.081,0.88-1.555,1.354a48.512,48.512,0,0,1-9.465,6.233,8.475,8.475,0,0,1-2.052.96,0.064,0.064,0,0,1-.044-0.012,0.038,0.038,0,0,1-.009-0.025,1.646,1.646,0,0,1,.754-0.517,77.265,77.265,0,0,0,8.113-4.946c2.23-1.625,3.312-2.438,3.718-2.777a8.481,8.481,0,0,1,1.148-.88A2.326,2.326,0,0,1,203.46,273.185Zm-39.347-79.4,0.135-.271,0.135-.135-0.2.135a2.175,2.175,0,0,0-.271.406l-0.134.2,0.134-.136A0.29,0.29,0,0,0,164.113,193.79Zm9.6,11.991-0.068.136h0.068v-0.136Zm-18.821,53.4a0.066,0.066,0,0,0,.027.047,0.079,0.079,0,0,1,.023.051,0.92,0.92,0,0,1-.3.356,0.611,0.611,0,0,0-.3.411,0.3,0.3,0,0,0,.034.132,0.269,0.269,0,0,0,.24.171,0.508,0.508,0,0,0,.37-0.24l0.067-.066V259.03a0.259,0.259,0,0,0-.161.152M173.984,280.3l0.067,0.067V280.23Zm-5.477-5.759a0.152,0.152,0,0,0-.094.08c0,0.01.01,0.016,0.034,0.016a0.486,0.486,0,0,0,.128-0.028,0.785,0.785,0,0,0,.365-0.118,0.111,0.111,0,0,0-.095-0.018Zm5.814-26.487c0.136-.067.2-0.067,0.2-0.135s0.134-.068.27-0.068a3.176,3.176,0,0,0,.608-0.2,3.875,3.875,0,0,1,1.546-.324,0.75,0.75,0,0,1,.347.054,0.022,0.022,0,0,1,.013.023,10.463,10.463,0,0,1-2.041,2.145l-0.947.879-1.149.272c-0.609.2-1.42,0.406-1.825,0.542a3.11,3.11,0,0,1-.66.152c-0.042,0-.064-0.009-0.064-0.027a0.245,0.245,0,0,1,.115-0.125,0.157,0.157,0,0,0,.113-0.131,0.353,0.353,0,0,0-.045-0.14,0.83,0.83,0,0,1-.071-0.293,0.528,0.528,0,0,1,.2-0.384,1.959,1.959,0,0,0,.541-0.745,3.841,3.841,0,0,1,1.421-1.152,3.919,3.919,0,0,1,.712-0.317c0.008,0,.012,0,0.013,0a0.355,0.355,0,0,1-.117.109l-0.135.135h0.2a0.765,0.765,0,0,0,.407-0.2,0.488,0.488,0,0,1,.125-0.112c0.009,0,.009.017,0.009,0.045s0,0.05.026,0.05a0.832,0.832,0,0,0,.177-0.05m0.677-25.4a1.125,1.125,0,0,0-.473.406,6.064,6.064,0,0,1-3.044,1.558,2.083,2.083,0,0,0-1.082.61,5.735,5.735,0,0,0-1.148,1.559,1.458,1.458,0,0,1-.27.405,0.433,0.433,0,0,0-.162.295,0.456,0.456,0,0,0,.094.247,0.238,0.238,0,0,1,.094.167,0.215,0.215,0,0,1-.026.1,0.164,0.164,0,0,0-.009.06,3.2,3.2,0,0,0,.886,1.362,7.65,7.65,0,0,1,.746.881l0.269,0.34-0.067.542a8.042,8.042,0,0,1-.811,2.234,21.118,21.118,0,0,1-2.976,3.861c-0.337.407-.675,0.814-0.743,0.882a0.341,0.341,0,0,0-.026.155,4.747,4.747,0,0,0,.769,2.013,1.9,1.9,0,0,0,1.016.88,0.465,0.465,0,0,1,.337.2A39.625,39.625,0,0,1,165.6,244.6a10.788,10.788,0,0,0-1.961,2.573,2.247,2.247,0,0,0-.216.918,1.7,1.7,0,0,0,.352,1.047,2.934,2.934,0,0,1,.27.474,6.057,6.057,0,0,1,.338.61,2.934,2.934,0,0,1,.474.677,2.916,2.916,0,0,0,1.284,1.423,5.612,5.612,0,0,1,.744.61c0,0.067-7.031,2.709-7.5,2.845a1.732,1.732,0,0,0-.947.542,0.326,0.326,0,0,1-.27.067,0.285,0.285,0,0,0-.288.26,0.175,0.175,0,0,0,.017.079l-0.135.068a0.319,0.319,0,0,0-.338.338,0.364,0.364,0,0,1-.27.272,0.311,0.311,0,0,0-.162.093,0.069,0.069,0,0,0,.026.042l-0.337.135-0.067.068-0.136.136c-0.133,0-.135.066-0.135,0.132v0l-0.068.067a0.985,0.985,0,0,0-.271.135,0.453,0.453,0,0,0-.162.216,0.084,0.084,0,0,0,.027.056,0.1,0.1,0,0,1,.045.059,0.2,0.2,0,0,1-.112.077l-0.2.134a1.042,1.042,0,0,0-.406.2c-0.053.026-.1,0.049-0.135,0.071v1.014a0.359,0.359,0,0,1,.27-0.137,0.989,0.989,0,0,0,.541-0.338,13.655,13.655,0,0,1,5.477-1.83,6.213,6.213,0,0,0,2.164-.813c0.134-.068,1.013-0.338,1.96-0.677s1.825-.61,1.893-0.678a1.643,1.643,0,0,1,.473-0.2c0.2-.067.609-0.2,0.744-0.271a0.618,0.618,0,0,1,.338-0.2,3.054,3.054,0,0,0,.743-0.2c0.407-.135.948-0.338,1.284-0.406,0.2-.068.812-0.271,1.151-0.406a2.865,2.865,0,0,1,.675-0.2c0.068,0,.406-0.137.677-0.2a4.951,4.951,0,0,1,.81-0.136,0.4,0.4,0,0,0,.338-0.135,0.327,0.327,0,0,1,.271-0.068l0.2-.069-0.134.2a2.85,2.85,0,0,1-1.285.61,0.4,0.4,0,0,0-.228.124c0,0.008.009,0.011,0.026,0.011a0.008,0.008,0,0,1,.009.007,3.951,3.951,0,0,1-1.159.806c-0.675.406-1.42,0.813-1.689,0.949-0.068.067-.677,0.474-0.948,0.678a3.966,3.966,0,0,1-.607.541,6.982,6.982,0,0,0-1.286,1.017,0.014,0.014,0,0,0,.015.017c0.037,0,.147-0.1.257-0.153a0.617,0.617,0,0,1,.265-0.079c0.058,0,.089.019,0.089,0.044a0.052,0.052,0,0,1-.017.035,0.039,0.039,0,0,0-.013.016l0,0c0.021,0,.2-0.111.417-0.222,0.743-.474,3.177-1.761,4.665-2.506,0.743-.406,1.757-0.949,2.23-1.219a5.154,5.154,0,0,1,1.014-.474,3.1,3.1,0,0,0,.948-0.475,1.293,1.293,0,0,1,.54-0.271,2.716,2.716,0,0,0,1.015-.542,2.491,2.491,0,0,1,.945-0.406,3.05,3.05,0,0,0,.339-0.136c0.2-.067.675-0.2,1.014-0.271a6.966,6.966,0,0,0,.946-0.2,1.526,1.526,0,0,1,.449-0.1,0.5,0.5,0,0,1,.294.1l0.2,0.136-0.136.135a0.274,0.274,0,0,0-.078.046,0.02,0.02,0,0,0,.019,0c0.042,0,.16-0.016.4-0.05a2.186,2.186,0,0,1,.3-0.026,0.267,0.267,0,0,1,.307.162,0.57,0.57,0,0,0,.5.221,0.943,0.943,0,0,0,.178-0.018,0.7,0.7,0,0,1,.227-0.045,0.542,0.542,0,0,1,.314.113,0.818,0.818,0,0,0,.554.176,5.043,5.043,0,0,0,.528-0.041,3.119,3.119,0,0,1,.6-0.043,9.277,9.277,0,0,1,2.509.314,1.525,1.525,0,0,0,.539.113,0.319,0.319,0,0,0,.2-0.045v-0.2a0.454,0.454,0,0,1-.029-0.117c0-.09.125-0.1,0.638-0.154a0.911,0.911,0,0,0,.422-0.107,0.045,0.045,0,0,0-.016-0.029,2.92,2.92,0,0,1-.068-0.339,0.97,0.97,0,0,0-.135-0.406,0.714,0.714,0,0,1-.1-0.263,0.1,0.1,0,0,1,.029-0.076,0.1,0.1,0,0,0,.008-0.042,4.2,4.2,0,0,0-1.158-1.448,14.184,14.184,0,0,1-1.218-1.355,0.627,0.627,0,0,0-.335-0.372,0.472,0.472,0,0,0-.137.034,10.093,10.093,0,0,1-2.163.135c-0.812,0-.812,0-0.812-0.135a0.618,0.618,0,0,1,.2-0.34,1.62,1.62,0,0,0,.431-1.132,3.635,3.635,0,0,0-.094-0.764,2.059,2.059,0,0,0-.405-1.016,7.434,7.434,0,0,0-1.487-1.423,9.517,9.517,0,0,1-.745-0.609,0.463,0.463,0,0,0-.269-0.163,0.089,0.089,0,0,0-.068.027l-0.068.136c0,0.067-.067.067-0.338,0.067a1.324,1.324,0,0,0-.54.067c-0.136,0-.745.2-1.353,0.34a18.936,18.936,0,0,0-2.1.609,32.724,32.724,0,0,1-3.514,1.151l-0.473.137,0.27-.272a7.779,7.779,0,0,1,3.448-1.828,7.451,7.451,0,0,0,2.5-1.084,1.845,1.845,0,0,1,.472-0.272l0.137-.134a0.321,0.321,0,0,1,.269-0.068c0.135,0,.339-0.068.406-0.068a0.162,0.162,0,0,0,.113-0.119,0.128,0.128,0,0,0-.045-0.085,0.157,0.157,0,0,1-.055-0.113,0.319,0.319,0,0,1,.257-0.225,0.289,0.289,0,0,0,.2-0.2,0.29,0.29,0,0,1,.2-0.2,0.323,0.323,0,0,0,.135-0.339c0-.207.079-0.294,0.177-0.294a0.211,0.211,0,0,1,.094.024c0.028,0,.045,0,0.045-0.015a0.761,0.761,0,0,0-.113-0.189,0.725,0.725,0,0,1-.122-0.338,0.09,0.09,0,0,1,.08-0.111,0.215,0.215,0,0,1,.11.043,0.374,0.374,0,0,0,.115.018,0.28,0.28,0,0,0,.3-0.178,0.1,0.1,0,0,0-.011-0.044,3.838,3.838,0,0,1-.067-0.474v-0.013a0.728,0.728,0,0,1,.067-0.461l0.068-.2a7.506,7.506,0,0,1-.473-1.76,2.518,2.518,0,0,1,.27-0.746c0.18-.406.271-0.542,0.271-0.567a0,0,0,0,0,0,0,0.392,0.392,0,0,0-.063.029,0.044,0.044,0,0,1-.05-0.051,0.4,0.4,0,0,1,.05-0.152,2.5,2.5,0,0,0,.051-0.465,0.226,0.226,0,0,0-.051-0.211c-0.068,0-.068-0.137-0.068-0.272a1.657,1.657,0,0,1,.03-0.247c0-.017-0.008-0.023-0.03-0.023-0.2,0-.2-0.272-0.2-0.882a2.77,2.77,0,0,0,.019-0.327,2.554,2.554,0,0,0-.289-1.231,1.652,1.652,0,0,1-.2-0.474,5.109,5.109,0,0,0-.878-1.558c-0.2-.271-0.406-0.678-0.608-0.949a15.156,15.156,0,0,0-4.4-4.4,1.708,1.708,0,0,0-1.149-.406,6.936,6.936,0,0,0-.743.068m7.977,77.41c-0.2-.407-0.541-0.948-0.676-1.219a5.215,5.215,0,0,0-1.622-2.032,18.732,18.732,0,0,0-4.395-3.117,4.5,4.5,0,0,0-1.294-.59,0.17,0.17,0,0,0-.126.048l-0.067.2a2.226,2.226,0,0,1-.474,1.084c-0.068.068-.539,0.2-0.946,0.406a4.183,4.183,0,0,0-1.96,1.558,5.609,5.609,0,0,0-1.083,2.033,38.878,38.878,0,0,0-1.96,6.5c-0.609,2.912-3.448,13.142-3.989,14.429a3.148,3.148,0,0,0-.2.609l-0.067.2a1.732,1.732,0,0,0-.136.339c-0.068.134-.2,0.745-0.405,1.355-0.2.542-.406,1.286-0.473,1.558-0.2.61-.608,1.761-1.015,2.913-0.135.474-.473,1.558-0.812,2.438-0.27.881-.675,1.761-0.743,1.965a8.842,8.842,0,0,0-.27.948c-0.068.27-.338,1.084-0.609,1.761a15.115,15.115,0,0,0-.946,3.184,0.646,0.646,0,0,1-.136.474l-0.135.068a7.224,7.224,0,0,1-.337,1.287,2.1,2.1,0,0,0-.136.473,2.128,2.128,0,0,1-.135.475h0.135a7.312,7.312,0,0,1-.338,1.152l-0.068.2a0.151,0.151,0,0,1,.051.11,0.383,0.383,0,0,1-.051.161,0.255,0.255,0,0,0-.029.115c0,0.065.029,0.111,0.029,0.156,0,0,0,0,0,0,0.025,0,.4-0.922,1.96-5.559,0.541-1.558.947-2.777,1.014-2.845,0.013-.011.018-0.018,0.019-0.018a0.464,0.464,0,0,0-.086.221,0.19,0.19,0,0,0,.026.163,0.075,0.075,0,0,0,.041-0.026l0.136-.069a0.113,0.113,0,0,1,.026.084,2.632,2.632,0,0,1-.162.594,16.6,16.6,0,0,0-.675,2.37,40.5,40.5,0,0,1-1.826,5.15c-0.271.541-.406,0.947-0.474,1.015a3.631,3.631,0,0,0-.269.745,23.094,23.094,0,0,1-1.083,2.574,18.971,18.971,0,0,0-1.149,2.143c-0.025.056-.048,0.11-0.067,0.16a9.446,9.446,0,0,0-.61,2.372l-0.067.271,0.2-.2c0.054-.108.279-0.431,0.541-0.8l0.2-.287a26.314,26.314,0,0,1,2.029-2.776,7.361,7.361,0,0,0,1.419-2.71,5.831,5.831,0,0,1,.946-1.83,2.635,2.635,0,0,0,.2-0.27,3.522,3.522,0,0,1,.27-0.542,3.781,3.781,0,0,0,.27-0.542,0.985,0.985,0,0,1,.135-0.271c0.068-.136.27-0.339,0.406-0.609a3.436,3.436,0,0,1,.474-0.745l0.27-.272,0.338,0.134a1.5,1.5,0,0,0,.474.069,0.142,0.142,0,0,1,.066-0.01,5.765,5.765,0,0,1,1.42.416,3.975,3.975,0,0,1,.744.408l0.338,0.2V340.5a14.9,14.9,0,0,1-.4,2.373,3.544,3.544,0,0,1-.407.542,5.343,5.343,0,0,0-.88,1.76,0.317,0.317,0,0,1-.134.339l-0.068.068a0.526,0.526,0,0,1-.2.271,2.076,2.076,0,0,0-.338.474l-0.067.272,0.743,0.812a3.917,3.917,0,0,1,1.082,1.49,6.018,6.018,0,0,0,.879,1.219c0.27,0.34.676,0.813,0.811,1.017a20.807,20.807,0,0,0,2.231,2.1,2.1,2.1,0,0,0,.474.136l0.337,0.067,0.339-.338a3.089,3.089,0,0,0,.473-0.61,0.346,0.346,0,0,1,.405-0.271,0.677,0.677,0,0,0,.168.045c0.046,0,.064-0.033.1-0.113a0.508,0.508,0,0,1,.336-0.135c0.2,0,.2,0,0.339-0.34a4.74,4.74,0,0,1,.339-0.608,4.8,4.8,0,0,0,.161-1.933c0-.533-0.009-1.225-0.027-2.133-0.015-.629-0.028-1.112-0.028-1.521a14.874,14.874,0,0,1,.705-4.236,31.83,31.83,0,0,0,.878-4.133c0.068-.407.2-0.948,0.27-1.219a8.287,8.287,0,0,0,.407-1.423A3.438,3.438,0,0,1,175,332.914c0.541-.609,1.825-2.371,3.11-4.132a8.345,8.345,0,0,0,.971-1.471c0-.017-0.011-0.019-0.026-0.019-0.27,0-1.013.812-3.177,3.387-1.217,1.424-2.906,3.387-3.717,4.268s-1.894,2.032-2.435,2.575-0.946,1.083-1.014,1.083a4.78,4.78,0,0,1-.675-0.881,3.9,3.9,0,0,0-1.557-1.423l-0.878-.542-0.474.068a4.362,4.362,0,0,0-.676.2,1.1,1.1,0,0,1-.292.153,0.06,0.06,0,0,1-.045-0.018c0-.068,1.149-2.3,1.285-2.506a0.3,0.3,0,0,1,.125-0.1,0.147,0.147,0,0,1,.077.1,0.22,0.22,0,0,1,.027.107,1.155,1.155,0,0,1-.095.3,3.9,3.9,0,0,0-.27.474,0.468,0.468,0,0,0-.161.222c0,0.035.032,0.05,0.094,0.05l0.134-.137,0.069-.067a0.466,0.466,0,0,0,.2-0.271,2.314,2.314,0,0,1,.405-0.407,5.967,5.967,0,0,0,.88-1.693c0.338-.814.743-1.626,0.878-1.9,0.609-1.287.879-1.9,0.947-2.1a5.95,5.95,0,0,1,.811-1.625,4.668,4.668,0,0,0,.811-1.287,7.348,7.348,0,0,1,1.075-1.764,0.013,0.013,0,0,1,.008,0,0.047,0.047,0,0,1,0,.022,35.137,35.137,0,0,1-1.7,4.583c-0.339.747-.675,1.424-0.675,1.492l0.066,0.067a11.774,11.774,0,0,0,.948-2.032,17.989,17.989,0,0,1,1.014-2.168,4.717,4.717,0,0,0,.4-1.22,6.118,6.118,0,0,1,.339-1.016c0.135-.27.271-0.744,0.405-1.084a11.922,11.922,0,0,1,.811-1.761l0.205,0.136c0.134,0.067.134,0.135,0.134,0.339a17.67,17.67,0,0,1-.946,3.117l-0.136.269,0.27-.269a2.509,2.509,0,0,1,.473-0.407,3.037,3.037,0,0,0,.746-1.424,3.35,3.35,0,0,1,.655-1.427,0.039,0.039,0,0,1,.02.006,0.086,0.086,0,0,0,.041.01,0.711,0.711,0,0,0,.3-0.62,4.566,4.566,0,0,1,.2-0.543c0.066-.135.2-0.609,0.405-1.015a1.888,1.888,0,0,1,.406-0.678,0.776,0.776,0,0,0,.473-0.542c0.068-.136.271-0.744,0.541-1.287a10.039,10.039,0,0,0,.473-1.151l0.135-.272a9.929,9.929,0,0,0,1.218-2.437c0.134-.34.336-0.747,0.4-0.95a15.191,15.191,0,0,0,.678-1.761c0.134-.339.27-0.813,0.4-1.084a1.979,1.979,0,0,0,.222-0.489,0.074,0.074,0,0,0-.018-0.053,0.021,0.021,0,0,1-.006-0.02,8.775,8.775,0,0,1,.682-1.605,3.433,3.433,0,0,0,.2-0.475c0.069-.2.271-0.542,0.405-0.813s0.272-.609.339-0.745a5.362,5.362,0,0,1,1.216-1.965,0.679,0.679,0,0,0,.339-0.744A2.1,2.1,0,0,0,182.975,300.059Zm-24.812,38.817c0,0.135,0,.2-0.067.2-0.035,0-.051-0.035-0.051-0.086a0.422,0.422,0,0,1,.051-0.186,0.168,0.168,0,0,1,.075-0.123c0.012,0,.02.018,0.02,0.051A0.493,0.493,0,0,1,158.163,338.876Zm0.2-.678-0.067-.068,0.067-.067V338.2Zm1.893-1.965c-0.4,1.152-1.082,2.914-1.487,3.862-0.2.474-.473,1.016-0.541,1.219a0.861,0.861,0,0,1-.129.289s-0.006-.006-0.006-0.018a5.621,5.621,0,0,1,.27-0.745c0.406-.881.947-2.3,1.42-3.726a13.06,13.06,0,0,1,.541-1.355,0.983,0.983,0,0,0,.135-0.27l0.067-.068a0.054,0.054,0,0,1,.014.04A7.034,7.034,0,0,1,160.259,336.233Zm57.988,12.537a6.373,6.373,0,0,0,.155-0.885,9.409,9.409,0,0,0,.1-1.219,2.871,2.871,0,0,0-.1-0.813,2.5,2.5,0,0,1-.136-0.609,0.578,0.578,0,0,0-.019-0.123v3.649Zm-59.881-9.014c-0.117.411-.286,0.721-0.284,0.84a0.058,0.058,0,0,0,.014.042,0.032,0.032,0,0,0,.015.006,2.03,2.03,0,0,0,.322-0.819c0.117-.412.286-0.722,0.284-0.841a0.059,0.059,0,0,0-.013-0.042,0.025,0.025,0,0,0-.016-0.006,2.03,2.03,0,0,0-.322.82M199.2,319.568a2.477,2.477,0,0,0-.818,1.184,0.138,0.138,0,0,0,.005.037,0.024,0.024,0,0,0,.012,0,3.871,3.871,0,0,0,.935-1.019,0.7,0.7,0,0,0,.089-0.234,0.035,0.035,0,0,0-.039-0.038,0.535,0.535,0,0,0-.184.067m-13.861,16.259v0.137h-0.067Zm0.581-.832a1.363,1.363,0,0,1,.095-0.183,1.159,1.159,0,0,1,.2-0.292s0.006,0,.006.011a1.017,1.017,0,0,1-.071.212,0.459,0.459,0,0,1-.2.271c-0.02,0-.028,0-0.028-0.019m2.462-3.842a7.9,7.9,0,0,1,.947-1.83,5.942,5.942,0,0,1,1.471-1.561,0.022,0.022,0,0,1,.015,0,0.154,0.154,0,0,1,.112.144,0.656,0.656,0,0,1-.044.194,5.6,5.6,0,0,1-.609,1.084,1.581,1.581,0,0,0-.154.233,0.065,0.065,0,0,0,.019.039,0.03,0.03,0,0,0,.018.006,1.425,1.425,0,0,0,.523-0.616,0.515,0.515,0,0,1,.271-0.272,0.976,0.976,0,0,0,.406-0.339l0.135-.2,0.27,0.134c0.135,0.068.406,0.137,0.54,0.2a2.259,2.259,0,0,1,.407.2l0.2,0.069a2.54,2.54,0,0,1,.743.676c0.338,0.407.879,0.949,1.15,1.22a3.873,3.873,0,0,1,.946,1.355c0.2,0.473.473,1.016,0.542,1.219l0.134,0.406-0.134.137c-1.555,1.287-3.584,2.845-4.869,3.793-2.366,1.761-2.434,1.829-2.839,2.168a9.837,9.837,0,0,1-2.366,1.354,2.691,2.691,0,0,1-.865.281,0.4,0.4,0,0,1-.353-0.281,3.156,3.156,0,0,1-.287-1.317c0-.117,0-0.242.017-0.376,0-.226.03-0.48,0.03-0.665a0.533,0.533,0,0,0-.03-0.216,0.62,0.62,0,0,1-.044-0.194,0.155,0.155,0,0,1,.111-0.144,1.469,1.469,0,0,0,.284-0.841,0.336,0.336,0,0,0-.013-0.108v-0.339l0.068-.2,0.068,0.2a0.089,0.089,0,0,0,.043.057,0.291,0.291,0,0,0,.024-0.182v-0.01a0.465,0.465,0,0,1,.2-0.339l0.271-.135,0.134-.2v0.2a0.049,0.049,0,0,0,.01.046,0.354,0.354,0,0,0,.058-0.181,3.567,3.567,0,0,0,.552-1.166,0.14,0.14,0,0,0-.011-0.053v0a1.534,1.534,0,0,1,.067-0.471c0.068-.2.2-0.474,0.271-0.677a2.35,2.35,0,0,1,.2-0.543,9.2,9.2,0,0,0,.609-1.219,7.122,7.122,0,0,1,.462-1.089,0.018,0.018,0,0,1,.011,0,0.076,0.076,0,0,1,.018.059,4.3,4.3,0,0,1-.22.687c-0.117.352-.285,0.6-0.284,0.707a0.052,0.052,0,0,0,.013.038,0.026,0.026,0,0,0,.018.009,1.543,1.543,0,0,0,.321-0.619,2.556,2.556,0,0,1,.37-0.734,0.008,0.008,0,0,1,0,.008,0.425,0.425,0,0,1-.035.116v0.136Zm13.048-34.143a0.746,0.746,0,0,0-.338.272c0,0.067-.067.067-0.2,0.067a0.916,0.916,0,0,0-.474.2,0.6,0.6,0,0,1-.348.225,0.136,0.136,0,0,1-.124-0.088,0.017,0.017,0,0,0-.021-0.017,2.175,2.175,0,0,0-.722.491,4.046,4.046,0,0,1-.88.609,0.738,0.738,0,0,0-.4.2c-0.137.136-.611,0.407-1.015,0.677a14.678,14.678,0,0,0-4.26,3.93c-0.473.61-2.907,4.267-3.449,5.148-0.068.135-.336,0.339-0.473,0.542a17.227,17.227,0,0,0-1.622,2.913,8.858,8.858,0,0,1-.405.948v0.2l-0.068.068a0.469,0.469,0,0,0-.135.271,1.663,1.663,0,0,1-.474.813l-0.067.068a2.023,2.023,0,0,1-.2.677,4.1,4.1,0,0,0-.474.881,5.923,5.923,0,0,1-.406.881,2.693,2.693,0,0,0-.135.406,2.259,2.259,0,0,1-.2.407,2.051,2.051,0,0,0-.271.406,2.359,2.359,0,0,1-.2.407,1.162,1.162,0,0,1-.135.338,2.323,2.323,0,0,1-.2.407,8.171,8.171,0,0,0-.406.813,3.516,3.516,0,0,1-.338.812,0.522,0.522,0,0,0-.135.34,1.3,1.3,0,0,1-.2.609,1.362,1.362,0,0,0-.2.542,0.935,0.935,0,0,1-.135.2,0.861,0.861,0,0,0-.27.407l-0.135.339a1.639,1.639,0,0,0-.2.473,2.211,2.211,0,0,1-.2.406c0,0.068-.135.34-0.2,0.61a5.389,5.389,0,0,1-.339.948,1.555,1.555,0,0,0-.2.611l-0.2.2c-0.066,0-.067.131-0.067,0.265v0.006a2.927,2.927,0,0,1-.27.949,2.912,2.912,0,0,0-.137.541,3.963,3.963,0,0,1-.4,1.355v0.136l-0.068.338-0.135.339-0.068.2a1.451,1.451,0,0,0-.2.609,2.583,2.583,0,0,1-.2.746c-0.2.339-1.35,4.945-1.891,7.452-0.136.745-.339,1.49-0.339,1.559l-0.068.134-0.066.136-0.068.2a0.4,0.4,0,0,0-.3.254,0.2,0.2,0,0,0,.025.086,0.13,0.13,0,0,1,.045.059,0.191,0.191,0,0,1-.113.076,0.4,0.4,0,0,0-.287.328,0.168,0.168,0,0,0,.017.079l-0.068.135a0.42,0.42,0,0,0-.133.312,1.849,1.849,0,0,0,.336.84,13.1,13.1,0,0,0,3.043,3.794c1.623,1.557,2.366,2.031,3.38,2.3a3.149,3.149,0,0,0,.664.094,1.654,1.654,0,0,0,.688-0.162c0.2-.067.541-0.136,0.879-0.2a3.64,3.64,0,0,0,.811-0.271,2.356,2.356,0,0,1,.811-0.067c0.542,0,.609,0,0.609-0.271a8.5,8.5,0,0,1,1.082-1.828,3.222,3.222,0,0,0,.675-1.22,2.75,2.75,0,0,1,.137-0.475c0.066-.2.2-0.474,0.268-0.677a3.411,3.411,0,0,1,.813-1.22,55.518,55.518,0,0,1,5.341-5.216c0.608-.474,2.974-2.1,3.38-2.3a2.537,2.537,0,0,1,1.217-.474,1.622,1.622,0,0,1,.608.135A31.271,31.271,0,0,1,203.6,338c1.083,0.812,1.286,1.084,1.353,1.421a8.413,8.413,0,0,1,.337.949,1.942,1.942,0,0,1,.2,1.017c0,0.541-.135,2.234-0.2,2.71v0.337l-1.284.61c-1.69.813-3.313,1.559-6.083,2.777-3.584,1.627-6.492,3.05-7.709,3.727l-0.406.2h0.406a2.123,2.123,0,0,0,.754-0.127c-0.308.292-.987,0.849-1.429,1.23a5.762,5.762,0,0,0-1.15,1.219,3.362,3.362,0,0,0-.541,1.762,1.076,1.076,0,0,0,.136.676,0.719,0.719,0,0,0,.472.2,0.612,0.612,0,0,1,.407.34c0.066,0.135.336,0.407,0.473,0.609L189.6,358l-0.067.541a12.553,12.553,0,0,1-1.352,3.387c-0.136.27-.406,0.677-0.542,1.017a3.642,3.642,0,0,1-.676,1.083,3.483,3.483,0,0,0-.7,1.183c0,0.023.008,0.037,0.026,0.037a5.164,5.164,0,0,0,1.283-.745,5.226,5.226,0,0,1,1.692-.609,2.107,2.107,0,0,0,.54-0.272,2.507,2.507,0,0,1,.473-0.406c0.136-.068.339-0.2,0.473-0.271a5.312,5.312,0,0,1,1.759-.881,6.184,6.184,0,0,1,1.285-.136,3.43,3.43,0,0,1,1.419.2,3.137,3.137,0,0,0,.744.2l0.27,0.135a0.658,0.658,0,0,0,.456.229,0.477,0.477,0,0,0,.153-0.026,0.242,0.242,0,0,1,.1-0.029,0.246,0.246,0,0,1,.167.1h0.271a0.237,0.237,0,0,0,.167.1,0.258,0.258,0,0,0,.1-0.027,0.368,0.368,0,0,1,.177-0.053,0.736,0.736,0,0,1,.228.053,0.845,0.845,0,0,0,.406-0.069h0.134a0.966,0.966,0,0,0,.61.271,0.987,0.987,0,0,0,.234.026,0.376,0.376,0,0,0,.38-0.132,0.052,0.052,0,0,0-.007-0.029l0.068-.067a0.14,0.14,0,0,0,.051.009,0.978,0.978,0,0,0,.625-0.484,2.9,2.9,0,0,0,.137-1.037,7.544,7.544,0,0,0-.475-2.689,21.263,21.263,0,0,0-1.285-2.507,6.242,6.242,0,0,0-1.149-1.49,5.93,5.93,0,0,1-.946-1.151,7.9,7.9,0,0,0-2.366-2.372,8.491,8.491,0,0,0-.877-0.437c0.7-.257,1.4-0.543,2.229-0.937a14.822,14.822,0,0,1,2.231-.88,1.268,1.268,0,0,0,.81-0.272,0.146,0.146,0,0,0,.045-0.053,0.142,0.142,0,0,0-.112-0.014c-0.033,0-.049-0.006-0.049-0.015a1.091,1.091,0,0,1,.59-0.188,0.284,0.284,0,0,1,.3.12,0.11,0.11,0,0,1-.1.083,0.258,0.258,0,0,0-.107.068s0.005,0.006.015,0.006a4.261,4.261,0,0,0,.565-0.141,0.635,0.635,0,0,0,.372-0.187c0-.011-0.014-0.017-0.034-0.017a0.069,0.069,0,0,1-.025-0.05,0.282,0.282,0,0,1,.228-0.154,6.648,6.648,0,0,1,.677-0.2c0.2-.065.2-0.067,0.2-0.132h0c0-.068.135-0.068,1.15-0.068a4.986,4.986,0,0,1,2.366.473l0.337,0.136-0.4.068-0.339.136,0.473,0.067a2.567,2.567,0,0,1,1.218.406v0.2l-0.136.2c0,0.136.068,0.2,0.407,0.27a8.049,8.049,0,0,0,1,.052,6.858,6.858,0,0,0,.954-0.052,1.155,1.155,0,0,1,.214-0.028,4.139,4.139,0,0,1,1.341.57,3.29,3.29,0,0,0,1.644.363c0.2,0,.412-0.008.654-0.023a1.329,1.329,0,0,1,.542.067,1.234,1.234,0,0,0,.472.136,4.385,4.385,0,0,1,.746.135,1.758,1.758,0,0,0,.585.112,2.857,2.857,0,0,0,.429-0.043,3.655,3.655,0,0,0,1.621-.611,2.25,2.25,0,0,1,.677-0.27,1.48,1.48,0,0,0,.859-1.216v-3.649A3.6,3.6,0,0,0,218,344.5a4.7,4.7,0,0,1-.339-0.882,25.051,25.051,0,0,0-3.515-5.893c-0.136-.2-0.406-0.474-0.542-0.678a32.7,32.7,0,0,0-3.921-4.607,40.413,40.413,0,0,0-4.8-4.063c-0.473-.339-1.286-0.949-1.555-1.152a24.771,24.771,0,0,0-4.937-3.251,10.9,10.9,0,0,0-2.617-.822,0.43,0.43,0,0,0-.087.008,0.6,0.6,0,0,1-.1.013c-0.058,0-.084-0.017-0.084-0.055a1.9,1.9,0,0,1,.458-0.635,2.132,2.132,0,0,1,.417-0.383c0.008,0,.011.007,0.011,0.019a0.356,0.356,0,0,1-.022.092c0,0.015,0,.023.011,0.023a2.1,2.1,0,0,0,.4-0.5c0.269-.4.539-0.745,0.608-0.879a2.071,2.071,0,0,0,.338-0.475,1.591,1.591,0,0,1,.338-0.339,6.166,6.166,0,0,0,.54-0.61,4.043,4.043,0,0,1,1.062-1.158,0.03,0.03,0,0,1,.021.007,0.168,0.168,0,0,1,.044.122,0.561,0.561,0,0,1-.112.285c-0.068.134-.2,0.338-0.271,0.474a0.419,0.419,0,0,0-.024.1q0,0.021.012,0.021a1.289,1.289,0,0,0,.283-0.255,0.74,0.74,0,0,0,.228-0.314,0.022,0.022,0,0,0-.026-0.024l-0.067-.136A8.868,8.868,0,0,1,201.364,317a1.024,1.024,0,0,0,.406-0.272,5.47,5.47,0,0,1,.88-0.744c0.337-.272.743-0.474,0.81-0.542l0.338-.2a0.189,0.189,0,0,0,.207-0.1c0-.022-0.024-0.038-0.071-0.038a0.006,0.006,0,0,1-.006-0.006,6.307,6.307,0,0,1,1.087-1.01,7.5,7.5,0,0,0,1.285-1.22,3.806,3.806,0,0,1,.936-1.02,0.011,0.011,0,0,1,.01,0,0.009,0.009,0,0,0,.008,0,7.573,7.573,0,0,0,1.074-1.562,3.332,3.332,0,0,0,.288-0.565,0.055,0.055,0,0,0-.018-0.044,0.08,0.08,0,0,1-.025-0.057,0.439,0.439,0,0,1,.161-0.214l0.135-.2-0.135-.474c-0.068-.271-0.271-0.881-0.339-1.287a15.937,15.937,0,0,0-.946-3.251c-0.136-.272-0.338-0.679-0.474-0.881a9.7,9.7,0,0,1-.742-1.084,14.8,14.8,0,0,0-1.623-2.3c-0.542-.61-2.84-3.049-2.907-3.049a0.943,0.943,0,0,0-.271.135m15.212,114.844a10.685,10.685,0,0,0-1.893-2.1c-0.339-.271-0.88-0.813-1.15-1.083a12.593,12.593,0,0,0-1.08-.881,1.249,1.249,0,0,0-.88-0.407,0.794,0.794,0,0,1-.473-0.135,1.348,1.348,0,0,0-.609-0.067,0.529,0.529,0,0,1-.473-0.137l-0.068-.067v0.067a0.081,0.081,0,0,1,.025.038,0.429,0.429,0,0,1-.3.031,3.741,3.741,0,0,1-.473-0.069l-0.067-.134a0.111,0.111,0,0,0-.136-0.1,0.8,0.8,0,0,0-.338.1,0.653,0.653,0,0,1-.21.094,0.082,0.082,0,0,1-.061-0.027,0.354,0.354,0,0,0-.27-0.136,0.418,0.418,0,0,1-.271-0.2l-0.2-.068-0.135-.067a1.353,1.353,0,0,0-.61-0.067,1.041,1.041,0,0,0-.608.067,0.13,0.13,0,0,0-.043.054,0.151,0.151,0,0,0,.112.013l0.135,0.068a0.988,0.988,0,0,1-.281.018,22.82,22.82,0,0,1-3.032-.22,0.251,0.251,0,0,1-.172-0.059A2.4,2.4,0,0,1,204,406.3a2.292,2.292,0,0,0,.819-0.054,0.026,0.026,0,0,0-.008-0.014,3.113,3.113,0,0,0-1.014-.067h-1.013a2.112,2.112,0,0,0-.474-0.135,0.576,0.576,0,0,1-.456-0.085,0.073,0.073,0,0,1,.05-0.051,9.683,9.683,0,0,0,1.623-1.083c0.2-.136.406-0.339,0.54-0.406a3.928,3.928,0,0,0,1.15-1.492l0.2-.542V399.66c0-1.491,0-4.268-.067-6.233a17.592,17.592,0,0,0-.271-4.064,2.017,2.017,0,0,0-.2-0.677,2.559,2.559,0,0,1-.339-0.542,5.553,5.553,0,0,0-1.892-1.9,10.265,10.265,0,0,1-1.691-1.355,3.027,3.027,0,0,1,.541-0.2,17.471,17.471,0,0,0,3.448-1.9,1.407,1.407,0,0,1,.43-0.289,0.061,0.061,0,0,1,.043.017l0.135-.134a0.108,0.108,0,0,0,.045-0.066,0.326,0.326,0,0,0-.112-0.137,0.6,0.6,0,0,1-.191-0.434,1.018,1.018,0,0,1,.123-0.447,1.5,1.5,0,0,0,.254-0.686,0.54,0.54,0,0,0-.119-0.331,1.268,1.268,0,0,1-.135-0.474,2.05,2.05,0,0,0-.136-0.542,2.526,2.526,0,0,1-.134-0.609,0.558,0.558,0,0,1,.338-0.543,3.146,3.146,0,0,1,1.284-.2c0.5,0,.841-0.031,1.036-0.031a0.3,0.3,0,0,1,.181.031,1.526,1.526,0,0,0,.671.161,0.229,0.229,0,0,0,.14-0.026v-0.271c0-.136.068-0.136,0.2-0.136s0.2-.068.339-0.474a3.83,3.83,0,0,0,.134-0.677c0-.135.068-0.407,0.068-0.609a1.474,1.474,0,0,0-.134-0.746c-0.068-.2-0.407-0.745-0.61-1.22a10.149,10.149,0,0,0-.743-1.49,20.8,20.8,0,0,0-3.246-3.184,6.281,6.281,0,0,0-1.207-.773c-0.011,0-.015,0-0.015.01a0.038,0.038,0,0,0,0,.018,0.04,0.04,0,0,1,.008.023c0,0.024-.025.034-0.065,0.034a0.931,0.931,0,0,1-.483-0.192c-0.135-.2-0.405-0.272-1.825-0.272a5.967,5.967,0,0,1-1.691-.135,0.317,0.317,0,0,1-.162-0.072,0.168,0.168,0,0,1,.095-0.063l0.27-.271a1.417,1.417,0,0,1,.811-0.271,8.6,8.6,0,0,0,1.623-.474,16.2,16.2,0,0,1,2.028-.678,1.91,1.91,0,0,0,.54-0.067,3.131,3.131,0,0,1,.717-0.145,0.554,0.554,0,0,1,.433.212,1.6,1.6,0,0,1,.406.542,2.664,2.664,0,0,0,1.352.948,11.143,11.143,0,0,1,1.556.611,0.68,0.68,0,0,0,.23.044,3.522,3.522,0,0,0,.648-0.112,4.473,4.473,0,0,1,.818-0.089,2.764,2.764,0,0,1,1.075.224,2.216,2.216,0,0,0,.51.112,0.334,0.334,0,0,0,.166-0.044,0.8,0.8,0,0,0,.473-0.813l0.068-.542-0.27-.475a28.164,28.164,0,0,0-2.5-3.115,1.676,1.676,0,0,0-.388-0.391,0.136,0.136,0,0,0-.086.052l-0.134.068a0.519,0.519,0,0,0-.339-0.136,0.845,0.845,0,0,0-.31-0.071,0.418,0.418,0,0,0-.366.207c0,0.023-.029.03-0.087,0.03-0.116,0-.34-0.03-0.656-0.03-0.317-.02-0.773-0.029-1.289-0.029-1.243,0-2.834.049-3.647,0.1a50.124,50.124,0,0,0-14.805,3.388c-0.609.2-1.15,0.4-1.218,0.4a0.969,0.969,0,0,0-.27.135,1.246,1.246,0,0,1-.474.136,0.17,0.17,0,0,0-.2.136,1.655,1.655,0,0,1-.541.2,24.772,24.772,0,0,0-2.569,1.152,51.752,51.752,0,0,1-5.206,2.236,0.957,0.957,0,0,0-.743.474,0.809,0.809,0,0,1-.339.339,1.679,1.679,0,0,0-1.014.745,0.681,0.681,0,0,1-.27.338,5.016,5.016,0,0,0-1.487,1.424l-0.2.2-0.137.2,0.137,0.068a4.236,4.236,0,0,1,.4.27,1.126,1.126,0,0,0,.756.271,2.4,2.4,0,0,0,.529-0.068,6.477,6.477,0,0,1,1.352-.2,7.854,7.854,0,0,0,2.23-.475,19.049,19.049,0,0,0,3.922-2.5c0.879-.678,2.164-1.625,2.705-1.965,0.473-.271,3.446-1.558,4.935-2.168,0.811-.339,1.623-0.745,1.689-0.745a3.343,3.343,0,0,1,1.083-.474c0.2-.068.54-0.272,0.811-0.339a13.076,13.076,0,0,1,1.352-.338c0.474-.069,1.015-0.2,1.285-0.272a18.2,18.2,0,0,1,3.042-.609,30.226,30.226,0,0,1,3.151-.22,3.747,3.747,0,0,1,.432.017l0.406,0.068-0.271.135c-0.473.271-4.191,1.694-4.53,1.761a0.263,0.263,0,0,0-.27.136,1.719,1.719,0,0,1-.473.339,3.893,3.893,0,0,0-1.015.609l0.2,0.136a0.057,0.057,0,0,1,.041.042,3.905,3.905,0,0,1-1.326.5,20,20,0,0,0-3.854,1.625,30.3,30.3,0,0,0-7.1,5.081c-0.474.406-.947,0.881-1.083,0.949l-0.2.135-0.067-.678c-0.023-.25-0.038-0.439-0.038-0.592a0.958,0.958,0,0,1,.241-0.695v-0.2a2.034,2.034,0,0,0-.96-0.222,0.737,0.737,0,0,0-.19.019H182.5a0.4,0.4,0,0,0-.405.2,0.537,0.537,0,0,1-.27.2,8.82,8.82,0,0,0-1.15,1.152,4.073,4.073,0,0,1-.542.542l-0.472.474a1.7,1.7,0,0,0-.2,1.3v0.058a10.106,10.106,0,0,0,1.081,4.675,13.557,13.557,0,0,0,.745,1.421l0.4,0.543-0.473.474a9.763,9.763,0,0,0-1.352,1.558,1.642,1.642,0,0,1-.16.2s0,0,0,0a1.441,1.441,0,0,1,.093-0.2,0.084,0.084,0,0,0,.012-0.037c0-.023-0.018-0.034-0.049-0.034a0.663,0.663,0,0,0-.368.206c-0.068.068-1.623,1.491-3.516,3.117-1.825,1.625-3.651,3.184-3.921,3.454a1.159,1.159,0,0,1-.535.373,0.458,0.458,0,0,1-.141-0.034,0.487,0.487,0,0,1-.361-0.565c0-.1.007-0.23,0.022-0.383a23.643,23.643,0,0,1,.88-4.539,8.141,8.141,0,0,0,.473-2.439,14.135,14.135,0,0,1,.27-1.558,2.385,2.385,0,0,1,.678-1.152,0.63,0.63,0,0,0,.269-0.474,4.019,4.019,0,0,1,1.015-1.49,1.429,1.429,0,0,0,.539-0.813,2.173,2.173,0,0,0-.2-1.828,7.275,7.275,0,0,0-1.96-2.642l-0.947-1.017,0.136-.881a9.184,9.184,0,0,1,.338-1.761,0.855,0.855,0,0,0,.095-0.238,0.027,0.027,0,0,0-.029-0.033c-0.006,0-.009-0.012-0.009-0.034a9.989,9.989,0,0,1,.484-1.795,2.306,2.306,0,0,0,.175-0.55,0.257,0.257,0,0,0-.041-0.127l-0.134-.339L172.9,368.7a0.383,0.383,0,0,1-.051-0.161,0.151,0.151,0,0,1,.051-0.111,0.344,0.344,0,0,0,.04-0.162,1.26,1.26,0,0,0-.176-0.514,7.093,7.093,0,0,1-.351-1.77,0.418,0.418,0,0,1,.014-0.128l-0.068-.2a1.425,1.425,0,0,1-.27-0.813c-0.069-.406-0.136-0.947-0.2-1.151s-0.135-.61-0.2-0.88a3.572,3.572,0,0,0-1.286-2.1c-0.4-.406-0.607-0.746-0.675-0.746a0.515,0.515,0,0,1-.2.137,6.541,6.541,0,0,0-1.486,1.219,3.474,3.474,0,0,1-.542.474,7.337,7.337,0,0,0-1.622,1.423c-0.271.338-.542,1.083-1.216,3.522a46.844,46.844,0,0,0-1.223,5.045,0.1,0.1,0,0,0,0,.036c0,0.066-.068.406-0.135,0.812s-0.135,1.152-.2,1.558c0,0.406-.2,1.763-0.339,3.049l-0.269,2.3-0.61,1.084a30.179,30.179,0,0,1-4.191,5.961,20.206,20.206,0,0,0-1.758,2.777,17.083,17.083,0,0,0-.879,1.707,3.324,3.324,0,0,0-.134.393,0.885,0.885,0,0,0-.041.209,0.255,0.255,0,0,0,.175.2h0a1.847,1.847,0,0,0,.752.1c0.38,0,.905-0.035,1.614-0.1a22.978,22.978,0,0,1,2.3-.136c0.744-.068,1.284-0.136,1.352-0.136a0.077,0.077,0,0,1,.05-0.025c0.048,0,.085.077,0.085,0.228s0.067,0.34.067,0.407a7.283,7.283,0,0,1,.137,1.219,15.243,15.243,0,0,0,.472,2.981c0.068,0.407.2,0.813,0.2,0.948a2.851,2.851,0,0,0,.068.338,8.88,8.88,0,0,1,.2,1.7v0.021a1.386,1.386,0,0,1-.2.926,7.383,7.383,0,0,1-2.028,2.1,3.12,3.12,0,0,0-1.15,1.151c-0.2.271-.675,0.881-0.743,0.948a1.047,1.047,0,0,0-.474.745,0.4,0.4,0,0,1-.135.339,0.121,0.121,0,0,0-.089.074,0.768,0.768,0,0,0,.224.265,1.323,1.323,0,0,0,.825.449,0.423,0.423,0,0,0,.19-0.042,0.359,0.359,0,0,1,.156-0.029,0.394,0.394,0,0,1,.317.1l-0.338.474c-0.012,0-.018,0-0.018.007s0.11,0.085.22,0.2a6.377,6.377,0,0,0,.677.677,4.92,4.92,0,0,0,.473.406,5.127,5.127,0,0,0,.676.069,4.523,4.523,0,0,0,.5.043,0.873,0.873,0,0,0,.444-0.112c0.2-.068.473-0.134,0.744-0.2a4.2,4.2,0,0,0,1.893-1.424,4.769,4.769,0,0,1,1.758-1.354l0.27,0.067a0.345,0.345,0,0,0,.127.051,0.111,0.111,0,0,0,.076-0.051l0.136-.2a0.642,0.642,0,0,1,.473-0.135,0.523,0.523,0,0,0,.405-0.067,2.248,2.248,0,0,1,.947-0.814,2.006,2.006,0,0,0,.946-0.881,1.618,1.618,0,0,1,1.014-.88,1.494,1.494,0,0,0,.811-0.541,8.051,8.051,0,0,0,1.489-2.1,20.31,20.31,0,0,1,2.094-2.912,5.352,5.352,0,0,0,.948-1.558,1.781,1.781,0,0,0,.111-0.464c0-.055-0.016-0.079-0.044-0.079a0,0,0,0,1,0,0c0-.055.519-0.582,1.222-1.35,1.148-1.219,2.771-2.98,2.908-3.184V390.04a2.9,2.9,0,0,0-.812.61,14.536,14.536,0,0,1-2.028,1.558c-0.068.067-.474,0.475-0.879,0.949a8.14,8.14,0,0,1-.812.813,0.048,0.048,0,0,1-.018,0c-0.035,0-.053-0.066-0.053-0.169a2.236,2.236,0,0,1,.207-0.852,2.367,2.367,0,0,1,.541-0.678c0.2-.2.54-0.609,0.812-0.946a43.592,43.592,0,0,1,3.583-4,19.139,19.139,0,0,1,1.622-1.558,0.8,0.8,0,0,1,.405.34,6.277,6.277,0,0,0,1.555,1.287,1,1,0,0,0,.473.068c0.271,0,.271,0,0.271-0.137l0.136-.27,0.134-.2,0.136-.135a0.2,0.2,0,0,0,.05-0.144,0.458,0.458,0,0,0-.05-0.195v-0.009a0.806,0.806,0,0,1,.135-0.533c0.068-.2.2-0.27,0.2-0.338a3.327,3.327,0,0,1,.272-0.61l0.337-.542-0.2-.338c-0.339-.543-0.88-1.356-1.353-1.965a7.806,7.806,0,0,1-.946-1.829,4.136,4.136,0,0,1-.27-1.231,1,1,0,0,1,.067-0.394,1.706,1.706,0,0,0,.067-0.61,0.575,0.575,0,0,1,.136-0.408l0.067-.27a0.723,0.723,0,0,1,.542-0.407c0.269-.135.743-0.339,1.081-0.474a4.346,4.346,0,0,0,.946-0.406,24.361,24.361,0,0,0,2.773-2.371,8.641,8.641,0,0,1,3.312-2.3c0.338-.135.811-0.405,1.15-0.542a5.027,5.027,0,0,1,2.365-.576c0.432,0,.946.037,1.623,0.1l1.488,0.137,0.27,0.337c0.2,0.2.541,0.61,0.878,0.949a3.2,3.2,0,0,1,.881,1.423,3.768,3.768,0,0,1,.364,1.276,1.068,1.068,0,0,1-.162.552,2.779,2.779,0,0,1-1.217,1.152,17.5,17.5,0,0,1-2.7,1.422,2.285,2.285,0,0,0-.744.475c-0.473.406-2.366,1.828-2.84,2.1a0.608,0.608,0,0,0-.339.289c0,0.038.042,0.058,0.12,0.058a1.69,1.69,0,0,0,.558-0.144,27.57,27.57,0,0,0,3.92-2.032,9.93,9.93,0,0,1,1.082-.61c0.136-.068.271-0.2,0.406-0.27l0.27-.136v0.136a6.8,6.8,0,0,1-.947,1.558c-0.135.2-.338,0.473-0.473,0.677a5.663,5.663,0,0,1-2.095,1.9,0.478,0.478,0,0,0-.339.2,1.987,1.987,0,0,1-.541.135c-0.269.068-.945,0.2-1.622,0.406a11.888,11.888,0,0,1-3.516.745,0.944,0.944,0,0,0-.878.2l-0.2.135a0.051,0.051,0,0,0-.031-0.019,0.279,0.279,0,0,0-.036.217v0a0.219,0.219,0,0,1-.2.2l-0.2.2-0.2.134a0.788,0.788,0,0,0-.4.34,3.783,3.783,0,0,1-.474.541,5.1,5.1,0,0,0-1.217,1.151,1.792,1.792,0,0,0,.879.2,3.924,3.924,0,0,0,.812-0.067,12.241,12.241,0,0,1,2.432-.137h0.61l-0.406.34c-0.474.406-2.569,2.573-3.584,3.726a11.842,11.842,0,0,0-1.825,2.709,22.166,22.166,0,0,0-2.231,6.571,6.871,6.871,0,0,0-.138,1.164,3.606,3.606,0,0,0,.273,1.275,8.15,8.15,0,0,0,1.759,2.914,2.031,2.031,0,0,1,.473.608,0.452,0.452,0,0,0,.27.2,0.878,0.878,0,0,0,.3.05,3.784,3.784,0,0,0,.507-0.05h0.744a0.641,0.641,0,0,0,.541-0.474v-0.007a0.32,0.32,0,0,1,.067-0.264c0.034,0,.051-0.034.051-0.085a0.439,0.439,0,0,0-.051-0.186,4.936,4.936,0,0,1-.2-0.542v-0.012a1.211,1.211,0,0,1,.135-0.666,2.811,2.811,0,0,0,.136-0.474c0-.061.054-0.094,0.144-0.094a0.983,0.983,0,0,1,.464.162,5.549,5.549,0,0,0,1.486.542c0.2,0.068.88,0.338,1.083,0.407a10.632,10.632,0,0,0,1.555.609,4.209,4.209,0,0,1,1.013.406,0.517,0.517,0,0,0,.339.136,2.719,2.719,0,0,1,.541.2c0.2,0.067.675,0.134,1.014,0.2a9.135,9.135,0,0,1,1.893.406,0.326,0.326,0,0,0,.271.068,0.306,0.306,0,0,1,.287.064,1.035,1.035,0,0,1-.693.206,1.264,1.264,0,0,1-.239.027c-0.13,0-.211-0.032-0.21-0.086a0.122,0.122,0,0,1,.043-0.076,0.235,0.235,0,0,0,.044-0.049h0a0.652,0.652,0,0,0-.11.05h-0.27l0.068,0.067a0.035,0.035,0,0,1,.011.024,0.514,0.514,0,0,1-.417.072c-0.152,0-.351-0.008-0.609-0.028a2.433,2.433,0,0,1-1.014-.135,0.581,0.581,0,0,0-.54-0.2c-0.2,0-.2,0-0.2.129V406.1a0.162,0.162,0,0,1,.023.069c0,0.066-.122.066-0.5,0.066a0.81,0.81,0,0,1-.427-0.031,0.055,0.055,0,0,1,.022-0.036l0.135-.271c0-.042-0.008-0.058-0.016-0.058a0.175,0.175,0,0,0-.052.126,0.328,0.328,0,0,1-.3.162,1.092,1.092,0,0,1-.38-0.094,1.579,1.579,0,0,0-.541-0.136,0.5,0.5,0,0,1-.338-0.068,0.094,0.094,0,0,0-.088-0.056,0.349,0.349,0,0,0-.25.192h-0.609a1.57,1.57,0,0,1-.743.135,1.887,1.887,0,0,0-.743.068,2.58,2.58,0,0,1-.858.162,0.755,0.755,0,0,1-.224-0.027,0.7,0.7,0,0,0-.3-0.051,2.418,2.418,0,0,0-.448.051,4.617,4.617,0,0,1-1.082.137,14.364,14.364,0,0,0-2.366.2,3.844,3.844,0,0,1-1.082.069,2.248,2.248,0,0,0-.946.134,0.5,0.5,0,0,1-.339.069,4.958,4.958,0,0,0-1.013.2c-0.473.135-1.082,0.27-1.421,0.338a1.533,1.533,0,0,0-.607.136,0.467,0.467,0,0,1-.407.135c-0.473,0-1.757.2-3.853,0.543-2.7.474-3.38,0.608-3.651,0.813a1.993,1.993,0,0,1-.541.269,0.547,0.547,0,0,0-.22.106,0.047,0.047,0,0,0,.018.03l-0.068.137-0.135.134-0.136.069a0.455,0.455,0,0,0-.2.27,0.807,0.807,0,0,1-.339.338,0.293,0.293,0,0,0-.2.2l-0.135.136v0.135a0.123,0.123,0,0,1,.041.054,0.287,0.287,0,0,1-.177.082,0.286,0.286,0,0,0-.2.2l-0.136.136-0.135.134-0.134.272-0.068.136-0.136.134a0.1,0.1,0,0,0-.041.057,0.379,0.379,0,0,0,.177.147,6.214,6.214,0,0,0,.608.2c0.338,0.067.338,0.067,0.338,0.2a0.148,0.148,0,0,0-.013.065,0.854,0.854,0,0,0,.351.546,2.109,2.109,0,0,0,.878.135,1.71,1.71,0,0,1,.811.135,0.734,0.734,0,0,0,.407.068c0.134,0,.2,0,0.2.068h0.136a0.214,0.214,0,0,1,.115-0.084,0.543,0.543,0,0,1,.222.286,0.514,0.514,0,0,0,.339.136,1.487,1.487,0,0,1,.541.068,1.05,1.05,0,0,0,.27.045,1.545,1.545,0,0,0,.473-0.113,6.466,6.466,0,0,1,.676-0.2,2.005,2.005,0,0,0,1.15-1.084,1.045,1.045,0,0,1,.134-0.27c0.023,0,.031-0.015.031-0.041,0-.049-0.031-0.14-0.031-0.231s-0.029-.181-0.029-0.252a0.117,0.117,0,0,1,.029-0.086,7.75,7.75,0,0,1,1.082-.272,18.807,18.807,0,0,0,5.41-1.76,9,9,0,0,1,2.366-.678c0.068,0,.1.017,0.1,0.043a0.155,0.155,0,0,1-.1.092,0.291,0.291,0,0,0-.144.17c0,0.04.049,0.059,0.134,0.059a1.06,1.06,0,0,0,.213-0.026,9.089,9.089,0,0,0,1.014-.2,9.328,9.328,0,0,1,1.284-.135c0.785-.057.965-0.112,0.965-0.206a0.134,0.134,0,0,0-.018-0.066,0.26,0.26,0,0,1-.062-0.137c0-.114.21-0.2,1.009-0.4,0.676-.2,2.095-0.474,2.839-0.61,0.338-.068.946-0.2,1.284-0.271a9.55,9.55,0,0,1,1.646-.141,2.953,2.953,0,0,1,.788.073c0.079,0,.111.023,0.112,0.042s-0.016.026-.045,0.026c-0.1,0-.143.018-0.142,0.044a0.465,0.465,0,0,0,.345.159,1.5,1.5,0,0,0,.364.051,0.973,0.973,0,0,0,.313-0.051c0.09,0,.181-0.03.25-0.03a0.117,0.117,0,0,1,.087.03,9,9,0,0,0,2.908.271c0.946,0,1.757.069,1.825,0.069l0.2-.069h0.27a0.142,0.142,0,0,1-.018-0.06,0.038,0.038,0,0,1,.044-0.041,0.3,0.3,0,0,1,.177.1,0.542,0.542,0,0,0,.295.074,0.691,0.691,0,0,0,.45-0.141c0.134-.136.2-0.136,1.081-0.136a4.206,4.206,0,0,1,1.149.068,4.653,4.653,0,0,0,.88.135,2.9,2.9,0,0,1,1.148.34,1.364,1.364,0,0,0,.541.2,0.505,0.505,0,0,1,.27.272,1.543,1.543,0,0,0,.271.339c0.135,0.067.135,0.135,0.135,0.473a1.6,1.6,0,0,1-1.082,1.423c-0.406.2-1.283,0.746-2.028,1.083a4.828,4.828,0,0,0-1.352.814,0.423,0.423,0,0,0-.05.118c0,0.018.016,0.018,0.05,0.018a9.816,9.816,0,0,0,1.015-.407,18.271,18.271,0,0,1,3.582-1.219,1.329,1.329,0,0,1,.541.067,0.339,0.339,0,0,0,.2.067l0.135,0.068,0.2,0.068c0.135,0,.135,0,0.135.069a0.482,0.482,0,0,0,.338.269,1.439,1.439,0,0,1,.473.272,1.365,1.365,0,0,0,.475.406,3.8,3.8,0,0,1,.607.474,5.929,5.929,0,0,0,.608.34,1.992,1.992,0,0,1,.542.271,0.535,0.535,0,0,0,.271.2c0.066,0,.27.2,0.54,0.338a2.806,2.806,0,0,0,1.69.542h0.811l0.406-.271a1.881,1.881,0,0,1,.473-0.271c0.135,0,.2-0.2.2-0.677A3.8,3.8,0,0,0,216.644,411.854Zm-20.215-14.633a4.619,4.619,0,0,1-.744,1.152,14.29,14.29,0,0,1-2.3,1.9,1.248,1.248,0,0,1-.676.272,3.278,3.278,0,0,1-1.285-.543,2.909,2.909,0,0,1-.051-0.66,4.591,4.591,0,0,1,.051-0.762q0.2-1.22,1.826-1.22c0.225,0,.421.031,0.545,0.031a0.181,0.181,0,0,0,.13-0.031h0.407c0,0.02.023,0.029,0.064,0.029a4.423,4.423,0,0,0,.544-0.1,4.819,4.819,0,0,1,.879-0.068,1.262,1.262,0,0,0,.474-0.136,0.679,0.679,0,0,1,.208-0.095,0.084,0.084,0,0,1,.062.028,0.048,0.048,0,0,1,.018.031C196.583,397.09,196.484,397.111,196.429,397.221Zm1.352-11.381c-0.067,0-.542.338-1.013,0.61a15.434,15.434,0,0,0-3.516,2.845,9.878,9.878,0,0,0-1.082,1.151c0,0.069.068,0.069,0.27,0.069a2.938,2.938,0,0,0,1.487-.882,6.44,6.44,0,0,1,.88-0.542c0.449-.191,1.807-0.749,1.948-0.749,0.007,0,.013,0,0.013,0a0.326,0.326,0,0,1,.027.175c0,0.221-.048.616-0.1,1.043,0,0.611-.067,1.966-0.067,2.982v0.133a4.486,4.486,0,0,1-.076,1.668,0.1,0.1,0,0,1-.059-0.041,1.653,1.653,0,0,1-.135-0.337,1.977,1.977,0,0,0-.541-0.543c-0.2-.2-0.677-0.474-0.947-0.744a5.006,5.006,0,0,0-.947-0.813l-0.473-.272h-0.676a4.127,4.127,0,0,0-1.893.543,2.89,2.89,0,0,0-.952.8,0.021,0.021,0,0,0,.006.016l-0.136.068a2.048,2.048,0,0,0-.609.474,3.54,3.54,0,0,1-1.012.881l-0.136.068v0.271a0.3,0.3,0,0,0-.045.115,0.152,0.152,0,0,0,.112.088l0.271,0.135,0.2,0.137,0.2,0.2a0.287,0.287,0,0,1,.2.2,0.536,0.536,0,0,0,.542.339h0.54l-0.135.271c-0.067.136-.338,0.88-0.676,1.626a6.135,6.135,0,0,0-.473,1.627,0.459,0.459,0,0,1,.012.114,2.066,2.066,0,0,1-.418.969,1.22,1.22,0,0,0-.271.609,0.521,0.521,0,0,1-.134.339l-0.007,0a8.152,8.152,0,0,1-.737-1.9,3.305,3.305,0,0,0-.338-0.881,2.16,2.16,0,0,1-.2-0.338,3.371,3.371,0,0,1,.337-1.084,6.277,6.277,0,0,0,.406-0.745,1.761,1.761,0,0,0,.176-0.609,0.176,0.176,0,0,0-.042-0.136,0.068,0.068,0,0,0-.054-0.023,1.294,1.294,0,0,0-.553.429l-0.473.474,0.067-.406a17.378,17.378,0,0,1,1.218-4.81,28.652,28.652,0,0,1,2.636-3.049,5.373,5.373,0,0,1,1.555-1.286,6.713,6.713,0,0,1,2.637-.813,9.273,9.273,0,0,0,1.352-.271c0.2-.068.743-0.068,1.081-0.135a2.1,2.1,0,0,0,.677-0.137h0.067v0.068ZM195.144,406.1h0.136l-0.136-.067V406.1Zm-2.027-.2h0.135l-0.135-.068v0.068Zm-3.111-26.148a0.1,0.1,0,0,1-.027-0.079,1.375,1.375,0,0,1,.095-0.327,2.327,2.327,0,0,0,.135-1.017,1.06,1.06,0,0,1,.676-1.152,3.829,3.829,0,0,1,1.353-.745,2.5,2.5,0,0,1,.752-0.151,0.45,0.45,0,0,1,.4.151,0.133,0.133,0,0,1,.045.1,1.513,1.513,0,0,1-.451.845c-0.27.2-2.164,1.694-2.637,2.1-0.174.118-.249,0.285-0.309,0.285a0.044,0.044,0,0,1-.029-0.013m4.463-6.707a9.508,9.508,0,0,0-4.868,2.1,1.1,1.1,0,0,1-.523.337,0.331,0.331,0,0,1-.22-0.134,1.168,1.168,0,0,0-.186-0.095c-0.011,0-.019.008-0.019,0.027h-0.134a0.391,0.391,0,0,0-.124-0.023,0.376,0.376,0,0,0-.282.294,0.76,0.76,0,0,1-.27.34l-0.135.135-0.2.135-0.27.2a0.191,0.191,0,0,1-.2.135,0.166,0.166,0,0,0-.071-0.021c-0.09,0-.144.139-0.2,0.63a0.389,0.389,0,0,1-.085.241,0.1,0.1,0,0,1-.05-0.037l-0.068-.2-0.067-.067v0.339l-0.2.068-0.338.068h-0.136l-0.066-.068c-0.022,0-.031.006-0.032,0.02a1.054,1.054,0,0,1,.032.182,0.184,0.184,0,0,1-.027.163,0.073,0.073,0,0,1-.041-0.027,0.052,0.052,0,0,0-.03-0.018,0.4,0.4,0,0,0-.038.282v0.413a0.049,0.049,0,0,1-.054.054,0.571,0.571,0,0,1-.351-0.257l-0.136-.2,0.068,0.2,0.068,0.272v0.135a0.117,0.117,0,0,0-.041.094,1.78,1.78,0,0,0,.175.515,7.583,7.583,0,0,0,2.367,3.319,1.475,1.475,0,0,0,1.555-.2,1.468,1.468,0,0,0,.338-0.272,0.42,0.42,0,0,0,.067-0.338,2.92,2.92,0,0,1,.068-0.339,5.039,5.039,0,0,1,1.623-.812,13.968,13.968,0,0,0,2.231-.949c0.269-.135.608-0.338,0.744-0.407a4.549,4.549,0,0,0,1.351-.881,1.218,1.218,0,0,1,.407-0.338,1.211,1.211,0,0,0,.405-0.339c0.2-.2.54-0.406,0.608-0.474a1,1,0,0,0,.271-0.2,1.6,1.6,0,0,1,.474-0.2,3.894,3.894,0,0,0,.539-0.272,0.4,0.4,0,0,0,.2-0.461v-0.013a3.9,3.9,0,0,0-.607-1.626,6.236,6.236,0,0,0-1.286-1.354,3.781,3.781,0,0,0-1.164-.113c-0.369,0-.759.017-1.066,0.045" transform="translate(-153.5 -104.156)"/>
</svg>
