<svg id="txt_001.svg" xmlns="http://www.w3.org/2000/svg" width="70.5" height="212.812" viewBox="0 0 70.5 212.812">
  <metadata><?xpacket begin="﻿" id="W5M0MpCehiHzreSzNTczkc9d"?>
<x:xmpmeta xmlns:x="adobe:ns:meta/" x:xmptk="Adobe XMP Core 5.6-c138 79.159824, 2016/09/14-01:09:01        ">
   <rdf:RDF xmlns:rdf="http://www.w3.org/1999/02/22-rdf-syntax-ns#">
      <rdf:Description rdf:about=""/>
   </rdf:RDF>
</x:xmpmeta>
                                                                                                    
                                                                                                    
                                                                                                    
                                                                                                    
                                                                                                    
                                                                                                    
                                                                                                    
                                                                                                    
                                                                                                    
                                                                                                    
                                                                                                    
                                                                                                    
                                                                                                    
                                                                                                    
                                                                                                    
                                                                                                    
                                                                                                    
                                                                                                    
                                                                                                    
                                                                                                    
                           
<?xpacket end="w"?></metadata>
<defs>
    <style>
      .cls-1 {
        fill: #fff;
        fill-rule: evenodd;
      }
    </style>
  </defs>
  <path id="至_宝" data-name="至　宝" class="cls-1" d="M524.88,169.78a2.9,2.9,0,0,0,2.072-1.553c21.237-1.554,36.7-2.886,48.468-4.144a27.44,27.44,0,0,1,4.291,5.549,3.888,3.888,0,0,0,1.7.444,2.226,2.226,0,0,0,2.22-2.515c0-3.922-5.4-11.248-22.865-15.54l-0.37.962a60.579,60.579,0,0,1,13.246,9.4c-14.134.37-27.379,0.592-37.517,0.666a110.887,110.887,0,0,0,12.432-15.54,7.7,7.7,0,0,0,1.11.148,1.842,1.842,0,0,0,1.776-.888l-3.4-1.406h34.63c2.146,0,2.96-.518,3.552-1.553l-7.03-4.884-3.625,4.662h-55.35l0.444,1.775h22.347a134.356,134.356,0,0,1-9.25,17.686c-3.922.074-8.287,0.074-11.691,0Zm51.724,31H555.366V183.248h21.682c2.145,0,3.033-.518,3.551-1.628l-6.955-4.884-3.7,4.736H555.366v-9.546c2.516-.37,3.33-0.814,3.4-2.072l-8.361-.74v12.358H525.546l0.444,1.776h24.419v17.537H518.738l0.518,1.776h64.673c2.146,0,3.034-.518,3.626-1.628l-7.178-4.958ZM576.16,307.938a46.27,46.27,0,0,0,8.287-8.288c1.406-.074,2.294-0.222,2.812-0.74l-5.7-5.55-3.182,3.182H555.366v-8.213c2.59-.37,3.4-0.888,3.478-2l-8.361-.74v10.951H529.245a20.71,20.71,0,0,0-.666-3.922l-1.331.074a11.188,11.188,0,0,1-6.29,10.286,3.83,3.83,0,0,0-2.072,3.034c0,1.406,1.184,2.146,2.812,2.146,3.774,0,7.4-3.848,7.621-9.842h49.356a86.855,86.855,0,0,1-3.4,9.028Zm-20.868,42.03V330.285h20.5c2.071,0,2.885-.444,3.477-1.554l-6.437-4.44-3.33,4.218H555.292v-15.1h21.534c2.071,0,2.811-.444,3.4-1.554l-6.141-4.218-3.256,4H526.8l0.518,1.776h23.161v15.1H528.21l0.443,1.776h21.83v19.683h-31.3l0.444,1.776h64.007c2.072,0,2.886-.518,3.478-1.554l-6.66-4.662-3.477,4.44H555.292Zm7.918-15.1c3.4,2.294,7.03,6.659,8.066,10.359a3.086,3.086,0,0,0,2.072.814c1.406,0,2.516-1.258,2.516-3.034,0-2.812-2.96-6.955-12.21-8.879Z" transform="translate(-517.75 -138.938)"/>
  <path id="shihou" class="cls-1" d="M517.739,246.659c0.126,0.576.27,1.207,0.4,1.981a6.21,6.21,0,0,0,2.809.576c2.142,0,3.619-1.044,3.619-2.647,0-1.278-1.171-2.16-2.341-2.647-0.378-.27-1.459-0.576-2.125-0.918a1.545,1.545,0,0,1-.846-1.242c0-.972,1.152-1.405,2.107-1.405a1.823,1.823,0,0,1,2.124,1.783l0.5-.09c-0.162-.774-0.252-1.368-0.306-1.855a6.556,6.556,0,0,0-2.412-.432c-2.269,0-3.223,1.117-3.223,2.179a2.318,2.318,0,0,0,.54,1.44,8.713,8.713,0,0,0,2.124,1.261,10.32,10.32,0,0,1,2.161,1.116,1.427,1.427,0,0,1,.414,1.026c0,0.937-.828,1.855-2.412,1.855a2.388,2.388,0,0,1-2.629-2.107ZM529.385,249h3.493v-0.468c-0.955,0-1.045-.126-1.045-1.3v-4.9c0.919-1.116,1.873-1.891,2.827-1.891,1.657,0,1.8,1.207,1.8,2.7v4.069c0,1.189-.09,1.315-1.1,1.315V249h3.421v-0.468c-0.99,0-1.08-.126-1.08-1.315v-4.123c0-1.008,0-3.331-2.665-3.331a4.137,4.137,0,0,0-3.169,1.639h-0.036v-6.158l-0.18-.108a5.1,5.1,0,0,1-2.25.828v0.4c1.08,0,1.188.108,1.188,1.171v9.686c0,1.189-.072,1.315-1.206,1.315V249Zm15.8-12.514a1.114,1.114,0,0,0,0,2.143A1.107,1.107,0,0,0,545.189,236.486Zm0.576,3.277a5.9,5.9,0,0,1-2.431.828v0.4c1.279,0,1.333.036,1.333,1.206v5.023c0,1.171-.072,1.315-1.333,1.315V249h3.853v-0.468c-1.206,0-1.26-.144-1.26-1.3v-7.382ZM551.758,249h3.493v-0.468c-0.954,0-1.044-.126-1.044-1.3v-4.9c0.918-1.116,1.873-1.891,2.827-1.891,1.656,0,1.8,1.207,1.8,2.7v4.069c0,1.189-.09,1.315-1.1,1.315V249h3.421v-0.468c-0.99,0-1.08-.126-1.08-1.315v-4.123c0-1.008,0-3.331-2.665-3.331a4.136,4.136,0,0,0-3.169,1.639h-0.036v-6.158l-0.18-.108a5.1,5.1,0,0,1-2.251.828v0.4c1.081,0,1.189.108,1.189,1.171v9.686c0,1.189-.072,1.315-1.207,1.315V249Zm18.235,0.216c3.079,0,4.142-1.963,4.142-4.771,0-2.359-.991-4.682-4.142-4.682-2.664,0-4.141,1.765-4.141,4.682C565.852,247.686,567.329,249.216,569.993,249.216Zm-0.018-8.859c1.963,0,2.845,1.5,2.845,4.124,0,1.566-.324,4.159-2.845,4.159-1.6,0-2.826-1.1-2.826-4.159C567.149,241.618,568.211,240.357,569.975,240.357Zm17.083-.5-0.2-.09a4.837,4.837,0,0,1-2.106.828v0.4c1.008,0,1.062.09,1.062,1.188v4.771a3.265,3.265,0,0,1-2.575,1.567c-1.71,0-1.926-1.477-1.926-2.737v-5.924l-0.2-.09a4.846,4.846,0,0,1-2.107.828v0.4c1.008,0,1.062.09,1.062,1.188V245.9c0,2.593,1.171,3.313,2.827,3.313a3.863,3.863,0,0,0,2.9-1.386h0.036l0.09,1.332,0.126,0.054a6.988,6.988,0,0,1,2.2-.252v-0.4c-1.117,0-1.189-.144-1.189-1.333v-7.382Z" transform="translate(-517.75 -138.938)"/>
</svg>
