<svg xmlns="http://www.w3.org/2000/svg" width="155.907" height="126.812" viewBox="0 0 155.907 126.812">
  <metadata><?xpacket begin="﻿" id="W5M0MpCehiHzreSzNTczkc9d"?>
<x:xmpmeta xmlns:x="adobe:ns:meta/" x:xmptk="Adobe XMP Core 5.6-c138 79.159824, 2016/09/14-01:09:01        ">
   <rdf:RDF xmlns:rdf="http://www.w3.org/1999/02/22-rdf-syntax-ns#">
      <rdf:Description rdf:about=""/>
   </rdf:RDF>
</x:xmpmeta>
                                                                                                    
                                                                                                    
                                                                                                    
                                                                                                    
                                                                                                    
                                                                                                    
                                                                                                    
                                                                                                    
                                                                                                    
                                                                                                    
                                                                                                    
                                                                                                    
                                                                                                    
                                                                                                    
                                                                                                    
                                                                                                    
                                                                                                    
                                                                                                    
                                                                                                    
                                                                                                    
                           
<?xpacket end="w"?></metadata>
<defs>
    <style>
      .cls-1 {
        fill: #fff;
        fill-rule: evenodd;
      }
    </style>
  </defs>
  <path id="txt_002.svg" class="cls-1" d="M474.818,403.176a16.888,16.888,0,0,0,2.253-2.682v9.846h0.273a1.835,1.835,0,0,0,1.2-.45v-11a0.569,0.569,0,0,0,.545-0.324l-0.69-.252a30.033,30.033,0,0,0,1.671-3.725,0.579,0.579,0,0,0,.709-0.324l-2.217-.684a31.818,31.818,0,0,1-4,9.413Zm13.919-8.837-0.963,1.242h-6.9l0.109,0.4h8.686a0.813,0.813,0,0,0,.854-0.36Zm0.128,6.587h-9.232l0.109,0.414h3.744c-0.473,1.908-1.2,4.536-1.8,6.588-0.891.054-1.636,0.09-2.181,0.108l0.909,1.908a0.655,0.655,0,0,0,.472-0.378c3.725-.72,6.433-1.3,8.45-1.782a8,8,0,0,1,.6,2.088,1.017,1.017,0,0,0,.672.324,0.977,0.977,0,0,0,.781-1.152c0-1.188-.944-3.1-3.979-4.9l-0.2.144a13.961,13.961,0,0,1,1.944,3.1c-2.58.2-5.051,0.378-6.941,0.5,1.09-1.926,2.253-4.248,2.98-5.85,0.454,0,.654-0.072.727-0.306l-1.49-.4h6.323a0.846,0.846,0,0,0,.873-0.36l-1.8-1.3Zm10.213-.864a6.758,6.758,0,0,1,.763,1.35c-1.017.036-2,.072-2.853,0.09a46.561,46.561,0,0,0,3.671-4.751,2.335,2.335,0,0,0,.309.036,0.433,0.433,0,0,0,.418-0.2l-2-.864a60.294,60.294,0,0,1-2.962,5.795c-0.763.018-1.4,0.018-1.817,0.018l0.581,1.566a0.634,0.634,0,0,0,.473-0.36q1.008-.216,1.853-0.378v7.992h0.218a1.38,1.38,0,0,0,1.163-.432V402.06l1.109-.252a5.169,5.169,0,0,1,.254,1.188,0.754,0.754,0,0,0,.582.306,0.832,0.832,0,0,0,.745-0.918c0-.684-0.563-1.638-2.326-2.448Zm3.38,2.322a0.716,0.716,0,0,0,.491-0.378c2.871-.5,5-0.9,6.614-1.26a5.812,5.812,0,0,1,.455,1.494,0.75,0.75,0,0,0,1.308-.684c0-.882-0.763-2.214-3.162-3.348l-0.182.126a10.316,10.316,0,0,1,1.4,2.034c-1.963.09-3.853,0.18-5.325,0.216a31.614,31.614,0,0,0,2.381-3.383,0.6,0.6,0,0,0,.708-0.234l-0.872-.288h4.452a0.8,0.8,0,0,0,.854-0.36l-1.671-1.188L509,396.265h-1.926v-2.052c0.527-.072.709-0.18,0.727-0.432l-2.2-.2v2.682h-3.98l0.109,0.414h3.162c-0.363,1.224-.908,2.735-1.4,3.923-0.691.018-1.272,0.036-1.69,0.036Zm-6.851,1.584a19.93,19.93,0,0,1-1.035,4.788l0.29,0.144a11.37,11.37,0,0,0,1.945-4.212c0.436-.018.563-0.126,0.6-0.342Zm-1.017-7.235a4.841,4.841,0,0,1,1.472,2.393,0.809,0.809,0,0,0,.545.234,0.75,0.75,0,0,0,.69-0.792,1.544,1.544,0,0,0-.727-1.187,26.275,26.275,0,0,0,2.127-2.79c0.436,0.018.6-.072,0.672-0.288l-2.053-.72c-0.346,1.188-.8,2.538-1.182,3.528a5.818,5.818,0,0,0-1.4-.522Zm16.282,9.9a16.043,16.043,0,0,1-.6,2.034,0.4,0.4,0,0,1-.418.252h-1.181c-0.309,0-.309-0.036-0.309-0.522v-5.778c0.472-.072.581-0.18,0.618-0.378l-2.054-.18v6.318c0,1.4.2,1.728,1.581,1.728h1.4c1.235,0,1.708-.306,1.708-0.846,0-.2-0.073-0.27-0.582-0.468v-2.16h-0.163Zm-7.178-4.3c0,3.15-.636,6.156-3.525,7.722l0.163,0.306c3.634-1.44,4.634-4.374,4.852-7.452,0.491-.018.709-0.108,0.745-0.4Zm-4.325,1.746a7.026,7.026,0,0,1,.818,3.168,0.723,0.723,0,0,0,.581.324,0.91,0.91,0,0,0,.763-1.026c0-.7-0.472-1.674-1.944-2.574Zm29.221,4.248h-4.8V396.679H529.5a0.815,0.815,0,0,0,.872-0.36l-1.926-1.368-1.054,1.332H515.852l0.127,0.4h6.269v11.645h-7.632l0.127,0.414H530.7a0.892,0.892,0,0,0,.891-0.36l-1.963-1.386Zm10.632-9.774c1.254,0,1.454-.36,1.454-0.413v-1.818h4.579V398.5c1.2,0,1.472-.395,1.472-0.449v-1.728h3.907a0.8,0.8,0,0,0,.836-0.36l-1.745-1.3-0.89,1.242h-2.108V394.2c0.545-.072.69-0.162,0.709-0.432l-2.181-.162v2.3h-4.579V394.2c0.545-.072.672-0.18,0.708-0.432l-2.162-.162v2.3h-4.616l0.091,0.414h4.525v2.231Zm-2.58,1.368h12.284a0.816,0.816,0,0,0,.872-0.36l-1.745-1.224-0.908,1.188H536.532Zm12.138,3.1H534.588l0.109,0.4h5.2a36.625,36.625,0,0,1-1.781,4.644c-1.144.018-2.089,0.036-2.8,0.036l0.981,1.926a0.85,0.85,0,0,0,.509-0.378c5.088-.63,8.686-1.08,11.267-1.512A7.674,7.674,0,0,1,549.144,410a1.064,1.064,0,0,0,.618.234,0.817,0.817,0,0,0,.745-0.936c0-1.116-1.272-3.06-5.416-4.428l-0.145.18a15.3,15.3,0,0,1,2.8,2.646c-3.343.144-6.469,0.27-8.922,0.342a30.5,30.5,0,0,0,3.035-4.626h8.813a0.843,0.843,0,0,0,.872-0.36l-1.817-1.3Zm18.882-3.744a1.42,1.42,0,0,1,.272-0.036,0.608,0.608,0,0,1,.709.486c0,0.432-2.09,1.3-3.87,2.178a2.2,2.2,0,0,0-2.272-2.052,4.559,4.559,0,0,0-2.944,1.44l-0.091-.018a16.365,16.365,0,0,0,1.745-3.221,38.945,38.945,0,0,0,4.924-.972,1.353,1.353,0,0,0,1.145-.738c0-.612-0.89-0.738-1.98-0.756-0.291.918-3.489,1.368-3.653,1.386,0.145-.342.291-0.756,0.418-1.08a2.371,2.371,0,0,0,.418-0.864c0-.486-0.909-0.972-1.963-0.972a1.186,1.186,0,0,0-1.217.81l0.036,0.018a1.564,1.564,0,0,1,.418-0.054,0.8,0.8,0,0,1,.945.666,5.639,5.639,0,0,1-.345,1.692,12.667,12.667,0,0,1-1.763.144,2.411,2.411,0,0,1-2.235-1.044l-0.182.144a2.87,2.87,0,0,0,.564,1.1,2.359,2.359,0,0,0,1.908.7,13.614,13.614,0,0,0,1.363-.071,13.919,13.919,0,0,1-3.58,5.345,1.949,1.949,0,0,0-.982,1.314,0.784,0.784,0,0,0,.673.882,1.6,1.6,0,0,0,1.072-.99c1.526-2.232,3.434-4.194,5-4.194,0.673,0,1.236.432,1.309,1.674,0,0.126.018,0.252,0.018,0.378-1.817.99-3.944,2.592-3.944,4.356,0,1.62,1.272,2.592,4.907,2.592a26.781,26.781,0,0,0,3.725-.216c0.727-.126.927-0.306,0.927-0.7,0-.432-0.709-0.684-1.89-0.828-0.309.288-1.8,0.414-3.471,0.414-2.071,0-3.162-.414-3.162-1.512,0-1.4,1.345-2.412,2.944-3.258a10.393,10.393,0,0,1-.163,1.872,1.755,1.755,0,0,0-.019.306,0.676,0.676,0,0,0,.618.828c0.636,0,1.036-.756,1.036-2.79a5.088,5.088,0,0,0-.055-0.774,32.877,32.877,0,0,1,4.38-1.71c0.836-.216,1.345-0.36,1.345-0.918a2.239,2.239,0,0,0-2.108-1.566,1.306,1.306,0,0,0-1.018.432Zm21.68,0h-2.708v-0.4a1.239,1.239,0,0,0,.727-0.306l-1.563-1.223-0.654.81h-1.217c0.236-.918.49-1.962,0.672-2.736h6a0.843,0.843,0,0,0,.872-0.36l-1.654-1.188-0.872,1.134h-9l0.109,0.414h3.108c-0.237,1.044-.636,2.682-0.982,3.869a3.233,3.233,0,0,0,.763.108,1.627,1.627,0,0,0,.691-0.144l0.182-.7h1.508c-0.109,5.274-.291,7.83-0.763,8.316a0.6,0.6,0,0,1-.564.2c-0.381,0-1.308-.036-1.817-0.054a2.35,2.35,0,0,1-.018.306c1.49,0.2,1.545.594,1.545,1.242a2.339,2.339,0,0,0,1.853-.63c0.727-.666.945-3.006,1.054-8.262h0.527a17.177,17.177,0,0,0,1.09,5.256,8.127,8.127,0,0,1-2.089,2.772L586.271,408a8.522,8.522,0,0,0,2.417-2.16,7.755,7.755,0,0,0,1.653,1.962,1.573,1.573,0,0,1,1.272-1.1l0.019-.18a7.271,7.271,0,0,1-2.2-1.854,13.376,13.376,0,0,0,1.4-4.716,0.9,0.9,0,0,0,.672-0.27l-1.417-1.188Zm0.127,0.4a17.543,17.543,0,0,1-.727,3.96,11.581,11.581,0,0,1-1.235-3.96h1.962Zm-9.958,9.558,0.127,0.4h11.085a0.8,0.8,0,0,0,.854-0.36l-1.672-1.134-0.872,1.1h-9.522Zm2.035-4.212h1.327v0.9a1.27,1.27,0,0,0,1.108-.378v-4.662a1.155,1.155,0,0,0,.6-0.288l-1.363-.954-0.491.612h-1.09l-1.181-.54v3.24a3.682,3.682,0,0,0-2.126-2.034v-2.574h1.708a0.817,0.817,0,0,0,.836-0.359l-1.381-1.188-0.763,1.152h-0.4v-3.69c0.563-.054.745-0.2,0.763-0.45l-2.144-.18v4.32h-2.381l0.127,0.395h2.018a23.3,23.3,0,0,1-2.2,7.6l0.272,0.234a14.867,14.867,0,0,0,2.163-3.564v7.722c1.2,0,1.381-.414,1.381-0.468V401.3a5.759,5.759,0,0,1,1.017,2.574,0.723,0.723,0,0,0,.527.27,0.625,0.625,0,0,0,.582-0.486v2.862a1.031,1.031,0,0,0,1.09-.378v-1.134Zm1.327-.414h-1.327v-3.96h1.327v3.96Zm20.262-9.719a0.855,0.855,0,0,1,1,.99,12.053,12.053,0,0,1-.454,2.609,10.872,10.872,0,0,0-4.471,1.422,3.988,3.988,0,0,1-.109-0.576c-0.091-.918-0.054-1.6-0.109-2.105a1.453,1.453,0,0,0-1.526-1.332,1.364,1.364,0,0,0-1.018.342l0.037,0.054c1.035,0.18,1.2.972,1.453,2.861,0.073,0.432.164,0.954,0.255,1.386a6.336,6.336,0,0,0-2.708,4.644c0,1.674.945,2.61,2.017,2.61a4.824,4.824,0,0,0,3.489-1.71,2.058,2.058,0,0,0,1.054.594,0.544,0.544,0,0,0,.563-0.576,1.975,1.975,0,0,0-.708-1.1,21.074,21.074,0,0,0,2.962-5.85c2.853,0.216,4.2,2.106,4.2,4.734,0,2.484-1.962,4.518-6.723,5.2l0.127,0.414c5.851-.432,8.214-2.43,8.214-5.544,0-2.736-1.763-5.238-5.615-5.472a27.516,27.516,0,0,0,.745-2.933c0-.576-0.164-1.278-1.708-1.278a1.745,1.745,0,0,0-1.036.432Zm0.4,4.265a15.227,15.227,0,0,1-2.562,5.112,7.894,7.894,0,0,1-1.635-3.582A7.83,7.83,0,0,1,603.535,399.144Zm-5.706,7.29a1.222,1.222,0,0,1-1.145-1.458,5,5,0,0,1,1.745-3.564,10.869,10.869,0,0,0,1.763,3.762A3.193,3.193,0,0,1,597.829,406.434Zm17.919-8.549a1.635,1.635,0,0,0,1.817,1.6,10.37,10.37,0,0,0,1.708-.2,40.244,40.244,0,0,1-1.69,5.382,12.1,12.1,0,0,1-1.544,2.862c-0.019.324-.037,0.594-0.037,0.828,0,0.81.146,1.08,0.527,1.08,0.782,0,1.072-.792,1.672-2.718,0.454-1.314,1.744-5.436,2.326-7.65A30.33,30.33,0,0,0,624,398.1c1.017-.36,1.635-0.666,1.635-1.152,0-.576-1.054-0.63-1.817-0.684l-0.163.018c-0.273.576-.836,1.026-2.872,1.62a13.423,13.423,0,0,1,.546-1.854,1.226,1.226,0,0,0,.345-0.72c0-.594-1.109-1.026-1.945-1.026a1.346,1.346,0,0,0-1.435.81l0.073,0.126a2.063,2.063,0,0,1,.726-0.09c0.564,0,.655.45,0.655,1.044a12.56,12.56,0,0,1-.273,2.033,13.465,13.465,0,0,1-2.144.234,1.5,1.5,0,0,1-1.381-.7Zm9.685,4.571a7.92,7.92,0,0,1,3.6-1.476c0.509-.018,1.036.072,1.036-0.486,0-.5-0.854-0.99-2.017-0.99a7.262,7.262,0,0,0-4.906,1.764l0.2,0.252a7.622,7.622,0,0,1,4-.846c-0.636.414-1.49,1.026-2.162,1.566Zm-1.871,1.314a3.956,3.956,0,0,0-.982,2.466c0,2.322,2.2,2.808,5.434,2.808,1.544,0,2.453-.108,2.453-0.72a1.327,1.327,0,0,0-1.345-.9c-0.163,0-.472.108-0.854,0.144-0.454.036-.872,0.054-1.49,0.054-1.254,0-3.489,0-3.489-1.926a3.576,3.576,0,0,1,.545-1.764Zm-134.97,59.752H477.307V450.635h12.648a0.887,0.887,0,0,0,.89-0.342l-1.835-1.278-0.963,1.224h-10.5l-1.727-.7v15.821h0.236a1.379,1.379,0,0,0,1.254-.5v-0.918h13.357a0.845,0.845,0,0,0,.872-0.36l-1.908-1.332Zm-2.4-7.236h3.253a0.786,0.786,0,0,0,.854-0.36l-1.726-1.188-0.909,1.152h-6.578v-2.43a50.159,50.159,0,0,0,6.524-.953,1.965,1.965,0,0,0,.636.144,0.5,0.5,0,0,0,.345-0.108l-1.526-1.44a36.33,36.33,0,0,1-5.8,1.89l-1.581-.486v3.473c0,2.214-.127,4.7-1.581,6.714l0.218,0.234c2.453-1.836,2.744-4.572,2.762-6.642h3.689v6.606h0.236a1.438,1.438,0,0,0,1.181-.414v-6.192ZM515.724,449a4.476,4.476,0,0,1,1.872,2,0.6,0.6,0,0,0,.617.486,0.558,0.558,0,0,0,.491-0.576c0-.612-0.8-1.548-2.8-2.178Zm-9.486,1.206a4.268,4.268,0,0,1,.436-0.036,0.741,0.741,0,0,1,.891.846,8.754,8.754,0,0,1-.146,1.17c-0.109.522-.29,1.367-0.436,1.907a13.578,13.578,0,0,1-2.544.4,0.884,0.884,0,0,1-.89-1.026l-0.091-.036a1.023,1.023,0,0,0-.563.9,1.685,1.685,0,0,0,1.49,1.71,2.242,2.242,0,0,0,.763-0.468,13.96,13.96,0,0,1,1.6-.54,25.643,25.643,0,0,1-2.944,6.606,2.921,2.921,0,0,0-.836,1.368c0,0.756.255,1.116,0.727,1.116a1.726,1.726,0,0,0,1.109-1.17,53.639,53.639,0,0,0,3.234-8.262,11.165,11.165,0,0,1,2-.288c1.654,0.018,1.835,1.062,1.835,2.916,0,2.106-.726,5.13-1.78,5.13a8.343,8.343,0,0,1-2.8-1.35l-0.218.288c1.018,0.864,2.072,1.728,2.144,2.16a0.808,0.808,0,0,0,.745.846c2.308,0,3.217-4.284,3.217-6.714,0-2.538-.527-4-3.071-4a11.63,11.63,0,0,0-1.817.2c0.2-.666.381-1.385,0.545-2.033,0.2-.774.581-0.9,0.581-1.224,0-.576-1-1.206-2.053-1.206a1.307,1.307,0,0,0-1.181.738Zm7.414-.072a4.477,4.477,0,0,1,1.854,2,0.631,0.631,0,0,0,.618.5,0.584,0.584,0,0,0,.508-0.612c0-.594-0.8-1.53-2.8-2.16Zm0.2,2.79c2.453,1.079,3.035,3.293,3.035,5.525a0.72,0.72,0,0,0,.763.846c0.509,0,.891-0.594.891-1.512,0.018-1.962-1.291-4.374-4.489-5.2Zm25.715,10.8a1.483,1.483,0,0,0,1.326-.486v-5.22a0.936,0.936,0,0,0,.6-0.288l-1.527-1.062-0.545.684h-1.98l-1.363-.594v7.686c1.09,0,1.29-.45,1.29-0.468V462.91h2.2v0.81Zm0-3.852h-2.2v-2.106h2.2v2.106Zm-2.2.414h2.2V462.5h-2.2v-2.214Zm9,0.522a7.993,7.993,0,0,1-.945,2.322,5,5,0,0,1-1.181-1.98,14.411,14.411,0,0,0,1.635-3.438c0.473,0.018.636-.09,0.709-0.306l-1.963-.576a15.52,15.52,0,0,1-.835,2.718,25.427,25.427,0,0,1-.509-4.014h2.6a0.829,0.829,0,0,0,.854-0.36l-1.6-1.152-0.854,1.116h-1.017c-0.055-.99-0.073-2.015-0.073-3.077,0-.918.018-1.854,0.036-2.79,0.527-.072.654-0.162,0.691-0.4l-2.145-.252c0,0.828,0,1.638.019,2.43l-1.272-.936-0.709.99h-0.654v-1.854c0.527-.09.69-0.2,0.727-0.45l-2.145-.18V451.1H535.26l0.109,0.4h5.688a0.973,0.973,0,0,0,.727-0.216c0.018,1.35.054,2.627,0.127,3.851h-2.49a22.8,22.8,0,0,0,1.436-2.645c0.436-.018.618-0.126,0.654-0.324l-2.053-.414c-0.091,1.008-.255,2.375-0.418,3.383h-4.107l0.109,0.4h6.887a24.89,24.89,0,0,0,.963,5.8,11.69,11.69,0,0,1-3.525,3.78l0.145,0.252a11.054,11.054,0,0,0,3.78-2.934c0.127,0.306,1.29,2.934,2.726,2.934a0.584,0.584,0,0,0,.636-0.5,2.92,2.92,0,0,0-.436-1.17l0.308-2.844Zm-12.7-9.881a59.9,59.9,0,0,1-2.544,5.6c-0.6,0-1.109.018-1.454,0.018l0.563,1.566a0.591,0.591,0,0,0,.455-0.378c0.436-.108.854-0.2,1.235-0.288v1.89L530.245,459a23.1,23.1,0,0,1-.655,4.7l0.309,0.126a12.378,12.378,0,0,0,1.545-4.122,0.853,0.853,0,0,0,.472-0.144v5.8h0.218a1.324,1.324,0,0,0,1.127-.414V457.1l1.072-.288a4.194,4.194,0,0,1,.218,1.1,0.721,0.721,0,0,0,.545.288,0.794,0.794,0,0,0,.691-0.882c0-.648-0.509-1.548-2.072-2.34l-0.181.108a8.117,8.117,0,0,1,.672,1.314c-0.909.054-1.781,0.072-2.544,0.108a43.877,43.877,0,0,0,3.162-4.643,1.125,1.125,0,0,0,.236.018,0.46,0.46,0,0,0,.491-0.234Zm2.544,0.954a5.917,5.917,0,0,1,.436,2.195,4.789,4.789,0,0,1-.036.54,0.7,0.7,0,0,0,.563.342,0.9,0.9,0,0,0,.763-1.008,2.842,2.842,0,0,0-1.508-2.159Zm-2.49,7.181a7.217,7.217,0,0,1,.709,3.168,0.716,0.716,0,0,0,.545.324,0.92,0.92,0,0,0,.745-1.044,3.408,3.408,0,0,0-1.781-2.556Zm-4.088-7.379a4.238,4.238,0,0,1,1.181,2.267,0.738,0.738,0,0,0,.527.234,0.714,0.714,0,0,0,.672-0.756,1.519,1.519,0,0,0-.727-1.169,24.507,24.507,0,0,0,1.89-2.754,0.543,0.543,0,0,0,.673-0.288l-1.927-.63c-0.309,1.152-.708,2.466-1.035,3.4a7.485,7.485,0,0,0-1.109-.432Zm14.174-1.764a4.682,4.682,0,0,1,1.417,2.574,0.79,0.79,0,0,0,.545.27,0.75,0.75,0,0,0,.673-0.828c0-.648-0.6-1.566-2.472-2.178Zm17.319-.216a1.042,1.042,0,0,1,.763,1.242c0,1.152-1.09,2.987-1.09,6.065,0,1.044.545,2.79,1.581,2.79,0.345,0,.472-0.4.472-0.882a5.64,5.64,0,0,0-.109-0.936c0.473-2.844,1.945-5.939,3.925-5.921a1.618,1.618,0,0,1,1.272.594c0.691,0.719.909,2.213,0.909,4.517,0,3.222-1.908,6.264-6.451,7.452l0.2,0.342c5.96-1.1,7.886-4.1,7.886-7.92-0.018-2.574-.545-4.085-1.453-4.949a2.9,2.9,0,0,0-2-.792c-2.472-.018-4.162,3.581-4.907,5.579h-0.036a2.187,2.187,0,0,1-.109-0.774,8.494,8.494,0,0,1,1.036-3.779,2.347,2.347,0,0,0,.545-1.206,1.922,1.922,0,0,0-1.69-1.818,0.942,0.942,0,0,0-.763.36Zm32.71,1.26a1.248,1.248,0,0,1-.708.792,9.818,9.818,0,0,1-2.2.72c0.127-.36.309-0.846,0.382-1.17,0.181-.774.508-0.81,0.508-1.242,0-.45-1-0.918-1.926-0.918a1.335,1.335,0,0,0-1.254.756l0.073,0.126a1.679,1.679,0,0,1,.473-0.072c0.726,0,.8.288,0.8,0.72a10.9,10.9,0,0,1-.309,2.088,11.906,11.906,0,0,1-2,.2,1.7,1.7,0,0,1-1.617-.738l-0.236.18a1.8,1.8,0,0,0,.381.863,2.1,2.1,0,0,0,1.763.612,11.073,11.073,0,0,0,1.454-.108,14.2,14.2,0,0,1-3.289,5.94,1.331,1.331,0,0,0-.346.99,0.765,0.765,0,0,0,.691.846,0.952,0.952,0,0,0,.654-0.45,37.292,37.292,0,0,0,3.507-7.506,35.129,35.129,0,0,0,3.871-1.025c1.017-.36,1.417-0.558,1.417-0.99,0-.36-0.472-0.612-1.817-0.612H593.83Zm0.2,4.229a7.919,7.919,0,0,1,2.835-.594,5.178,5.178,0,0,1,1.018.108v0.09c-2.235.612-2.944,1.656-2.944,3.24v0.054c0,0.558.127,1.422,0.182,2a8.314,8.314,0,0,0-1.781-.216c-1.835,0-3.507.846-3.507,2.3,0,1.44,1.417,2.43,3.452,2.43,3.253,0,3.253-1.566,3.253-2.574a2.794,2.794,0,0,0-.018-0.414c1.872,0.882,2.653,2.16,3,2.16a0.7,0.7,0,0,0,.763-0.576,1.71,1.71,0,0,0-.817-1.386,11.188,11.188,0,0,0-3.053-1.494c-0.018-.126-0.073-0.36-0.091-0.5a8.517,8.517,0,0,1-.273-2.106,2.054,2.054,0,0,1,1.963-2.448,2.491,2.491,0,0,1,.382-0.036,4.709,4.709,0,0,1,1.272.2,1.84,1.84,0,0,0,.454.054c0.563,0,.563-0.234.563-0.4,0-.954-1.508-1.4-2.889-1.4a7.517,7.517,0,0,0-3.889,1.152Zm1.218,7.02c0,0.738-.545,1.26-2.054,1.26-1.617,0-2.489-.486-2.489-1.422,0-.828,1.072-1.4,2.38-1.4a6.009,6.009,0,0,1,2.108.414C595.248,461.812,595.248,462.118,595.248,462.208Zm24.115-12.4a4.515,4.515,0,0,1,.509-0.036c0.981,0,1.054.5,1.127,2.538-0.963.072-5.161,0.594-6.015,0.594a1.879,1.879,0,0,1-1.2-.252,1.116,1.116,0,0,1-.564-0.846h-0.127a1.052,1.052,0,0,0-.327.774,2.134,2.134,0,0,0,1.8,1.709,2.431,2.431,0,0,0,.927-0.342,29.619,29.619,0,0,1,5.542-.917c0.036,0.611.055,1.529,0.055,2.393a2.609,2.609,0,0,0-1.545-.432A3,3,0,0,0,616.492,458a2.751,2.751,0,0,0,2.853,2.844,2.313,2.313,0,0,0,1.981-.846c-0.146,1.71-1.527,3.636-4.216,4.68L617.292,465c3.943-1.008,5.6-3.114,5.6-6.1a4.742,4.742,0,0,0-.564-2.592c-0.018-.324-0.018-1.638-0.018-3.365,0.618-.036,1.436-0.072,2.2-0.072,0.545,0,1.072.018,1.454,0.054,0.89,0.054,1.581.252,2.108,0.252a0.521,0.521,0,0,0,.581-0.342c0-.612-1.09-1.08-2.253-1.35a1.825,1.825,0,0,1-1.454.54c-0.509.018-1.617,0.09-2.635,0.162a7.046,7.046,0,0,1,.073-1.422,1.72,1.72,0,0,0,.236-0.666c0-.63-1.108-1.152-2.053-1.152a1.366,1.366,0,0,0-1.272.774Zm0.091,10.007a1.765,1.765,0,0,1-1.708-1.872,1.924,1.924,0,0,1,1.817-2.2,1.743,1.743,0,0,1,1.745,1.8C621.308,459.076,620.744,459.814,619.454,459.814Zm-130.39,58.708h-1.871v-3.366h2.889a0.813,0.813,0,0,0,.854-0.36l-1.6-1.17-0.818,1.116h-1.326V511.5h2.816a0.829,0.829,0,0,0,.854-0.36l-1.58-1.152-0.836,1.1h-1.254v-3.113h3.289a0.825,0.825,0,0,0,.854-0.342l-1.69-1.188-0.89,1.134h-2.8a26.247,26.247,0,0,0,2.108-3.006c0.436,0.018.618-.072,0.672-0.27l-2.2-.612a28.753,28.753,0,0,1-1.054,3.888h-1.908l-0.255-.108a23.753,23.753,0,0,0,1.236-2.934,0.607,0.607,0,0,0,.69-0.342l-2.2-.63a26.507,26.507,0,0,1-2.926,7.757v-4.391a1.5,1.5,0,0,0,.781-0.36l-1.708-1.224-0.636.81h-1.89l-1.435-.63V516.29c1.2,0,1.344-.5,1.344-0.522v-2h2.163v1.422a1.738,1.738,0,0,0,1.381-.432v-2.79a13.346,13.346,0,0,0,1.817-2.142v10.566H482.2a1.29,1.29,0,0,0,1.145-.45v-1.026h7.505a0.813,0.813,0,0,0,.854-0.36l-1.726-1.26Zm-5.724-3.78V511.5h2.508v3.24H483.34Zm2.508-3.654H483.34v-3.113h2.508v3.113Zm0,4.068v3.366H483.34v-3.366h2.508Zm-9.268-8.585h2.163v6.785H476.58v-6.785Zm21.135,5.417H513.4a0.943,0.943,0,0,0,1-.45l-2.271-1.638-1.236,1.6h-13.3Zm38.09-2.61-0.872,1.17h-0.564V506.7h1.29a0.876,0.876,0,0,0,.891-0.36l-1.726-1.26-0.909,1.206h-9.159l-0.381-.162a16.649,16.649,0,0,0,1-1.422,0.622,0.622,0,0,0,.727-0.216l-2.072-.954a17.293,17.293,0,0,1-3.47,5.543l0.2,0.2a12.138,12.138,0,0,0,2.507-1.907v3.185h-2.907l0.109,0.414h2.8v3.87H520.65l0.109,0.414h15.555a0.844,0.844,0,0,0,.854-0.36l-1.581-1.26-0.836,1.206h-0.382v-3.87h2.217a0.843,0.843,0,0,0,.872-0.36Zm-6.07,1.17h-2V506.7h2v3.851Zm0,4.284h-2v-3.87h2v3.87Zm-3.307-8.135v3.851h-1.835V506.7h1.835Zm0,4.265v3.87h-1.835v-3.87h1.835Zm6.578-.414h-1.944V506.7h1.944v3.851Zm-1.944,4.284v-3.87h1.944v3.87h-1.944Zm1.708,1.278a8.725,8.725,0,0,1,3.017,4,0.938,0.938,0,0,0,.6.234,0.845,0.845,0,0,0,.745-0.954c0-.99-1-2.538-4.215-3.456ZM523.375,516a3.494,3.494,0,0,1-2.144,2.862,1.034,1.034,0,0,0-.6.81,0.654,0.654,0,0,0,.782.63c1.126,0,2.4-1.17,2.4-3.15a5.266,5.266,0,0,0-.127-1.134Zm5.779,0.27a6.781,6.781,0,0,1,1.345,3.582,0.812,0.812,0,0,0,.6.306,0.937,0.937,0,0,0,.782-1.062c0-.81-0.618-1.98-2.544-2.952Zm-3.362.036a6.38,6.38,0,0,1,.255,1.872,6.04,6.04,0,0,1-.182,1.548,0.73,0.73,0,0,0,.636.414,1.214,1.214,0,0,0,.981-1.368,3.506,3.506,0,0,0-1.435-2.538Zm19.409-9.215h12.393a0.831,0.831,0,0,0,.909-0.4l-2.036-1.476-1.108,1.44H545.074Zm-1.726,10.889H559.32a0.884,0.884,0,0,0,.927-0.4l-2.126-1.53-1.127,1.494H543.366Zm30.657,0.936c5.96-.5,8.177-3.222,8.177-6.678,0-3.888-2.49-6.605-6.978-6.605-4.87,0-8.232,3.527-8.232,7.6,0,2.358.981,3.87,2.381,3.87,2.725,0,5.088-5.436,5.088-8.8a2.231,2.231,0,0,0-.891-1.943,8.369,8.369,0,0,1,1.581-.18c3.962,0,5.416,2.663,5.416,5.975,0,2.844-1.8,5.6-6.651,6.372ZM573.5,507.651c0,3.023-2.054,7.883-3.962,7.883-0.708,0-1.108-1.008-1.108-2.358a6.714,6.714,0,0,1,4.743-6.7A1.964,1.964,0,0,1,573.5,507.651ZM591.56,506.1a1.9,1.9,0,0,0,2.071,1.386,13.773,13.773,0,0,0,1.545-.09,1.9,1.9,0,0,1,.254,1.115c0,0.594-.072,2.214-0.109,3.078-1.145.108-2.271,0.234-2.925,0.288a6.515,6.515,0,0,1-.8.036,1.255,1.255,0,0,1-1.454-.936,0.848,0.848,0,0,0-.418.792,2.261,2.261,0,0,0,1.89,1.62,1.809,1.809,0,0,0,.727-0.288,11.931,11.931,0,0,1,2.944-.666c-0.018.7-.036,1.854-0.036,2.628,0,1.17,0,3.6,3.107,3.6,4.361,0,5.415-.162,5.415-0.792,0-.468-0.69-0.72-1.635-0.846-0.364.432-2.89,0.432-3.835,0.432-1.49,0-1.817-.774-1.835-2.178,0-.756.018-1.908,0.073-3.024a47.58,47.58,0,0,1,5.324-.342,16.832,16.832,0,0,1,1.763.072,7.158,7.158,0,0,0,.818.054c0.672,0,1.017-.144,1.017-0.45,0-.648-1.345-0.99-2.308-1.1a2.352,2.352,0,0,1-1.6.54c-1.2.072-3.144,0.252-4.961,0.432a19.14,19.14,0,0,1,.309-3.042,1.19,1.19,0,0,0,.037-0.359,1.012,1.012,0,0,0-.328-0.774c1.581-.126,3.435-0.324,4.18-0.378,0.872-.054,1.436-0.234,1.436-0.666,0-.522-0.964-0.774-2.09-0.918a1.782,1.782,0,0,1-1.145.666,31.6,31.6,0,0,1-4.961.522,3.434,3.434,0,0,1-2.362-.522Zm31.475-.936c1.09,0.144,1.108.54,1.108,0.774,0,1.134-2.835,8.333-10.649,13.229l0.273,0.342a24.282,24.282,0,0,0,11.684-11.735,1.713,1.713,0,0,1,.491-0.7,1.451,1.451,0,0,0,.636-0.7c0-.756-1.581-1.728-2.562-1.728a1.221,1.221,0,0,0-1,.5Z" transform="translate(-474.562 -393.594)"/>
</svg>
