<?xml version="1.0" encoding="UTF-8"?>
<svg width="350px" height="270px" viewBox="0 0 350 270" version="1.1" xmlns="http://www.w3.org/2000/svg" xmlns:xlink="http://www.w3.org/1999/xlink">
    <!-- Generator: Sketch 43.2 (39069) - http://www.bohemiancoding.com/sketch -->
    <title>img_map</title>
    <desc>Created with Sketch.</desc>
    <defs></defs>
    <g id="Page-1" stroke="none" stroke-width="1" fill="none" fill-rule="evenodd">
        <g id="img_map">
            <polygon id="Fill-1" fill="#FEFEFE" points="0.508064516 80.6873167 349.645894 80.6873167 349.645894 77.0487537 0.508064516 77.0487537"></polygon>
            <polygon id="Fill-2" fill="#FEFEFE" points="0.508064516 205.355572 349.645894 205.355572 349.645894 201.717009 0.508064516 201.717009"></polygon>
            <polygon id="Fill-3" fill="#FEFEFE" points="267.575513 269.299853 274.852639 269.299853 274.852639 0.174486804 267.575513 0.174486804"></polygon>
            <polygon id="Fill-4" fill="#FEFEFE" points="98.7646628 269.299853 102.40066 269.299853 102.40066 0.174486804 98.7646628 0.174486804"></polygon>
            <polygon id="Fill-5" fill="#FEFEFE" points="62.8383431 269.299853 66.4743402 269.299853 66.4743402 77.1565249 62.8383431 77.1565249"></polygon>
            <polygon id="Fill-6" fill="#FEFEFE" points="169.005865 150.289589 172.641862 150.289589 172.641862 79.0835777 169.005865 79.0835777"></polygon>
            <polygon id="Fill-7" fill="#FEFEFE" points="64.2342375 122.600073 41.0300587 122.600073 41.0300587 79.7250733 44.6660557 79.7250733 44.6660557 118.96151 64.2342375 118.96151"></polygon>
            <g id="Group-34" transform="translate(179.516129, 18.218475)" fill="#FEFEFE">
                <path d="M10.5528592,82.6934018 C9.89853372,84.3972141 9.20058651,86.2318915 7.62507331,88.1409824 C6.12397361,89.9756598 4.50997067,90.8506598 3.63497067,91.3304985 L2.04919355,90.0475073 C4.56642229,88.8671554 7.1606305,86.9914223 8.66173021,82.5907625 L0.909897361,82.5907625 L0.909897361,80.8869501 L9.13900293,80.8869501 C9.31605572,80.8869501 9.47514663,80.7714809 9.62140762,80.6534457 L11.0634897,81.9646628 C10.8017595,82.213563 10.6708944,82.3880499 10.5528592,82.6934018 Z" id="Fill-8"></path>
                <path d="M17.1230572,85.2719575 C16.7869135,88.5923387 16.1916056,89.9471774 14.1080279,91.6792155 L12.7531891,90.9222507 C15.0112537,89.3210777 15.6527493,87.966239 15.6527493,84.761327 L17.0666056,84.8485704 C17.2103006,84.8639663 17.3411657,84.9204179 17.3411657,85.0076613 C17.3411657,85.1256965 17.2256965,85.20011 17.1230572,85.2719575 M18.2726173,87.9816349 L17.2103006,87.0630132 C18.1853739,86.2906525 18.9577346,85.3284091 19.3965176,84.5124267 L11.9654326,84.5124267 L11.9654326,83.160154 L19.4683651,83.160154 C19.773717,83.160154 20.0226173,83.0729106 20.2561217,82.867632 C20.7051686,83.3782625 21.2004032,83.8734971 21.3902859,83.9889663 C20.7487903,85.3001833 19.5992302,86.8577346 18.2726173,87.9816349" id="Fill-10"></path>
                <path d="M28.211437,87.063783 C26.5076246,85.9989003 24.2803519,85.2881232 23.1718475,84.9802053 L23.536217,83.4072581 C25.13739,83.8024194 27.4673021,84.6722874 28.5886364,85.3881965 L28.211437,87.063783 Z M28.7656891,83.2019795 C26.9592375,82.0241935 24.8602639,81.3826979 22.7484604,80.9901026 L23.0255865,79.327346 C25.2400293,79.7225073 27.5853372,80.6257331 29.1865103,81.4699413 L28.7656891,83.2019795 Z M29.2583578,92.1444282 C27.0901026,90.7331378 24.8038123,89.6708211 22.0941349,88.8830645 L22.5303519,87.2664956 C25.9225806,88.1568915 28.0934018,89.3064516 29.7843842,90.3251466 L29.2583578,92.1444282 Z" id="Fill-12"></path>
                <path d="M39.5027859,80.3480938 C39.3129032,80.5379765 39.3129032,80.5815982 39.3129032,80.9895894 C39.2975073,81.1204545 39.3282991,81.777346 39.3282991,81.9210411 C39.3282991,84.7615836 39.2975073,85.9111437 38.8304985,87.325 C37.9708944,89.9038123 36.0797654,90.9815249 34.5632698,91.7513196 L33.2956745,90.3400293 C36.282478,89.1622434 37.5346774,87.7766129 37.5346774,83.3785191 C37.5346774,83.0295455 37.5064516,81.0049853 37.4320381,79.8400293 L39.2975073,79.9401026 C39.3693548,79.9401026 39.6618768,79.9554985 39.6618768,80.1299853 C39.6618768,80.173607 39.6490469,80.2326246 39.5027859,80.3480938 M33.4573314,80.4507331 C33.2392229,80.61239 33.223827,80.6252199 33.223827,80.6688416 L33.223827,86.8169355 L31.4917889,86.8169355 L31.4917889,79.9401026 L33.223827,80.0837977 C33.3418622,80.0991935 33.6010264,80.1145894 33.6010264,80.2454545 C33.6010264,80.3173021 33.516349,80.3917155 33.4573314,80.4507331" id="Fill-14"></path>
                <polygon id="Fill-16" points="40.9171554 86.6096041 51.2734604 86.6096041 51.2734604 84.7595308 40.9171554 84.7595308"></polygon>
                <path d="M62.7344208,83.4652493 C62.3700513,83.8142229 60.3018695,85.8978006 58.4979839,87.8197214 C59.0471041,88.4740469 59.3421921,88.8409824 59.7193915,89.4362903 L58.2490836,90.6166422 C57.1559751,88.607478 55.7292889,87.1782258 54.5771628,86.2467742 L55.713893,85.11261 C56.2655792,85.548827 56.6915323,85.9260264 57.317632,86.5367302 C58.4517962,85.402566 59.2806085,84.5429619 60.2736437,83.4806452 L52.0727639,83.4806452 L52.0727639,81.8332845 L61.5104472,81.8332845 C61.7157258,81.8332845 61.9466642,81.6741935 62.1955645,81.5125367 L63.4041422,82.926393 C63.1116202,83.1445015 62.8935117,83.3189883 62.7344208,83.4652493" id="Fill-18"></path>
                <polygon id="Fill-19" points="63.9725073 86.6096041 74.3288123 86.6096041 74.3288123 84.7595308 63.9725073 84.7595308"></polygon>
                <path d="M82.3752199,88.0383431 C81.2949413,87.032478 79.8400293,85.8521261 78.0925953,85.1259531 L78.0925953,91.4177419 L76.3733871,91.4177419 L76.3733871,79.881085 L78.1208211,80.186437 C78.1644428,80.2018328 78.4723607,80.2454545 78.4723607,80.4199413 C78.4723607,80.5071848 78.0925953,80.7406891 78.0925953,80.8151026 L78.0925953,84.6461144 L78.7777126,83.5684018 C79.5192815,83.8891496 79.9991202,84.0764663 81.2538856,84.8924487 C82.4034457,85.6494135 82.9423021,86.1318182 83.5247801,86.6398827 L82.3752199,88.0383431 Z" id="Fill-20"></path>
                <path d="M108.6614,83.3048754 C108.135374,84.7187317 107.496444,86.4071481 106.067192,88.2418255 C104.596884,90.1355205 103.052163,91.1105938 102.120711,91.6956378 L100.532368,90.6025293 C101.43816,90.1201246 103.360081,89.1322214 105.092119,86.7997434 C106.344318,85.111327 106.783101,83.7564883 107.01404,82.9687317 L103.285667,82.9687317 C102.790433,83.6820748 101.989846,84.8059751 100.516972,86.2198314 L99.077456,85.2267962 C101.158468,83.5537757 102.513306,81.3829545 103.095784,79.6329545 L104.596884,80.2026026 C104.684128,80.2333944 104.974084,80.3642595 104.974084,80.5079545 C104.974084,80.6259897 104.814993,80.6542155 104.61228,80.7106672 C104.525037,80.9313416 104.347984,81.2212977 104.204289,81.4984238 L107.465652,81.4984238 C107.642705,81.4984238 107.873644,81.3675587 108.107148,81.2212977 L109.2875,82.6069282 C108.994978,82.8096408 108.77687,82.9995235 108.6614,83.3048754" id="Fill-21"></path>
                <path d="M120.03794,90.8650293 C118.711327,89.2330645 117.677236,88.1835777 116.481488,87.2239003 C115.316532,88.5197214 114.23882,89.6282258 111.503482,90.9651026 L110.220491,89.6384897 C111.167339,89.2330645 113.017412,88.4607038 114.864919,86.4951613 C116.440433,84.8221408 117.007515,83.3467009 117.341092,82.5178886 L111.793438,82.5178886 L111.793438,80.8294721 L118.069831,80.8294721 C118.346957,80.8294721 118.567632,80.6832111 118.826796,80.5087243 L119.950696,81.7455279 C119.66074,81.9482405 119.339993,82.1971408 119.16294,82.6205279 C118.667705,83.7854839 118.390579,84.4552053 117.474523,85.8844575 C118.885814,86.9467742 120.138013,88.1835777 121.333761,89.4819648 L120.03794,90.8650293 Z" id="Fill-22"></path>
                <path d="M131.036254,80.3480938 C130.846371,80.5379765 130.846371,80.5815982 130.846371,80.9895894 C130.830975,81.1204545 130.861767,81.777346 130.861767,81.9210411 C130.861767,84.7615836 130.830975,85.9111437 130.363966,87.325 C129.504362,89.9038123 127.613233,90.9815249 126.096738,91.7513196 L124.829142,90.3400293 C127.815946,89.1622434 129.068145,87.7766129 129.068145,83.3785191 C129.068145,83.0295455 129.039919,81.0049853 128.965506,79.8400293 L130.830975,79.9401026 C130.902823,79.9401026 131.195345,79.9554985 131.195345,80.1299853 C131.195345,80.173607 131.182515,80.2326246 131.036254,80.3480938 M124.990799,80.4507331 C124.772691,80.61239 124.757295,80.6252199 124.757295,80.6688416 L124.757295,86.8169355 L123.025257,86.8169355 L123.025257,79.9401026 L124.757295,80.0837977 C124.87533,80.0991935 125.134494,80.1145894 125.134494,80.2454545 C125.134494,80.3173021 125.049817,80.3917155 124.990799,80.4507331" id="Fill-23"></path>
                <path d="M135.767155,83.1596408 C134.733065,84.15011 134.312243,85.5049487 134.312243,86.3927786 C134.312243,87.5731305 134.979399,88.1838343 135.243695,88.1838343 C136.00066,88.1838343 137.252859,84.3836144 137.542815,82.110154 C137.119428,82.253849 136.465103,82.4745235 135.767155,83.1596408 M143.603666,88.7688783 C142.510557,90.3828812 140.996628,91.0115469 140.208871,91.3322947 L139.133724,89.831195 C139.785484,89.6387463 140.863196,89.3333944 141.753592,88.2710777 C142.641422,87.2241569 142.800513,86.0130132 142.800513,85.3715176 C142.800513,84.5734971 142.567009,83.5958578 141.753592,82.8234971 C140.837537,81.9484971 139.816276,81.8920455 139.277419,81.8484238 C138.812977,85.315066 137.953372,87.355022 137.470968,88.3300953 C137.032185,89.2333211 136.362463,90.4572947 135.608065,90.4572947 C135.082038,90.4572947 132.693109,89.1460777 132.693109,86.5364736 C132.693109,83.3059018 135.359164,80.3627199 139.118328,80.3627199 C142.146188,80.3627199 144.535117,82.4155059 144.535117,85.6666056 C144.535117,86.9470308 144.142522,87.9657258 143.603666,88.7688783" id="Fill-24"></path>
                <path d="M106.022801,97.7485337 C105.992009,97.7947214 105.820088,97.9384164 105.804692,97.997434 C105.7739,98.0256598 105.717449,99.0469208 105.686657,99.2342375 C105.193988,103.401393 102.730645,105.220674 101.958284,105.790323 L100.400733,104.871701 C103.47478,102.744501 104.157331,100.429985 104.041862,97.3995601 L105.74824,97.4868035 C106.053592,97.4996334 106.094648,97.4996334 106.094648,97.6176686 C106.094648,97.6612903 106.066422,97.6920821 106.022801,97.7485337 M107.303226,101.304985 L105.950953,100.152859 C106.851613,99.3214809 107.829252,98.3335777 108.601613,97.0069648 L99.4821114,97.0069648 L99.4821114,95.4340176 L109.284164,95.4340176 C109.476613,95.4340176 109.710117,95.2159091 109.794795,95.1132698 L111.134238,96.4681085 C110.420894,97.5150293 108.891569,99.744868 107.303226,101.304985" id="Fill-25"></path>
                <path d="M119.887573,98.5655425 L119.987647,104.100367 C120.018438,105.935044 119.071591,106.096701 117.090652,106.109531 L116.377309,104.318475 C116.551796,104.346701 117.031635,104.418548 117.483248,104.418548 C118.081122,104.418548 118.240213,104.274853 118.240213,103.982331 L118.183761,100.03585 C117.003409,101.770455 115.212353,103.197141 113.449523,104.333871 L112.181928,103.066276 C114.439993,101.988563 116.159201,100.253959 117.206122,98.5655425 L112.664333,98.5655425 L112.664333,97.0079912 L118.137573,97.0079912 L118.081122,94.2521261 L119.769538,94.3419355 C119.856782,94.3419355 120.105682,94.3547654 120.105682,94.5318182 C120.105682,94.5728739 120.090286,94.6190616 119.987647,94.6909091 C119.828556,94.8063783 119.80033,94.8371701 119.80033,94.9090176 L119.856782,97.0079912 L122.799963,97.0079912 L122.799963,98.5655425 L119.887573,98.5655425 Z" id="Fill-26"></path>
                <path d="M130.870748,101.522324 L131.671334,106.051283 L129.982918,106.387427 L129.197727,101.740433 L124.46349,102.351136 L124.242815,100.762793 L128.918035,100.152089 L128.597287,98.2737903 L125.074194,98.7407991 L124.868915,97.2243035 L128.353519,96.7880865 L127.89934,94.1810484 L129.428666,94.091239 C129.749413,94.0809751 129.864883,94.1220308 129.864883,94.2375 C129.864883,94.2990836 129.618548,94.5582478 129.633944,94.6300953 L129.982918,96.5545821 L133.159604,96.1465909 L133.377713,97.6605205 L130.244648,98.0685117 L130.580792,99.9339809 L134.817229,99.3797287 L135.022507,100.983468 L130.870748,101.522324 Z" id="Fill-27"></path>
                <path d="M109.739113,4.66162023 C109.374743,5.01059384 107.306562,7.09417155 105.502676,9.01609238 C106.051796,9.67041789 106.346884,10.0373534 106.724084,10.6326613 L105.253776,11.8130132 C104.160667,9.80384897 102.733981,8.37459677 101.581855,7.44314516 L102.718585,6.30898094 C103.270271,6.74519795 103.696224,7.12239736 104.322324,7.73310117 C105.456488,6.59893695 106.285301,5.73933284 107.278336,4.67701613 L99.077456,4.67701613 L99.077456,3.02965543 L108.515139,3.02965543 C108.720418,3.02965543 108.951356,2.87056452 109.200257,2.70890762 L110.408834,4.12276393 C110.116312,4.34087243 109.898204,4.51535924 109.739113,4.66162023" id="Fill-28"></path>
                <path d="M120.606818,4.50124633 C120.080792,5.91510264 119.441862,7.60351906 118.01261,9.43819648 C116.542302,11.3318915 114.997581,12.3069648 114.066129,12.8920088 L112.477786,11.7989003 C113.383578,11.3164956 115.305499,10.3285924 117.037537,7.99611437 C118.289736,6.30769795 118.728519,4.95285924 118.959457,4.16510264 L115.231085,4.16510264 C114.73585,4.87844575 113.932698,6.00234604 112.46239,7.41620235 L111.022874,6.42316716 C113.103886,4.75014663 114.458724,2.57932551 115.041202,0.829325513 L116.542302,1.39897361 C116.629545,1.4297654 116.919501,1.5606305 116.919501,1.70432551 C116.919501,1.8223607 116.760411,1.85058651 116.557698,1.90703812 C116.470455,2.12771261 116.293402,2.41766862 116.149707,2.69479472 L119.41107,2.69479472 C119.588123,2.69479472 119.819062,2.56392962 120.052566,2.41766862 L121.232918,3.80329912 C120.940396,4.00601173 120.722287,4.19589443 120.606818,4.50124633" id="Fill-29"></path>
                <path d="M131.647471,3.32089443 C131.254875,2.81282991 130.803262,2.36121701 130.295198,2.00967742 L131.052163,1.36818182 C131.575623,1.7351173 132.01184,2.17133431 132.404435,2.67939883 L131.647471,3.32089443 Z M129.943658,4.26774194 C129.535667,3.72888563 129.09945,3.32089443 128.632441,2.98475073 L129.435594,2.34582111 C129.900037,2.67939883 130.336254,3.08739003 130.744245,3.62624633 L129.943658,4.26774194 Z M129.522837,9.26370968 C128.270638,8.09875367 126.885007,7.04926686 125.31206,6.39494135 L125.31206,12.6148827 L123.521004,12.6148827 L123.521004,1.07822581 L125.327456,1.39897361 C125.355682,1.39897361 125.67643,1.45542522 125.67643,1.63247801 C125.67643,1.71972141 125.31206,1.95322581 125.31206,2.02507331 L125.31206,5.79706745 L125.981782,4.77580645 C127.934494,5.62258065 129.435594,6.71312317 130.672397,7.80623167 L129.522837,9.26370968 Z" id="Fill-30"></path>
                <path d="M139.876833,5.76909824 C139.453446,9.64373167 138.360337,11.2166789 135.217009,13.0667522 L133.728739,11.6221041 C136.510264,10.2852273 137.646994,9.04329179 138.085777,5.76909824 L132.797287,5.76909824 L132.797287,4.07811584 L138.201246,4.07811584 C138.229472,3.01579912 138.201246,1.77642962 138.070381,0.829582111 L140.023094,1.06308651 C140.225806,1.0938783 140.459311,1.13493402 140.459311,1.28119501 C140.459311,1.3556085 140.110337,1.61733871 140.048754,1.70458211 C140.023094,1.74820381 140.023094,1.8226173 140.023094,2.41792522 C140.023094,2.44615103 140.007698,3.32115103 139.992302,4.07811584 L144.392962,4.07811584 L144.392962,5.76909824 L139.876833,5.76909824 Z" id="Fill-31"></path>
                <path d="M152.74934,11.6829179 L151.512537,10.7206745 L151.512537,1.8808651 L153.203519,2.08357771 C153.334384,2.09897361 153.608944,2.12719941 153.608944,2.27346041 C153.608944,2.32991202 153.580718,2.37353372 153.447287,2.49156891 C153.447287,2.50696481 153.275367,2.65065982 153.275367,2.66605572 L153.275367,9.03225806 C154.527566,8.34714076 156.187757,6.71260997 157.119208,5.30388563 L158.109677,6.77419355 C156.682991,8.69611437 154.49934,10.7052786 152.74934,11.6829179 M150.055059,2.60703812 C149.952419,2.69428152 149.952419,2.72507331 149.952419,2.79692082 C149.952419,5.52199413 149.952419,5.74010264 149.880572,6.38159824 C149.531598,9.39406158 147.796994,10.8233138 146.734677,11.667522 L145.118109,10.4871701 C146.516569,9.67118768 148.235777,8.43181818 148.235777,4.80608504 C148.235777,3.45124633 148.133138,2.49156891 148.076686,2.05278592 L149.83695,2.17082111 C150.101246,2.18621701 150.257771,2.22727273 150.257771,2.38892962 C150.257771,2.44538123 150.232111,2.46077713 150.055059,2.60703812" id="Fill-32"></path>
                <path d="M167.987427,3.32089443 C167.594831,2.81282991 167.143218,2.36121701 166.635154,2.00967742 L167.392119,1.36818182 C167.915579,1.7351173 168.351796,2.17133431 168.744391,2.67939883 L167.987427,3.32089443 Z M166.283614,4.26774194 C165.875623,3.72888563 165.439406,3.32089443 164.972397,2.98475073 L165.77555,2.34582111 C166.239993,2.67939883 166.67621,3.08739003 167.084201,3.62624633 L166.283614,4.26774194 Z M165.862793,9.26370968 C164.610594,8.09875367 163.224963,7.04926686 161.652016,6.39494135 L161.652016,12.6148827 L159.86096,12.6148827 L159.86096,1.07822581 L161.667412,1.39897361 C161.695638,1.39897361 162.016386,1.45542522 162.016386,1.63247801 C162.016386,1.71972141 161.652016,1.95322581 161.652016,2.02507331 L161.652016,5.79706745 L162.321738,4.77580645 C164.27445,5.62258065 165.77555,6.71312317 167.012353,7.80623167 L165.862793,9.26370968 Z" id="Fill-33"></path>
            </g>
            <g id="Group-41" transform="translate(195.527859, 4.670088)" fill="#FEFEFE">
                <path d="M9.14259531,13.3200147 L12.0267595,13.3200147 L12.0267595,12.6348974 L9.14259531,12.6348974 L9.14259531,13.3200147 Z M9.14259531,11.5854106 L12.0267595,11.5854106 L12.0267595,10.9156891 L9.14259531,10.9156891 L9.14259531,11.5854106 Z M5.67595308,8.28042522 L10.7155425,8.28042522 L10.7155425,7.52089443 L5.67595308,7.52089443 L5.67595308,8.28042522 Z M4.42375367,13.3200147 L7.30791789,13.3200147 L7.30791789,12.6348974 L4.42375367,12.6348974 L4.42375367,13.3200147 Z M4.42375367,11.5854106 L7.30791789,11.5854106 L7.30791789,10.9156891 L4.42375367,10.9156891 L4.42375367,11.5854106 Z M4.36730205,6.03519062 L12.0883431,6.03519062 L12.0883431,4.9138563 L4.36730205,4.9138563 L4.36730205,6.03519062 Z M4.13379765,9.28372434 L12.2602639,9.28372434 L12.2602639,6.53042522 L4.13379765,6.53042522 L4.13379765,9.28372434 Z M12.0267595,14.6722874 L12.0267595,14.4105572 L4.42375367,14.4105572 L4.42375367,14.7749267 L2.76612903,14.7749267 L2.76612903,9.82258065 L13.6869501,9.82258065 L13.6869501,14.6722874 L12.0267595,14.6722874 Z M12.7401026,5.90432551 L12.7401026,4.4186217 L3.75403226,4.4186217 L3.75403226,5.91972141 L2.16568915,5.91972141 L2.16568915,3.07917889 L7.29252199,3.07917889 L7.29252199,2.16055718 L8.7936217,2.19134897 C9.3914956,2.20417889 9.53519062,2.24780059 9.53519062,2.42228739 C9.53519062,2.51209677 9.46334311,2.55315249 9.41972141,2.58394428 C9.21444282,2.71480938 9.1733871,2.74303519 9.1733871,2.84567449 L9.1733871,3.07917889 L14.3156158,3.07917889 L14.3156158,5.90432551 L12.7401026,5.90432551 Z" id="Fill-35"></path>
                <path d="M27.9589443,5.27719941 C27.9435484,5.29259531 27.7998534,5.37983871 27.7998534,5.45168622 L27.7998534,14.3530792 L25.9908358,14.3530792 L25.9908358,13.5370968 L18.0106305,13.5370968 L18.0106305,14.4993402 L16.2349707,14.4993402 L16.2349707,4.73834311 L18.082478,4.82558651 C18.2749267,4.8409824 18.377566,4.91282991 18.377566,5.04369501 C18.377566,5.13093842 18.2595308,5.20535191 18.1851173,5.24897361 C18.1286657,5.29259531 18.0106305,5.36444282 18.0106305,5.43629032 L18.0106305,11.8743402 L21.143695,11.8743402 L21.143695,2.24677419 L23.03739,2.39303519 C23.183651,2.40843109 23.3427419,2.43922287 23.3427419,2.61370968 C23.3427419,2.71378299 23.1964809,2.77280059 23.1374633,2.81642229 C23.0656158,2.84721408 22.9347507,2.91906158 22.9347507,2.99090909 L22.9347507,11.8743402 L25.9908358,11.8743402 L25.9908358,4.753739 L27.9153226,4.88460411 C28.0615836,4.9 28.148827,4.92822581 28.148827,5.04369501 C28.148827,5.14633431 28.0307918,5.23357771 27.9589443,5.27719941" id="Fill-37"></path>
                <path d="M36.7969575,5.39497801 L36.7969575,6.77804252 L40.8922654,6.77804252 L40.8922654,11.8894795 C40.8922654,13.2160924 40.073717,13.5368402 38.1954179,13.567632 L37.5693182,11.9356672 C37.8464443,11.963893 38.0799487,11.963893 38.4135264,11.963893 C39.055022,11.963893 39.1576613,11.8638196 39.1576613,11.3968109 L39.1576613,8.30736804 L36.7969575,8.30736804 L36.7969575,15.0789956 L34.9905059,15.0789956 L34.9905059,8.30736804 L32.5605205,8.30736804 L32.5605205,13.5778959 L30.8105205,13.5778959 L30.8105205,6.77804252 L34.9905059,6.77804252 L34.9905059,5.39497801 L29.6173387,5.39497801 L29.6173387,3.8502566 L34.9905059,3.8502566 L34.9905059,2.22085777 L36.868805,2.34915689 C36.9432185,2.34915689 37.0612537,2.37994868 37.0612537,2.48002199 C37.0612537,2.51081378 37.0612537,2.5672654 36.9868402,2.64167889 C36.8123534,2.81616569 36.7969575,2.84695748 36.7969575,2.8880132 L36.7969575,3.8502566 L42.1418988,3.8502566 L42.1418988,5.39497801 L36.7969575,5.39497801 Z" id="Fill-38"></path>
                <path d="M52.8620601,14.7318182 L52.2641862,13.0562317 C52.438673,13.0844575 52.7440249,13.1126833 53.2520894,13.1126833 C53.7062683,13.1126833 53.9551686,13.0716276 53.9551686,12.6482405 L53.9551686,6.18196481 L50.4705645,6.18196481 C50.8657258,7.91400293 51.6355205,9.44332845 53.8781891,10.5210411 L52.5977639,11.701393 C51.2891129,10.9162023 50.5013563,10.1438416 49.6853739,8.52470674 C48.943805,9.95395894 48.1124267,10.8289589 46.8448314,11.8168622 L45.5490103,10.6365103 C47.5453446,9.43049853 48.3459311,8.07309384 48.6949047,6.18196481 L45.4899927,6.18196481 L45.4899927,14.5727273 L43.8451979,14.5727273 L43.8451979,4.5936217 L48.8129399,4.5936217 C48.8129399,3.04890029 48.797544,2.77434018 48.7667522,2.24831378 L50.7194648,2.32016129 C50.8067082,2.32016129 50.8939516,2.38174487 50.8939516,2.46642229 C50.8939516,2.58445748 50.7784824,2.64090909 50.7194648,2.68709677 C50.544978,2.78717009 50.5013563,2.88980938 50.5013563,2.96165689 C50.4859604,3.04890029 50.4859604,4.32932551 50.4859604,4.5936217 L55.5409457,4.5936217 L55.5409457,13.2307185 C55.5409457,14.5265396 54.9456378,14.7318182 52.8620601,14.7318182" id="Fill-39"></path>
                <polygon id="Fill-40" points="65.9524194 5.88867302 63.9432551 5.88867302 63.9432551 14.8465176 63.0682551 14.8465176 63.0682551 5.88867302 61.0590909 5.88867302 63.5044721 1.75487537"></polygon>
            </g>
            <g id="Group-57" transform="translate(223.753666, 58.555718)" fill="#FEFEFE">
                <path d="M6.32771261,173.347507 L8.99376833,173.347507 L8.99376833,172.559751 L6.32771261,172.559751 L6.32771261,173.347507 Z M5.7170088,168.161657 L9.50439883,168.161657 L9.50439883,167.345674 L5.7170088,167.345674 L5.7170088,168.161657 Z M6.32771261,174.43805 L6.32771261,174.976906 L4.85740469,174.976906 L4.85740469,171.584677 L10.4794721,171.584677 L10.4794721,174.43805 L6.32771261,174.43805 Z M4.08504399,169.198314 L11.1184018,169.198314 L11.1184018,166.298754 L4.08504399,166.298754 L4.08504399,169.198314 Z M11.806085,176.144428 L11.0183284,176.144428 L10.3640029,174.671554 C10.4794721,174.671554 10.931085,174.702346 11.1081378,174.702346 C11.5571848,174.702346 11.659824,174.671554 11.659824,174.219941 L11.659824,170.943182 L3.53079179,170.943182 L3.53079179,175.954545 L1.90139296,175.954545 L1.90139296,169.778226 L13.3046188,169.778226 L13.3046188,174.964076 C13.3046188,175.633798 12.7375367,176.144428 11.806085,176.144428 L11.806085,176.144428 Z M1.44978006,165.71371 L1.44978006,164.417889 L6.75109971,164.417889 L6.75109971,163.370968 L8.51392962,163.517229 C8.57038123,163.517229 8.86546921,163.530059 8.86546921,163.660924 C8.86546921,163.735337 8.78848974,163.791789 8.70381232,163.837977 C8.60117302,163.909824 8.55498534,163.953446 8.55498534,164.009897 L8.55498534,164.417889 L13.7870235,164.417889 L13.7870235,165.71371 L1.44978006,165.71371 Z" id="Fill-42"></path>
                <path d="M27.3726173,166.500696 C27.3572214,166.516092 27.2135264,166.603336 27.2135264,166.675183 L27.2135264,175.57401 L25.4045088,175.57401 L25.4045088,174.760594 L17.4243035,174.760594 L17.4243035,175.722837 L15.6486437,175.722837 L15.6486437,165.96184 L17.496151,166.049084 C17.6885997,166.064479 17.791239,166.136327 17.791239,166.267192 C17.791239,166.354435 17.6732038,166.428849 17.5987903,166.472471 C17.5423387,166.516092 17.4243035,166.58794 17.4243035,166.659787 L17.4243035,173.097837 L20.557368,173.097837 L20.557368,163.470271 L22.451063,163.616532 C22.597324,163.631928 22.756415,163.66272 22.756415,163.837207 C22.756415,163.93728 22.610154,163.996298 22.5511364,164.039919 C22.4792889,164.070711 22.3484238,164.142559 22.3484238,164.214406 L22.3484238,173.097837 L25.4045088,173.097837 L25.4045088,165.977236 L27.3289956,166.108101 C27.4752566,166.123497 27.5625,166.151723 27.5625,166.267192 C27.5625,166.369831 27.4444648,166.457075 27.3726173,166.500696" id="Fill-44"></path>
                <polygon id="Fill-45" points="32.8327713 172.269025 34.8419355 172.269025 34.8419355 163.31118 35.7169355 163.31118 35.7169355 172.269025 37.7260997 172.269025 35.2781525 176.405389"></polygon>
                <path d="M54.2428152,13.0103006 L54.2428152,11.3937317 L59.3131965,11.3937317 L59.3131965,0.965579179 L61.276173,1.12467009 C61.3634164,1.12467009 61.4968475,1.17085777 61.4968475,1.28632698 C61.4968475,1.40436217 61.4096041,1.44541789 61.3377566,1.49160557 C61.2479472,1.53266129 61.1196481,1.59167889 61.1196481,1.66352639 L61.1196481,5.23280792 L65.8384897,5.23280792 L65.8384897,6.92379032 L61.1196481,6.92379032 L61.1196481,11.3937317 L66.7853372,11.3937317 L66.7853372,13.0103006 L54.2428152,13.0103006 Z" id="Fill-46"></path>
                <path d="M69.4919355,4.2877566 L79.191349,4.2877566 L79.191349,2.37866569 L69.4919355,2.37866569 L69.4919355,4.2877566 Z M68.1653226,11.9908358 L80.5153959,11.9908358 L80.5153959,10.0843109 L68.1653226,10.0843109 L68.1653226,11.9908358 Z" id="Fill-47"></path>
                <path d="M93.6070381,2.08742669 C93.3735337,2.11565249 93.3453079,2.11565249 93.2708944,2.19006598 C93.0835777,2.3773827 92.3548387,3.03427419 92.021261,3.3396261 C91.8159824,3.5295088 90.5509531,4.62005132 88.8881965,5.36418622 L87.6359971,4.0247434 C89.7170088,3.32423021 90.8691349,2.32093109 92.0931085,0.835227273 L93.3735337,1.62041789 C93.5197947,1.71022727 93.7250733,1.85392229 93.7250733,1.9693915 C93.7250733,2.03097507 93.6788856,2.08742669 93.6070381,2.08742669 M94.7565982,9.22342375 C94.7155425,9.23881965 94.5230938,9.25421554 94.4820381,9.26704545 C94.4230205,9.26704545 93.1400293,10.4627933 92.8808651,10.6809018 C90.8101173,12.3693182 88.8317449,13.0416056 87.9105572,13.3469575 L86.3837977,11.963893 C87.4178886,11.817632 88.4802053,11.671371 90.561217,10.3011364 C92.1931818,9.23881965 92.7320381,8.55626833 93.332478,7.78390762 L94.5846774,8.74358504 C94.6257331,8.78720674 94.8438416,8.96169355 94.8438416,9.07972874 C94.8438416,9.13618035 94.8181818,9.19519795 94.7565982,9.22342375 M94.058651,5.51044721 C94.0150293,5.52584311 93.8123167,5.53867302 93.766129,5.55406891 C93.6788856,5.58229472 91.8878299,7.34512463 91.4952346,7.63508065 C89.8068182,8.88728006 88.9908358,9.19519795 88.3185484,9.42613636 L87.1843842,8.33559384 L86.7456012,8.77181085 C86.2375367,8.42283724 85.8141496,7.95582845 85.5960411,7.70692815 L85.5960411,13.4495968 L83.9230205,13.4495968 L83.9230205,8.65634164 C83.5432551,9.32606305 82.9890029,10.0394062 82.5502199,10.4781891 L81.1260997,9.58779326 C81.7214076,8.90267595 82.3064516,8.23552053 82.9890029,6.74725073 C83.4714076,5.71315982 83.5432551,5.18969941 83.6304985,4.63544721 L81.9395161,4.63544721 L81.9395161,2.94703079 L83.9230205,2.94703079 L83.9230205,0.791605572 L85.306085,0.876282991 C85.5087977,0.891678886 85.9321848,0.937866569 85.9321848,1.14057918 C85.9321848,1.19703079 85.901393,1.22782258 85.8449413,1.27144428 C85.6422287,1.40230938 85.5960411,1.43053519 85.5960411,1.53317449 L85.5960411,2.94703079 L87.5923754,2.94703079 L87.5923754,4.63544721 L85.5960411,4.63544721 L85.5960411,4.8997434 C86.0040323,5.97745601 86.5120968,6.60355572 87.941349,7.55040323 L87.5487537,7.91477273 C88.1748534,7.73771994 88.8317449,7.55040323 90.0377566,6.69079912 C91.2771261,5.81579912 91.9750733,4.99981672 92.6319648,4.24285191 L93.7815249,5.04343842 C93.8405425,5.08706012 94.1022727,5.27694282 94.1022727,5.42320381 C94.1022727,5.46425953 94.0868768,5.49505132 94.058651,5.51044721" id="Fill-48"></path>
                <path d="M54.2428152,123.35011 L54.2428152,121.733541 L59.3131965,121.733541 L59.3131965,111.305389 L61.276173,111.464479 C61.3634164,111.464479 61.4968475,111.510667 61.4968475,111.626136 C61.4968475,111.744172 61.4096041,111.785227 61.3377566,111.831415 C61.2479472,111.872471 61.1196481,111.931488 61.1196481,112.003336 L61.1196481,115.572617 L65.8384897,115.572617 L65.8384897,117.2636 L61.1196481,117.2636 L61.1196481,121.733541 L66.7853372,121.733541 L66.7853372,123.35011 L54.2428152,123.35011 Z" id="Fill-49"></path>
                <path d="M79.336327,123.88871 C76.4085411,122.097654 75.3744501,120.771041 74.3557551,118.487317 C72.9983504,121.325293 71.6306818,122.754545 69.0980572,123.991349 L67.668805,122.710924 C71.0353739,121.356085 72.3748167,119.418768 73.1163856,116.357551 L68.0614003,116.357551 L68.0614003,114.78717 L73.2934384,114.78717 C73.34989,114.145674 73.34989,113.40154 73.34989,113.183431 C73.34989,112.339223 73.3190982,111.713123 73.2934384,111.246114 L75.2281891,111.348754 C75.3282625,111.348754 75.4770894,111.36415 75.4770894,111.525806 C75.4770894,111.641276 75.3282625,111.769575 75.1999633,111.88761 C75.1717375,112.192962 75.1717375,112.003079 75.1717375,112.731818 C75.1717375,112.862683 75.1409457,114.102053 75.1127199,114.78717 L80.5885264,114.78717 L80.5885264,116.357551 L75.256415,116.357551 C76.1468109,119.154472 77.2809751,120.771041 80.8374267,122.490249 L79.336327,123.88871 Z" id="Fill-50"></path>
                <path d="M93.2862903,123.903849 C92.8500733,123.629289 91.872434,123.016019 90.8691349,121.604729 C89.8632698,120.190872 89.4860704,118.86426 89.2961877,118.23816 C87.9567449,120.465433 85.8295455,122.972397 83.1660557,123.847397 L81.518695,122.489993 C82.244868,122.318072 84.1257331,121.879289 86.0912757,119.708468 C88.0439883,117.568438 88.6854839,115.207735 88.9035924,114.43794 L86.486437,114.43794 C86.2683284,114.871591 85.8141496,115.821004 85.0571848,117.029582 C84.1975806,118.397251 83.6433284,118.879655 83.2943548,119.169611 L81.6187683,118.222764 C83.7895894,116.447104 85.013563,113.840066 85.6268328,111.102163 L87.4589443,111.376723 C87.795088,111.422911 87.8387097,111.494758 87.8387097,111.582001 C87.8387097,111.656415 87.8104839,111.697471 87.7668622,111.728262 C87.7232405,111.756488 87.4589443,111.843732 87.4178886,111.887353 C87.4178886,111.902749 87.1843842,112.644318 87.1381965,112.790579 L90.5201613,112.790579 L91.2617302,113.462867 C91.1308651,113.927309 90.9717742,114.525183 90.6228006,115.472031 C90.4739736,115.877456 90.4739736,115.877456 90.4739736,116.300843 C90.4739736,117.742925 91.3335777,120.568072 94.7565982,122.551576 L93.2862903,123.903849 Z" id="Fill-51"></path>
                <path d="M102.097874,114.845674 L105.81085,114.845674 L105.81085,113.054619 L102.097874,113.054619 L102.097874,114.845674 Z M107.471041,123.07478 C106.742302,122.607771 105.751833,121.92522 104.717742,120.539589 L104.717742,123.716276 L103.060117,123.716276 L103.060117,120.365103 C102.13893,121.748167 101.2511,122.592375 100.378666,123.308284 L99.1546921,122.230572 C100.319648,121.386364 101.2511,120.552419 102.226173,118.982038 L99.3881965,118.982038 L99.3881965,117.552786 L103.060117,117.552786 L103.060117,116.269795 L100.481305,116.269795 L100.481305,111.609971 L107.427419,111.609971 L107.427419,116.269795 L104.717742,116.269795 L104.717742,117.552786 L108.243402,117.552786 L108.243402,118.982038 L105.31305,118.982038 C106.234238,120.144428 107.093842,121.019428 108.635997,121.894428 L107.471041,123.07478 Z M99.6627566,112.297654 C99.4318182,112.354106 99.4035924,112.397727 99.316349,112.615836 C99.1110704,113.080279 98.9648094,113.46261 98.6004399,114.245235 C98.731305,114.335044 98.9211877,114.453079 98.9211877,114.61217 C98.9211877,114.668622 98.877566,114.743035 98.8339443,114.786657 C98.6876833,114.945748 98.6748534,114.961144 98.6748534,115.032991 L98.6748534,123.670088 L97.0736804,123.670088 L97.0736804,116.808651 C96.8658358,117.144795 96.7067449,117.337243 96.5040323,117.552786 L95.1055718,116.695748 C96.5040323,115.166422 97.4791056,113.388196 98.0923754,111.245601 L99.6473607,111.830645 C99.8090176,111.887097 99.896261,111.992302 99.896261,112.092375 C99.896261,112.220674 99.7653959,112.266862 99.6627566,112.297654 L99.6627566,112.297654 Z" id="Fill-52"></path>
                <path d="M58.6203812,139.938673 C57.7607771,138.889186 55.9414956,136.677309 55.9414956,132.974597 C55.9414956,129.26162 57.7607771,127.049743 58.6203812,126.013087 L59.7288856,126.98816 C58.9847507,127.909348 57.4554252,129.800477 57.4554252,132.974597 C57.4554252,136.164113 58.9847507,138.044978 59.7288856,138.961034 L58.6203812,139.938673 Z" id="Fill-53"></path>
                <path d="M64.3563783,128.795381 L62.8424487,128.795381 L62.8424487,134.751026 C64.3563783,133.68871 64.3563783,132.349267 64.3563783,130.66085 L64.3563783,128.795381 Z M71.2896628,128.795381 L68.7108504,128.795381 L68.7108504,132.69824 C68.7108504,133.121628 68.7108504,133.149853 69.1060117,133.149853 C69.6730938,133.149853 69.7013196,132.80088 69.7475073,131.694941 L71.0715543,132.321041 C71.0715543,132.875293 71.0561584,133.791349 70.7071848,134.301979 C70.3428152,134.81261 69.3241202,134.869062 68.5671554,134.869062 C67.0070381,134.869062 67.0070381,134.18651 67.0070381,133.367962 L67.0070381,128.795381 L66.0755865,128.795381 L66.0755865,130.545381 C66.0755865,132.916349 66.0447947,134.432845 63.9791789,136.164883 L62.8424487,135.205205 L62.8424487,136.893622 L71.2896628,136.893622 L71.2896628,128.795381 Z M71.2896628,139.151686 L71.2896628,138.61283 L62.8424487,138.61283 L62.8424487,139.095235 L61.0206012,139.095235 L61.0206012,127.076173 L73.1089443,127.076173 L73.1089443,139.151686 L71.2896628,139.151686 Z" id="Fill-54"></path>
                <path d="M84.5557918,136.763783 C83.9604839,136.0761 83.3189883,135.365323 82.0359971,134.141349 C80.8274194,135.290909 79.9370235,135.976026 78.6258065,136.763783 L77.4351906,135.524413 C78.8593109,134.839296 79.865176,134.05154 80.8428152,133.04824 C79.865176,132.204032 78.8182551,131.316202 77.5506598,130.572067 L78.4821114,129.307038 C79.4597507,129.917742 80.3039589,130.484824 81.9359238,131.824267 C82.5774194,131.039076 83.1419355,130.223094 83.7115836,128.970894 L85.253739,129.771481 C85.3717742,129.830499 85.4153959,129.930572 85.4153959,129.989589 C85.4153959,130.120455 85.2845308,130.13585 85.1972874,130.151246 C84.9329912,130.192302 84.9201613,130.223094 84.7892962,130.441202 C84.381305,131.169941 84.0169355,131.839663 83.1727273,132.886584 C84.4095308,134.010484 85.0792522,134.693035 85.7797654,135.496188 L84.5557918,136.763783 Z M76.8347507,138.729326 L76.8347507,139.152713 L75.1027126,139.152713 L75.1027126,127.164443 L86.854912,127.164443 L86.854912,128.706598 L76.8347507,128.706598 L76.8347507,137.184604 L86.9293255,137.184604 L86.9293255,138.729326 L76.8347507,138.729326 Z" id="Fill-55"></path>
                <path d="M89.3444282,139.938673 L88.2384897,138.961034 C88.9800587,138.044978 90.5093842,136.164113 90.5093842,132.974597 C90.5093842,129.800477 88.9800587,127.909348 88.2384897,126.98816 L89.3444282,126.013087 C90.2040323,127.060007 92.0258798,129.277016 92.0258798,132.974597 C92.0258798,136.687573 90.2040323,138.904582 89.3444282,139.938673" id="Fill-56"></path>
            </g>
            <g id="Group-88" transform="translate(21.656891, 6.312317)">
                <path d="M242.226686,84.2755865 C242.226686,87.2880499 239.783871,89.7308651 236.771408,89.7308651 C233.756378,89.7308651 231.313563,87.2880499 231.313563,84.2755865 C231.313563,81.2631232 233.756378,78.8203079 236.771408,78.8203079 C239.783871,78.8203079 242.226686,81.2631232 242.226686,84.2755865 Z" id="Fill-58" fill="#FEFEFE"></path>
                <path d="M267.585777,84.2755865 C267.585777,87.2880499 265.145528,89.7308651 262.130499,89.7308651 C259.115469,89.7308651 256.672654,87.2880499 256.672654,84.2755865 C256.672654,81.2631232 259.115469,78.8203079 262.130499,78.8203079 C265.145528,78.8203079 267.585777,81.2631232 267.585777,84.2755865" id="Fill-60" fill="#FEFEFE"></path>
                <path d="M267.585777,6.43907625 C267.585777,9.45410557 265.145528,11.8943548 262.130499,11.8943548 C259.115469,11.8943548 256.672654,9.45410557 256.672654,6.43907625 C256.672654,3.4266129 259.115469,0.983797654 262.130499,0.983797654 C265.145528,0.983797654 267.585777,3.4266129 267.585777,6.43907625" id="Fill-62" fill="#FEFEFE"></path>
                <path d="M260.206012,72.1297654 C260.206012,74.5315249 258.240469,76.4945015 255.843842,76.4945015 L242.747067,76.4945015 C240.35044,76.4945015 238.384897,74.5315249 238.384897,72.1297654 C238.384897,69.7280059 240.35044,67.7650293 242.747067,67.7650293 L255.843842,67.7650293 C258.240469,67.7650293 260.206012,69.7280059 260.206012,72.1297654" id="Fill-64" fill="#FEFEFE"></path>
                <path d="M242.747837,68.1278592 C240.543658,68.1278592 238.747471,69.9214809 238.747471,72.1307918 C238.747471,74.3375367 240.543658,76.1311584 242.747837,76.1311584 L255.844611,76.1311584 C258.04879,76.1311584 259.842412,74.3375367 259.842412,72.1307918 C259.842412,69.9214809 258.04879,68.1278592 255.844611,68.1278592 L242.747837,68.1278592 Z M255.844611,76.8573314 L242.747837,76.8573314 C240.140799,76.8573314 238.021298,74.7352639 238.021298,72.1307918 C238.021298,69.5237537 240.140799,67.4016862 242.747837,67.4016862 L255.844611,67.4016862 C258.449084,67.4016862 260.568585,69.5237537 260.568585,72.1307918 C260.568585,74.7352639 258.449084,76.8573314 255.844611,76.8573314 L255.844611,76.8573314 Z" id="Fill-66" fill="#231815"></path>
                <path d="M251.47577,72.1297654 C251.47577,73.3357771 250.500696,74.3134164 249.294685,74.3134164 C248.093805,74.3134164 247.116166,73.3357771 247.116166,72.1297654 C247.116166,70.9237537 248.093805,69.9461144 249.294685,69.9461144 C250.500696,69.9461144 251.47577,70.9237537 251.47577,72.1297654" id="Fill-68" fill="#231815"></path>
                <path d="M245.662023,72.1297654 C245.662023,73.3357771 244.681818,74.3134164 243.475806,74.3134164 C242.274927,74.3134164 241.299853,73.3357771 241.299853,72.1297654 C241.299853,70.9237537 242.274927,69.9461144 243.475806,69.9461144 C244.681818,69.9461144 245.662023,70.9237537 245.662023,72.1297654" id="Fill-70" fill="#231815"></path>
                <path d="M257.299267,72.1297654 C257.299267,73.3357771 256.321628,74.3134164 255.115616,74.3134164 C253.914736,74.3134164 252.937097,73.3357771 252.937097,72.1297654 C252.937097,70.9237537 253.914736,69.9461144 255.115616,69.9461144 C256.321628,69.9461144 257.299267,70.9237537 257.299267,72.1297654" id="Fill-72" fill="#231815"></path>
                <path d="M260.206012,197.434384 C260.206012,199.836144 258.240469,201.79912 255.843842,201.79912 L242.747067,201.79912 C240.35044,201.79912 238.384897,199.836144 238.384897,197.434384 C238.384897,195.030059 240.35044,193.072214 242.747067,193.072214 L255.843842,193.072214 C258.240469,193.072214 260.206012,195.030059 260.206012,197.434384" id="Fill-74" fill="#FEFEFE"></path>
                <path d="M242.747837,193.435044 C240.543658,193.435044 238.747471,195.228666 238.747471,197.435411 C238.747471,199.642155 240.543658,201.435777 242.747837,201.435777 L255.844611,201.435777 C258.04879,201.435777 259.842412,199.642155 259.842412,197.435411 C259.842412,195.228666 258.04879,193.435044 255.844611,193.435044 L242.747837,193.435044 Z M255.844611,202.16195 L242.747837,202.16195 C240.140799,202.16195 238.021298,200.039883 238.021298,197.435411 C238.021298,194.828372 240.140799,192.708871 242.747837,192.708871 L255.844611,192.708871 C258.449084,192.708871 260.568585,194.828372 260.568585,197.435411 C260.568585,200.039883 258.449084,202.16195 255.844611,202.16195 L255.844611,202.16195 Z" id="Fill-76" fill="#231815"></path>
                <path d="M251.47577,197.434384 C251.47577,198.640396 250.500696,199.618035 249.294685,199.618035 C248.093805,199.618035 247.116166,198.640396 247.116166,197.434384 C247.116166,196.228372 248.093805,195.253299 249.294685,195.253299 C250.500696,195.253299 251.47577,196.228372 251.47577,197.434384" id="Fill-78" fill="#231815"></path>
                <path d="M245.662023,197.434384 C245.662023,198.640396 244.681818,199.618035 243.475806,199.618035 C242.274927,199.618035 241.299853,198.640396 241.299853,197.434384 C241.299853,196.228372 242.274927,195.253299 243.475806,195.253299 C244.681818,195.253299 245.662023,196.228372 245.662023,197.434384" id="Fill-80" fill="#231815"></path>
                <path d="M257.299267,197.434384 C257.299267,198.640396 256.321628,199.618035 255.115616,199.618035 C253.914736,199.618035 252.937097,198.640396 252.937097,197.434384 C252.937097,196.228372 253.914736,195.253299 255.115616,195.253299 C256.321628,195.253299 257.299267,196.228372 257.299267,197.434384" id="Fill-82" fill="#231815"></path>
                <polygon id="Fill-84" fill="#EBC900" points="0.556818182 110.732405 18.7419355 110.732405 18.7419355 92.5472874 0.556818182 92.5472874"></polygon>
                <path d="M249.87434,152.6 C248.178226,152.6 246.597581,151.68651 245.745674,150.213636 L239.600147,139.577639 C238.753372,138.109897 238.750806,136.280352 239.600147,134.804912 C240.452053,133.332038 242.035264,132.418548 243.733944,132.418548 L256.017302,132.418548 C257.718548,132.418548 259.299194,133.332038 260.148534,134.802346 C260.997874,136.280352 260.997874,138.109897 260.148534,139.580205 L254.008138,150.21107 C253.156232,151.68651 251.573021,152.6 249.87434,152.6" id="Fill-86" fill="#FEFEFE"></path>
                <path d="M243.735227,132.781122 C242.167412,132.781122 240.702236,133.62533 239.914479,134.987867 C239.131855,136.347837 239.131855,138.036254 239.917045,139.396224 L246.057441,150.034787 C246.847764,151.392192 248.307808,152.2364 249.875623,152.2364 C251.443438,152.2364 252.906048,151.392192 253.696371,150.029655 L259.834201,139.39879 C260.619391,138.03882 260.619391,136.347837 259.831635,134.982735 C259.04901,133.62533 257.583834,132.781122 256.016019,132.781122 L243.735227,132.781122 Z M249.875623,152.962573 C248.05121,152.962573 246.349963,151.977236 245.431342,150.396591 L239.28838,139.758028 C238.372324,138.177383 238.372324,136.209274 239.285814,134.626063 C240.20187,133.040286 241.908248,132.054949 243.735227,132.054949 L256.016019,132.054949 C257.845565,132.054949 259.549377,133.040286 260.462867,134.623497 C261.376356,136.209274 261.376356,138.179949 260.462867,139.760594 L254.322471,150.391459 C253.408981,151.977236 251.700037,152.962573 249.875623,152.962573 L249.875623,152.962573 Z" id="Fill-87" fill="#231815"></path>
            </g>
            <g id="Group-93" transform="translate(264.809384, 140.667155)" fill="#231815">
                <path d="M4.23361437,3.96162023 L2.11924487,8.27503666 L1.7933651,8.76770528 L2.11924487,8.66506598 L4.40810117,8.66506598 L4.40810117,4.28236804 L4.46711877,3.32012463 L4.23361437,3.96162023 Z M5.94255865,10.0789223 L5.94255865,12.3523827 L4.40810117,12.3523827 L4.40810117,10.0789223 L0.872177419,10.0789223 L0.872177419,8.54959677 L4.22335044,1.71895161 L5.94255865,1.71895161 L5.94255865,8.66506598 L7.08185484,8.66506598 L7.08185484,10.0789223 L5.94255865,10.0789223 Z" id="Fill-89"></path>
                <path d="M9.94934018,12.3513563 L9.94934018,4.95106305 L7.64765396,4.95106305 L7.64765396,3.56799853 L8.31994135,3.56799853 C8.93577713,3.56799853 9.91341642,3.10355572 10.1700147,1.71792522 L11.4247801,1.71792522 L11.4247801,12.3513563 L9.94934018,12.3513563 Z" id="Fill-91"></path>
            </g>
        </g>
    </g>
</svg>